<?xml version="1.0" encoding="utf-8"?>
<!-- Generator: Adobe Illustrator 15.1.0, SVG Export Plug-In . SVG Version: 6.00 Build 0)  -->
<!DOCTYPE svg PUBLIC "-//W3C//DTD SVG 1.1//EN" "http://www.w3.org/Graphics/SVG/1.1/DTD/svg11.dtd">
<svg version="1.1" id="Layer_1" xmlns="http://www.w3.org/2000/svg" xmlns:xlink="http://www.w3.org/1999/xlink" x="0px" y="0px"
	 width="14.172px" height="14.172px" viewBox="0 0 14.172 14.172" enable-background="new 0 0 14.172 14.172" xml:space="preserve">
<g enable-background="new    ">
	<path d="M12.518,7.183c0,1.435-0.504,2.657-1.512,3.664c-1.008,1.009-2.23,1.513-3.666,1.513c-1.436,0-2.657-0.504-3.665-1.513
		C2.667,9.84,2.164,8.618,2.164,7.183c0-1.443,0.503-2.667,1.512-3.671c1.008-1.004,2.229-1.507,3.665-1.507
		c1.435,0,2.658,0.503,3.666,1.507C12.014,4.517,12.518,5.74,12.518,7.183z M12.083,7.183c0-1.317-0.462-2.436-1.385-3.358
		C9.778,2.902,8.658,2.441,7.341,2.441c-1.316,0-2.436,0.46-3.358,1.383C3.06,4.747,2.599,5.866,2.599,7.183
		c0,1.316,0.461,2.437,1.384,3.357c0.922,0.923,2.042,1.385,3.358,1.385c1.317,0,2.437-0.462,3.358-1.385
		C11.622,9.62,12.083,8.5,12.083,7.183z M10.912,9.939c-0.06,0.074-0.108,0.111-0.145,0.111H4.194V9.738h2.667V3.969h0.112
		c0.133,0,0.423,0.075,0.87,0.223l0.033,0.034v0.078C7.735,4.438,7.586,4.505,7.43,4.505v1.596h1.673
		c0.276-0.275,0.428-0.414,0.458-0.414c0.059,0,0.193,0.083,0.402,0.246c0.199,0.156,0.326,0.268,0.378,0.334
		c-0.014,0.097-0.065,0.146-0.155,0.146H7.441v3.324h2.142l0.479-0.479c0.156,0.097,0.312,0.193,0.469,0.289
		C10.717,9.667,10.844,9.798,10.912,9.939z"/>
</g>
</svg>
