<?xml version="1.0" encoding="utf-8"?>
<!-- Generator: Adobe Illustrator 15.1.0, SVG Export Plug-In . SVG Version: 6.00 Build 0)  -->
<!DOCTYPE svg PUBLIC "-//W3C//DTD SVG 1.1//EN" "http://www.w3.org/Graphics/SVG/1.1/DTD/svg11.dtd">
<svg version="1.1" id="Layer_1" xmlns="http://www.w3.org/2000/svg" xmlns:xlink="http://www.w3.org/1999/xlink" x="0px" y="0px"
	 width="14.172px" height="14.172px" viewBox="0 0 14.172 14.172" enable-background="new 0 0 14.172 14.172" xml:space="preserve">
<g enable-background="new    ">
	<path d="M11.083,3.806L10.07,3.228L9.562,4.101c0.692,0.512,1.038,1.2,1.038,2.065c0,0.684-0.231,1.271-0.696,1.757
		C9.44,8.411,8.87,8.674,8.194,8.712c-0.142,0.496-0.41,0.91-0.803,1.239c-0.394,0.33-0.849,0.523-1.368,0.579v0.99h1.133v0.566
		H6.023v1.085H5.457v-1.085H4.335v-0.566h1.121v-0.99c-0.645-0.063-1.184-0.337-1.616-0.82C3.408,9.226,3.192,8.655,3.192,7.994
		c0-0.677,0.232-1.258,0.696-1.746c0.464-0.487,1.034-0.75,1.71-0.79c0.149-0.543,0.45-0.985,0.903-1.327
		C6.953,3.789,7.47,3.617,8.052,3.617c0.354,0,0.696,0.071,1.026,0.212l0.507-0.885L8.583,2.367l2.171-0.874L11.083,3.806z
		 M7.616,8.689C7.002,8.58,6.495,8.29,6.094,7.817C5.692,7.344,5.492,6.794,5.492,6.166c0-0.016,0.004-0.063,0.012-0.142
		c-0.495,0.063-0.91,0.281-1.244,0.654C3.925,7.051,3.758,7.491,3.758,7.994c0,0.559,0.193,1.031,0.578,1.416
		C4.722,9.795,5.189,9.988,5.74,9.988c0.433,0,0.817-0.12,1.156-0.36C7.234,9.387,7.474,9.076,7.616,8.689z M7.733,7.994
		c0-0.495-0.157-0.926-0.471-1.291C6.947,6.336,6.55,6.115,6.07,6.035c-0.008,0.063-0.012,0.107-0.012,0.13
		c0,0.495,0.157,0.929,0.471,1.298c0.314,0.369,0.712,0.594,1.191,0.672C7.729,8.073,7.733,8.026,7.733,7.994z M10.034,6.166
		c0-0.55-0.192-1.019-0.578-1.404C9.071,4.376,8.602,4.184,8.052,4.184c-0.433,0-0.818,0.12-1.156,0.359
		c-0.339,0.24-0.579,0.553-0.72,0.938C6.79,5.583,7.297,5.87,7.698,6.342c0.401,0.472,0.602,1.022,0.602,1.651
		c0,0.023-0.004,0.07-0.012,0.142c0.496-0.062,0.91-0.278,1.245-0.648C9.867,7.118,10.034,6.676,10.034,6.166z"/>
</g>
</svg>
