<?xml version="1.0" encoding="utf-8"?>
<!-- Generator: Adobe Illustrator 15.1.0, SVG Export Plug-In . SVG Version: 6.00 Build 0)  -->
<!DOCTYPE svg PUBLIC "-//W3C//DTD SVG 1.1//EN" "http://www.w3.org/Graphics/SVG/1.1/DTD/svg11.dtd">
<svg version="1.1" id="Layer_1" xmlns="http://www.w3.org/2000/svg" xmlns:xlink="http://www.w3.org/1999/xlink" x="0px" y="0px"
	 width="14.172px" height="14.172px" viewBox="0 0 14.172 14.172" enable-background="new 0 0 14.172 14.172" xml:space="preserve">
<g enable-background="new    ">
	<path d="M8.726,7.658C8.467,8.184,8.139,8.581,7.734,8.844C7.328,9.108,6.847,9.241,6.287,9.241c-0.887,0-1.618-0.35-2.195-1.045
		C3.514,7.499,3.225,6.581,3.225,5.444c0-0.754,0.129-1.438,0.387-2.054C3.87,2.774,4.232,2.316,4.699,2.015
		c0.468-0.302,1.019-0.453,1.654-0.453c0.464,0,0.882,0.092,1.25,0.277C7.975,2.025,8.348,2.4,8.726,2.965V1.769h1.243v6.107
		c0,1.531-0.159,2.544-0.482,3.038c-0.324,0.492-0.732,0.856-1.223,1.093c-0.488,0.234-1.066,0.353-1.732,0.353
		c-0.616,0-1.169-0.09-1.658-0.272c-0.49-0.182-0.862-0.433-1.116-0.753c-0.254-0.321-0.382-0.654-0.382-1v-0.112H4.62v0.112
		c0,0.327,0.179,0.589,0.536,0.788c0.357,0.197,0.811,0.297,1.358,0.297c0.445,0,0.827-0.076,1.146-0.23
		c0.322-0.154,0.58-0.405,0.773-0.749c0.195-0.347,0.292-0.972,0.292-1.875V7.658L8.726,7.658z M8.726,5.284
		c0-0.797-0.206-1.444-0.616-1.94C7.7,2.847,7.207,2.598,6.636,2.598c-0.603,0-1.105,0.25-1.509,0.75
		c-0.402,0.5-0.601,1.202-0.601,2.105c0,0.572,0.08,1.071,0.24,1.498c0.161,0.426,0.411,0.752,0.754,0.975
		c0.343,0.223,0.704,0.334,1.088,0.334c0.627,0,1.138-0.278,1.53-0.833C8.534,6.871,8.726,6.157,8.726,5.284z"/>
</g>
</svg>
