<?xml version="1.0" encoding="utf-8"?>
<!-- Generator: Adobe Illustrator 15.1.0, SVG Export Plug-In . SVG Version: 6.00 Build 0)  -->
<!DOCTYPE svg PUBLIC "-//W3C//DTD SVG 1.1//EN" "http://www.w3.org/Graphics/SVG/1.1/DTD/svg11.dtd">
<svg version="1.1" id="Layer_1" xmlns="http://www.w3.org/2000/svg" xmlns:xlink="http://www.w3.org/1999/xlink" x="0px" y="0px"
	 width="14.172px" height="14.172px" viewBox="0 0 14.172 14.172" enable-background="new 0 0 14.172 14.172" xml:space="preserve">
<g enable-background="new    ">
	<path d="M5.106,7.143c0.252-0.324,0.498-0.567,0.737-0.732c0.239-0.165,0.479-0.287,0.722-0.366c0.242-0.08,0.503-0.12,0.787-0.12
		c0.73,0,1.314,0.261,1.755,0.783C9.545,7.229,9.767,7.86,9.767,8.6c0,0.521-0.116,0.99-0.345,1.412s-0.545,0.752-0.951,0.992
		c-0.406,0.239-0.852,0.357-1.336,0.357c-0.561,0-1.086-0.164-1.577-0.493c-0.492-0.328-0.864-0.825-1.115-1.491
		C4.191,8.711,4.065,7.891,4.065,6.913c0-1.389,0.284-2.496,0.853-3.321c0.568-0.826,1.384-1.238,2.449-1.238
		c0.722,0,1.265,0.159,1.632,0.479c0.366,0.317,0.551,0.68,0.551,1.087v0.054H8.532V3.919c0-0.175-0.098-0.338-0.29-0.49
		c-0.192-0.152-0.478-0.228-0.86-0.228c-0.447,0-0.841,0.137-1.181,0.409C5.862,3.882,5.595,4.327,5.399,4.94
		C5.204,5.555,5.106,6.189,5.106,6.842V7.143z M7.135,10.516c0.447,0,0.82-0.188,1.119-0.56c0.297-0.374,0.447-0.835,0.447-1.386
		c0-0.555-0.16-0.994-0.477-1.315s-0.7-0.481-1.153-0.481c-0.499,0-0.905,0.183-1.219,0.551c-0.313,0.367-0.47,0.807-0.47,1.314
		c0,0.336,0.077,0.652,0.231,0.953c0.154,0.301,0.366,0.529,0.637,0.688C6.522,10.436,6.816,10.516,7.135,10.516z"/>
</g>
</svg>
