<?xml version="1.0" encoding="utf-8"?>
<!-- Generator: Adobe Illustrator 15.1.0, SVG Export Plug-In . SVG Version: 6.00 Build 0)  -->
<!DOCTYPE svg PUBLIC "-//W3C//DTD SVG 1.1//EN" "http://www.w3.org/Graphics/SVG/1.1/DTD/svg11.dtd">
<svg version="1.1" id="Layer_1" xmlns="http://www.w3.org/2000/svg" xmlns:xlink="http://www.w3.org/1999/xlink" x="0px" y="0px"
	 width="14.172px" height="14.172px" viewBox="0 0 14.172 14.172" enable-background="new 0 0 14.172 14.172" xml:space="preserve">
<g enable-background="new    ">
	<path d="M11.268,6.545c0,0.659-0.121,1.277-0.361,1.859c-0.242,0.582-0.593,1.103-1.054,1.559c-0.456,0.456-0.979,0.807-1.565,1.05
		s-1.201,0.365-1.846,0.365c-0.648,0-1.269-0.122-1.856-0.365c-0.588-0.243-1.111-0.594-1.567-1.05
		c-0.461-0.465-0.812-0.988-1.054-1.57C1.724,7.811,1.603,7.196,1.603,6.545c0-0.646,0.121-1.26,0.362-1.843
		C2.207,4.12,2.558,3.596,3.019,3.135c0.456-0.457,0.978-0.807,1.563-1.05c0.586-0.244,1.202-0.366,1.846-0.366
		c0.65,0,1.265,0.121,1.847,0.362c0.581,0.241,1.108,0.592,1.578,1.053c0.461,0.461,0.812,0.983,1.054,1.567
		C11.147,5.287,11.268,5.9,11.268,6.545z M3.868,7.428C3.819,7.28,3.782,7.13,3.755,6.983C3.729,6.836,3.716,6.69,3.716,6.545
		c0-0.136,0.012-0.276,0.036-0.421S3.814,5.829,3.867,5.67L1.722,6.545L3.868,7.428z M5.244,4.11L3.11,3.221L4,5.347
		C4.14,5.08,4.313,4.842,4.52,4.636C4.726,4.43,4.967,4.255,5.244,4.11z M5.244,8.989C4.958,8.839,4.712,8.662,4.503,8.456
		C4.295,8.249,4.127,8.014,4,7.75L3.11,9.877L5.244,8.989z M8.747,6.545c0-0.312-0.057-0.605-0.171-0.882
		c-0.114-0.276-0.28-0.524-0.501-0.744C7.851,4.695,7.599,4.526,7.32,4.414C7.042,4.298,6.745,4.242,6.428,4.242
		c-0.307,0-0.602,0.058-0.881,0.175c-0.281,0.116-0.531,0.284-0.75,0.503c-0.22,0.22-0.386,0.468-0.5,0.744
		C4.181,5.94,4.124,6.234,4.124,6.545c0,0.316,0.057,0.611,0.171,0.889c0.114,0.276,0.281,0.523,0.5,0.744
		c0.219,0.219,0.47,0.387,0.75,0.503S6.12,8.856,6.426,8.856c0.316,0,0.613-0.057,0.893-0.17C7.598,8.571,7.85,8.403,8.073,8.178
		C8.293,7.958,8.459,7.71,8.574,7.434C8.69,7.159,8.747,6.862,8.747,6.545z M7.318,3.984l-0.876-2.14l-0.889,2.14
		C5.711,3.937,5.862,3.9,6.006,3.876C6.152,3.853,6.297,3.84,6.442,3.84c0.137,0,0.277,0.012,0.425,0.036S7.165,3.937,7.318,3.984z
		 M7.318,9.114C7.161,9.162,7.006,9.198,6.86,9.222S6.569,9.258,6.428,9.258c-0.135,0-0.276-0.012-0.422-0.036
		C5.862,9.198,5.711,9.162,5.553,9.114l0.875,2.14L7.318,9.114z M9.76,3.221L7.627,4.11c0.291,0.158,0.535,0.337,0.739,0.54
		S8.74,5.084,8.872,5.347L9.76,3.221z M9.76,9.877L8.872,7.75C8.736,8.02,8.564,8.254,8.361,8.458
		c-0.205,0.204-0.448,0.381-0.733,0.53L9.76,9.877z M11.149,6.545L9.002,5.67c0.053,0.167,0.09,0.322,0.114,0.464
		c0.024,0.143,0.037,0.28,0.037,0.412c0,0.136-0.013,0.278-0.039,0.425C9.088,7.119,9.051,7.27,9.002,7.428L11.149,6.545z"/>
</g>
</svg>
