<?xml version="1.0" encoding="utf-8"?>
<!-- Generator: Adobe Illustrator 15.1.0, SVG Export Plug-In . SVG Version: 6.00 Build 0)  -->
<!DOCTYPE svg PUBLIC "-//W3C//DTD SVG 1.1//EN" "http://www.w3.org/Graphics/SVG/1.1/DTD/svg11.dtd">
<svg version="1.1" id="Layer_1" xmlns="http://www.w3.org/2000/svg" xmlns:xlink="http://www.w3.org/1999/xlink" x="0px" y="0px"
	 width="14.172px" height="14.172px" viewBox="0 0 14.172 14.172" enable-background="new 0 0 14.172 14.172" xml:space="preserve">
<g enable-background="new    ">
	<path d="M2.173,1.264c0.172-0.078,0.486-0.128,0.94-0.149c0.454-0.022,1.589-0.033,3.405-0.033c2.638,0,4.074,0.035,4.306,0.104
		c0.233,0.061,0.451,0.177,0.655,0.351c0.203,0.173,0.365,0.375,0.486,0.61c0.087,0.182,0.138,0.488,0.156,0.92
		c0.017,0.433,0.017,1.677,0,3.735l-0.027,4.28l-0.285,0.363c-0.198,0.251-0.437,0.445-0.714,0.584
		c-0.206,0.104-0.503,0.166-0.888,0.188C9.823,12.24,8.632,12.25,6.634,12.25c-2.196,0-3.508-0.024-3.937-0.072
		c-0.428-0.048-0.785-0.209-1.07-0.485c-0.009-0.01-0.022-0.019-0.039-0.026c-0.277-0.26-0.439-0.577-0.486-0.953
		c-0.048-0.377-0.08-1.56-0.097-3.548c0-0.122,0-0.216,0-0.285C0.988,4.234,1.014,2.782,1.083,2.522
		C1.144,2.271,1.28,2.027,1.491,1.79C1.704,1.551,1.931,1.377,2.173,1.264z M7.853,2.665c-0.864-0.25-1.725-0.173-2.581,0.233
		C4.416,3.304,3.785,3.936,3.378,4.792c-0.103,0.234-0.17,0.435-0.201,0.604c-0.03,0.167-0.045,0.447-0.045,0.836
		c0,0.381,0.013,0.66,0.039,0.837s0.086,0.37,0.181,0.578l0.234,0.506L3.288,9.125c-0.207,0.64-0.302,0.966-0.285,0.979
		c0.017,0.014,0.358-0.084,1.024-0.291L5.013,9.5l0.44,0.194c0.337,0.156,0.753,0.24,1.246,0.253s0.926-0.045,1.297-0.175
		c0.743-0.26,1.327-0.658,1.75-1.194c0.407-0.51,0.662-1.075,0.767-1.698c0.104-0.623,0.066-1.208-0.111-1.757
		c-0.177-0.549-0.488-1.049-0.934-1.499C9.023,3.176,8.484,2.855,7.853,2.665z M6.128,3.222c0.865-0.199,1.656-0.075,2.374,0.371
		c0.718,0.445,1.188,1.1,1.413,1.964C10.002,5.93,10.031,6.266,10,6.569C9.97,6.872,9.868,7.205,9.696,7.568
		c-0.381,0.786-0.99,1.324-1.829,1.615c-0.839,0.289-1.665,0.239-2.478-0.15c-0.147-0.068-0.264-0.104-0.35-0.104
		S4.788,8.968,4.546,9.046C4.191,9.159,4,9.198,3.969,9.163C3.938,9.128,3.98,8.948,4.092,8.618l0.168-0.505L3.988,7.581
		C3.867,7.347,3.792,7.153,3.761,6.997c-0.03-0.155-0.045-0.411-0.045-0.765c0-0.423,0.045-0.77,0.136-1.038s0.27-0.579,0.538-0.933
		c0.165-0.216,0.42-0.426,0.766-0.629C5.501,3.428,5.826,3.292,6.128,3.222z M6.077,5.026C6.007,4.853,5.947,4.74,5.895,4.688
		S5.765,4.61,5.662,4.61c-0.156,0-0.29,0.06-0.402,0.175C5.147,4.902,5.069,5.06,5.026,5.259C4.957,5.623,5.143,6.078,5.583,6.627
		C6.025,7.176,6.504,7.551,7.023,7.75C7.68,7.991,8.156,7.996,8.451,7.762C8.866,7.434,8.809,7.139,8.282,6.88L7.853,6.672
		l-0.26,0.26L7.348,7.178L6.998,6.997C6.825,6.91,6.606,6.738,6.343,6.479c-0.264-0.26-0.396-0.433-0.396-0.52
		c0-0.052,0.047-0.12,0.143-0.207c0.086-0.069,0.129-0.145,0.129-0.227C6.219,5.443,6.171,5.276,6.077,5.026z"/>
</g>
</svg>
