<?xml version="1.0" encoding="utf-8"?>
<!-- Generator: Adobe Illustrator 15.1.0, SVG Export Plug-In . SVG Version: 6.00 Build 0)  -->
<!DOCTYPE svg PUBLIC "-//W3C//DTD SVG 1.1//EN" "http://www.w3.org/Graphics/SVG/1.1/DTD/svg11.dtd">
<svg version="1.1" id="Layer_1" xmlns="http://www.w3.org/2000/svg" xmlns:xlink="http://www.w3.org/1999/xlink" x="0px" y="0px"
	 width="14.172px" height="14.172px" viewBox="0 0 14.172 14.172" enable-background="new 0 0 14.172 14.172" xml:space="preserve">
<g>
	<path d="M13.204,7.132h-1.342c-0.033,0.459-0.1,0.902-0.199,1.328c-0.293,1.128-0.803,2.014-1.529,2.657
		c-0.777,0.676-1.732,1.015-2.869,1.015s-2.093-0.339-2.87-1.015C3.669,10.474,3.159,9.588,2.867,8.46
		C2.767,8.034,2.7,7.592,2.667,7.132H1.326V6.644c0.368-0.167,0.79-0.372,1.266-0.614c0.017-0.435,0.046-0.765,0.088-0.99
		c0.142-0.777,0.484-1.491,1.027-2.143C4.583,1.853,5.77,1.331,7.265,1.331c1.494,0,2.681,0.522,3.558,1.566
		c0.543,0.652,0.885,1.366,1.027,2.143c0.041,0.226,0.07,0.556,0.088,0.99c0.477,0.242,0.898,0.447,1.266,0.614V7.132z
		 M10.923,7.132H3.606c0,0.25,0.05,0.588,0.15,1.014c0.209,0.928,0.606,1.676,1.19,2.243c0.643,0.627,1.416,0.94,2.318,0.94
		c0.902,0,1.673-0.313,2.318-0.94c0.584-0.567,0.98-1.315,1.189-2.243C10.874,7.721,10.923,7.383,10.923,7.132z M9.345,4.839v-1.09
		H7.854V2.271H6.676v1.491H5.185v1.09h1.491V6.33h1.177V4.839H9.345z"/>
</g>
</svg>
