<?xml version="1.0" encoding="utf-8"?>
<!-- Generator: Adobe Illustrator 15.1.0, SVG Export Plug-In . SVG Version: 6.00 Build 0)  -->
<!DOCTYPE svg PUBLIC "-//W3C//DTD SVG 1.1//EN" "http://www.w3.org/Graphics/SVG/1.1/DTD/svg11.dtd">
<svg version="1.1" id="Layer_1" xmlns="http://www.w3.org/2000/svg" xmlns:xlink="http://www.w3.org/1999/xlink" x="0px" y="0px"
	 width="14.172px" height="14.172px" viewBox="0 0 14.172 14.172" enable-background="new 0 0 14.172 14.172" xml:space="preserve">
<g enable-background="new    ">
	<path d="M2.351,6.588c0-1.314,0.463-2.435,1.39-3.362c0.927-0.927,2.048-1.39,3.362-1.39c1.313,0,2.435,0.463,3.36,1.391
		c0.928,0.927,1.393,2.047,1.393,3.362c0,1.313-0.465,2.435-1.393,3.362c-0.926,0.927-2.047,1.391-3.36,1.391
		c-1.314,0-2.435-0.464-3.362-1.391C2.814,9.024,2.351,7.903,2.351,6.588z M2.993,6.588c0,1.139,0.4,2.109,1.202,2.913
		c0.8,0.803,1.768,1.204,2.905,1.204c1.137,0,2.105-0.401,2.908-1.204c0.804-0.804,1.205-1.774,1.205-2.913
		c0-1.139-0.401-2.111-1.205-2.916C9.206,2.869,8.236,2.465,7.1,2.465c-1.136,0-2.105,0.403-2.906,1.208
		C3.393,4.479,2.993,5.451,2.993,6.588z M6.217,3.589v4.908c0,0.303,0.038,0.497,0.112,0.583C6.403,9.167,6.566,9.203,6.814,9.19
		h0.103v0.403H4.663V9.19h0.161C5.141,9.177,5.32,9.147,5.36,9.1s0.06-0.248,0.06-0.603V4.829c0-0.346-0.022-0.544-0.067-0.593
		c-0.045-0.049-0.222-0.083-0.53-0.1h-0.16V3.737L6.217,3.589z M8.57,9.742c-0.532,0-0.959-0.284-1.282-0.854
		C6.963,8.319,6.801,7.563,6.801,6.622c0-0.946,0.162-1.704,0.484-2.273c0.324-0.57,0.756-0.854,1.297-0.854
		c0.528,0,0.953,0.286,1.274,0.857c0.321,0.572,0.481,1.329,0.481,2.271s-0.162,1.698-0.485,2.267
		C9.53,9.458,9.103,9.742,8.57,9.742z M8.57,9.344c0.312,0,0.542-0.229,0.692-0.685c0.152-0.456,0.229-1.138,0.229-2.046
		c0-0.907-0.077-1.586-0.233-2.038C9.105,4.125,8.872,3.898,8.557,3.898c-0.301,0-0.526,0.227-0.68,0.681
		C7.724,5.032,7.649,5.713,7.649,6.622s0.077,1.588,0.23,2.042C8.036,9.117,8.266,9.344,8.57,9.344z"/>
</g>
</svg>
