<?xml version="1.0" encoding="utf-8"?>
<!-- Generator: Adobe Illustrator 15.1.0, SVG Export Plug-In . SVG Version: 6.00 Build 0)  -->
<!DOCTYPE svg PUBLIC "-//W3C//DTD SVG 1.1//EN" "http://www.w3.org/Graphics/SVG/1.1/DTD/svg11.dtd">
<svg version="1.1" id="Layer_1" xmlns="http://www.w3.org/2000/svg" xmlns:xlink="http://www.w3.org/1999/xlink" x="0px" y="0px"
	 width="14.172px" height="14.172px" viewBox="0 0 14.172 14.172" enable-background="new 0 0 14.172 14.172" xml:space="preserve">
<g enable-background="new    ">
	<path d="M11.66,4.958c0.446,0.767,0.67,1.604,0.67,2.51c0,0.907-0.224,1.744-0.67,2.51c-0.446,0.768-1.055,1.374-1.82,1.82
		c-0.767,0.446-1.603,0.67-2.51,0.67c-0.907,0-1.744-0.224-2.51-0.67C4.053,11.351,3.446,10.745,3,9.977
		c-0.446-0.766-0.67-1.603-0.67-2.51c0-0.906,0.224-1.743,0.67-2.51c0.447-0.766,1.053-1.374,1.82-1.82
		c0.766-0.447,1.603-0.67,2.51-0.67c0.907,0,1.743,0.224,2.51,0.67C10.605,3.584,11.213,4.191,11.66,4.958z M9.73,8.267l1.8-1.799
		h-1.2c-0.2-0.614-0.595-1.122-1.185-1.525S7.933,4.338,7.28,4.338c-0.874,0-1.62,0.308-2.24,0.924
		c-0.62,0.617-0.93,1.362-0.93,2.235c0,0.874,0.31,1.618,0.93,2.235c0.62,0.616,1.367,0.925,2.24,0.925
		c0.873,0,1.616-0.307,2.229-0.921l-0.62-0.709C8.45,9.454,7.93,9.667,7.33,9.667c-0.606,0-1.125-0.215-1.555-0.646
		c-0.431-0.43-0.646-0.948-0.646-1.555s0.215-1.125,0.646-1.555c0.43-0.43,0.948-0.645,1.555-0.645c0.634,0,1.153,0.212,1.56,0.64
		c0.054,0.053,0.092,0.107,0.115,0.165c0.023,0.057,0.045,0.125,0.064,0.204C9.089,6.357,9.11,6.421,9.129,6.468H7.93L9.73,8.267z"
		/>
</g>
</svg>
