<?xml version="1.0" encoding="utf-8"?>
<!-- Generator: Adobe Illustrator 15.1.0, SVG Export Plug-In . SVG Version: 6.00 Build 0)  -->
<!DOCTYPE svg PUBLIC "-//W3C//DTD SVG 1.1//EN" "http://www.w3.org/Graphics/SVG/1.1/DTD/svg11.dtd">
<svg version="1.1" id="Layer_1" xmlns="http://www.w3.org/2000/svg" xmlns:xlink="http://www.w3.org/1999/xlink" x="0px" y="0px"
	 width="14.172px" height="14.172px" viewBox="0 0 14.172 14.172" enable-background="new 0 0 14.172 14.172" xml:space="preserve">
<g enable-background="new    ">
	<path d="M11.23,7.283c0,0.628-0.61,1.106-1.831,1.434c-0.866,0.238-1.732,0.357-2.6,0.357s-1.733-0.119-2.6-0.357
		c-1.22-0.327-1.83-0.806-1.83-1.434V5.095c0-0.592,0.624-1.043,1.87-1.354c0.876-0.229,1.729-0.345,2.56-0.345
		c0.831,0,1.685,0.116,2.56,0.345c1.248,0.31,1.871,0.761,1.871,1.354V7.283z M11.23,9.617c0,0.619-0.61,1.097-1.831,1.434
		c-0.866,0.229-1.732,0.344-2.6,0.344s-1.733-0.114-2.6-0.344c-1.22-0.337-1.83-0.814-1.83-1.434V7.429
		c0,0.619,0.61,1.091,1.83,1.42c0.867,0.237,1.733,0.357,2.6,0.357s1.733-0.12,2.6-0.357c1.221-0.329,1.831-0.801,1.831-1.42V9.617z
		 M10.979,5.201c0-0.549-0.582-0.964-1.739-1.248c-0.813-0.203-1.627-0.305-2.44-0.305c-0.814,0-1.627,0.102-2.441,0.305
		C3.2,4.237,2.621,4.652,2.621,5.201c0,0.592,0.57,1.043,1.711,1.352c0.805,0.212,1.627,0.319,2.467,0.319
		c0.84,0,1.662-0.106,2.467-0.319C10.407,6.245,10.979,5.793,10.979,5.201z M3.02,7.946v-1.67C2.86,6.161,2.728,6.037,2.621,5.904
		v1.379C2.621,7.531,2.754,7.752,3.02,7.946z M3.02,10.267V8.596C2.86,8.49,2.728,8.372,2.621,8.239v1.378
		C2.621,9.856,2.754,10.073,3.02,10.267z M10.154,5.068c0,0.478-0.463,0.821-1.391,1.034C8.152,6.261,7.498,6.341,6.799,6.341
		c-0.699,0-1.353-0.08-1.963-0.239C3.908,5.89,3.443,5.546,3.443,5.068c0-0.469,0.465-0.814,1.393-1.035
		c0.61-0.149,1.264-0.225,1.963-0.225c0.698,0,1.353,0.076,1.964,0.225C9.691,4.254,10.154,4.599,10.154,5.068z M3.829,8.344V6.66
		C3.669,6.606,3.541,6.553,3.443,6.5v1.685C3.567,8.247,3.696,8.299,3.829,8.344z M3.829,10.665V8.994
		c-0.16-0.062-0.288-0.114-0.385-0.159v1.671C3.523,10.55,3.651,10.603,3.829,10.665z M9.903,5.068c0-0.354-0.438-0.625-1.312-0.809
		c-0.61-0.133-1.207-0.2-1.791-0.2c-0.583,0-1.176,0.063-1.777,0.186C4.138,4.439,3.696,4.715,3.696,5.068
		c0,0.362,0.442,0.636,1.326,0.821c0.601,0.125,1.194,0.186,1.777,0.186c0.584,0,1.176-0.062,1.777-0.186
		C9.46,5.704,9.903,5.43,9.903,5.068z M4.744,8.583V6.911C4.602,6.884,4.43,6.841,4.226,6.778v1.685
		C4.385,8.508,4.558,8.547,4.744,8.583z M4.744,10.904V9.246C4.602,9.21,4.43,9.166,4.226,9.113v1.672
		C4.385,10.829,4.558,10.869,4.744,10.904z M7.86,8.743V7.07C7.507,7.106,7.153,7.124,6.799,7.124c-0.575,0-1.176-0.058-1.804-0.172
		v1.685c0.68,0.123,1.282,0.186,1.804,0.186C7.073,8.822,7.427,8.795,7.86,8.743z M7.86,11.063V9.392
		C7.507,9.437,7.153,9.458,6.799,9.458c-0.575,0-1.176-0.057-1.804-0.172v1.671c0.663,0.125,1.264,0.187,1.804,0.187
		C7.109,11.143,7.463,11.116,7.86,11.063z M7.86,5.068c0,0.335-0.353,0.504-1.061,0.504S5.738,5.404,5.738,5.068
		c0-0.337,0.354-0.504,1.061-0.504S7.86,4.731,7.86,5.068z M7.609,5.068c0-0.08-0.115-0.147-0.345-0.2
		C7.086,4.833,6.932,4.815,6.799,4.815S6.512,4.833,6.335,4.869c-0.23,0.053-0.345,0.12-0.345,0.2c0,0.088,0.115,0.155,0.345,0.198
		C6.512,5.303,6.667,5.32,6.799,5.32c0.142,0,0.292-0.017,0.451-0.053C7.489,5.223,7.609,5.156,7.609,5.068z M8.59,8.636V6.952
		C8.484,6.97,8.325,6.996,8.113,7.031v1.685C8.227,8.698,8.386,8.671,8.59,8.636z M8.59,10.957V9.286
		c-0.106,0.019-0.266,0.045-0.478,0.08v1.671C8.227,11.02,8.386,10.994,8.59,10.957z M9.266,8.49V6.819
		C9.169,6.837,9.067,6.858,8.961,6.884v1.673C9.023,8.547,9.125,8.526,9.266,8.49z M9.266,10.812V9.139
		c-0.097,0.026-0.199,0.053-0.305,0.08v1.658C9.023,10.869,9.125,10.846,9.266,10.812z M10.115,8.211V6.514
		c-0.105,0.053-0.229,0.101-0.37,0.146v1.685C9.903,8.299,10.027,8.256,10.115,8.211z M10.115,10.532V8.849
		c-0.105,0.053-0.229,0.101-0.37,0.145v1.686C9.903,10.625,10.027,10.577,10.115,10.532z M10.979,7.283V5.904
		c-0.09,0.114-0.2,0.221-0.333,0.318v1.684C10.867,7.721,10.979,7.513,10.979,7.283z M10.979,9.617V8.239
		c-0.09,0.114-0.2,0.221-0.333,0.318v1.671C10.867,10.042,10.979,9.839,10.979,9.617z"/>
</g>
</svg>
