<?xml version="1.0" encoding="utf-8"?>
<!-- Generator: Adobe Illustrator 15.1.0, SVG Export Plug-In . SVG Version: 6.00 Build 0)  -->
<!DOCTYPE svg PUBLIC "-//W3C//DTD SVG 1.1//EN" "http://www.w3.org/Graphics/SVG/1.1/DTD/svg11.dtd">
<svg version="1.1" id="Layer_1" xmlns="http://www.w3.org/2000/svg" xmlns:xlink="http://www.w3.org/1999/xlink" x="0px" y="0px"
	 width="14.172px" height="14.172px" viewBox="0 0 14.172 14.172" enable-background="new 0 0 14.172 14.172" xml:space="preserve">
<path d="M11.143,7.163c0,0.182-0.102,0.273-0.305,0.273c-0.057,0-0.125-0.015-0.205-0.045c-0.102-0.036-0.168-0.057-0.197-0.062
	c-0.135,0.104-0.202,0.202-0.202,0.291c0,0.029,0.028,0.076,0.083,0.139c0.056,0.062,0.098,0.094,0.128,0.094
	c0.068,0,0.145-0.055,0.229-0.165c0-0.03-0.002-0.051-0.005-0.063l-0.004-0.044c-0.013-0.084-0.019-0.115-0.019-0.094
	c0.045,0,0.087,0.042,0.126,0.125c0.032,0.068,0.049,0.13,0.049,0.184c0,0.093-0.062,0.184-0.184,0.272
	c-0.062,0.049-0.103,0.086-0.121,0.112c0.024,0,0.054,0.005,0.09,0.014s0.062,0.013,0.076,0.013c0.021,0,0.051-0.02,0.09-0.062
	c0.038-0.041,0.069-0.062,0.094-0.062c0,0.03-0.021,0.092-0.061,0.184s-0.072,0.145-0.097,0.156
	c-0.041,0.084-0.077,0.125-0.107,0.125H10.27c-0.018,0-0.026,0.014-0.026,0.037c0,0.029,0.015,0.072,0.045,0.129
	c0.029,0.057,0.044,0.1,0.044,0.131c-0.032-0.045-0.103-0.068-0.21-0.068c0,0.027,0.021,0.059,0.062,0.096
	c0.042,0.035,0.076,0.053,0.104,0.053c-0.021,0-0.042,0.01-0.063,0.027c-0.11,0-0.215-0.059-0.313-0.176
	C9.812,8.957,9.764,9.066,9.764,9.105s0.014,0.076,0.04,0.111c0,0.127-0.076,0.266-0.229,0.418C9.501,9.709,9.458,9.771,9.446,9.822
	L9.419,9.795L9.388,9.822c0.009,0.002,0.02,0.01,0.031,0.021l0.027,0.023C9.407,9.926,9.379,9.957,9.36,9.961
	c-0.054,0-0.089-0.02-0.107-0.059c0.016-0.006,0.022-0.01,0.022-0.014L9.28,9.885c0-0.006-0.001-0.012-0.002-0.016
	C9.276,9.865,9.274,9.861,9.271,9.857c-0.045,0-0.078,0.035-0.099,0.104c-0.021,0.078-0.05,0.123-0.085,0.135H8.976
	c-0.021,0-0.039,0.02-0.054,0.057v-0.129c-0.093,0-0.184,0.029-0.273,0.09c-0.099,0.068-0.147,0.146-0.147,0.232l0.036,0.027
	c-0.021,0.002-0.062,0.035-0.126,0.098c-0.062,0.062-0.094,0.104-0.094,0.121s0.009,0.035,0.027,0.053l-0.14,0.139l0.027,0.148
	c0,0.158-0.073,0.238-0.22,0.238H4.825c-0.016-0.004-0.022-0.016-0.022-0.037c0-0.102,0.028-0.162,0.085-0.184l-0.005-0.004
	c-0.003-0.012-0.01-0.029-0.022-0.049c0.033-0.033,0.051-0.053,0.054-0.059c0,0.021-0.009-0.006-0.026-0.08
	c0.006-0.006,0.015-0.012,0.026-0.014l0.027-0.014v-0.111c0.006-0.02,0.051-0.113,0.134-0.283c0.058-0.109,0.086-0.207,0.086-0.295
	l-0.107,0.055c-0.024,0-0.117-0.02-0.278-0.055c0-0.012,0.04-0.064,0.119-0.158s0.123-0.16,0.132-0.199
	C5.08,9.465,5.107,9.301,5.107,9.191c0-0.037-0.035-0.074-0.104-0.113c-0.093-0.057-0.142-0.086-0.147-0.09
	C4.82,8.957,4.803,8.885,4.803,8.773c-0.036,0-0.072-0.008-0.107-0.025c-0.019,0-0.033,0.002-0.045,0.008
	c0,0.004-0.001,0.006-0.002,0.01C4.646,8.768,4.645,8.771,4.642,8.773c0,0.021,0.009,0.041,0.026,0.059
	c-0.003,0-0.007,0.002-0.014,0.004L4.642,8.842c-0.019,0-0.038-0.021-0.061-0.061C4.559,8.74,4.541,8.721,4.529,8.721
	c-0.036,0-0.054,0.018-0.054,0.053c0,0.039,0.017,0.07,0.05,0.096c0.054,0.043,0.082,0.068,0.085,0.07
	c-0.007,0.004-0.017,0.02-0.031,0.049C4.563,9.02,4.547,9.033,4.529,9.033c-0.134,0-0.227-0.113-0.277-0.34
	C4.23,8.592,4.213,8.52,4.198,8.475C4.192,8.447,4.167,8.402,4.122,8.34C4.083,8.286,4.063,8.236,4.063,8.188
	c0-0.047,0.064-0.105,0.192-0.174l0.027-0.027c0-0.078-0.022-0.116-0.067-0.116c-0.054,0-0.08,0.048-0.08,0.144
	c-0.03,0-0.051-0.055-0.063-0.162C4.069,7.801,4.066,7.773,4.063,7.768C4.058,7.746,4.038,7.719,4.006,7.687
	C3.896,7.478,3.84,7.236,3.84,6.961c0-0.051,0.003-0.127,0.009-0.229l0.014-0.269c0.006-0.078,0.009-0.142,0.009-0.192
	c-0.015,0.015-0.04,0.025-0.076,0.031l-0.09,0.009c0.078-0.06,0.117-0.106,0.117-0.139c0-0.036-0.067-0.054-0.202-0.054l0.112-0.085
	L3.62,6.007c0.016-0.054,0.045-0.093,0.09-0.117l0.144-0.071c0.051-0.027,0.092-0.075,0.125-0.144
	C3.984,5.67,3.99,5.663,3.996,5.653l0.019-0.036c0.009-0.009,0.015-0.017,0.018-0.022c0.021,0.054,0.05,0.081,0.085,0.081
	c0.03-0.021,0.074-0.078,0.133-0.17c0.058-0.093,0.087-0.155,0.087-0.188c-0.068,0-0.142,0.046-0.22,0.139
	c0-0.069,0.03-0.13,0.09-0.184c0.033-0.03,0.049-0.054,0.049-0.072c0-0.045-0.074-0.088-0.224-0.13c0.065,0,0.112-0.027,0.139-0.081
	c-0.018-0.086-0.026-0.2-0.026-0.34c0-0.071,0.037-0.231,0.111-0.479l0.027-0.143C4.298,3.951,4.315,3.9,4.335,3.876
	c0.019-0.024,0.056-0.072,0.109-0.144l0.085-0.112C4.547,3.603,4.575,3.576,4.612,3.54s0.064-0.062,0.083-0.081
	c0,0.039,0.009,0.001,0.026-0.112C4.838,3.004,5.145,2.753,5.64,2.595C5.786,2.55,6.012,2.48,6.316,2.385
	c0.095-0.057,0.24-0.139,0.434-0.246c0.036-0.018,0.062-0.027,0.081-0.027c0.146-0.024,0.364-0.055,0.653-0.094
	C7.586,2.006,7.671,2,7.74,2c0.418,0,0.885,0.128,1.401,0.385c0.054,0.054,0.136,0.127,0.246,0.22
	c0.071,0.044,0.164,0.109,0.277,0.192c0.06,0.051,0.132,0.162,0.218,0.333c0.085,0.172,0.132,0.299,0.141,0.383v0.273
	c0-0.039,0.017-0.018,0.049,0.063c0.033,0.081,0.05,0.137,0.05,0.17c0,0.024-0.006,0.054-0.018,0.09
	c-0.004,0.068-0.029,0.17-0.076,0.304C9.98,4.547,9.956,4.65,9.956,4.722c0,0.275,0.217,0.53,0.649,0.766
	c0.179,0.096,0.33,0.149,0.452,0.161c0.003,0.006,0.008,0.02,0.014,0.041l0.014,0.044c-0.206,0.024-0.326,0.042-0.358,0.054
	c-0.015,0.042-0.033,0.088-0.054,0.139c-0.033,0.039-0.065,0.081-0.099,0.125l0.125,0.094l0.139-0.166h0.063
	c0,0.054-0.043,0.129-0.128,0.226s-0.128,0.168-0.128,0.212c0,0.021,0.002,0.054,0.005,0.099l0.014,0.134
	c0.006,0.045,0.009,0.078,0.009,0.099s-0.005,0.053-0.014,0.096c-0.009,0.043-0.014,0.076-0.014,0.096
	c0,0.191,0.079,0.311,0.237,0.358C10.987,7.301,11.074,7.255,11.143,7.163z M3.97,10.994c0,0.08-0.036,0.121-0.107,0.121H3.84
	C3.86,11.035,3.904,10.994,3.97,10.994z M4.337,10.373l-0.166,0.271c-0.023,0.039-0.06,0.059-0.107,0.059
	c-0.039,0-0.058-0.045-0.058-0.139c0.107-0.127,0.199-0.191,0.277-0.191H4.337z M4.458,10.564c0,0.004-0.002,0.008-0.005,0.014
	l-0.004,0.014c-0.099,0.158-0.148,0.35-0.148,0.578H4.006c0.057-0.039,0.104-0.109,0.143-0.211c0.051-0.125,0.087-0.201,0.107-0.229
	c0.051-0.111,0.104-0.166,0.161-0.166H4.458z M4.722,11.17H4.61v-0.055h0.111V11.17z M9.473,5.815c0-0.125-0.019-0.312-0.056-0.56
	C9.379,5.007,9.36,4.821,9.36,4.695c0-0.036,0.01-0.088,0.029-0.157s0.029-0.121,0.029-0.157C9.18,3.889,8.65,3.643,7.829,3.643
	c-0.456,0-0.896,0.057-1.316,0.17C5.937,3.965,5.648,4.216,5.648,4.565V4.66c0.024,0.012,0.045,0.018,0.063,0.018
	c0.038,0,0.076-0.006,0.111-0.018l0.318-0.166c0.003,0,0.099,0.018,0.286,0.054c0.135,0.027,0.351,0.056,0.649,0.085
	c0.096,0.042,0.188,0.097,0.277,0.166c0,0.033-0.001,0.055-0.004,0.067L7.328,5.071V5.21c0.051,0.101,0.077,0.156,0.08,0.166
	c0,0.146-0.029,0.219-0.089,0.219c-0.058,0-0.086-0.031-0.086-0.094L7.162,5.568C7.147,5.562,7.139,5.554,7.136,5.542
	C7.15,5.53,7.159,5.51,7.162,5.483c0-0.018-0.006-0.027-0.018-0.027S7.123,5.458,7.117,5.461L7.095,5.465
	c0-0.018-0.003-0.043-0.009-0.076C7.08,5.356,7.077,5.333,7.077,5.318c0-0.033,0.02-0.078,0.059-0.134
	c-0.104,0-0.188-0.009-0.251-0.027L6.777,5.125C6.738,5.176,6.677,5.201,6.594,5.201c-0.03,0-0.072-0.007-0.128-0.022
	C6.411,5.164,6.374,5.156,6.356,5.156c0.018,0.066,0.097,0.111,0.237,0.135C6.585,5.309,6.566,5.318,6.54,5.318
	C6.489,5.33,6.413,5.38,6.312,5.47C6.27,5.509,6.235,5.533,6.208,5.542c-0.018,0-0.026-0.01-0.026-0.031H5.766
	c-0.078,0-0.117,0.055-0.117,0.166c0,0.033,0.038,0.109,0.114,0.229c0.076,0.119,0.114,0.191,0.114,0.215
	c0.021-0.021,0.039-0.031,0.054-0.031c0.081,0,0.121,0.083,0.121,0.25h0.045V6.28c0.128,0.093,0.192,0.194,0.192,0.305v0.112
	C6.283,6.715,6.25,6.724,6.19,6.724c-0.057,0-0.088-0.009-0.094-0.027c-0.018,0-0.027,0.009-0.027,0.027
	c0,0.123,0.102,0.231,0.305,0.327c0-0.089,0.127-0.168,0.381-0.237C6.901,6.774,6.99,6.736,7.023,6.697
	C7.095,6.61,7.145,6.549,7.171,6.513c0-0.057-0.061-0.088-0.184-0.094c-0.051,0-0.111-0.027-0.184-0.081
	c0-0.05,0.027-0.076,0.081-0.076v0.076h0.058c0.03-0.167,0.137-0.25,0.318-0.25c0.039,0,0.091,0.014,0.156,0.042
	c0.066,0.028,0.115,0.042,0.148,0.042c0.032,0,0.083-0.004,0.149-0.013c0.067-0.009,0.117-0.014,0.15-0.014h0.094
	C7.995,6.17,8.013,6.2,8.013,6.235c0,0.051-0.055,0.076-0.165,0.076L7.794,6.298C7.761,6.287,7.733,6.28,7.713,6.28
	s-0.051,0.014-0.09,0.042C7.585,6.351,7.557,6.365,7.538,6.365c-0.018,0-0.048-0.014-0.089-0.042C7.407,6.294,7.382,6.28,7.373,6.28
	c-0.048,0-0.072,0.11-0.072,0.332c0.019,0.036,0.027,0.1,0.027,0.192C7.312,6.828,7.289,6.861,7.256,6.903L7.233,6.934
	c0.598,0.11,0.94,0.233,1.03,0.367c0,0.018-0.037,0.027-0.112,0.027c-0.026,0-0.076-0.014-0.147-0.042S7.88,7.243,7.848,7.243H7.189
	c-0.019,0-0.027,0.034-0.027,0.103c0,0.102,0.126,0.158,0.376,0.17c0.228,0.012,0.341,0.049,0.341,0.112
	c0,0.033-0.028,0.062-0.085,0.085C7.354,7.725,7.016,7.771,6.777,7.852C6.738,7.957,6.719,8.035,6.719,8.09
	c0.245,0.164,0.384,0.246,0.417,0.246H7.27c0.021,0.006,0.056,0.027,0.104,0.066C7.411,8.432,7.447,8.447,7.48,8.447
	c0.062,0,0.155-0.01,0.277-0.029S7.975,8.389,8.04,8.389l0.089-0.031c0.117-0.045,0.206-0.104,0.27-0.179
	c0.021-0.044,0.049-0.095,0.085-0.151c0.012-0.01,0.045-0.014,0.099-0.014c0,0.092,0.04,0.139,0.12,0.139
	c0.054,0,0.081-0.018,0.081-0.055V7.82c0-0.039,0.028-0.074,0.085-0.107c0.006-0.006,0.015-0.01,0.027-0.014l0.026-0.013
	c0-0.173,0.04-0.26,0.121-0.26c0.009,0.006,0.023,0.028,0.045,0.067c0.038,0,0.073-0.089,0.103-0.269
	C9.215,7.082,9.227,6.97,9.227,6.889c0.015,0.024,0.026,0.036,0.036,0.036C9.274,6.919,9.28,6.907,9.28,6.889
	c0.009-0.062,0.048-0.24,0.116-0.533C9.447,6.136,9.473,5.955,9.473,5.815z M6.263,5.376L6.208,5.403L6.235,5.43L6.263,5.376z
	 M6.732,10.547c0-0.033-0.046-0.064-0.139-0.094c-0.03,0.029-0.045,0.049-0.045,0.059l-0.031-0.035
	c-0.006-0.01-0.018-0.018-0.036-0.023c-0.018,0-0.026,0.029-0.026,0.084c0.015,0.037,0.063,0.055,0.147,0.055
	C6.674,10.592,6.718,10.576,6.732,10.547z M6.885,7.355C6.849,7.337,6.804,7.328,6.75,7.328C6.738,7.313,6.719,7.304,6.692,7.301
	c-0.042,0-0.063,0.03-0.063,0.089c0.066-0.006,0.133-0.009,0.202-0.009C6.867,7.382,6.885,7.373,6.885,7.355z M6.867,9.961
	C6.857,9.938,6.846,9.924,6.831,9.92c-0.009,0.055-0.019,0.086-0.027,0.094l0.027,0.027C6.854,10.018,6.867,9.99,6.867,9.961z
	 M6.857,10.408V10.4c-0.035,0.018-0.054,0.043-0.054,0.08v0.031C6.84,10.49,6.857,10.457,6.857,10.408z M7.136,9.656
	C7.114,9.678,7.086,9.715,7.05,9.768c-0.057,0.1-0.111,0.199-0.165,0.301v0.035c0.045,0,0.099-0.064,0.161-0.191
	C7.105,9.795,7.136,9.711,7.136,9.656z M7.032,9.729C7.035,9.725,7.034,9.717,7.03,9.703C7.025,9.689,7.006,9.674,6.97,9.656
	c-0.012,0.01-0.027,0.035-0.045,0.076C6.919,9.75,6.914,9.762,6.911,9.768h0.022c0.009,0,0.021-0.006,0.038-0.02
	S7.009,9.729,7.032,9.729z M8.232,9.701C8.218,9.652,8.199,9.629,8.179,9.629l-0.3,0.027C7.729,9.748,7.572,9.859,7.408,9.988V9.92
	c0-0.012,0.005-0.035,0.014-0.074C7.431,9.809,7.436,9.779,7.436,9.76c0-0.072-0.019-0.115-0.054-0.131
	C7.331,9.668,7.259,9.787,7.164,9.988c-0.094,0.199-0.141,0.334-0.141,0.402c0.03,0,0.061-0.02,0.092-0.059s0.056-0.062,0.074-0.072
	l0.125-0.039c0.065-0.021,0.105-0.035,0.121-0.041c0.099-0.057,0.246-0.139,0.443-0.246c0.068-0.027,0.167-0.076,0.295-0.148
	C8.213,9.76,8.232,9.73,8.232,9.701z M8.049,2.864C8.034,2.843,8.007,2.809,7.968,2.761c0.003-0.012,0.005-0.028,0.005-0.049
	l0.005-0.067c0.003-0.024,0.006-0.037,0.009-0.04C7.95,2.652,7.91,2.68,7.865,2.689H7.74C7.775,2.725,7.794,2.752,7.794,2.77
	C7.8,2.8,7.803,2.846,7.803,2.909c0.023,0,0.048-0.009,0.071-0.027l0.04-0.031c0.021,0,0.042,0.001,0.063,0.004L8.049,2.864z
	 M9.195,4.87c0,0.122-0.036,0.184-0.107,0.184c-0.051,0-0.079-0.021-0.085-0.063C8.967,4.973,8.931,4.964,8.896,4.964
	c-0.03,0-0.053,0.001-0.067,0.004L8.766,4.973c0,0.042,0.062,0.095,0.188,0.161c0.107,0.057,0.161,0.131,0.161,0.224
	c0,0.048-0.009,0.072-0.026,0.072h-0.22c-0.023,0-0.049-0.032-0.076-0.096c-0.026-0.064-0.054-0.096-0.08-0.096
	c-0.019,0-0.046,0.01-0.083,0.031C8.591,5.29,8.563,5.3,8.546,5.3c-0.039,0-0.06-0.003-0.062-0.009
	C8.444,5.279,8.398,5.234,8.345,5.156c-0.027,0-0.068,0.006-0.124,0.018C8.166,5.187,8.125,5.192,8.098,5.192
	c-0.167,0-0.25-0.055-0.25-0.166c0-0.209,0.074-0.313,0.224-0.313h0.851C9.104,4.713,9.195,4.766,9.195,4.87z M8.205,7.06
	c0,0.045-0.009,0.079-0.026,0.103C8.143,7.145,8.125,7.089,8.125,6.997c0-0.003,0.003-0.007,0.009-0.013L8.151,6.97
	C8.188,6.982,8.205,7.012,8.205,7.06z M8.572,7.458c0,0.042-0.003,0.081-0.009,0.116L8.51,7.628
	C8.453,7.586,8.425,7.513,8.425,7.409V7.216c-0.033-0.024-0.068-0.06-0.107-0.107c0-0.045,0.015-0.067,0.045-0.067
	C8.503,7.042,8.572,7.18,8.572,7.458z M8.591,9.711l-0.009-0.02c-0.003-0.006-0.01-0.008-0.019-0.008H8.537
	C8.408,9.734,8.345,9.785,8.345,9.84v0.01c0,0.018,0.009,0.025,0.026,0.025h0.018C8.449,9.875,8.516,9.82,8.591,9.711z
	 M9.195,10.287c0,0.004-0.064,0.123-0.192,0.357c-0.111,0.203-0.211,0.379-0.301,0.525H8.371c0.065-0.057,0.158-0.148,0.277-0.273
	c0-0.084,0.028-0.207,0.085-0.367c0.066-0.18,0.129-0.277,0.188-0.295s0.127-0.027,0.201-0.027
	C9.171,10.207,9.195,10.234,9.195,10.287z M8.626,5.116c0-0.03-0.018-0.045-0.054-0.045C8.552,5.074,8.536,5.079,8.525,5.085
	c-0.01,0.006-0.016,0.02-0.016,0.04c0,0.021,0.006,0.035,0.019,0.041l0.013,0.013c0.006,0.003,0.014,0.005,0.022,0.005
	C8.575,5.18,8.589,5.174,8.604,5.166C8.619,5.156,8.626,5.14,8.626,5.116z M8.537,8.939V8.912C8.519,8.926,8.51,8.943,8.51,8.967
	v0.031C8.528,8.992,8.537,8.973,8.537,8.939z M8.904,7.547L8.877,7.619L8.832,7.592L8.904,7.547z M9.114,7.18
	c0,0.087-0.018,0.13-0.054,0.13V7.126C9.097,7.126,9.114,7.145,9.114,7.18z M10.74,10.207c0,0.041-0.084,0.117-0.251,0.225
	c-0.188,0.121-0.282,0.213-0.282,0.271c0,0.055,0.026,0.08,0.081,0.08c0.015,0,0.046-0.004,0.094-0.012
	c0.048-0.01,0.083-0.014,0.107-0.014c-0.072,0.104-0.282,0.197-0.632,0.277c-0.19,0.041-0.319,0.086-0.385,0.135H9.142
	C9.15,11.137,9.27,11.082,9.5,11.004c0.044-0.027,0.123-0.119,0.237-0.277c0.113-0.158,0.18-0.268,0.201-0.326
	c-0.003-0.094,0.011-0.225,0.04-0.395c0.021-0.049,0.071-0.072,0.152-0.072c0.036,0,0.067,0.027,0.094,0.08
	c0.027,0.055,0.057,0.082,0.09,0.082c0.021,0,0.059-0.006,0.114-0.014c0.055-0.01,0.098-0.014,0.128-0.014
	C10.679,10.068,10.74,10.115,10.74,10.207z M9.804,9.656c0,0.027-0.01,0.045-0.031,0.055L9.746,9.684
	C9.752,9.666,9.771,9.656,9.804,9.656z M11.442,9.629h-0.174c-0.171,0-0.313-0.008-0.431-0.027
	c-0.057-0.023-0.142-0.061-0.255-0.111c0.024,0.023,0.036,0.07,0.036,0.139c-0.087,0-0.157-0.027-0.211-0.08
	c-0.003-0.004-0.015-0.027-0.035-0.072c-0.013-0.025-0.038-0.039-0.076-0.039l0.054,0.053c-0.019,0.006-0.027,0.035-0.027,0.086
	L10.27,9.518l-0.111,0.225c0.015-0.033,0.021-0.059,0.021-0.076c0-0.033-0.027-0.074-0.082-0.123
	c-0.056-0.051-0.083-0.094-0.083-0.133h0.116c-0.042-0.041-0.062-0.086-0.062-0.131c0.048,0,0.105,0.045,0.175,0.131
	c0.071,0,0.107-0.029,0.107-0.086C10.753,9.521,11.117,9.623,11.442,9.629z"/>
</svg>
