<?xml version="1.0" encoding="utf-8"?>
<!-- Generator: Adobe Illustrator 15.1.0, SVG Export Plug-In . SVG Version: 6.00 Build 0)  -->
<!DOCTYPE svg PUBLIC "-//W3C//DTD SVG 1.1//EN" "http://www.w3.org/Graphics/SVG/1.1/DTD/svg11.dtd">
<svg version="1.1" id="Layer_1" xmlns="http://www.w3.org/2000/svg" xmlns:xlink="http://www.w3.org/1999/xlink" x="0px" y="0px"
	 width="14.172px" height="14.172px" viewBox="0 0 14.172 14.172" enable-background="new 0 0 14.172 14.172" xml:space="preserve">
<g enable-background="new    ">
	<path d="M6.68,12.635c-1.569,0-2.908-0.555-4.017-1.663C1.554,9.865,1,8.526,1,6.958s0.554-2.906,1.664-4.015
		C3.772,1.835,5.111,1.281,6.68,1.281c1.57,0,2.909,0.554,4.018,1.662c1.109,1.108,1.664,2.446,1.664,4.015
		s-0.555,2.907-1.664,4.015C9.589,12.081,8.25,12.635,6.68,12.635z M6.68,11.912c1.371,0,2.539-0.483,3.506-1.449
		c0.968-0.966,1.452-2.134,1.452-3.501c0-1.368-0.484-2.535-1.452-3.504C9.219,2.489,8.051,2.004,6.68,2.004
		c-1.37,0-2.538,0.485-3.505,1.453C2.207,4.426,1.723,5.594,1.723,6.961c0,1.367,0.483,2.535,1.452,3.501
		C4.142,11.428,5.311,11.912,6.68,11.912z M3.791,9.887H3.345c0.107-1.013,0.458-1.807,1.05-2.381S5.749,6.644,6.68,6.644
		c0.932,0,1.693,0.288,2.286,0.862s0.944,1.369,1.058,2.381H9.571C9.219,8.325,8.256,7.542,6.68,7.542
		C5.11,7.542,4.147,8.325,3.791,9.887z M4.873,6.052c-0.249,0-0.46-0.087-0.636-0.263C4.062,5.613,3.974,5.401,3.974,5.153
		c0-0.249,0.088-0.46,0.263-0.636s0.387-0.263,0.636-0.263c0.253,0,0.467,0.088,0.643,0.263c0.176,0.175,0.263,0.387,0.263,0.636
		c0,0.248-0.088,0.46-0.266,0.635C5.334,5.964,5.121,6.052,4.873,6.052z M8.489,6.052c-0.248,0-0.461-0.087-0.639-0.263
		C7.672,5.613,7.583,5.401,7.583,5.153c0-0.249,0.09-0.46,0.268-0.636s0.391-0.263,0.639-0.263S8.95,4.342,9.125,4.518
		s0.263,0.387,0.263,0.636c0,0.248-0.088,0.46-0.263,0.635C8.95,5.964,8.737,6.052,8.489,6.052z"/>
</g>
</svg>
