<?xml version="1.0" encoding="utf-8"?>
<!-- Generator: Adobe Illustrator 15.1.0, SVG Export Plug-In . SVG Version: 6.00 Build 0)  -->
<!DOCTYPE svg PUBLIC "-//W3C//DTD SVG 1.1//EN" "http://www.w3.org/Graphics/SVG/1.1/DTD/svg11.dtd">
<svg version="1.1" id="Layer_1" xmlns="http://www.w3.org/2000/svg" xmlns:xlink="http://www.w3.org/1999/xlink" x="0px" y="0px"
	 width="14.172px" height="14.172px" viewBox="0 0 14.172 14.172" enable-background="new 0 0 14.172 14.172" xml:space="preserve">
<g enable-background="new    ">
	<path d="M2.956,9.688H4.56v0.068c0,0.6,0.239,1.018,0.716,1.252c0.479,0.232,1.114,0.352,1.91,0.352
		c0.695,0,1.281-0.176,1.752-0.537c0.472-0.361,0.704-0.83,0.704-1.41c0-0.477-0.203-0.865-0.61-1.166
		c-0.402-0.293-1.018-0.59-1.846-0.891L6.55,7.131C5.682,6.817,5.032,6.506,4.603,6.195C4.174,5.885,3.851,5.543,3.641,5.167
		C3.429,4.791,3.323,4.373,3.323,3.909c0-0.816,0.328-1.505,0.984-2.066C4.963,1.282,5.99,1,7.384,1
		c1.284,0,2.183,0.209,2.705,0.627c0.52,0.418,0.78,0.904,0.78,1.458v0.078H9.277V3.085c0-0.176-0.083-0.35-0.245-0.519
		c-0.164-0.17-0.404-0.294-0.725-0.372c-0.318-0.078-0.67-0.118-1.055-0.118c-0.788,0-1.367,0.173-1.743,0.52
		C5.136,2.943,4.948,3.338,4.948,3.782c0,0.293,0.089,0.571,0.267,0.833c0.177,0.261,0.422,0.479,0.734,0.65
		C6.26,5.437,6.788,5.668,7.53,5.955l0.755,0.284c1.202,0.457,2.003,0.938,2.405,1.449c0.399,0.504,0.599,1.047,0.599,1.637
		c0,0.541-0.163,1.066-0.488,1.57c-0.326,0.506-0.78,0.889-1.358,1.15c-0.58,0.262-1.351,0.393-2.313,0.393
		c-0.913,0-1.677-0.098-2.293-0.289c-0.616-0.193-1.083-0.508-1.401-0.945c-0.32-0.436-0.479-0.92-0.479-1.447V9.688z"/>
</g>
</svg>
