<?xml version="1.0" encoding="utf-8"?>
<!-- Generator: Adobe Illustrator 15.1.0, SVG Export Plug-In . SVG Version: 6.00 Build 0)  -->
<!DOCTYPE svg PUBLIC "-//W3C//DTD SVG 1.1//EN" "http://www.w3.org/Graphics/SVG/1.1/DTD/svg11.dtd">
<svg version="1.1" id="Layer_1" xmlns="http://www.w3.org/2000/svg" xmlns:xlink="http://www.w3.org/1999/xlink" x="0px" y="0px"
	 width="14.172px" height="14.172px" viewBox="0 0 14.172 14.172" enable-background="new 0 0 14.172 14.172" xml:space="preserve">
<g enable-background="new    ">
	<path d="M1.794,1.234L2.146,1h4.337c1.797,0,2.986,0.008,3.569,0.026c0.581,0.017,0.929,0.056,1.041,0.117
		c0.19,0.104,0.385,0.278,0.58,0.521c0.195,0.243,0.322,0.468,0.384,0.677c0.07,0.26,0.096,1.723,0.079,4.389
		c-0.019,1.969-0.038,3.147-0.06,3.53c-0.021,0.381-0.085,0.672-0.188,0.871c-0.062,0.113-0.153,0.234-0.273,0.365
		c-0.122,0.131-0.234,0.23-0.34,0.299l-0.402,0.273H6.534H2.211l-0.417-0.287c-0.27-0.189-0.469-0.398-0.6-0.623
		c-0.095-0.166-0.152-0.461-0.169-0.887C1.008,9.848,1,8.592,1,6.509V2.198l0.221-0.365C1.369,1.59,1.56,1.391,1.794,1.234z
		 M5.05,4.699C4.946,4.49,4.865,4.366,4.809,4.328c-0.057-0.039-0.18-0.059-0.371-0.059C3.899,4.287,3.63,4.347,3.63,4.451
		c0,0.062,0.072,0.242,0.215,0.541c0.144,0.3,0.171,0.462,0.084,0.489C3.756,5.54,3.526,5.693,3.24,5.936
		c-0.287,0.244-0.486,0.46-0.599,0.651C2.476,6.856,2.369,7.19,2.322,7.59C2.274,7.989,2.293,8.375,2.38,8.749
		c0.043,0.199,0.084,0.33,0.124,0.391s0.089,0.082,0.15,0.064l2.032-0.586c1.241-0.365,1.884-0.566,1.927-0.605
		S6.496,7.59,6.131,6.861C5.914,6.418,5.779,6.122,5.727,5.975C5.675,5.828,5.679,5.732,5.74,5.688
		C5.844,5.627,6.185,5.6,6.762,5.604C7.34,5.608,7.746,5.645,7.98,5.714c0.27,0.07,0.554,0.17,0.853,0.3
		c0.3,0.13,0.449,0.217,0.449,0.26c0,0.034-0.178,0.106-0.534,0.214C8.392,6.598,8.163,6.652,8.059,6.652
		c-0.079,0-0.2-0.126-0.365-0.378c-0.113-0.191-0.207-0.304-0.28-0.339S7.165,5.884,6.886,5.884c-0.382,0-0.573,0.033-0.573,0.097
		c0,0.066,0.143,0.385,0.429,0.957c0.286,0.574,0.49,0.86,0.612,0.86c0.121,0,0.799-0.176,2.032-0.526
		c1.232-0.353,1.874-0.555,1.928-0.607c0.042-0.043-0.003-0.132-0.138-0.267c-0.134-0.134-0.321-0.282-0.56-0.442
		c-0.24-0.161-0.479-0.298-0.724-0.411C8.913,5.084,7.811,4.89,6.587,4.958C5.91,5.003,5.519,5.041,5.415,5.076
		C5.363,5.103,5.308,5.086,5.252,5.03C5.195,4.974,5.128,4.863,5.05,4.699z M4.177,6.378C4.308,6.3,4.405,6.292,4.47,6.352
		c0.065,0.062,0.167,0.252,0.307,0.574L5.05,7.512L4.386,7.655C3.952,7.75,3.717,7.797,3.682,7.797
		c-0.034,0-0.052-0.111-0.052-0.338c0-0.182,0.059-0.389,0.176-0.618C3.923,6.611,4.047,6.457,4.177,6.378z"/>
</g>
</svg>
