<?xml version="1.0" encoding="utf-8"?>
<!-- Generator: Adobe Illustrator 15.1.0, SVG Export Plug-In . SVG Version: 6.00 Build 0)  -->
<!DOCTYPE svg PUBLIC "-//W3C//DTD SVG 1.1//EN" "http://www.w3.org/Graphics/SVG/1.1/DTD/svg11.dtd">
<svg version="1.1" id="Layer_1" xmlns="http://www.w3.org/2000/svg" xmlns:xlink="http://www.w3.org/1999/xlink" x="0px" y="0px"
	 width="14.172px" height="14.172px" viewBox="0 0 14.172 14.172" enable-background="new 0 0 14.172 14.172" xml:space="preserve">
<g enable-background="new    ">
	<path d="M8.973,2.538h1.111v9.27H8.973V8.052c-0.235,0.398-0.455,0.679-0.66,0.843C8.109,9.057,7.872,9.182,7.606,9.27
		C7.34,9.356,7.069,9.399,6.793,9.399c-0.511,0-0.977-0.139-1.396-0.416c-0.421-0.277-0.75-0.691-0.985-1.241
		c-0.236-0.55-0.354-1.167-0.354-1.854c0-1.016,0.246-1.859,0.737-2.53s1.174-1.006,2.049-1.006c0.287,0,0.555,0.041,0.805,0.122
		c0.25,0.082,0.475,0.204,0.674,0.366c0.2,0.163,0.416,0.449,0.651,0.859L8.973,2.538L8.973,2.538z M8.973,5.872
		c0-0.758-0.163-1.379-0.491-1.865C8.154,3.521,7.694,3.278,7.105,3.278c-0.539,0-0.988,0.214-1.347,0.644
		c-0.359,0.429-0.54,1.073-0.54,1.932c0,0.999,0.189,1.694,0.569,2.083c0.379,0.391,0.809,0.586,1.291,0.586
		c0.354,0,0.682-0.108,0.984-0.324c0.303-0.217,0.529-0.533,0.682-0.952S8.973,6.372,8.973,5.872z"/>
</g>
</svg>
