<?xml version="1.0" encoding="utf-8"?>
<!-- Generator: Adobe Illustrator 15.1.0, SVG Export Plug-In . SVG Version: 6.00 Build 0)  -->
<!DOCTYPE svg PUBLIC "-//W3C//DTD SVG 1.1//EN" "http://www.w3.org/Graphics/SVG/1.1/DTD/svg11.dtd">
<svg version="1.1" id="Layer_1" xmlns="http://www.w3.org/2000/svg" xmlns:xlink="http://www.w3.org/1999/xlink" x="0px" y="0px"
	 width="14.172px" height="14.172px" viewBox="0 0 14.172 14.172" enable-background="new 0 0 14.172 14.172" xml:space="preserve">
<g enable-background="new    ">
	<path d="M3.655,12.336v-1.07c0-0.562,0.174-1.175,0.521-1.835c0.348-0.657,0.931-1.302,1.75-1.927L6.62,6.959
		C7.553,6.24,8.148,5.702,8.404,5.345c0.25-0.356,0.375-0.726,0.375-1.106c0-0.4-0.168-0.754-0.504-1.061
		c-0.333-0.307-0.813-0.46-1.438-0.46c-0.569,0-0.992,0.111-1.268,0.333C5.293,3.273,5.156,3.522,5.156,3.797v0.065H3.918V3.797
		c0-0.363,0.124-0.707,0.371-1.032c0.247-0.325,0.58-0.586,0.999-0.783s0.947-0.296,1.585-0.296c1.17,0,2.002,0.249,2.5,0.746
		C9.87,2.929,10.12,3.525,10.12,4.219c0,0.363-0.078,0.732-0.234,1.107C9.73,5.702,9.42,6.093,8.961,6.5
		C8.502,6.906,8.127,7.209,7.84,7.411L7.334,7.756C5.745,8.846,4.95,9.909,4.95,10.948v0.254h5.377v1.135H3.655z"/>
</g>
</svg>
