<?xml version="1.0" encoding="utf-8"?>
<!-- Generator: Adobe Illustrator 15.1.0, SVG Export Plug-In . SVG Version: 6.00 Build 0)  -->
<!DOCTYPE svg PUBLIC "-//W3C//DTD SVG 1.1//EN" "http://www.w3.org/Graphics/SVG/1.1/DTD/svg11.dtd">
<svg version="1.1" id="Layer_1" xmlns="http://www.w3.org/2000/svg" xmlns:xlink="http://www.w3.org/1999/xlink" x="0px" y="0px"
	 width="14.172px" height="14.172px" viewBox="0 0 14.172 14.172" enable-background="new 0 0 14.172 14.172" xml:space="preserve">
<g enable-background="new    ">
	<path d="M12.396,6.128c0,0.258-0.089,0.425-0.269,0.503c-0.086,0.039-0.288,0.074-0.608,0.104h-0.188
		c-0.179,0-0.269,0.063-0.269,0.187c0,0.086,0.06,0.157,0.177,0.211c0.03,0.016,0.097,0.036,0.198,0.059
		c0.304,0.078,0.527,0.184,0.667,0.315l0.012,0.023c0.023,0.124-0.043,0.245-0.198,0.362C11.761,8.01,11.613,8.07,11.472,8.07
		c-0.069,0-0.175-0.018-0.315-0.053s-0.249-0.054-0.327-0.054s-0.116,0.056-0.116,0.164c0,0.086,0.17,0.213,0.515,0.381
		c0.343,0.168,0.514,0.332,0.514,0.496c0,0.094-0.062,0.189-0.187,0.287c-0.125,0.098-0.234,0.146-0.327,0.146
		c-0.071,0-0.345-0.12-0.82-0.363c-0.085,0.062-0.128,0.106-0.128,0.13c0,0.093,0.089,0.233,0.264,0.421
		c0.175,0.186,0.264,0.322,0.264,0.409c0.008,0.023,0.011,0.073,0.011,0.151c-0.124,0.124-0.25,0.188-0.374,0.188
		c-0.164,0-0.346-0.114-0.55-0.339c-0.225-0.242-0.39-0.379-0.491-0.409c-0.07,0.03-0.105,0.062-0.105,0.092
		c0,0.07,0.055,0.234,0.165,0.492c0.108,0.257,0.162,0.417,0.162,0.48c0,0.085-0.037,0.186-0.11,0.303
		c-0.074,0.117-0.15,0.176-0.229,0.176c-0.179,0-0.366-0.233-0.561-0.702c-0.023-0.047-0.137-0.151-0.34-0.315
		c-0.038,0.008-0.07,0.012-0.093,0.012c-0.062,0-0.148-0.012-0.257-0.035c-0.04,0.039-0.059,0.102-0.059,0.188
		c0,0.094,0.023,0.235,0.07,0.427c0.046,0.19,0.069,0.333,0.069,0.427c0,0.085-0.046,0.178-0.14,0.275
		c-0.094,0.097-0.184,0.146-0.27,0.146c-0.312,0-0.495-0.181-0.549-0.539c-0.023-0.124-0.035-0.21-0.035-0.257
		c0-0.031,0.007-0.074,0.023-0.128c0.016-0.056,0.023-0.099,0.023-0.13c0-0.054-0.03-0.114-0.088-0.181
		c-0.059-0.066-0.115-0.1-0.169-0.1c-0.125,0-0.23,0.156-0.316,0.468c-0.047,0.194-0.094,0.39-0.141,0.585
		C6.183,11.45,6,11.52,5.907,11.52c-0.086,0-0.184-0.023-0.292-0.07c-0.125-0.047-0.187-0.113-0.187-0.199
		c0-0.055,0.055-0.179,0.164-0.375c0.07-0.132,0.144-0.261,0.222-0.386c0.008-0.023,0.012-0.109,0.012-0.257
		c0-0.085-0.031-0.148-0.093-0.188c-0.078,0.047-0.167,0.133-0.269,0.258c-0.101,0.14-0.152,0.25-0.152,0.327
		c0,0.023,0.004,0.039,0.012,0.047c-0.054,0.023-0.167,0.094-0.339,0.211c-0.133,0.085-0.253,0.128-0.363,0.128
		c-0.117,0-0.214-0.065-0.292-0.198c-0.062-0.109-0.093-0.23-0.093-0.362c0.437-0.352,0.655-0.604,0.655-0.76
		c0-0.173-0.094-0.258-0.281-0.258c-0.039,0-0.226,0.085-0.562,0.258C3.712,9.867,3.525,9.952,3.486,9.952
		c-0.085,0-0.179-0.037-0.28-0.11C3.104,9.767,3.054,9.687,3.054,9.602c0-0.126,0.175-0.324,0.526-0.598
		c0.351-0.271,0.526-0.439,0.526-0.502c0-0.188-0.121-0.281-0.363-0.281c-0.07,0-0.173,0.013-0.31,0.036
		c-0.137,0.023-0.24,0.034-0.31,0.034c-0.141,0-0.277-0.023-0.41-0.07C2.535,8.16,2.445,8.074,2.445,7.963
		c0-0.28,0.276-0.459,0.83-0.537C3.354,7.411,3.439,7.395,3.533,7.38c0.109-0.062,0.164-0.16,0.164-0.293
		c0-0.117-0.055-0.191-0.164-0.222c-0.234-0.023-0.467-0.047-0.701-0.07C2.503,6.741,2.34,6.62,2.34,6.433
		c0-0.103,0.075-0.22,0.222-0.352c0.102-0.093,0.499-0.14,1.193-0.14c0.109,0,0.164-0.063,0.164-0.187
		c0-0.086-0.086-0.164-0.257-0.234C3.552,5.466,3.439,5.412,3.322,5.356C2.932,5.099,2.738,4.854,2.738,4.62
		c0-0.062,0.059-0.133,0.175-0.21c0.109-0.07,0.199-0.104,0.269-0.104c0.039,0,0.207,0.071,0.503,0.215
		c0.296,0.146,0.463,0.217,0.503,0.217c0.046,0,0.101-0.036,0.163-0.104C4.304,4.515,4.122,4.308,3.802,4.011
		C3.521,3.747,3.381,3.544,3.381,3.404c0-0.11,0.043-0.204,0.128-0.281c0.085-0.078,0.188-0.117,0.304-0.117
		c0.156,0,0.375,0.15,0.655,0.45c0.281,0.3,0.44,0.451,0.479,0.451c0.078,0,0.117-0.043,0.117-0.129c0-0.108-0.13-0.339-0.392-0.69
		C4.412,2.736,4.281,2.519,4.281,2.434c0-0.056,0.059-0.123,0.176-0.206c0.117-0.082,0.207-0.122,0.269-0.122
		c0.125,0,0.226,0.02,0.304,0.058c0.109,0.056,0.171,0.133,0.188,0.234c0.039,0.156,0.062,0.241,0.069,0.257
		c0.023,0.04,0.117,0.113,0.281,0.222c0.047,0.079,0.129,0.192,0.246,0.34c0.055,0.007,0.082-0.023,0.082-0.093
		c0-0.078-0.055-0.275-0.164-0.591C5.623,2.217,5.567,2.02,5.567,1.942c0-0.273,0.132-0.409,0.398-0.409
		c0.132,0,0.229,0.074,0.292,0.222c0.04,0.133,0.078,0.265,0.117,0.398c0.008,0.038,0.102,0.245,0.281,0.62
		c0.031,0.062,0.078,0.093,0.14,0.093c0.094,0,0.141-0.066,0.141-0.199c0-0.101-0.03-0.269-0.088-0.503
		C6.79,1.93,6.76,1.766,6.76,1.672c0-0.062,0.061-0.159,0.181-0.292c0.121-0.132,0.217-0.198,0.287-0.198
		c0.171,0,0.276,0.245,0.315,0.736C7.59,2.472,7.696,2.812,7.86,2.936c0.124-0.007,0.199-0.141,0.222-0.398c0,0.007,0-0.167,0-0.526
		c0-0.039,0.004-0.074,0.012-0.106C8.101,1.852,8.169,1.734,8.298,1.55S8.51,1.276,8.549,1.276c0.062,0,0.127,0.041,0.193,0.122
		C8.809,1.48,8.849,1.552,8.866,1.614c0,0.016,0,0.067,0,0.152c0,0.055,0.014,0.112,0.04,0.17C8.934,1.995,8.948,2.04,8.948,2.07
		c0,0.093-0.025,0.233-0.077,0.415c-0.05,0.184-0.075,0.318-0.075,0.404c0,0.086,0.047,0.164,0.141,0.234
		c0.146-0.148,0.245-0.258,0.292-0.328c0.055-0.109,0.108-0.222,0.163-0.338c0.017-0.023,0.093-0.137,0.233-0.34
		c0.009-0.054,0.04-0.125,0.094-0.211c0.086-0.101,0.194-0.151,0.328-0.151c0.078,0,0.166,0.054,0.263,0.164
		c0.098,0.11,0.146,0.204,0.146,0.281c0,0.031-0.105,0.235-0.32,0.613C9.92,3.191,9.812,3.399,9.812,3.438
		c0,0.094,0.054,0.141,0.165,0.141c0.155,0,0.363-0.144,0.626-0.433c0.261-0.288,0.46-0.433,0.601-0.433
		c-0.007,0,0.09,0.043,0.293,0.129v0.152c0,0.25-0.086,0.48-0.257,0.689c-0.078,0.11-0.23,0.254-0.457,0.434
		c-0.172,0.132-0.257,0.234-0.257,0.304c0,0.108,0.067,0.164,0.199,0.164c0.054,0,0.26-0.073,0.614-0.217s0.559-0.217,0.613-0.217
		c0.07,0,0.167,0.062,0.293,0.187v0.036c0,0.132-0.052,0.275-0.152,0.426c-0.102,0.153-0.207,0.256-0.315,0.311
		c-0.094,0.023-0.227,0.07-0.399,0.14c-0.054,0.031-0.128,0.098-0.222,0.198c-0.108,0.11-0.162,0.188-0.162,0.234
		c0,0.133,0.065,0.198,0.198,0.198c0.038,0,0.094-0.005,0.163-0.017c0.069-0.011,0.121-0.018,0.152-0.018
		c0.156,0,0.374,0.016,0.655,0.047c0.085,0.016,0.163,0.063,0.232,0.141V6.128z M10.573,7.146c0-2.503-0.971-3.754-2.912-3.754
		c-0.873,0-1.691,0.315-2.455,0.947C4.41,5.001,4.013,5.762,4.013,6.62c0,0.865,0.317,1.6,0.953,2.204
		C5.601,9.428,6.355,9.73,7.229,9.73c0.74,0,1.465-0.241,2.174-0.726C10.183,8.475,10.573,7.856,10.573,7.146z M9.484,7.146
		c0,0.265-0.17,0.537-0.514,0.817C8.706,8.174,8.416,8.34,8.099,8.461C7.784,8.583,7.493,8.642,7.229,8.642
		c-0.57,0-1.061-0.194-1.474-0.585C5.326,7.661,5.112,7.181,5.112,6.62c0-0.546,0.292-1.046,0.877-1.498
		c0.545-0.421,1.103-0.631,1.672-0.631c0.71,0,1.208,0.28,1.497,0.841C9.375,5.747,9.484,6.35,9.484,7.146z M8.667,6.608
		c0-0.358-0.086-0.663-0.258-0.913C8.214,5.407,7.945,5.263,7.602,5.263c-0.46,0-0.842,0.11-1.146,0.328
		C6.106,5.84,5.93,6.183,5.93,6.62c0,0.326,0.132,0.611,0.397,0.854c0.257,0.225,0.557,0.338,0.901,0.338
		c0.405,0,0.74-0.097,1.005-0.292C8.522,7.31,8.667,7.005,8.667,6.608z M8.117,6.608c0,0.444-0.297,0.666-0.888,0.666
		c-0.188,0-0.355-0.062-0.503-0.187C6.562,6.955,6.479,6.799,6.479,6.62c0-0.281,0.121-0.492,0.363-0.632
		c0.203-0.117,0.456-0.176,0.76-0.176c0.172,0,0.309,0.09,0.41,0.27C8.082,6.229,8.117,6.406,8.117,6.608z"/>
</g>
</svg>
