<?xml version="1.0" encoding="utf-8"?>
<!-- Generator: Adobe Illustrator 15.1.0, SVG Export Plug-In . SVG Version: 6.00 Build 0)  -->
<!DOCTYPE svg PUBLIC "-//W3C//DTD SVG 1.1//EN" "http://www.w3.org/Graphics/SVG/1.1/DTD/svg11.dtd">
<svg version="1.1" id="Layer_1" xmlns="http://www.w3.org/2000/svg" xmlns:xlink="http://www.w3.org/1999/xlink" x="0px" y="0px"
	 width="14.172px" height="14.172px" viewBox="0 0 14.172 14.172" enable-background="new 0 0 14.172 14.172" xml:space="preserve">
<g enable-background="new    ">
	<path d="M5.368,6.548c0,0.048-0.167,0.143-0.501,0.287C4.695,6.901,4.522,6.969,4.351,7.036C3.949,7.159,3.314,7.241,2.445,7.278
		L1.872,7.307c-0.21,0.01-0.358-0.062-0.444-0.215C1.409,7.055,1.361,6.883,1.284,6.576c0.067-0.315,0.137-0.518,0.208-0.609
		C1.564,5.876,1.69,5.831,1.872,5.831c0.038,0,0.112,0.003,0.222,0.007c0.11,0.004,0.203,0.008,0.28,0.008
		c0.42,0,0.707,0.004,0.859,0.013c0.334,0.02,0.616,0.063,0.845,0.13C4.938,6.237,5.368,6.424,5.368,6.548z M5.396,5.288
		c0.01,0.124,0.002,0.198-0.021,0.222C5.351,5.534,5.272,5.544,5.138,5.544L1.944,2.636c0.219-0.095,0.387-0.258,0.501-0.487
		L5.396,5.288z M5.425,7.851l-2.938,3.124c-0.105-0.22-0.263-0.388-0.473-0.502l3.138-2.922c0.133-0.011,0.21,0.004,0.229,0.042
		C5.401,7.613,5.415,7.699,5.425,7.851z M7.231,6.548c0,0.238-0.084,0.442-0.252,0.609C6.813,7.323,6.61,7.408,6.371,7.408
		c-0.239,0-0.441-0.085-0.609-0.251c-0.167-0.167-0.25-0.371-0.25-0.609c0-0.239,0.083-0.442,0.25-0.61
		c0.167-0.166,0.37-0.25,0.609-0.25c0.239,0,0.442,0.084,0.608,0.25C7.147,6.105,7.231,6.309,7.231,6.548z M7.13,2.565
		C7.102,2.89,7.073,3.209,7.044,3.525C7.005,3.887,6.944,4.203,6.858,4.47c0,0.048-0.062,0.22-0.187,0.516
		C6.528,5.321,6.428,5.487,6.371,5.487c-0.115,0-0.296-0.429-0.544-1.289C5.73,3.883,5.683,3.315,5.683,2.493
		c0-0.075-0.002-0.169-0.008-0.279C5.671,2.104,5.669,2.03,5.669,1.992c0-0.181,0.045-0.308,0.136-0.38
		c0.09-0.071,0.294-0.14,0.609-0.207C6.71,1.48,6.876,1.529,6.916,1.548C7.059,1.624,7.13,1.767,7.13,1.977V2.565z M7.13,11.119
		c0,0.21-0.071,0.354-0.215,0.429c-0.029,0.02-0.191,0.072-0.488,0.158c-0.314-0.066-0.518-0.136-0.609-0.208
		c-0.09-0.071-0.136-0.198-0.136-0.379c0-0.039,0.002-0.113,0.007-0.224c0.005-0.108,0.007-0.202,0.007-0.279
		c0-0.812,0.048-1.379,0.144-1.703c0.248-0.86,0.429-1.29,0.544-1.29c0.058,0,0.153,0.162,0.287,0.487
		c0.134,0.296,0.201,0.468,0.201,0.516c0.172,0.525,0.258,1.165,0.258,1.92V11.119z M10.812,2.636L7.66,5.544
		c-0.144,0-0.227-0.009-0.25-0.028C7.385,5.498,7.378,5.42,7.388,5.288l2.938-3.139C10.411,2.369,10.573,2.532,10.812,2.636z
		 M10.812,10.473c-0.21,0.114-0.372,0.282-0.486,0.502L7.417,7.836C7.407,7.704,7.412,7.623,7.43,7.593
		C7.45,7.565,7.527,7.551,7.66,7.551L10.812,10.473z M11.557,6.59c-0.075,0.297-0.13,0.465-0.157,0.502
		c-0.077,0.144-0.22,0.215-0.43,0.215h-0.573c-0.325-0.029-0.645-0.058-0.96-0.086c-0.373-0.038-0.688-0.1-0.945-0.186
		c-0.049,0-0.221-0.062-0.517-0.188c-0.334-0.144-0.502-0.243-0.502-0.3c0-0.115,0.431-0.296,1.29-0.545
		c0.334-0.095,0.903-0.144,1.704-0.144c0.077,0,0.163-0.004,0.26-0.013c0.115,0,0.19,0,0.229,0c0.181,0,0.305,0.042,0.371,0.128
		C11.414,6.071,11.491,6.276,11.557,6.59z"/>
</g>
</svg>
