<?xml version="1.0" encoding="utf-8"?>
<!-- Generator: Adobe Illustrator 15.1.0, SVG Export Plug-In . SVG Version: 6.00 Build 0)  -->
<!DOCTYPE svg PUBLIC "-//W3C//DTD SVG 1.1//EN" "http://www.w3.org/Graphics/SVG/1.1/DTD/svg11.dtd">
<svg version="1.1" id="Layer_1" xmlns="http://www.w3.org/2000/svg" xmlns:xlink="http://www.w3.org/1999/xlink" x="0px" y="0px"
	 width="14.172px" height="14.172px" viewBox="0 0 14.172 14.172" enable-background="new 0 0 14.172 14.172" xml:space="preserve">
<g enable-background="new    ">
	<path d="M7.538,11.53H2.834V4.666l0.507-0.394H7.49l0.046,0.327v6.931H7.538z M11.606,4.025H8.658
		c0.312-0.076,0.609-0.231,0.896-0.467c0.066-0.054,0.222-0.22,0.467-0.5c0.244-0.28,0.391-0.458,0.439-0.534l-0.428-0.16
		C9.765,2.986,9.534,3.37,9.338,3.511C8.844,3.876,8.303,4.047,7.717,4.025H7.711c0.279-0.071,0.617-0.253,1.015-0.547
		c0.452-0.329,0.68-0.607,0.68-0.834S9.308,2.235,9.113,2.097c-0.174-0.12-0.378-0.18-0.614-0.18c-0.324,0-0.582,0.165-0.773,0.494
		c-0.153,0.266-0.237,0.58-0.256,0.94C7.385,3.009,7.25,2.711,7.063,2.458C6.829,2.133,6.563,1.97,6.27,1.97
		c-0.463,0-0.694,0.189-0.694,0.567c0,0.218,0.26,0.485,0.78,0.801c0.355,0.213,0.711,0.427,1.066,0.64
		c-0.479-0.133-1.188-0.354-2.127-0.66C4.989,3.203,4.72,2.949,4.488,2.558l-0.32,0.494C4.6,3.38,5.124,3.609,5.742,3.738
		c0.57,0.098,1.136,0.194,1.701,0.287H3.668l0.5-0.4h0.527c-0.178-0.116-0.447-0.282-0.807-0.5l0.494-0.921
		C4.596,2.44,4.807,2.676,5.016,2.912c0.24,0.231,0.518,0.374,0.834,0.427c-0.316-0.213-0.474-0.48-0.474-0.801
		c0-0.245,0.091-0.436,0.273-0.573c0.16-0.129,0.367-0.194,0.621-0.194c0.52,0,0.906,0.383,1.161,1.147
		c0.183-0.8,0.538-1.201,1.067-1.201c0.293,0,0.547,0.08,0.76,0.24C9.49,2.13,9.605,2.359,9.605,2.645
		c0,0.36-0.327,0.696-0.979,1.007C9.017,3.607,9.306,3.426,9.492,3.11c0.022-0.04,0.155-0.371,0.4-0.994l0.813,0.354L9.685,3.638
		h1.421L11.606,4.025z M7.283,3.559c-0.239-0.103-0.489-0.263-0.747-0.48C6.22,2.815,6.063,2.591,6.063,2.404
		c0-0.182,0.104-0.273,0.313-0.273c0.218,0,0.419,0.187,0.607,0.561C7.117,2.954,7.215,3.243,7.283,3.559z M9.045,2.538
		c0,0.254-0.467,0.596-1.401,1.027c0-0.253,0.073-0.538,0.221-0.854c0.173-0.374,0.371-0.561,0.595-0.561
		c0.103,0,0.223,0.038,0.359,0.113C8.969,2.354,9.045,2.444,9.045,2.538z M12.252,11.53h-4.31V4.666
		C7.899,4.55,7.852,4.419,7.803,4.272h4.104l0.348,0.287v6.97H12.252z"/>
</g>
</svg>
