<?xml version="1.0" encoding="utf-8"?>
<!-- Generator: Adobe Illustrator 15.1.0, SVG Export Plug-In . SVG Version: 6.00 Build 0)  -->
<!DOCTYPE svg PUBLIC "-//W3C//DTD SVG 1.1//EN" "http://www.w3.org/Graphics/SVG/1.1/DTD/svg11.dtd">
<svg version="1.1" id="Layer_1" xmlns="http://www.w3.org/2000/svg" xmlns:xlink="http://www.w3.org/1999/xlink" x="0px" y="0px"
	 width="14.172px" height="14.172px" viewBox="0 0 14.172 14.172" enable-background="new 0 0 14.172 14.172" xml:space="preserve">
<g enable-background="new    ">
	<path d="M5.119,4.56v0.797c1.399,0.57,2.098,1.545,2.098,2.924c0,0.859-0.305,1.592-0.912,2.197c-0.607,0.605-1.34,0.908-2.2,0.908
		c-0.855,0-1.587-0.303-2.194-0.908S1,9.144,1,8.292C1,6.949,1.699,5.97,3.098,5.357V4.56c0.195-0.102,0.438-0.176,0.727-0.223
		V4.214c0-0.402,0.131-0.741,0.393-1.017s0.582-0.413,0.961-0.413c0.512,0,1.129,0.311,1.852,0.932l0.311,0.27
		C8.09,4.63,8.702,4.953,9.174,4.953c0.16,0,0.359-0.062,0.598-0.188c0.035-0.02,0.082-0.029,0.141-0.029
		c0.18,0,0.27,0.072,0.27,0.217c0,0.152-0.107,0.287-0.32,0.404S9.407,5.533,9.133,5.533c-0.582,0-1.305-0.363-2.168-1.09
		L6.631,4.162C5.998,3.63,5.51,3.365,5.166,3.365c-0.508,0-0.762,0.324-0.762,0.973C4.658,4.392,4.896,4.466,5.119,4.56z
		 M7.897,2.474l0.234-0.193l1.441,1.898L7.897,2.474z M9.086,7.794l-0.275-0.1l0.979-2.18L9.086,7.794z M9.924,2.281h0.299
		l-0.141,1.717L9.924,2.281z M11.067,7.091l-0.281,0.1l-0.434-1.664L11.067,7.091z M12.004,2.281l0.24,0.182l-1.641,1.723
		L12.004,2.281z M12.883,6.259L12.743,6.5l-1.975-1.318L12.883,6.259z M12.543,4.22l0.047,0.275l-1.723,0.158L12.543,4.22z"/>
</g>
</svg>
