<?xml version="1.0" encoding="utf-8"?>
<!-- Generator: Adobe Illustrator 15.1.0, SVG Export Plug-In . SVG Version: 6.00 Build 0)  -->
<!DOCTYPE svg PUBLIC "-//W3C//DTD SVG 1.1//EN" "http://www.w3.org/Graphics/SVG/1.1/DTD/svg11.dtd">
<svg version="1.1" id="Layer_1" xmlns="http://www.w3.org/2000/svg" xmlns:xlink="http://www.w3.org/1999/xlink" x="0px" y="0px"
	 width="14.172px" height="14.172px" viewBox="0 0 14.172 14.172" enable-background="new 0 0 14.172 14.172" xml:space="preserve">
<g enable-background="new    ">
	<path d="M10.971,5.041c0.461,0.792,0.691,1.657,0.691,2.593c0,0.938-0.23,1.803-0.691,2.594c-0.462,0.793-1.09,1.42-1.882,1.882
		C8.297,12.569,7.433,12.8,6.496,12.8s-1.802-0.231-2.593-0.691c-0.793-0.462-1.419-1.089-1.881-1.882
		C1.561,9.436,1.33,8.571,1.33,7.633c0-0.936,0.231-1.8,0.692-2.593C2.483,4.249,3.11,3.621,3.903,3.16
		c0.792-0.462,1.656-0.693,2.593-0.693S8.297,2.698,9.089,3.16C9.881,3.621,10.509,4.249,10.971,5.041z M7.116,8.234h2.429v-1.22
		H7.116V4.585H5.897v2.428H3.458v1.22h2.439v2.438h1.219V8.234z"/>
</g>
</svg>
