<?xml version="1.0" encoding="utf-8"?>
<!-- Generator: Adobe Illustrator 15.1.0, SVG Export Plug-In . SVG Version: 6.00 Build 0)  -->
<!DOCTYPE svg PUBLIC "-//W3C//DTD SVG 1.1//EN" "http://www.w3.org/Graphics/SVG/1.1/DTD/svg11.dtd">
<svg version="1.1" id="Layer_1" xmlns="http://www.w3.org/2000/svg" xmlns:xlink="http://www.w3.org/1999/xlink" x="0px" y="0px"
	 width="14.172px" height="14.172px" viewBox="0 0 14.172 14.172" enable-background="new 0 0 14.172 14.172" xml:space="preserve">
<g enable-background="new    ">
	<path d="M12.71,8.807c-0.108,0.346-0.255,0.694-0.436,1.049h-1.578c-0.246,0.327-0.531,0.612-0.857,0.857v1.578
		c-0.354,0.182-0.704,0.327-1.049,0.436l-1.102-1.115c-0.2,0.026-0.404,0.041-0.613,0.041c-0.208,0-0.413-0.015-0.612-0.041
		l-1.116,1.115c-0.336-0.108-0.68-0.254-1.034-0.436v-1.578c-0.327-0.245-0.617-0.53-0.871-0.857H1.877
		C1.687,9.501,1.541,9.153,1.441,8.807l1.116-1.102c-0.027-0.2-0.041-0.403-0.041-0.613c0-0.208,0.013-0.412,0.041-0.612
		L1.441,5.365c0.1-0.335,0.245-0.681,0.436-1.034h1.565c0.254-0.327,0.544-0.617,0.871-0.872V1.894
		c0.354-0.191,0.698-0.336,1.034-0.436l1.116,1.116c0.199-0.027,0.404-0.041,0.612-0.041c0.209,0,0.413,0.013,0.613,0.041
		l1.102-1.116c0.345,0.1,0.694,0.245,1.049,0.436v1.565c0.326,0.254,0.611,0.545,0.857,0.872h1.578
		c0.181,0.353,0.327,0.699,0.436,1.034L11.594,6.48c0.027,0.2,0.042,0.404,0.042,0.612c0,0.209-0.015,0.413-0.042,0.613L12.71,8.807
		z M10.833,7.093c0-1.035-0.368-1.92-1.103-2.661c-0.734-0.74-1.619-1.109-2.654-1.109s-1.921,0.37-2.661,1.109
		c-0.739,0.74-1.109,1.626-1.109,2.661s0.37,1.919,1.109,2.654c0.74,0.735,1.626,1.104,2.661,1.104s1.919-0.368,2.654-1.104
		C10.464,9.012,10.833,8.127,10.833,7.093z M10.574,7.093c0,0.962-0.342,1.786-1.027,2.47c-0.686,0.686-1.509,1.027-2.47,1.027
		c-0.971,0-1.796-0.342-2.477-1.027c-0.681-0.685-1.021-1.508-1.021-2.47c0-0.97,0.34-1.796,1.021-2.477
		C5.28,3.935,6.105,3.595,7.076,3.595c0.961,0,1.785,0.34,2.47,1.021C10.232,5.296,10.574,6.123,10.574,7.093z M8.396,7.093
		c0-0.362-0.129-0.673-0.388-0.933C7.75,5.902,7.439,5.772,7.076,5.772c-0.363,0-0.674,0.13-0.933,0.388
		C5.885,6.419,5.756,6.73,5.756,7.093c0,0.363,0.129,0.673,0.388,0.932c0.259,0.259,0.569,0.388,0.933,0.388
		c0.363,0,0.673-0.129,0.932-0.388S8.396,7.456,8.396,7.093z"/>
</g>
</svg>
