<?xml version="1.0" encoding="utf-8"?>
<!-- Generator: Adobe Illustrator 15.1.0, SVG Export Plug-In . SVG Version: 6.00 Build 0)  -->
<!DOCTYPE svg PUBLIC "-//W3C//DTD SVG 1.1//EN" "http://www.w3.org/Graphics/SVG/1.1/DTD/svg11.dtd">
<svg version="1.1" id="Layer_1" xmlns="http://www.w3.org/2000/svg" xmlns:xlink="http://www.w3.org/1999/xlink" x="0px" y="0px"
	 width="14.172px" height="14.172px" viewBox="0 0 14.172 14.172" enable-background="new 0 0 14.172 14.172" xml:space="preserve">
<g enable-background="new    ">
	<path d="M8.902,6.716c-0.274,0.36-0.549,0.629-0.819,0.81c-0.271,0.18-0.541,0.314-0.81,0.403S6.715,8.063,6.407,8.063
		c-0.812,0-1.461-0.291-1.95-0.871C3.969,6.611,3.725,5.914,3.725,5.096c0-0.583,0.127-1.108,0.381-1.577
		C4.36,3.05,4.713,2.685,5.165,2.418C5.616,2.152,6.11,2.02,6.648,2.02c0.623,0,1.207,0.184,1.751,0.553
		C8.945,2.94,9.36,3.494,9.639,4.23s0.42,1.648,0.42,2.734c0,1.543-0.317,2.772-0.951,3.69C8.474,11.571,7.567,12.03,6.39,12.03
		c-0.806,0-1.411-0.176-1.817-0.527c-0.405-0.352-0.608-0.752-0.608-1.204v-0.06h1.131v0.06c0,0.188,0.105,0.368,0.317,0.536
		c0.212,0.168,0.531,0.252,0.96,0.252c0.502,0,0.941-0.148,1.316-0.449c0.374-0.301,0.67-0.791,0.892-1.475
		c0.219-0.684,0.33-1.387,0.33-2.112L8.902,6.716z M6.639,2.961c-0.486,0-0.896,0.208-1.23,0.622
		C5.075,3.998,4.908,4.513,4.908,5.13c0,0.611,0.175,1.095,0.527,1.452s0.779,0.536,1.28,0.536c0.556,0,1.006-0.204,1.355-0.612
		C8.418,6.099,8.592,5.61,8.592,5.044c0-0.365-0.084-0.717-0.256-1.054C8.165,3.653,7.928,3.398,7.625,3.225
		C7.321,3.049,6.993,2.961,6.639,2.961z"/>
</g>
</svg>
