<?xml version="1.0" encoding="utf-8"?>
<!-- Generator: Adobe Illustrator 15.1.0, SVG Export Plug-In . SVG Version: 6.00 Build 0)  -->
<!DOCTYPE svg PUBLIC "-//W3C//DTD SVG 1.1//EN" "http://www.w3.org/Graphics/SVG/1.1/DTD/svg11.dtd">
<svg version="1.1" id="Layer_1" xmlns="http://www.w3.org/2000/svg" xmlns:xlink="http://www.w3.org/1999/xlink" x="0px" y="0px"
	 width="14.172px" height="14.172px" viewBox="0 0 14.172 14.172" enable-background="new 0 0 14.172 14.172" xml:space="preserve">
<path d="M2.801,7.016L2.345,7.485L1.889,7.016L2.345,6.56L2.801,7.016z M3.713,6.104L3.257,6.56L2.801,6.104l0.456-0.456
	L3.713,6.104z M3.257,7.485L2.801,7.939l0.456,0.457l0.456-0.457L3.257,7.485z M4.169,6.56L3.713,7.016l0.456,0.469l0.468-0.469
	L4.169,6.56z M6.461,3.368L6.005,3.824L5.549,3.368l0.456-0.456L6.461,3.368z M5.549,7.016L6.005,6.56l0.456,0.456L6.005,7.485
	L5.549,7.016z M5.549,10.676l0.456-0.455l0.456,0.455l-0.456,0.457L5.549,10.676z M7.373,2.456L6.917,2.912L6.461,2.456L6.917,2
	L7.373,2.456z M6.917,3.824L6.461,4.28l0.456,0.456L7.373,4.28L6.917,3.824z M6.461,6.104l0.456-0.456l0.456,0.456L6.917,6.56
	L6.461,6.104z M6.461,7.939l0.456-0.455l0.456,0.455L6.917,8.396L6.461,7.939z M6.461,9.764l0.456-0.455l0.456,0.455l-0.456,0.457
	L6.461,9.764z M6.461,11.588l0.456-0.455l0.456,0.455l-0.456,0.457L6.461,11.588z M7.829,2.912L7.373,3.368l0.456,0.456l0.456-0.456
	L7.829,2.912z M7.373,7.016L7.829,6.56l0.456,0.456L7.829,7.485L7.373,7.016z M7.373,10.676l0.456-0.455l0.456,0.455l-0.456,0.457
	L7.373,10.676z M9.197,7.016L9.665,6.56l0.456,0.456L9.665,7.485L9.197,7.016z M10.121,6.104l0.456-0.456l0.456,0.456L10.577,6.56
	L10.121,6.104z M10.121,7.939l0.456-0.455l0.456,0.455l-0.456,0.457L10.121,7.939z M11.033,7.016l0.456-0.456l0.456,0.456
	l-0.456,0.469L11.033,7.016z"/>
</svg>
