<?xml version="1.0" encoding="utf-8"?>
<!-- Generator: Adobe Illustrator 15.1.0, SVG Export Plug-In . SVG Version: 6.00 Build 0)  -->
<!DOCTYPE svg PUBLIC "-//W3C//DTD SVG 1.1//EN" "http://www.w3.org/Graphics/SVG/1.1/DTD/svg11.dtd">
<svg version="1.1" id="Layer_1" xmlns="http://www.w3.org/2000/svg" xmlns:xlink="http://www.w3.org/1999/xlink" x="0px" y="0px"
	 width="14.172px" height="14.172px" viewBox="0 0 14.172 14.172" enable-background="new 0 0 14.172 14.172" xml:space="preserve">
<path d="M12.088,6.558c0,1.268-0.443,2.346-1.328,3.231s-1.962,1.328-3.23,1.328c-1.254,0-2.327-0.447-3.22-1.34
	S2.971,7.812,2.971,6.558c0-1.269,0.443-2.346,1.328-3.23C5.184,2.442,6.261,2,7.529,2c1.266,0,2.342,0.443,3.229,1.33
	S12.088,5.292,12.088,6.558z M9.75,9.447L4.642,4.351C4.14,4.992,3.889,5.728,3.889,6.558c0,1.015,0.354,1.877,1.06,2.586
	s1.566,1.062,2.581,1.062C8.348,10.207,9.088,9.953,9.75,9.447z M11.161,6.558c0-1.016-0.353-1.876-1.056-2.58
	C9.402,3.274,8.543,2.922,7.527,2.922c-0.824,0-1.568,0.253-2.23,0.76l5.108,5.109c0.243-0.326,0.431-0.679,0.562-1.059
	C11.097,7.362,11.161,6.971,11.161,6.558z"/>
</svg>
