<?xml version="1.0" encoding="utf-8"?>
<!-- Generator: Adobe Illustrator 15.1.0, SVG Export Plug-In . SVG Version: 6.00 Build 0)  -->
<!DOCTYPE svg PUBLIC "-//W3C//DTD SVG 1.1//EN" "http://www.w3.org/Graphics/SVG/1.1/DTD/svg11.dtd">
<svg version="1.1" id="Layer_1" xmlns="http://www.w3.org/2000/svg" xmlns:xlink="http://www.w3.org/1999/xlink" x="0px" y="0px"
	 width="14.172px" height="14.172px" viewBox="0 0 14.172 14.172" enable-background="new 0 0 14.172 14.172" xml:space="preserve">
<g enable-background="new    ">
	<path d="M11.706,6.802c0,1.222-0.431,2.265-1.295,3.127c-0.864,0.86-1.903,1.291-3.117,1.291c-1.221,0-2.262-0.431-3.122-1.291
		C3.311,9.067,2.881,8.024,2.881,6.802c0-1.222,0.43-2.263,1.291-3.125c0.86-0.862,1.901-1.293,3.122-1.293
		c1.214,0,2.253,0.431,3.117,1.293C11.275,4.539,11.706,5.58,11.706,6.802z M10.216,6.792c0-0.811-0.287-1.503-0.859-2.078
		C8.783,4.139,8.09,3.852,7.283,3.852c-0.809,0-1.5,0.287-2.074,0.861c-0.573,0.575-0.86,1.268-0.86,2.078s0.287,1.504,0.86,2.078
		c0.574,0.574,1.265,0.861,2.074,0.861c0.808,0,1.5-0.287,2.074-0.861C9.929,8.295,10.216,7.602,10.216,6.792z M9.134,7.803
		L8.296,8.651L7.292,7.649L6.29,8.651l-0.851-0.85l0.999-0.986L5.44,5.804l0.851-0.85L7.29,5.966l1.01-1.009l0.836,0.848
		L8.133,6.806L9.134,7.803z"/>
</g>
</svg>
