<?xml version="1.0" encoding="utf-8"?>
<!-- Generator: Adobe Illustrator 15.1.0, SVG Export Plug-In . SVG Version: 6.00 Build 0)  -->
<!DOCTYPE svg PUBLIC "-//W3C//DTD SVG 1.1//EN" "http://www.w3.org/Graphics/SVG/1.1/DTD/svg11.dtd">
<svg version="1.1" id="Layer_1" xmlns="http://www.w3.org/2000/svg" xmlns:xlink="http://www.w3.org/1999/xlink" x="0px" y="0px"
	 width="14.172px" height="14.172px" viewBox="0 0 14.172 14.172" enable-background="new 0 0 14.172 14.172" xml:space="preserve">
<g enable-background="new    ">
	<path d="M11.624,8.295h-0.11c-0.06,0.008-0.125,0.008-0.2,0c-0.681-0.365-1.175-0.619-1.479-0.759H9.782
		c0,0.008-0.011,0.012-0.036,0.012c-0.034,0-0.112-0.034-0.236-0.1C9.385,7.382,9.301,7.344,9.261,7.336L8.712,7.188
		c-0.05,0-0.12,0.004-0.212,0.012c-0.09,0.008-0.16,0.012-0.212,0.012c-0.306,0-0.519-0.05-0.634-0.15
		c-0.157-0.14-0.257-0.214-0.298-0.223C7.314,6.83,7.252,6.814,7.169,6.79L7.095,6.901C7.328,7.026,7.582,7.235,7.86,7.529
		C8.137,7.824,8.327,8.09,8.426,8.331C8.51,8.457,8.609,8.647,8.725,8.904C8.799,9.169,8.875,9.436,8.949,9.7
		c0.091,0.316,0.199,0.568,0.323,0.759c0.075,0.076,0.175,0.182,0.3,0.317c0.124,0.138,0.24,0.293,0.348,0.468
		c0.083,0.132,0.165,0.27,0.249,0.41c0.124,0.174,0.237,0.278,0.336,0.312c0.033-0.009,0.05,0.004,0.05,0.037
		c0,0.025-0.008,0.058-0.024,0.1c-0.018,0.042-0.025,0.07-0.025,0.086c-0.216-0.298-0.544-0.741-0.982-1.331
		c-0.125-0.124-0.299-0.322-0.523-0.597c-0.115-0.182-0.224-0.427-0.323-0.734C8.601,9.27,8.527,9.016,8.451,8.767
		c-0.04-0.05-0.1-0.12-0.173-0.212C7.846,7.917,7.589,7.598,7.506,7.598c-0.009,0-0.014,0.008-0.014,0.024
		c0,0.092,0.033,0.236,0.1,0.437c0.067,0.197,0.1,0.348,0.1,0.446c0,0.466-0.166,0.847-0.496,1.145
		C7.029,9.808,6.879,9.886,6.748,9.886c-0.042,0-0.158-0.095-0.35-0.286C6.117,9.328,5.975,8.992,5.975,8.593
		c0-0.066,0.005-0.154,0.013-0.263c0.008-0.105,0.017-0.182,0.025-0.223C5.93,8.157,5.838,8.256,5.74,8.407
		C5.639,8.555,5.561,8.655,5.502,8.706C5.478,8.713,5.44,8.735,5.39,8.767c-0.091,0.382-0.232,0.867-0.422,1.456
		c-0.216,0.182-0.46,0.514-0.734,0.996c-0.332,0.562-0.572,0.937-0.722,1.119l-0.099-0.024c0.058-0.084,0.12-0.188,0.186-0.312
		c0.083-0.101,0.199-0.249,0.349-0.448c0.058-0.091,0.15-0.229,0.274-0.411c0.207-0.307,0.406-0.746,0.598-1.318
		C5.034,9.145,5.2,8.689,5.316,8.457c0.116-0.231,0.295-0.498,0.535-0.796C6.05,7.42,6.249,7.174,6.448,6.926l-0.05-0.038
		C6.208,7.096,5.982,7.231,5.72,7.293C5.459,7.355,5.2,7.411,4.943,7.46c-0.05,0.009-0.11,0.049-0.18,0.119
		C4.692,7.649,4.64,7.693,4.606,7.71C4.382,7.834,4.055,8.033,3.624,8.307C3.417,8.489,3.089,8.747,2.641,9.078
		c-0.075,0.05-0.199,0.076-0.374,0.076V9.078c0.224-0.032,0.448-0.16,0.672-0.385C2.972,8.66,3.018,8.609,3.076,8.543
		C3.093,8.527,3.13,8.519,3.188,8.519c0.025,0,0.116-0.075,0.274-0.224C3.57,8.204,3.674,8.113,3.773,8.02
		c0.174-0.107,0.436-0.273,0.784-0.498C4.624,7.448,4.74,7.344,4.906,7.212c0.149-0.074,0.443-0.17,0.883-0.286
		C5.879,6.91,6.004,6.872,6.162,6.814C6.17,6.79,6.191,6.744,6.224,6.677c0-0.008,0.042-0.07,0.125-0.188
		c0.058-0.083,0.087-0.152,0.087-0.21V6.155c-0.232-0.034-0.354-0.05-0.361-0.05C6.058,6.105,6.034,6.11,6,6.124
		C5.967,6.136,5.938,6.142,5.914,6.142c-0.042,0-0.411-0.277-1.108-0.833C4.748,5.284,4.657,5.247,4.532,5.196
		C4.507,5.18,4.387,5.088,4.171,4.922c-0.183-0.141-0.298-0.21-0.349-0.21c0.033,0-0.042,0.032-0.224,0.098
		c-0.049,0.018-0.24,0.062-0.572,0.138c-0.099,0.024-0.33,0.116-0.69,0.273c-0.36,0.158-0.554,0.238-0.579,0.238
		c-0.016,0-0.041-0.034-0.074-0.1c0.033-0.026,0.095-0.042,0.187-0.05c0.066,0,0.1-0.028,0.1-0.088c0-0.024,0.022-0.043,0.068-0.055
		c0.045-0.012,0.081-0.023,0.106-0.031C2.168,5.126,2.43,5.039,2.927,4.873c0.199-0.066,0.282-0.099,0.249-0.099
		c0.016,0,0.041,0.004,0.074,0.012c0.033,0.008,0.058,0.012,0.075,0.012c0.058,0,0.159-0.038,0.304-0.112S3.873,4.55,3.923,4.5
		C4.03,4.6,4.161,4.685,4.314,4.755s0.3,0.135,0.441,0.193c0.075,0.042,0.125,0.104,0.15,0.187h0.087
		c0.166,0,0.522,0.249,1.07,0.747c0.05,0.042,0.083,0.062,0.099,0.062c0.025,0,0.038-0.012,0.038-0.038
		c0-0.016-0.023-0.063-0.069-0.143c-0.045-0.079-0.067-0.13-0.067-0.155c0-0.157,0.065-0.34,0.199-0.547
		C6.278,5.035,6.37,4.944,6.536,4.786c0-0.008-0.013-0.012-0.037-0.012c-0.033,0-0.092,0.018-0.175,0.055
		C6.241,4.867,6.179,4.886,6.137,4.886c-0.291,0-0.436-0.188-0.436-0.56c0-0.066,0.029-0.17,0.087-0.312L5.751,3.989
		c-0.075,0.1-0.197,0.195-0.367,0.287S5.067,4.412,4.943,4.412c-0.025,0-0.075-0.066-0.149-0.199
		C4.727,4.164,4.636,4.085,4.52,3.977c-0.116-0.108-0.273-0.278-0.473-0.51c-0.1-0.132-0.199-0.266-0.299-0.398
		C3.624,2.903,3.549,2.754,3.524,2.621c-0.017-0.016-0.05-0.041-0.1-0.074C3.408,2.538,3.4,2.484,3.4,2.384h0.075l0.087,0.088
		c0.033,0.082,0.22,0.38,0.56,0.895c0.042,0.034,0.1,0.08,0.174,0.138c0.158,0.157,0.34,0.352,0.547,0.584
		c0.009,0.016,0.029,0.06,0.063,0.131c0.033,0.07,0.062,0.105,0.087,0.105c0.099,0,0.247-0.062,0.441-0.187
		c0.195-0.125,0.321-0.243,0.38-0.355c0.058-0.112,0.113-0.228,0.168-0.348c0.054-0.12,0.151-0.181,0.292-0.181
		c0.066,0,0.106-0.031,0.118-0.093C6.405,3.1,6.44,3.069,6.499,3.069c0.016,0,0.05,0.007,0.099,0.019
		C6.647,3.1,6.688,3.106,6.722,3.106c0.033,0,0.091-0.004,0.174-0.012c0.083,0,0.146,0,0.186,0c0.092,0,0.196,0.074,0.312,0.223
		C7.468,3.435,7.546,3.549,7.63,3.666C7.663,3.708,7.784,3.842,7.992,4.07c0.207,0.229,0.314,0.342,0.323,0.342
		c0.142,0,0.328-0.161,0.56-0.485h0.024c0.059-0.082,0.232-0.27,0.522-0.56C9.538,3.259,9.628,3.115,9.69,2.932
		C9.752,2.75,9.812,2.576,9.87,2.41l0.088,0.024v0.088c0,0.058-0.049,0.184-0.143,0.379C9.718,3.096,9.642,3.227,9.583,3.293
		c-0.025,0.024-0.058,0.058-0.099,0.1c-0.01,0.024-0.025,0.058-0.051,0.099c-0.066,0.092-0.225,0.25-0.473,0.474l0.014,0.012
		C8.923,4.052,8.85,4.167,8.75,4.326c-0.018,0.016-0.116,0.054-0.3,0.112C8.327,4.479,8.281,4.5,8.315,4.5
		c-0.074,0-0.258-0.17-0.547-0.51L7.73,4.014c0.032,0.084,0.049,0.154,0.049,0.212c0,0.142-0.032,0.266-0.099,0.374
		C7.606,4.732,7.506,4.798,7.381,4.798c-0.05,0-0.118-0.008-0.205-0.024C7.088,4.756,7.025,4.748,6.983,4.748
		c0.066,0.042,0.158,0.125,0.274,0.25C7.39,5.263,7.456,5.433,7.456,5.507c0,0.084-0.036,0.192-0.111,0.324
		c0.023,0.034,0.067,0.05,0.124,0.05c0.016,0,0.057-0.026,0.118-0.074c0.062-0.05,0.098-0.08,0.105-0.088
		C7.8,5.677,7.958,5.595,8.165,5.47c0.1-0.1,0.266-0.236,0.498-0.41c0.655-0.356,1.083-0.536,1.281-0.536
		c0.084,0,0.159,0.038,0.231,0.112c0.069,0.076,0.133,0.112,0.192,0.112c0.017,0,0.038-0.005,0.067-0.019
		c0.03-0.012,0.052-0.018,0.069-0.018c0.033,0,0.074,0.018,0.124,0.055s0.112,0.057,0.188,0.057c0.017,0,0.035,0.01,0.056,0.031
		c0.021,0.02,0.043,0.031,0.068,0.031c0.017,0,0.035-0.008,0.056-0.025c0.021-0.016,0.039-0.024,0.056-0.024
		c0.232,0,0.386,0.07,0.462,0.21h-0.2c-0.084,0-0.324-0.057-0.721-0.174C10.193,4.756,9.95,4.674,9.858,4.624
		C9.782,4.708,9.591,4.856,9.286,5.072C8.977,5.288,8.792,5.395,8.725,5.395c-0.018,0-0.036-0.005-0.062-0.018
		C8.637,5.364,8.617,5.358,8.601,5.358C8.218,5.889,7.842,6.133,7.468,6.093c-0.024,0.024-0.12,0.041-0.286,0.049H7.133v0.138
		c0,0.042,0.057,0.124,0.173,0.249c0.116,0.124,0.2,0.195,0.25,0.212c0.09,0.024,0.311,0.042,0.66,0.05
		c0.265,0,0.473,0.058,0.621,0.174c0.008,0.008,0.065,0.075,0.174,0.199c0.042,0.05,0.137,0.074,0.286,0.074
		c0.066,0,0.152,0.037,0.261,0.107c0.107,0.07,0.191,0.105,0.25,0.105c0.033,0,0.065-0.004,0.099-0.012
		c0.142,0.092,0.286,0.178,0.436,0.261c0.183,0.117,0.336,0.18,0.46,0.188c0.059,0.017,0.146,0.05,0.263,0.099
		c0.116,0.05,0.302,0.112,0.559,0.188V8.295z M4.084,4.698C4.034,4.666,3.993,4.65,3.96,4.65L3.947,4.662
		c0.05,0.024,0.091,0.037,0.125,0.037H4.084z M4.682,5.134c-0.058-0.066-0.12-0.1-0.187-0.1H4.482
		C4.523,5.101,4.59,5.134,4.682,5.134z M5.975,5.943c-0.157-0.208-0.481-0.44-0.97-0.696C5.08,5.371,5.208,5.499,5.39,5.632
		c0.15,0.107,0.299,0.211,0.448,0.311H5.975z M6.05,7h-0.1C5.883,7,5.733,7.042,5.496,7.125C5.26,7.208,5.117,7.27,5.067,7.312
		h0.149c0.058,0,0.197-0.042,0.417-0.124C5.853,7.104,5.992,7.042,6.05,7z M6.125,7.561c-0.174,0.1-0.406,0.39-0.696,0.871
		C5.536,8.34,5.768,8.05,6.125,7.561z M7.43,3.729c-0.049-0.01-0.124-0.021-0.223-0.038C7.198,3.708,7.205,3.73,7.225,3.76
		c0.021,0.029,0.032,0.056,0.032,0.08c0,0.01-0.005,0.018-0.014,0.026L7.208,3.853c-0.05-0.05-0.08-0.1-0.088-0.15
		c-0.016,0.05-0.024,0.116-0.024,0.2h-0.05C7.021,3.861,7.008,3.799,7.008,3.715c0-0.024,0.015-0.067,0.043-0.129
		c0.029-0.063,0.044-0.107,0.044-0.131c0-0.025-0.022-0.066-0.068-0.124S6.951,3.243,6.933,3.243c-0.017,0-0.039,0.007-0.067,0.019
		c-0.03,0.012-0.049,0.019-0.057,0.019c-0.017,0-0.029-0.007-0.038-0.019C6.763,3.25,6.751,3.243,6.734,3.243
		c-0.024,0-0.078,0.034-0.161,0.1S6.448,3.455,6.448,3.479c0,0.058,0.025,0.104,0.075,0.138l0.124,0.099
		C6.614,3.725,6.568,3.737,6.51,3.753c0.05,0.058,0.075,0.092,0.075,0.1C6.577,3.869,6.568,3.881,6.56,3.89L6.536,3.877
		C6.494,3.835,6.469,3.815,6.461,3.815c-0.018,0.024-0.038,0.058-0.063,0.1c-0.066-0.034-0.091-0.1-0.074-0.2
		c-0.058,0-0.145,0.014-0.261,0.038c0.033,0.042,0.065,0.096,0.099,0.162C6.17,3.973,6.179,4.064,6.187,4.189
		c0.008-0.018,0.021-0.042,0.037-0.076l0.038,0.038c-0.009,0.016-0.014,0.033-0.014,0.05c0,0.032,0.009,0.062,0.025,0.086
		c-0.008-0.074,0.017-0.14,0.075-0.198c0.008,0.016,0.012,0.037,0.012,0.062c0,0.024-0.004,0.054-0.012,0.086
		c0.024,0,0.058,0.01,0.099,0.026c0-0.034,0.014-0.062,0.038-0.088l0.037,0.038v0.062c0.008-0.017,0.025-0.042,0.05-0.074
		l0.024,0.036C6.589,4.271,6.585,4.31,6.585,4.35c0,0.05,0.008,0.092,0.024,0.124C6.601,4.417,6.619,4.333,6.66,4.226
		C6.676,4.243,6.688,4.268,6.697,4.3c0.025-0.024,0.055-0.066,0.088-0.124c0,0.034,0.012,0.083,0.037,0.15
		c0-0.042,0.017-0.1,0.05-0.174c0.05,0.033,0.074,0.058,0.074,0.074c0,0.008-0.004,0.018-0.013,0.026L6.909,4.238L6.896,4.264
		c0,0.016,0.021,0.036,0.062,0.062c0-0.05,0.012-0.12,0.037-0.212c0.008,0.018,0.021,0.088,0.038,0.212
		c0.016-0.034,0.045-0.083,0.086-0.15C7.152,4.193,7.198,4.23,7.257,4.288c0-0.016,0.019-0.047,0.056-0.093
		c0.038-0.046,0.055-0.077,0.055-0.093S7.363,4.058,7.351,4.021c-0.013-0.038-0.02-0.069-0.02-0.093c0-0.016,0.015-0.05,0.043-0.1
		C7.403,3.777,7.422,3.745,7.43,3.729z M6.386,3.331C6.253,3.363,6.183,3.455,6.174,3.604C6.299,3.563,6.37,3.471,6.386,3.331z
		 M7.43,8.505c0-0.157-0.045-0.381-0.135-0.671c-0.117-0.332-0.233-0.498-0.35-0.498c-0.157,0-0.299,0.066-0.423,0.2
		C6.398,7.668,6.336,7.814,6.336,7.971c0,0.018,0,0.033,0,0.049c0,0.018,0,0.03,0,0.039c0,0.016-0.013,0.041-0.037,0.074
		C6.274,8.167,6.262,8.195,6.262,8.221c0,0.016,0.01,0.04,0.03,0.074c0.021,0.031,0.031,0.062,0.031,0.086
		c0,0.033-0.011,0.096-0.031,0.188C6.272,8.66,6.266,8.725,6.274,8.767v0.038c0-0.042,0.029-0.154,0.087-0.336
		c0.033,0.032,0.05,0.078,0.05,0.136c0,0.018-0.004,0.046-0.013,0.088c0,0.042,0,0.074,0,0.099v0.025c0-0.05,0.021-0.12,0.063-0.212
		c0.074,0.05,0.111,0.108,0.111,0.175c-0.009,0.116-0.009,0.182,0,0.199c-0.009-0.075,0.004-0.174,0.037-0.3
		C6.619,8.771,6.63,8.9,6.647,9.066c0.033-0.024,0.05-0.059,0.05-0.101c0-0.016-0.006-0.04-0.019-0.074
		C6.667,8.859,6.66,8.833,6.66,8.817c0-0.008,0.013-0.025,0.037-0.05C6.73,8.784,6.776,8.792,6.834,8.792
		c0.008,0.067,0.02,0.174,0.037,0.324c0.008-0.024,0.012-0.05,0.012-0.074c0-0.025-0.004-0.054-0.012-0.088
		C6.863,8.921,6.859,8.891,6.859,8.868c0-0.042,0.017-0.076,0.05-0.101c0.017,0.024,0.029,0.054,0.037,0.088
		C7.062,8.763,7.15,8.717,7.208,8.717c0.008,0,0.021,0,0.036,0C7.252,8.801,7.27,8.925,7.295,9.091c0-0.084,0.003-0.208,0.011-0.374
		c0.017,0,0.042-0.008,0.075-0.024C7.415,8.626,7.43,8.565,7.43,8.505z M6.56,7.224C6.552,7.216,6.54,7.212,6.523,7.212
		c-0.05,0-0.096,0.034-0.137,0.1h0.012C6.448,7.312,6.502,7.282,6.56,7.224z M7.071,5.172c0-0.058-0.042-0.111-0.125-0.157
		C6.863,4.971,6.789,4.948,6.722,4.948c-0.1,0-0.16,0.019-0.181,0.056C6.521,5.041,6.499,5.084,6.473,5.134
		C6.514,5.15,6.552,5.169,6.585,5.189c0.033,0.022,0.05,0.061,0.05,0.119C6.643,5.316,6.651,5.325,6.66,5.333
		C6.668,5.284,6.68,5.247,6.697,5.221c0.017,0.018,0.029,0.054,0.037,0.112C6.759,5.3,6.8,5.254,6.859,5.196
		c0.024,0.058,0.058,0.096,0.1,0.112C7.034,5.275,7.071,5.23,7.071,5.172z M6.958,5.731c0-0.082-0.059-0.124-0.174-0.124
		c-0.042,0-0.104,0.025-0.188,0.074C6.63,5.723,6.68,5.785,6.748,5.869c0-0.034,0.008-0.07,0.023-0.112
		c0.018,0.066,0.033,0.166,0.051,0.298C6.813,5.981,6.83,5.889,6.872,5.781l0.024,0.038c0,0.066,0.004,0.112,0.013,0.136
		c0-0.016,0.008-0.051,0.024-0.105C6.951,5.796,6.958,5.757,6.958,5.731z M6.697,6.714c0.009-0.066,0.013-0.103,0.013-0.112V6.578
		c0-0.016-0.004-0.033-0.013-0.05C6.688,6.562,6.684,6.582,6.684,6.59v0.062C6.684,6.669,6.688,6.689,6.697,6.714z M6.872,6.49
		H6.771c0.042,0.018,0.075,0.125,0.101,0.324C6.879,6.689,6.883,6.62,6.883,6.602C6.883,6.562,6.879,6.523,6.872,6.49z M7.244,7.1
		C7.228,7.084,7.211,7.058,7.196,7.026H7.182c-0.024,0-0.049,0.008-0.074,0.024C7.125,7.067,7.136,7.084,7.144,7.1H7.244z
		 M7.257,6.627C7.242,6.569,7.204,6.515,7.144,6.465v0.162h0.038h0.037C7.236,6.627,7.25,6.627,7.257,6.627z M7.344,3.617V3.542
		C7.328,3.5,7.295,3.451,7.244,3.393v0.112C7.244,3.555,7.278,3.591,7.344,3.617z M7.468,8.295v-0.15
		c0-0.166-0.074-0.365-0.225-0.597C7.311,7.714,7.385,7.962,7.468,8.295z M7.295,5.607V5.445c-0.01,0-0.014,0.014-0.014,0.038v0.024
		C7.282,5.549,7.286,5.583,7.295,5.607z M8.203,8.145c-0.059-0.19-0.29-0.461-0.696-0.809C7.546,7.402,7.779,7.672,8.203,8.145z
		 M8.651,6.963C8.542,6.938,8.186,6.897,7.582,6.839c0.064,0.032,0.2,0.074,0.403,0.124c0.204,0.05,0.342,0.075,0.417,0.075
		C8.518,7.038,8.601,7.014,8.651,6.963z M8.14,5.632C7.932,5.723,7.762,5.815,7.63,5.905C7.747,5.889,7.917,5.798,8.14,5.632z
		 M9.272,4.848l-0.56,0.286h0.112C8.958,5.134,9.107,5.039,9.272,4.848z"/>
</g>
</svg>
