<?xml version="1.0" encoding="utf-8"?>
<!-- Generator: Adobe Illustrator 15.1.0, SVG Export Plug-In . SVG Version: 6.00 Build 0)  -->
<!DOCTYPE svg PUBLIC "-//W3C//DTD SVG 1.1//EN" "http://www.w3.org/Graphics/SVG/1.1/DTD/svg11.dtd">
<svg version="1.1" id="Layer_1" xmlns="http://www.w3.org/2000/svg" xmlns:xlink="http://www.w3.org/1999/xlink" x="0px" y="0px"
	 width="14.172px" height="14.172px" viewBox="0 0 14.172 14.172" enable-background="new 0 0 14.172 14.172" xml:space="preserve">
<g enable-background="new    ">
	<path d="M11.497,2.932c-1.1,1.228-2.132,2.498-3.095,3.81C7.44,8.054,6.556,9.4,5.749,10.782c-0.06,0.103-0.134,0.245-0.223,0.426
		c-0.276,0.552-0.669,0.829-1.179,0.829c-0.216,0-0.395-0.032-0.535-0.097c-0.14-0.063-0.27-0.173-0.388-0.331
		c-0.098-0.134-0.189-0.312-0.274-0.531c-0.085-0.22-0.185-0.542-0.299-0.966c-0.01-0.024-0.019-0.057-0.026-0.095
		C2.693,9.545,2.627,9.25,2.627,9.13c0-0.242,0.141-0.464,0.424-0.665C3.333,8.264,3.613,8.164,3.89,8.164
		c0.089,0,0.161,0.026,0.216,0.079c0.056,0.053,0.119,0.166,0.192,0.34C4.34,8.69,4.393,8.833,4.456,9.016
		c0.145,0.407,0.265,0.611,0.363,0.611c0.084,0,0.42-0.465,1.007-1.396c0.561-0.888,1.042-1.633,1.446-2.237
		C7.837,5.15,8.267,4.539,8.561,4.163c0.296-0.376,0.564-0.661,0.801-0.857c0.209-0.169,0.477-0.303,0.803-0.401
		s0.742-0.163,1.243-0.198L11.497,2.932z"/>
</g>
</svg>
