<?xml version="1.0" encoding="utf-8"?>
<!-- Generator: Adobe Illustrator 15.1.0, SVG Export Plug-In . SVG Version: 6.00 Build 0)  -->
<!DOCTYPE svg PUBLIC "-//W3C//DTD SVG 1.1//EN" "http://www.w3.org/Graphics/SVG/1.1/DTD/svg11.dtd">
<svg version="1.1" id="Layer_1" xmlns="http://www.w3.org/2000/svg" xmlns:xlink="http://www.w3.org/1999/xlink" x="0px" y="0px"
	 width="14.172px" height="14.172px" viewBox="0 0 14.172 14.172" enable-background="new 0 0 14.172 14.172" xml:space="preserve">
<path d="M13.172,6.669c0,0.573-0.145,1.195-0.436,1.868c-0.558,1.279-1.462,2.213-2.715,2.805c-0.683,0.32-1.351,0.482-2.004,0.482
	s-1.319-0.162-1.999-0.482c-0.913-0.431-1.653-1.067-2.225-1.909C3.224,8.59,2.911,7.67,2.857,6.669
	C2.93,5.185,3.438,3.97,4.381,3.027c0.453-0.455,0.988-0.813,1.602-1.077C6.676,1.657,7.353,1.51,8.018,1.51
	c0.664,0,1.344,0.147,2.038,0.441c1.257,0.535,2.149,1.431,2.681,2.692C13.027,5.337,13.172,6.013,13.172,6.669z M7.279,5.438
	l-1.73-3.046C4.407,3.029,3.652,4.008,3.281,5.329C3.164,5.757,3.09,6.204,3.063,6.669h3.505C6.592,6.104,6.828,5.694,7.279,5.438z
	 M10.469,10.902L8.688,7.906c-0.202,0.126-0.426,0.197-0.67,0.212C7.738,8.1,7.496,8.039,7.29,7.935l-1.729,2.968
	c0.855,0.457,1.675,0.688,2.457,0.688C8.789,11.59,9.605,11.359,10.469,10.902z M8.956,6.669C8.945,6.402,8.853,6.179,8.679,6
	C8.506,5.82,8.284,5.727,8.018,5.719C7.655,5.715,7.38,5.872,7.192,6.188C7.105,6.337,7.061,6.498,7.061,6.669
	c0,0.367,0.157,0.64,0.47,0.819c0.146,0.081,0.307,0.126,0.487,0.137c0.248-0.014,0.464-0.116,0.646-0.303
	C8.848,7.135,8.945,6.917,8.956,6.669z M12.966,6.669c-0.05-1.447-0.545-2.626-1.483-3.539C11.185,2.84,10.85,2.594,10.48,2.392
	L8.762,5.416C9.197,5.652,9.426,6.07,9.448,6.669H12.966z"/>
</svg>
