<?xml version="1.0" encoding="utf-8"?>
<!-- Generator: Adobe Illustrator 15.1.0, SVG Export Plug-In . SVG Version: 6.00 Build 0)  -->
<!DOCTYPE svg PUBLIC "-//W3C//DTD SVG 1.1//EN" "http://www.w3.org/Graphics/SVG/1.1/DTD/svg11.dtd">
<svg version="1.1" id="Layer_1" xmlns="http://www.w3.org/2000/svg" xmlns:xlink="http://www.w3.org/1999/xlink" x="0px" y="0px"
	 width="14.172px" height="14.172px" viewBox="0 0 14.172 14.172" enable-background="new 0 0 14.172 14.172" xml:space="preserve">
<g enable-background="new    ">
	<path d="M9.764,11.197C9.328,11.48,9.04,11.655,8.901,11.72c-0.65,0.305-1.337,0.457-2.061,0.457c-1.338,0-2.48-0.472-3.424-1.416
		C2.472,9.818,2,8.676,2,7.337c0-1.347,0.474-2.491,1.422-3.43c0.949-0.94,2.101-1.41,3.457-1.41c0.998,0,1.96,0.325,2.885,0.975
		L8.141,3.145c-1.164,0-2.156,0.409-2.976,1.227c-0.82,0.817-1.229,1.806-1.229,2.966c0,1.151,0.408,2.138,1.223,2.96
		s1.794,1.232,2.937,1.232L9.764,11.197z M7.919,6.782h1.406l0.438-1.334l0.432,1.334h1.406l-1.139,0.824l0.432,1.341L9.764,8.123
		L8.625,8.947l0.432-1.341L7.919,6.782z"/>
</g>
</svg>
