<?xml version="1.0" encoding="utf-8"?>
<!-- Generator: Adobe Illustrator 15.1.0, SVG Export Plug-In . SVG Version: 6.00 Build 0)  -->
<!DOCTYPE svg PUBLIC "-//W3C//DTD SVG 1.1//EN" "http://www.w3.org/Graphics/SVG/1.1/DTD/svg11.dtd">
<svg version="1.1" id="Layer_1" xmlns="http://www.w3.org/2000/svg" xmlns:xlink="http://www.w3.org/1999/xlink" x="0px" y="0px"
	 width="14.172px" height="14.172px" viewBox="0 0 14.172 14.172" enable-background="new 0 0 14.172 14.172" xml:space="preserve">
<g enable-background="new    ">
	<path d="M10.403,11.112c0,0.271-0.129,0.491-0.392,0.663c-0.222,0.156-0.476,0.234-0.763,0.234c-0.557,0-1.012-0.201-1.363-0.603
		C7.549,11.03,7.381,10.55,7.381,9.969V9.097c-0.377,0.27-0.803,0.405-1.278,0.405c-0.794,0-1.466-0.299-2.015-0.896
		c-0.54-0.581-0.811-1.274-0.811-2.077c0-0.778,0.246-1.454,0.737-2.027c0.524-0.607,1.167-0.91,1.929-0.91
		c0.721,0,1.29,0.246,1.708,0.738c0.394,0.458,0.59,1.056,0.59,1.793c0,0.115-0.016,0.189-0.044,0.221S8.094,6.394,7.971,6.394
		H4.334V6.43c0,0.844,0.127,1.472,0.381,1.88c0.36,0.573,0.848,0.861,1.462,0.861c0.786,0,1.364-0.442,1.733-1.328
		c0.049-0.114,0.106-0.172,0.171-0.172c0.115,0,0.164,0.079,0.147,0.234L8.094,9.355v0.65c0,0.418,0.086,0.791,0.258,1.118
		c0.214,0.401,0.511,0.602,0.896,0.602c0.147,0,0.287-0.028,0.418-0.085c-0.263-0.091-0.394-0.271-0.394-0.541
		c0-0.155,0.054-0.286,0.159-0.394C9.54,10.6,9.67,10.546,9.826,10.546C10.211,10.546,10.403,10.734,10.403,11.112z M7.394,6.124
		c0-0.573-0.099-1.061-0.296-1.462C6.836,4.145,6.452,3.887,5.944,3.887c-0.164,0-0.344,0.045-0.541,0.136
		C4.74,4.334,4.392,5.034,4.359,6.124H7.394z"/>
</g>
</svg>
