<?xml version="1.0" encoding="utf-8"?>
<!-- Generator: Adobe Illustrator 15.1.0, SVG Export Plug-In . SVG Version: 6.00 Build 0)  -->
<!DOCTYPE svg PUBLIC "-//W3C//DTD SVG 1.1//EN" "http://www.w3.org/Graphics/SVG/1.1/DTD/svg11.dtd">
<svg version="1.1" id="Layer_1" xmlns="http://www.w3.org/2000/svg" xmlns:xlink="http://www.w3.org/1999/xlink" x="0px" y="0px"
	 width="14.172px" height="14.172px" viewBox="0 0 14.172 14.172" enable-background="new 0 0 14.172 14.172" xml:space="preserve">
<g enable-background="new    ">
	<path d="M9.077,9.94v1.062c-0.611,0.146-1.08,0.22-1.404,0.22c-0.473,0-0.897-0.096-1.276-0.286
		c-0.379-0.191-0.668-0.468-0.866-0.828C5.332,9.747,5.233,9.172,5.233,8.38V4.479h-1.31V3.427h1.31V1.629h1.271v1.798h2.209v1.052
		H6.504v3.539c0,0.67,0.052,1.135,0.153,1.396C6.76,9.675,6.922,9.867,7.146,9.987c0.224,0.121,0.491,0.182,0.803,0.182
		C8.197,10.168,8.573,10.092,9.077,9.94z"/>
</g>
</svg>
