<?xml version="1.0" encoding="utf-8"?>
<!-- Generator: Adobe Illustrator 15.1.0, SVG Export Plug-In . SVG Version: 6.00 Build 0)  -->
<!DOCTYPE svg PUBLIC "-//W3C//DTD SVG 1.1//EN" "http://www.w3.org/Graphics/SVG/1.1/DTD/svg11.dtd">
<svg version="1.1" id="Layer_1" xmlns="http://www.w3.org/2000/svg" xmlns:xlink="http://www.w3.org/1999/xlink" x="0px" y="0px"
	 width="14.172px" height="14.172px" viewBox="0 0 14.172 14.172" enable-background="new 0 0 14.172 14.172" xml:space="preserve">
<g enable-background="new    ">
	<path d="M2.184,6.672c0-1.337,0.472-2.478,1.415-3.421C4.542,2.309,5.682,1.836,7.02,1.836s2.477,0.472,3.42,1.415
		s1.416,2.083,1.416,3.421s-0.473,2.479-1.416,3.421c-0.943,0.943-2.082,1.415-3.42,1.415c-1.337,0-2.478-0.472-3.421-1.415
		C2.655,9.149,2.184,8.01,2.184,6.672z M5.046,9.573h4.072V8.43H6.235C6.27,8.129,6.51,7.807,6.954,7.463l0.346-0.262
		c0.08-0.065,0.271-0.191,0.576-0.379c0.842-0.514,1.262-1.109,1.262-1.784c0-0.514-0.195-0.921-0.586-1.222
		c-0.389-0.3-0.914-0.451-1.577-0.451c-0.279,0-0.565,0.027-0.859,0.082C5.82,3.502,5.519,3.583,5.21,3.692v1.255h0.548L5.77,4.796
		c0.017-0.383,0.08-0.607,0.19-0.673C6.173,3.988,6.41,3.92,6.67,3.92c0.783,0,1.174,0.39,1.174,1.17
		c0,0.627-0.396,1.279-1.184,1.954L6.412,7.26C5.72,7.858,5.264,8.46,5.046,9.071V9.573z"/>
</g>
</svg>
