<?xml version="1.0" encoding="utf-8"?>
<!-- Generator: Adobe Illustrator 15.1.0, SVG Export Plug-In . SVG Version: 6.00 Build 0)  -->
<!DOCTYPE svg PUBLIC "-//W3C//DTD SVG 1.1//EN" "http://www.w3.org/Graphics/SVG/1.1/DTD/svg11.dtd">
<svg version="1.1" id="Layer_1" xmlns="http://www.w3.org/2000/svg" xmlns:xlink="http://www.w3.org/1999/xlink" x="0px" y="0px"
	 width="14.172px" height="14.172px" viewBox="0 0 14.172 14.172" enable-background="new 0 0 14.172 14.172" xml:space="preserve">
<g enable-background="new    ">
	<path d="M2.03,1.193c0.163-0.094,0.463-0.15,0.901-0.167C3.368,1.008,4.569,1,6.534,1c2.033,0,3.253,0.008,3.662,0.025
		c0.408,0.018,0.715,0.073,0.92,0.167c0.275,0.137,0.508,0.352,0.695,0.643l0.271,0.425v4.221v4.223l-0.271,0.438
		c-0.359,0.557-0.943,0.836-1.75,0.836H9.43v-1.043V9.907l0.566-0.039l0.555-0.025L9.444,8.838L8.348,7.821L7.989,8.168L7.627,8.504
		V6.277V4.038l0.594-0.039l0.578-0.026L7.706,2.956L6.624,1.939L5.518,2.956L4.411,3.973l0.566,0.026l0.58,0.039v0.797v0.812
		L5.222,5.389C5.024,5.234,4.857,5.196,4.72,5.272C4.582,5.35,4.196,5.684,3.561,6.277L2.66,7.139h0.592l0.592,0.014v2.407v2.42
		l-0.682-0.014c-1.124,0-1.807-0.455-2.046-1.365C1.038,10.344,1,8.973,1,6.489C1,4.005,1.034,2.63,1.103,2.364
		C1.171,2.116,1.29,1.886,1.457,1.676C1.624,1.465,1.815,1.305,2.03,1.193z"/>
</g>
</svg>
