<?xml version="1.0" encoding="utf-8"?>
<!-- Generator: Adobe Illustrator 15.1.0, SVG Export Plug-In . SVG Version: 6.00 Build 0)  -->
<!DOCTYPE svg PUBLIC "-//W3C//DTD SVG 1.1//EN" "http://www.w3.org/Graphics/SVG/1.1/DTD/svg11.dtd">
<svg version="1.1" id="Layer_1" xmlns="http://www.w3.org/2000/svg" xmlns:xlink="http://www.w3.org/1999/xlink" x="0px" y="0px"
	 width="14.172px" height="14.172px" viewBox="0 0 14.172 14.172" enable-background="new 0 0 14.172 14.172" xml:space="preserve">
<g enable-background="new    ">
	<path d="M8.525,10.023c0,0.449-0.208,0.878-0.623,1.284c-0.38,0.38-0.817,0.631-1.31,0.752c-0.39,0.096-0.744,0.144-1.064,0.144
		c-0.666,0-1.128-0.213-1.388-0.637c-0.104-0.182-0.16-0.38-0.168-0.597c0-0.371,0.149-0.734,0.447-1.09
		c0.299-0.354,0.695-0.618,1.188-0.791c0.363-0.13,0.722-0.194,1.076-0.194c0.45,0,0.84,0.09,1.168,0.271V1.186h0.675V10.023z
		 M4.451,11.424c0.112,0.173,0.293,0.259,0.545,0.259c0.277,0,0.743-0.146,1.401-0.44c0.943-0.424,1.414-0.839,1.414-1.246
		c0-0.121-0.041-0.246-0.123-0.376s-0.279-0.194-0.59-0.194c-0.381,0-0.79,0.085-1.227,0.252c-0.437,0.169-0.794,0.383-1.07,0.644
		c-0.303,0.268-0.454,0.526-0.454,0.777C4.347,11.211,4.381,11.32,4.451,11.424z"/>
</g>
</svg>
