<?xml version="1.0" encoding="utf-8"?>
<!-- Generator: Adobe Illustrator 15.1.0, SVG Export Plug-In . SVG Version: 6.00 Build 0)  -->
<!DOCTYPE svg PUBLIC "-//W3C//DTD SVG 1.1//EN" "http://www.w3.org/Graphics/SVG/1.1/DTD/svg11.dtd">
<svg version="1.1" id="Layer_1" xmlns="http://www.w3.org/2000/svg" xmlns:xlink="http://www.w3.org/1999/xlink" x="0px" y="0px"
	 width="14.172px" height="14.172px" viewBox="0 0 14.172 14.172" enable-background="new 0 0 14.172 14.172" xml:space="preserve">
<g enable-background="new    ">
	<path d="M1.805,12.542l0.015-2.028l6.55,0.048c0.948,0.008,1.586-0.132,1.916-0.418c0.327-0.285,0.579-0.73,0.758-1.336
		c0.178-0.604,0.269-1.272,0.272-2.012c0.006-0.718-0.076-1.356-0.244-1.917c-0.17-0.56-0.438-0.977-0.805-1.25
		C9.9,3.356,9.127,3.217,7.952,3.209L1.874,3.165l0.014-1.872l6.419,0.046c1.188,0.009,2.021,0.224,2.498,0.646
		c0.478,0.427,0.854,1.035,1.129,1.825c0.273,0.793,0.406,1.792,0.396,2.992c-0.008,1.116-0.127,2.137-0.354,3.062
		c-0.228,0.925-0.579,1.611-1.056,2.062c-0.474,0.45-1.271,0.672-2.392,0.663L1.805,12.542z"/>
</g>
</svg>
