<?xml version="1.0" encoding="utf-8"?>
<!-- Generator: Adobe Illustrator 15.1.0, SVG Export Plug-In . SVG Version: 6.00 Build 0)  -->
<!DOCTYPE svg PUBLIC "-//W3C//DTD SVG 1.1//EN" "http://www.w3.org/Graphics/SVG/1.1/DTD/svg11.dtd">
<svg version="1.1" id="Layer_1" xmlns="http://www.w3.org/2000/svg" xmlns:xlink="http://www.w3.org/1999/xlink" x="0px" y="0px"
	 width="14.172px" height="14.172px" viewBox="0 0 14.172 14.172" enable-background="new 0 0 14.172 14.172" xml:space="preserve">
<g enable-background="new    ">
	<path d="M3.082,2.113c0.11-0.052,0.464-0.083,1.063-0.097c0.598-0.012,1.746-0.014,3.443-0.006l4.226,0.026l0.356,0.279
		c0.018,0.018,0.043,0.039,0.076,0.064c0.332,0.263,0.524,0.583,0.58,0.96c0.054,0.378,0.083,1.572,0.083,3.583
		c0,0.212,0,0.376,0,0.49c0,0.115,0,0.283,0,0.503c0,2.002-0.029,3.192-0.083,3.57c-0.056,0.377-0.248,0.697-0.58,0.961
		c-0.033,0.025-0.059,0.046-0.076,0.063l-0.356,0.28l-3.997,0.038c-2.656,0.017-4.12,0.004-4.392-0.038
		c-0.246-0.034-0.486-0.146-0.719-0.337c-0.233-0.191-0.41-0.418-0.528-0.682c-0.077-0.178-0.125-0.492-0.146-0.941
		C2.01,10.382,2,9.246,2,7.421C2,5.579,2.01,4.436,2.032,3.99c0.021-0.445,0.07-0.757,0.146-0.936
		C2.382,2.613,2.683,2.299,3.082,2.113z M8.683,4.239c-0.331-0.17-0.707-0.261-1.127-0.274c-0.42-0.013-0.787,0.058-1.101,0.21
		c-0.322,0.153-0.598,0.363-0.827,0.63C5.399,5.072,5.233,5.367,5.131,5.689c-0.094,0.34-0.123,0.658-0.089,0.955
		c0.034,0.297,0.14,0.615,0.318,0.955c0.169,0.339,0.567,1.019,1.19,2.037c0.624,1.018,0.953,1.526,0.986,1.526
		c0.034,0,0.135-0.156,0.305-0.47c0.17-0.314,0.374-0.662,0.611-1.045C9.031,8.723,9.411,8.1,9.592,7.778
		c0.183-0.324,0.306-0.573,0.369-0.751c0.064-0.178,0.096-0.386,0.096-0.624c0-0.417-0.131-0.832-0.394-1.248
		C9.4,4.739,9.073,4.434,8.683,4.239z M6.926,5.664c0.178-0.162,0.39-0.235,0.637-0.223c0.246,0.013,0.458,0.108,0.636,0.286
		c0.145,0.145,0.229,0.312,0.255,0.503c0.025,0.19,0,0.365-0.077,0.522c-0.075,0.156-0.201,0.29-0.375,0.401
		c-0.174,0.11-0.37,0.165-0.591,0.165c-0.119,0-0.289-0.11-0.509-0.33C6.748,6.835,6.656,6.721,6.627,6.644
		C6.597,6.567,6.595,6.44,6.621,6.262C6.654,6,6.756,5.8,6.926,5.664z"/>
</g>
</svg>
