<?xml version="1.0" encoding="utf-8"?>
<!-- Generator: Adobe Illustrator 15.1.0, SVG Export Plug-In . SVG Version: 6.00 Build 0)  -->
<!DOCTYPE svg PUBLIC "-//W3C//DTD SVG 1.1//EN" "http://www.w3.org/Graphics/SVG/1.1/DTD/svg11.dtd">
<svg version="1.1" id="Layer_1" xmlns="http://www.w3.org/2000/svg" xmlns:xlink="http://www.w3.org/1999/xlink" x="0px" y="0px"
	 width="14.172px" height="14.172px" viewBox="0 0 14.172 14.172" enable-background="new 0 0 14.172 14.172" xml:space="preserve">
<g enable-background="new    ">
	<path d="M1.35,6.545c0-1.534,0.541-2.842,1.622-3.923C4.053,1.54,5.361,1,6.894,1c1.534,0,2.841,0.541,3.922,1.622
		s1.623,2.389,1.623,3.923c0,1.534-0.542,2.84-1.623,3.92c-1.081,1.082-2.388,1.623-3.922,1.623c-1.533,0-2.841-0.541-3.922-1.623
		C1.891,9.385,1.35,8.077,1.35,6.545z M6.947,8.034v0.42c0,0.404-0.021,0.633-0.063,0.686C6.84,9.194,6.637,9.231,6.273,9.256
		L6.19,9.264V9.87h2.684V9.264L8.792,9.256C8.436,9.231,8.234,9.19,8.187,9.127C8.139,9.069,8.116,8.844,8.116,8.454v-0.42h0.816
		V6.896H8.116v-4.06H7.112L3.628,7.128v0.906H6.947z M4.451,6.896l2.496-3.052v3.052H4.451z"/>
</g>
</svg>
