<?xml version="1.0" encoding="utf-8"?>
<!-- Generator: Adobe Illustrator 15.1.0, SVG Export Plug-In . SVG Version: 6.00 Build 0)  -->
<!DOCTYPE svg PUBLIC "-//W3C//DTD SVG 1.1//EN" "http://www.w3.org/Graphics/SVG/1.1/DTD/svg11.dtd">
<svg version="1.1" id="Layer_1" xmlns="http://www.w3.org/2000/svg" xmlns:xlink="http://www.w3.org/1999/xlink" x="0px" y="0px"
	 width="14.172px" height="14.172px" viewBox="0 0 14.172 14.172" enable-background="new 0 0 14.172 14.172" xml:space="preserve">
<g enable-background="new    ">
	<path d="M1.613,9.941V4.694c0-0.374,0.186-0.562,0.557-0.562h0.258c0.13,0,0.222-0.021,0.276-0.061
		c0.055-0.041,0.097-0.12,0.127-0.238l0.045-0.181c0.048-0.19,0.11-0.307,0.186-0.349C3.134,3.262,3.31,3.241,3.587,3.241h1.729
		c0.25,0,0.411,0.02,0.48,0.059s0.13,0.146,0.181,0.317l0.05,0.167C6.079,3.956,6.126,4.057,6.17,4.087s0.165,0.045,0.364,0.045
		h3.128c0.215,0,0.359,0.04,0.438,0.12c0.076,0.08,0.115,0.23,0.115,0.45v0.435h1.797c0.326,0,0.494,0.058,0.502,0.173
		c0.004,0.023-0.049,0.146-0.158,0.366l-2.141,4.265H1.613z M1.835,9.479l1.947-3.794C3.924,5.411,4.034,5.25,4.112,5.206
		s0.282-0.068,0.611-0.068h5.269V4.703c0-0.232-0.113-0.349-0.339-0.349H6.507c-0.284,0-0.459-0.017-0.525-0.05
		S5.861,4.168,5.819,3.997L5.765,3.789C5.726,3.64,5.681,3.549,5.631,3.514C5.582,3.48,5.47,3.462,5.298,3.462H3.624
		c-0.193,0-0.323,0.019-0.39,0.055C3.167,3.556,3.116,3.64,3.08,3.77L3.026,3.979C2.978,4.151,2.924,4.256,2.865,4.295
		C2.806,4.334,2.676,4.354,2.474,4.354H2.193c-0.145,0-0.241,0.022-0.288,0.066c-0.047,0.043-0.07,0.136-0.07,0.278V9.479z
		 M1.971,9.719h8.1l2.005-4.021c0.066-0.145,0.1-0.227,0.1-0.244c-0.009-0.063-0.103-0.095-0.28-0.095H4.588
		c-0.175,0-0.296,0.02-0.362,0.059S4.091,5.546,4.022,5.685L1.971,9.719z"/>
</g>
</svg>
