<?xml version="1.0" encoding="utf-8"?>
<!-- Generator: Adobe Illustrator 15.1.0, SVG Export Plug-In . SVG Version: 6.00 Build 0)  -->
<!DOCTYPE svg PUBLIC "-//W3C//DTD SVG 1.1//EN" "http://www.w3.org/Graphics/SVG/1.1/DTD/svg11.dtd">
<svg version="1.1" id="Layer_1" xmlns="http://www.w3.org/2000/svg" xmlns:xlink="http://www.w3.org/1999/xlink" x="0px" y="0px"
	 width="14.172px" height="14.172px" viewBox="0 0 14.172 14.172" enable-background="new 0 0 14.172 14.172" xml:space="preserve">
<g enable-background="new    ">
	<path d="M11.262,7.588l-0.831,2.502L10.06,9.391C8.997,10.76,7.976,11.464,7,11.5v0.786H6.464V11.5
		c-0.983-0.036-2.007-0.74-3.071-2.109L3.022,10.09L2.192,7.588l2.349,1.301L3.689,9.118c0.306,0.357,0.729,0.67,1.268,0.94
		c0.554,0.283,1.056,0.434,1.508,0.448V4.528H4.541V4.004h1.181c-0.19-0.241-0.284-0.513-0.284-0.819
		c0-0.35,0.125-0.653,0.377-0.907C6.066,2.022,6.37,1.894,6.727,1.894c0.357,0,0.661,0.128,0.912,0.383
		c0.252,0.254,0.377,0.557,0.377,0.907c0,0.306-0.095,0.579-0.283,0.819h1.179v0.524H7v5.979c0.452-0.015,0.951-0.165,1.498-0.448
		c0.538-0.271,0.962-0.583,1.269-0.94L8.912,8.889L11.262,7.588z M7.536,3.185c0-0.219-0.078-0.409-0.235-0.569
		c-0.157-0.16-0.348-0.241-0.574-0.241c-0.226,0-0.417,0.081-0.574,0.241c-0.157,0.16-0.235,0.35-0.235,0.569
		c0,0.226,0.078,0.419,0.235,0.579c0.156,0.16,0.348,0.241,0.574,0.241c0.226,0,0.417-0.081,0.574-0.241
		C7.458,3.604,7.536,3.41,7.536,3.185z"/>
</g>
</svg>
