<?xml version="1.0" encoding="utf-8"?>
<!-- Generator: Adobe Illustrator 15.1.0, SVG Export Plug-In . SVG Version: 6.00 Build 0)  -->
<!DOCTYPE svg PUBLIC "-//W3C//DTD SVG 1.1//EN" "http://www.w3.org/Graphics/SVG/1.1/DTD/svg11.dtd">
<svg version="1.1" id="Layer_1" xmlns="http://www.w3.org/2000/svg" xmlns:xlink="http://www.w3.org/1999/xlink" x="0px" y="0px"
	 width="14.172px" height="14.172px" viewBox="0 0 14.172 14.172" enable-background="new 0 0 14.172 14.172" xml:space="preserve">
<g enable-background="new    ">
	<path d="M6.657,8.626L5.139,6.651C4.222,5.459,3.575,4.305,3.198,3.188L2.892,2.292L2.839,2.163
		C2.812,2.093,2.798,2.032,2.798,1.98c0-0.203,0.108-0.305,0.327-0.305c0.074,0,0.207,0.064,0.397,0.193L4.26,2.367
		C5.214,3.02,6.069,3.839,6.827,4.823l1.772,2.314c0.056-0.023,0.109-0.035,0.164-0.035c0.109,0,0.24,0.102,0.394,0.305l2.062,2.726
		c0.457,0.601,0.687,1.173,0.687,1.716c0,0.387-0.122,0.703-0.366,0.951s-0.559,0.373-0.94,0.373c-0.562,0-1.151-0.402-1.77-1.207
		L6.696,9.189c-0.027-0.035-0.052-0.066-0.07-0.094c-0.062-0.078-0.094-0.15-0.094-0.217C6.532,8.796,6.573,8.712,6.657,8.626z
		 M7.236,8.925c0.686-0.188,1.186-0.553,1.498-1.097L6.509,4.893C6.002,4.222,5.397,3.61,4.696,3.059L4.034,2.538
		c-0.18,0.234-0.385,0.385-0.615,0.451l0.311,0.756c0.352,0.859,0.876,1.746,1.574,2.66L7.236,8.925z M9.068,7.776
		c-0.362,0.841-1.014,1.327-1.949,1.46l1.869,2.46c0.593,0.777,1.134,1.166,1.621,1.166c0.294,0,0.541-0.098,0.744-0.293
		s0.306-0.436,0.306-0.721c0-0.453-0.242-0.998-0.728-1.635L9.068,7.776z M10.726,11.936l-0.504,0.369
		c-0.262-0.102-0.59-0.422-0.983-0.961l-0.961-1.306c-0.23-0.027-0.347-0.16-0.347-0.398c0-0.254,0.129-0.381,0.387-0.381
		c0.263,0,0.394,0.137,0.394,0.41c0,0.039-0.014,0.088-0.041,0.145l0.772,1.066C9.876,11.475,10.304,11.827,10.726,11.936z"/>
</g>
</svg>
