<?xml version="1.0" encoding="utf-8"?>
<!-- Generator: Adobe Illustrator 15.1.0, SVG Export Plug-In . SVG Version: 6.00 Build 0)  -->
<!DOCTYPE svg PUBLIC "-//W3C//DTD SVG 1.1//EN" "http://www.w3.org/Graphics/SVG/1.1/DTD/svg11.dtd">
<svg version="1.1" id="Layer_1" xmlns="http://www.w3.org/2000/svg" xmlns:xlink="http://www.w3.org/1999/xlink" x="0px" y="0px"
	 width="14.172px" height="14.172px" viewBox="0 0 14.172 14.172" enable-background="new 0 0 14.172 14.172" xml:space="preserve">
<g enable-background="new    ">
	<path d="M2.434,6.896c0-1.424,0.502-2.638,1.506-3.642s2.218-1.506,3.643-1.506c1.424,0,2.637,0.502,3.643,1.506
		c1.003,1.004,1.507,2.218,1.507,3.642s-0.504,2.639-1.507,3.643c-1.006,1.004-2.219,1.506-3.643,1.506
		c-1.425,0-2.639-0.502-3.643-1.506C2.936,9.535,2.434,8.319,2.434,6.896z M3.129,6.896c0,1.233,0.435,2.285,1.303,3.154
		c0.869,0.87,1.92,1.306,3.152,1.306c1.233,0,2.285-0.436,3.156-1.306c0.872-0.869,1.309-1.921,1.309-3.154
		c0-1.234-0.437-2.287-1.309-3.159C9.872,2.865,8.819,2.429,7.586,2.429S5.302,2.865,4.433,3.737
		C3.564,4.609,3.129,5.663,3.129,6.896z M5.961,10.326c0.129-0.732,0.34-1.359,0.631-1.878c0.293-0.521,0.971-1.479,2.035-2.875
		l0.568-0.745H5.655V3.876h4.161v0.682C8.03,6.877,7.092,8.8,7.004,10.326H5.961z"/>
</g>
</svg>
