<?xml version="1.0" encoding="utf-8"?>
<!-- Generator: Adobe Illustrator 15.1.0, SVG Export Plug-In . SVG Version: 6.00 Build 0)  -->
<!DOCTYPE svg PUBLIC "-//W3C//DTD SVG 1.1//EN" "http://www.w3.org/Graphics/SVG/1.1/DTD/svg11.dtd">
<svg version="1.1" id="Layer_1" xmlns="http://www.w3.org/2000/svg" xmlns:xlink="http://www.w3.org/1999/xlink" x="0px" y="0px"
	 width="14.172px" height="14.172px" viewBox="0 0 14.172 14.172" enable-background="new 0 0 14.172 14.172" xml:space="preserve">
<g enable-background="new    ">
	<path d="M12.848,6.341v0.084l-0.562,4.331c-0.028,0.193-0.12,0.36-0.277,0.501s-0.336,0.211-0.535,0.211H2.712
		c-0.199,0-0.379-0.07-0.542-0.211c-0.163-0.141-0.256-0.308-0.278-0.501L1.338,6.425C1.333,6.408,1.33,6.38,1.33,6.341
		c0-0.181,0.062-0.332,0.187-0.451C1.64,5.771,1.793,5.712,1.976,5.712h10.227c0.182,0,0.336,0.06,0.46,0.178
		S12.848,6.16,12.848,6.341z M12.203,4.983H1.976C2.025,4.718,2.1,4.533,2.199,4.429c0.1-0.105,0.195-0.152,0.286-0.141
		C2.576,4.299,2.67,4.29,2.766,4.259c0.097-0.031,0.167-0.11,0.211-0.236l0.199-0.597c0.425-0.16,0.999-0.24,1.722-0.24
		c0.492,0,0.944,0.08,1.358,0.24l0.207,0.597c0.133,0.126,0.222,0.198,0.269,0.215C6.78,4.254,6.9,4.263,7.093,4.263h4.017
		c0.463,0,0.767,0.061,0.911,0.182C12.086,4.506,12.147,4.685,12.203,4.983z"/>
</g>
</svg>
