<?xml version="1.0" encoding="utf-8"?>
<!-- Generator: Adobe Illustrator 15.1.0, SVG Export Plug-In . SVG Version: 6.00 Build 0)  -->
<!DOCTYPE svg PUBLIC "-//W3C//DTD SVG 1.1//EN" "http://www.w3.org/Graphics/SVG/1.1/DTD/svg11.dtd">
<svg version="1.1" id="Layer_1" xmlns="http://www.w3.org/2000/svg" xmlns:xlink="http://www.w3.org/1999/xlink" x="0px" y="0px"
	 width="14.172px" height="14.172px" viewBox="0 0 14.172 14.172" enable-background="new 0 0 14.172 14.172" xml:space="preserve">
<g enable-background="new    ">
	<path d="M11.759,10.706c0,0.063-0.056,0.199-0.165,0.41c-0.094,0.171-0.175,0.304-0.245,0.397
		c-0.211,0.274-0.468,0.507-0.773,0.703c-0.343,0.234-0.666,0.352-0.972,0.352c-0.116,0-0.39-0.137-0.818-0.411
		c-0.343-0.218-0.516-0.542-0.516-0.971c0-0.18,0.02-0.323,0.059-0.434c0.069-0.133,0.105-0.203,0.105-0.211
		c0-0.163-0.083-0.327-0.245-0.491C8.041,9.925,7.891,9.801,7.744,9.676L7.626,9.641C7.517,9.516,7.298,9.293,6.971,8.973
		C6.596,8.606,6.385,8.424,6.338,8.424c-0.101,0-0.175,0.03-0.222,0.094c-0.07,0.124-0.184,0.308-0.34,0.549
		c-0.203,0.242-0.5,0.617-0.89,1.124c0,0.031,0,0.05,0,0.059c0,0.07-0.03,0.168-0.088,0.292c-0.058,0.125-0.087,0.211-0.087,0.258
		c0,0.023,0.004,0.061,0.012,0.111c0.007,0.051,0.012,0.088,0.012,0.111c0,0.055-0.023,0.109-0.07,0.164
		c-0.062,0.062-0.097,0.101-0.105,0.117c-0.062,0.147-0.125,0.261-0.188,0.34c-0.343,0.429-0.917,0.644-1.72,0.644
		c-0.297,0-0.597-0.173-0.901-0.516c-0.04-0.047-0.109-0.128-0.211-0.245c-0.047-0.056-0.094-0.203-0.141-0.445
		c-0.039-0.218-0.059-0.382-0.059-0.492c0-0.086,0.063-0.23,0.188-0.433c0.125-0.18,0.23-0.305,0.316-0.375
		c0.07-0.022,0.175-0.066,0.316-0.128C2.222,9.574,2.328,9.477,2.476,9.36c0.07-0.039,0.176-0.078,0.316-0.117
		c0.25-0.031,0.438-0.047,0.562-0.047c0.039,0,0.102,0.012,0.187,0.035c0.086,0.023,0.145,0.035,0.176,0.035
		c0.203,0,0.538-0.328,1.007-0.982c0.031-0.057,0.098-0.145,0.199-0.271c0.296-0.312,0.444-0.487,0.444-0.526
		c-0.062-0.102-0.28-0.398-0.655-0.889c-0.062-0.04-0.144-0.11-0.246-0.211c-0.047-0.07-0.117-0.172-0.211-0.305
		c-0.062-0.016-0.14-0.059-0.233-0.129C3.974,5.875,3.884,5.77,3.751,5.637C3.525,5.497,3.373,5.426,3.295,5.426
		c-0.078,0-0.187,0.01-0.328,0.03c-0.141,0.02-0.246,0.029-0.316,0.029c-0.055,0-0.102-0.008-0.141-0.023
		C2.105,5.313,1.746,5.06,1.434,4.7C1.371,4.63,1.34,4.467,1.34,4.209c0-0.056,0.008-0.101,0.023-0.141
		c0.063-0.218,0.179-0.503,0.352-0.854C1.933,2.894,2.21,2.632,2.546,2.43C2.772,2.29,3.065,2.219,3.424,2.219
		c0.078,0,0.254,0.038,0.527,0.117C4.208,2.407,4.38,2.461,4.465,2.5c0.055,0.031,0.125,0.148,0.211,0.35
		c0.07,0.04,0.164,0.129,0.281,0.27c0.085,0.171,0.129,0.366,0.129,0.584c0,0.047-0.057,0.184-0.17,0.411
		C4.803,4.341,4.747,4.478,4.747,4.525c0,0.188,0.183,0.503,0.55,0.948c0.055,0.07,0.114,0.153,0.176,0.245
		C5.48,5.774,5.5,5.848,5.531,5.942c0.047,0.07,0.168,0.21,0.363,0.421c0.218,0.234,0.347,0.35,0.386,0.35
		c0.055,0,0.125-0.058,0.211-0.175C6.53,6.484,6.588,6.401,6.667,6.293c0.077-0.047,0.191-0.129,0.34-0.247
		c0.904-0.889,1.357-1.491,1.357-1.803c0-0.07-0.014-0.174-0.041-0.31c-0.028-0.137-0.041-0.24-0.041-0.311
		c0-0.39,0.284-0.773,0.854-1.146C9.363,2.328,9.57,2.254,9.757,2.254c0.062,0,0.284,0.036,0.667,0.106
		c0.102,0,0.245,0.035,0.433,0.104c0.039,0.086,0.109,0.199,0.212,0.339c0.047,0.04,0.128,0.11,0.245,0.211
		c0.102,0.086,0.168,0.172,0.198,0.257c0.094,0.289,0.141,0.656,0.141,1.102c0,0.047-0.007,0.085-0.023,0.117
		c-0.326,0.757-0.994,1.136-2.001,1.136c-0.079,0-0.192-0.026-0.34-0.077C9.14,5.499,9.027,5.473,8.95,5.473
		c-0.117,0-0.238,0.074-0.364,0.222c-0.101,0.157-0.292,0.431-0.572,0.82C7.864,6.71,7.677,6.91,7.451,7.112
		C7.404,7.144,7.335,7.191,7.246,7.252c-0.09,0.063-0.134,0.133-0.134,0.211c0,0.117,0.187,0.339,0.562,0.667
		c0.445,0.391,0.69,0.616,0.737,0.68c0.023,0.062,0.066,0.147,0.128,0.257C8.805,9.309,9.043,9.43,9.253,9.43
		c0.023,0,0.136-0.012,0.34-0.035c0.07-0.009,0.129-0.012,0.176-0.012c0.179,0,0.328,0.031,0.444,0.094
		c0.094,0.047,0.23,0.117,0.409,0.211c0.094,0.016,0.184,0.034,0.27,0.058c0.164,0.047,0.285,0.113,0.364,0.199
		C11.591,10.311,11.759,10.565,11.759,10.706z"/>
</g>
</svg>
