<?xml version="1.0" encoding="utf-8"?>
<!-- Generator: Adobe Illustrator 15.1.0, SVG Export Plug-In . SVG Version: 6.00 Build 0)  -->
<!DOCTYPE svg PUBLIC "-//W3C//DTD SVG 1.1//EN" "http://www.w3.org/Graphics/SVG/1.1/DTD/svg11.dtd">
<svg version="1.1" id="Layer_1" xmlns="http://www.w3.org/2000/svg" xmlns:xlink="http://www.w3.org/1999/xlink" x="0px" y="0px"
	 width="14.172px" height="14.172px" viewBox="0 0 14.172 14.172" enable-background="new 0 0 14.172 14.172" xml:space="preserve">
<g enable-background="new    ">
	<path d="M6.828,8.894c0,0.345-0.108,0.648-0.322,0.908c-0.215,0.261-0.482,0.39-0.8,0.39c-0.238,0-0.396-0.027-0.477-0.081
		c-0.194,0.318-0.462,0.477-0.805,0.477c-0.461,0-0.783-0.158-0.964-0.477c-0.062,0-0.128,0-0.196,0H3.142
		c-0.325-0.007-0.605-0.117-0.842-0.334c-0.256-0.23-0.383-0.518-0.383-0.861c0-0.292,0.093-0.542,0.281-0.756
		c0.187-0.214,0.415-0.35,0.683-0.41c0.082-0.23,0.21-0.416,0.389-0.558C3.446,7.05,3.647,6.978,3.872,6.978
		c0.374,0,0.667,0.183,0.88,0.548c0.031-0.006,0.059-0.01,0.083-0.01c0.125,0,0.24,0.047,0.346,0.142
		C5.3,7.604,5.412,7.577,5.519,7.577c0.349,0,0.655,0.125,0.917,0.375S6.828,8.516,6.828,8.894z M6.679,8.875
		c0-0.324-0.104-0.604-0.31-0.837s-0.456-0.35-0.749-0.35c-0.137,0-0.268,0.027-0.393,0.081C5.072,7.648,4.897,7.596,4.704,7.618
		C4.504,7.28,4.224,7.11,3.862,7.11c-0.206,0-0.395,0.066-0.566,0.198C3.125,7.44,3.001,7.614,2.926,7.83
		C2.67,7.884,2.458,8.005,2.29,8.195c-0.188,0.203-0.281,0.44-0.281,0.71c0,0.317,0.119,0.579,0.355,0.786
		C2.602,9.897,2.874,10,3.179,10c0.112,0,0.225-0.018,0.337-0.05c0.187,0.331,0.48,0.496,0.879,0.496
		c0.38,0,0.665-0.148,0.851-0.446c0.119,0.048,0.244,0.07,0.375,0.07c0.293,0,0.542-0.117,0.749-0.354S6.679,9.199,6.679,8.875z
		 M6.557,8.884c0,0.304-0.098,0.566-0.294,0.785C6.065,9.89,5.827,10,5.546,10C5.428,10,5.312,9.976,5.2,9.928
		c-0.18,0.264-0.452,0.396-0.813,0.396c-0.381,0-0.658-0.146-0.833-0.438C3.447,9.916,3.338,9.928,3.226,9.928
		c-0.281,0-0.53-0.09-0.748-0.272C2.24,9.46,2.122,9.211,2.122,8.909c0-0.25,0.09-0.469,0.271-0.656
		c0.162-0.176,0.362-0.286,0.599-0.334C3.154,7.474,3.451,7.252,3.88,7.252c0.343,0,0.612,0.156,0.806,0.466
		c0.024,0,0.049,0,0.074,0c0.156,0,0.293,0.044,0.412,0.132c0.118-0.047,0.243-0.071,0.374-0.071c0.281,0,0.519,0.109,0.716,0.325
		C6.458,8.32,6.557,8.58,6.557,8.884z M13.229,5.437c0,0.542-0.166,1.011-0.496,1.41c-0.331,0.398-0.742,0.598-1.234,0.598
		c-0.37,0-0.618-0.026-0.75-0.081c-0.292,0.458-0.703,0.689-1.235,0.689c-0.299,0-0.58-0.061-0.842-0.183
		C8.373,7.728,8.154,7.536,8.017,7.293C7.923,7.32,7.823,7.33,7.718,7.324H7.521c-0.5-0.007-0.937-0.176-1.311-0.507
		C5.818,6.458,5.621,6.013,5.621,5.478c0-0.452,0.15-0.848,0.449-1.186c0.281-0.324,0.63-0.53,1.049-0.618
		c0.125-0.358,0.325-0.649,0.603-0.872C8,2.58,8.311,2.467,8.654,2.467c0.586,0,1.042,0.284,1.366,0.852
		c0.049-0.007,0.092-0.01,0.13-0.01c0.192,0,0.371,0.075,0.533,0.224C10.866,3.444,11.035,3.4,11.197,3.4
		c0.55,0,1.026,0.195,1.429,0.583C13.027,4.372,13.229,4.856,13.229,5.437z M13.003,5.412c0-0.499-0.158-0.93-0.476-1.294
		c-0.319-0.364-0.709-0.545-1.17-0.545c-0.208,0-0.409,0.044-0.609,0.132c-0.231-0.197-0.5-0.274-0.805-0.233
		C9.638,2.943,9.206,2.681,8.643,2.681c-0.323,0-0.617,0.103-0.878,0.309C7.503,3.195,7.312,3.465,7.193,3.795
		C6.8,3.876,6.47,4.062,6.202,4.353c-0.288,0.318-0.43,0.687-0.43,1.105c0,0.493,0.189,0.905,0.57,1.236
		c0.355,0.312,0.767,0.466,1.235,0.466c0.18,0,0.359-0.026,0.534-0.081C8.39,7.573,8.842,7.82,9.466,7.82
		c0.586,0,1.028-0.224,1.32-0.669c0.188,0.067,0.376,0.101,0.571,0.101c0.461,0,0.851-0.18,1.17-0.54
		C12.845,6.351,13.003,5.918,13.003,5.412z M12.816,5.427c0,0.473-0.151,0.879-0.458,1.217c-0.305,0.337-0.672,0.507-1.103,0.507
		c-0.188,0-0.37-0.037-0.543-0.111c-0.281,0.411-0.699,0.618-1.255,0.618c-0.593,0-1.024-0.226-1.291-0.68
		C8.004,7.019,7.836,7.04,7.662,7.04c-0.443,0-0.833-0.139-1.17-0.416c-0.362-0.311-0.543-0.7-0.543-1.166
		c0-0.392,0.137-0.733,0.412-1.024c0.256-0.271,0.568-0.442,0.936-0.517c0.112-0.31,0.295-0.561,0.548-0.75
		C8.096,2.978,8.375,2.883,8.68,2.883c0.525,0,0.936,0.243,1.237,0.73C9.958,3.607,10,3.603,10.038,3.603
		c0.236,0,0.449,0.078,0.637,0.233c0.186-0.08,0.379-0.121,0.581-0.121c0.431,0,0.798,0.167,1.103,0.501
		C12.665,4.551,12.816,4.954,12.816,5.427z"/>
</g>
</svg>
