<?xml version="1.0" encoding="utf-8"?>
<!-- Generator: Adobe Illustrator 15.1.0, SVG Export Plug-In . SVG Version: 6.00 Build 0)  -->
<!DOCTYPE svg PUBLIC "-//W3C//DTD SVG 1.1//EN" "http://www.w3.org/Graphics/SVG/1.1/DTD/svg11.dtd">
<svg version="1.1" id="Layer_1" xmlns="http://www.w3.org/2000/svg" xmlns:xlink="http://www.w3.org/1999/xlink" x="0px" y="0px"
	 width="14.172px" height="14.172px" viewBox="0 0 14.172 14.172" enable-background="new 0 0 14.172 14.172" xml:space="preserve">
<g enable-background="new    ">
	<path d="M9.306,2.185L9.12,3.238c0.311,0.36,0.565,0.744,0.766,1.155c-0.032,0.172-0.09,0.412-0.178,0.721
		c0.154,0.113,0.271,0.224,0.349,0.331c0.077,0.107,0.118,0.214,0.118,0.319c0,0.188-0.141,0.361-0.42,0.521
		C9.853,6.391,9.903,6.502,9.903,6.62c0,0.363-0.279,0.617-0.84,0.762C9.083,7.456,9.09,7.528,9.09,7.598
		c0,0.359-0.1,0.631-0.295,0.812C8.599,8.592,8.306,8.682,7.915,8.682c-0.361,0-0.633-0.089-0.812-0.267
		c-0.18-0.179-0.271-0.444-0.271-0.8c0-0.043,0-0.094,0.004-0.149c0.002-0.056,0.008-0.12,0.017-0.19
		C6.692,7.456,6.57,7.583,6.485,7.657V9.42c0,0.73-0.124,1.232-0.372,1.506s-0.697,0.41-1.348,0.41H4.599L4.038,5.935
		C4.455,4.942,5.009,3.808,5.701,2.53c0.024-0.039,0.085-0.158,0.177-0.357c0.225-0.059,0.481-0.102,0.771-0.129
		S7.26,2.002,7.615,2.002C8.202,2.002,8.764,2.063,9.306,2.185z M8.81,2.4C8.45,2.338,8.021,2.308,7.522,2.308
		c-0.225,0-0.446,0.008-0.663,0.023C6.641,2.346,6.428,2.37,6.224,2.4c-0.642,1.239-1.212,2.424-1.71,3.557l0.514,5.062
		c0.673-0.07,1.01-0.49,1.01-1.261L6.027,9.45V7.534c0.265-0.211,0.519-0.498,0.759-0.861C6.54,6.243,6.372,5.812,6.279,5.377
		l0.44-0.123c0.193,0.664,0.445,1.225,0.75,1.682C7.417,7.049,7.375,7.161,7.348,7.27C7.32,7.379,7.307,7.489,7.307,7.598
		c0,0.254,0.053,0.445,0.158,0.574S7.73,8.366,7.943,8.366c0.235,0,0.414-0.062,0.531-0.188c0.118-0.125,0.178-0.311,0.178-0.557
		c0-0.234-0.062-0.455-0.188-0.662c0.35-0.726,0.664-1.55,0.945-2.472c-0.138-0.41-0.396-0.81-0.775-1.201L8.81,2.4z M8.959,6.918
		l0.039,0.117c0.299-0.09,0.447-0.236,0.447-0.439c0-0.086-0.078-0.174-0.232-0.264L8.959,6.918z M9.277,6.115
		c0.293-0.062,0.44-0.178,0.44-0.346c0-0.051-0.014-0.1-0.039-0.146C9.654,5.578,9.622,5.529,9.577,5.482L9.277,6.115z"/>
</g>
</svg>
