<?xml version="1.0" encoding="utf-8"?>
<!-- Generator: Adobe Illustrator 15.1.0, SVG Export Plug-In . SVG Version: 6.00 Build 0)  -->
<!DOCTYPE svg PUBLIC "-//W3C//DTD SVG 1.1//EN" "http://www.w3.org/Graphics/SVG/1.1/DTD/svg11.dtd">
<svg version="1.1" id="Layer_1" xmlns="http://www.w3.org/2000/svg" xmlns:xlink="http://www.w3.org/1999/xlink" x="0px" y="0px"
	 width="14.172px" height="14.172px" viewBox="0 0 14.172 14.172" enable-background="new 0 0 14.172 14.172" xml:space="preserve">
<g enable-background="new    ">
	<path d="M9.459,9.043h1.557v0.082c0,0.418-0.165,0.84-0.495,1.268c-0.329,0.43-0.767,0.756-1.31,0.98
		c-0.541,0.223-1.164,0.336-1.863,0.336c-1.424,0-2.522-0.461-3.297-1.381C3.277,9.409,2.89,8.245,2.89,6.837
		c0-1.439,0.409-2.632,1.227-3.58c0.817-0.947,1.871-1.421,3.161-1.421c0.707,0,1.35,0.154,1.928,0.46s1.034,0.784,1.369,1.433
		c0.334,0.649,0.5,1.555,0.5,2.719v0.519h-6.64c0,0.998,0.27,1.822,0.808,2.471c0.538,0.649,1.284,0.974,2.235,0.974
		c0.685,0,1.187-0.132,1.504-0.396s0.478-0.561,0.478-0.891V9.043z M4.529,5.799h5.048V5.61c0-0.432-0.104-0.855-0.312-1.268
		C9.056,3.93,8.767,3.625,8.398,3.428C8.028,3.232,7.6,3.134,7.112,3.134c-0.582,0-1.117,0.234-1.609,0.702
		C5.011,4.303,4.687,4.958,4.529,5.799z"/>
</g>
</svg>
