<?xml version="1.0" encoding="utf-8"?>
<!-- Generator: Adobe Illustrator 15.1.0, SVG Export Plug-In . SVG Version: 6.00 Build 0)  -->
<!DOCTYPE svg PUBLIC "-//W3C//DTD SVG 1.1//EN" "http://www.w3.org/Graphics/SVG/1.1/DTD/svg11.dtd">
<svg version="1.1" id="Layer_1" xmlns="http://www.w3.org/2000/svg" xmlns:xlink="http://www.w3.org/1999/xlink" x="0px" y="0px"
	 width="14.172px" height="14.172px" viewBox="0 0 14.172 14.172" enable-background="new 0 0 14.172 14.172" xml:space="preserve">
<g enable-background="new    ">
	<path d="M8.115,2.288h1.095v9.496H8.115v-1.143c-0.228,0.424-0.444,0.719-0.653,0.885c-0.211,0.166-0.446,0.279-0.713,0.344
		c-0.265,0.064-0.527,0.096-0.787,0.096c-0.497,0-0.953-0.138-1.367-0.41c-0.414-0.273-0.737-0.681-0.97-1.223
		C3.393,9.792,3.277,9.184,3.277,8.51c0-1,0.242-1.83,0.725-2.49C4.485,5.359,5.158,5.029,6.02,5.029
		c0.281,0,0.546,0.041,0.791,0.121c0.246,0.08,0.468,0.2,0.663,0.36C7.67,5.67,7.883,5.953,8.115,6.356V2.288z M8.115,8.494
		c0-0.745-0.159-1.357-0.483-1.835C7.308,6.18,6.856,5.941,6.276,5.941c-0.529,0-0.972,0.211-1.325,0.634
		C4.597,6.999,4.42,7.631,4.42,8.477c0,0.983,0.17,1.668,0.509,2.051c0.34,0.384,0.781,0.576,1.322,0.576
		c0.349,0,0.672-0.105,0.969-0.318c0.299-0.213,0.521-0.524,0.672-0.938C8.04,9.436,8.115,8.985,8.115,8.494z"/>
</g>
</svg>
