<?xml version="1.0" encoding="utf-8"?>
<!-- Generator: Adobe Illustrator 15.1.0, SVG Export Plug-In . SVG Version: 6.00 Build 0)  -->
<!DOCTYPE svg PUBLIC "-//W3C//DTD SVG 1.1//EN" "http://www.w3.org/Graphics/SVG/1.1/DTD/svg11.dtd">
<svg version="1.1" id="Layer_1" xmlns="http://www.w3.org/2000/svg" xmlns:xlink="http://www.w3.org/1999/xlink" x="0px" y="0px"
	 width="14.172px" height="14.172px" viewBox="0 0 14.172 14.172" enable-background="new 0 0 14.172 14.172" xml:space="preserve">
<g enable-background="new    ">
	<path d="M11.542,12.128c0,0.614-0.285,0.919-0.856,0.919H2.864c-0.571,0-0.856-0.305-0.856-0.919V1.827
		c0-0.62,0.285-0.933,0.856-0.933h7.821c0.571,0,0.856,0.312,0.856,0.933V12.128z M11.324,12.128V1.827
		c0-0.477-0.213-0.715-0.639-0.715H2.864c-0.426,0-0.639,0.238-0.639,0.715v10.302c0,0.477,0.213,0.715,0.639,0.715h7.821
		C11.111,12.843,11.324,12.605,11.324,12.128z M2.966,1.687H2.8v0.946h0.154v0.166H2.455V2.633h0.154V1.687H2.455V1.533h0.512V1.687
		z M3.528,3.796c0,0.153-0.085,0.229-0.256,0.229c-0.119,0-0.196-0.059-0.229-0.178v0.115c0,0.171,0.042,0.315,0.127,0.435
		C3.137,4.389,3.085,4.383,3.018,4.383c-0.069,0-0.12,0.005-0.154,0.013c0.085-0.12,0.128-0.264,0.128-0.435V3.847
		C2.958,3.966,2.885,4.025,2.774,4.025c-0.171,0-0.256-0.075-0.256-0.229c0-0.163,0.085-0.244,0.256-0.244
		c0.008,0,0.055,0.021,0.141,0.064C2.821,3.48,2.774,3.404,2.774,3.387c0-0.162,0.081-0.244,0.243-0.244
		c0.161,0,0.242,0.083,0.242,0.244c0,0.025-0.042,0.102-0.127,0.23c0.085-0.043,0.132-0.064,0.14-0.064
		C3.443,3.553,3.528,3.633,3.528,3.796z M3.58,2.799H3.068V2.633h0.14L2.8,2.134l0.421-0.447H3.068V1.533h0.498v0.154H3.426
		L3.043,2.134l0.396,0.5H3.58V2.799z M9.702,11.643H3.848v-9.33h5.854V11.643z M5.944,3.003c0-0.025-0.051-0.121-0.153-0.288
		C5.688,2.55,5.611,2.437,5.56,2.377H3.912v2.798c0.307-0.136,0.745-0.34,1.317-0.614C5.313,4.521,5.432,4.46,5.586,4.383
		c0.008-0.042,0.038-0.103,0.089-0.179C5.718,4.17,5.756,4.149,5.791,4.141c0.009-0.196,0.034-0.49,0.077-0.881
		c0-0.034,0.013-0.081,0.038-0.142C5.931,3.059,5.944,3.021,5.944,3.003z M5.586,10.85c0-0.017-0.013-0.074-0.039-0.173
		c-0.025-0.097-0.042-0.164-0.051-0.197c-0.008-0.17-0.029-0.366-0.064-0.589C5.416,9.849,5.386,9.815,5.343,9.789
		C5.309,9.763,5.292,9.734,5.292,9.7c0-0.076,0.042-0.136,0.127-0.179L4.87,9.176H4.819c-0.018,0.366-0.047,0.92-0.09,1.661
		l-0.102,0.063c0.017,0-0.013-0.021-0.09-0.063c-0.009-0.222-0.046-0.873-0.115-1.956C4.38,8.84,4.21,8.734,3.912,8.563v3.003h1.394
		c0.051-0.11,0.102-0.222,0.153-0.333C5.543,11.039,5.586,10.911,5.586,10.85z M5.267,7.604c0-0.025-0.018-0.059-0.051-0.102H4.142
		C4.176,7.4,4.15,7.349,4.065,7.349c-0.094,0-0.141,0.038-0.141,0.114c0,0.069,0.031,0.105,0.095,0.109
		C4.084,7.576,4.188,7.583,4.333,7.59C4.368,7.6,4.415,7.613,4.474,7.629c0.018,0,0.042,0.012,0.077,0.033
		c0.034,0.02,0.055,0.03,0.064,0.03c-0.026,0,0.006-0.016,0.096-0.051C4.8,7.608,4.887,7.59,4.973,7.59
		c0.034,0,0.057,0.024,0.07,0.072c0.013,0.045,0.053,0.069,0.122,0.069C5.232,7.732,5.267,7.689,5.267,7.604z M5.65,3.464
		c0,0.067-0.03,0.144-0.09,0.23C5.501,3.779,5.441,3.822,5.381,3.822c-0.264,0-0.417-0.124-0.46-0.372
		C4.887,3.485,4.87,3.527,4.87,3.578c0,0.128,0.03,0.285,0.09,0.473H4.666c0.068-0.254,0.103-0.392,0.103-0.408L4.742,3.515
		C4.734,3.498,4.721,3.476,4.704,3.45C4.678,3.527,4.651,3.606,4.621,3.687C4.591,3.768,4.5,3.808,4.346,3.808
		c-0.238,0-0.357-0.114-0.357-0.344c0-0.222,0.115-0.333,0.344-0.333c0.111,0,0.201,0.029,0.269,0.089L4.64,3.194V3.157
		C4.529,3.088,4.474,2.982,4.474,2.838c0-0.222,0.115-0.333,0.346-0.333c0.093,0,0.177,0.038,0.249,0.114s0.109,0.153,0.109,0.23
		c0,0.102-0.073,0.212-0.217,0.332C4.968,3.19,4.989,3.204,5.024,3.22c0.051-0.06,0.136-0.089,0.255-0.089
		c0.102,0,0.189,0.036,0.262,0.109C5.613,3.312,5.65,3.387,5.65,3.464z M4.678,7.016V6.953H4.372v0.063H4.678z M4.678,7.132V7.055
		H4.384L4.372,7.132H4.678z M4.678,7.297H4.384L4.372,7.361C4.5,7.344,4.602,7.323,4.678,7.297z M4.666,7.157H4.384
		c0,0.008,0,0.038,0,0.089H4.64L4.666,7.157z M5.318,7.106c-0.273-0.025-0.457-0.163-0.55-0.409C4.759,6.689,4.751,6.68,4.742,6.671
		C4.666,6.723,4.559,6.79,4.423,6.876C4.516,6.884,4.61,6.897,4.704,6.914c0.077,0.018,0.115,0.081,0.115,0.192
		c0,0.119-0.019,0.198-0.058,0.236C4.724,7.381,4.627,7.4,4.474,7.4c0.077,0.025,0.158,0.038,0.243,0.038
		c0.119,0,0.196-0.012,0.23-0.038C5.075,7.297,5.198,7.199,5.318,7.106z M4.806,7.667H4.742c-0.068,0.025-0.106,0.116-0.115,0.27
		C4.619,8.004,4.623,8.073,4.64,8.141c0.017,0.093,0.009,0.28-0.025,0.562C4.572,9.036,4.551,9.228,4.551,9.279
		c0,0.008,0.011,0.114,0.032,0.319c0.021,0.204,0.032,0.311,0.032,0.318c0,0.018-0.002,0.048-0.006,0.091
		c-0.004,0.043-0.007,0.072-0.007,0.089v0.46c0-0.033,0.017,0.063,0.051,0.294l0.064-0.319L4.806,7.667z M6.698,6.454V6.39
		c0-0.12-0.085-0.405-0.255-0.856C6.391,5.389,6.289,5.159,6.136,4.843C6.11,4.792,6.08,4.763,6.046,4.754
		c0.401,0.86,0.6,1.41,0.6,1.648c0,0.025-0.008,0.047-0.025,0.064C6.587,6.416,6.549,6.351,6.506,6.274
		c-0.222-0.4-0.485-0.732-0.792-0.996C5.39,4.997,5.075,4.857,4.768,4.857c-0.034,0-0.094,0.016-0.179,0.051
		c0.026,0,0.073,0.005,0.141,0.019c0.068,0.012,0.11,0.019,0.128,0.019c0.264,0.008,0.562,0.166,0.895,0.473
		C6.067,5.691,6.302,5.985,6.455,6.3C6.489,6.36,6.544,6.424,6.621,6.493C6.646,6.467,6.672,6.454,6.698,6.454z M4.729,7.132V7.067
		H4.704v0.064H4.729z M5.944,6.467c0-0.23-0.132-0.431-0.396-0.6C5.582,5.875,5.65,5.802,5.752,5.648H5.688
		C5.594,5.691,5.522,5.729,5.471,5.764C5.462,5.79,5.45,5.819,5.432,5.853h-0.14C5.275,5.76,5.177,5.691,4.998,5.648
		C5.015,5.7,5.049,5.768,5.101,5.853c0.042,0,0.093,0.004,0.153,0.014C4.973,5.969,4.832,6.143,4.832,6.39
		c0,0.162,0.053,0.299,0.159,0.409c0.106,0.11,0.241,0.166,0.403,0.166c0.179,0,0.333-0.081,0.46-0.242
		c0.017,0,0.033-0.014,0.051-0.039C5.931,6.632,5.944,6.561,5.944,6.467z M5.918,6.504c0,0.146-0.06,0.218-0.179,0.218
		c-0.162,0-0.256-0.077-0.281-0.23C5.441,6.51,5.432,6.536,5.432,6.569c0,0.077,0.018,0.175,0.051,0.293H5.305
		c0.042-0.162,0.063-0.247,0.063-0.256c0-0.008-0.004-0.034-0.012-0.077c0-0.008-0.008-0.021-0.025-0.038
		c-0.018,0.043-0.036,0.088-0.058,0.14S5.194,6.709,5.101,6.709c-0.146,0-0.217-0.067-0.217-0.205c0-0.144,0.072-0.217,0.217-0.217
		c0.068,0,0.119,0.021,0.153,0.063l0.039-0.025V6.3C5.215,6.258,5.177,6.194,5.177,6.109c0-0.136,0.077-0.205,0.229-0.205
		c0.146,0,0.217,0.068,0.217,0.205c0,0.068-0.046,0.14-0.141,0.217c0.009,0,0.021,0.009,0.039,0.025
		c0.034-0.042,0.089-0.063,0.166-0.063C5.841,6.288,5.918,6.36,5.918,6.504z M5.483,5.636C5.416,5.568,5.377,5.534,5.368,5.534
		L5.241,5.648c0.034,0.035,0.081,0.073,0.14,0.116C5.381,5.747,5.416,5.704,5.483,5.636z M5.496,9.789
		c-0.034-0.067-0.051-0.132-0.051-0.19H5.368L5.356,9.674l0.051,0.114H5.496z M5.65,9.738c-0.034-0.06-0.051-0.132-0.051-0.217
		c-0.068,0-0.103,0.029-0.103,0.089c0,0.035,0.039,0.086,0.115,0.153C5.62,9.755,5.633,9.748,5.65,9.738z M6.072,10.85v-0.052
		c-0.051-0.144-0.085-0.336-0.103-0.574C5.952,9.952,5.935,9.777,5.918,9.7c-0.026,0-0.06,0.009-0.103,0.026
		c0.042,0.673,0.064,1.005,0.064,0.996c-0.034-0.119-0.06-0.269-0.077-0.447c-0.009-0.118-0.03-0.276-0.064-0.473H5.688v0.256
		c0.009,0.136,0.013,0.337,0.013,0.601L5.573,9.815c-0.017,0-0.042,0.005-0.077,0.013c0.026,0.18,0.047,0.358,0.064,0.537
		c0.018,0.18,0.06,0.341,0.128,0.485h0.051v-0.128c0.034,0.034,0.06,0.076,0.077,0.128h0.089c0.008-0.017,0.017-0.034,0.026-0.052
		c0.017,0.018,0.025,0.035,0.025,0.052H6.072z M7.809,11.31c-0.017-0.033-0.033-0.077-0.051-0.128H5.56
		c-0.008,0.018-0.025,0.043-0.051,0.077c0.128,0,0.207,0.004,0.237,0.013c0.029,0.009,0.066,0.026,0.108,0.052
		c0.042,0.025,0.068,0.037,0.077,0.037c0.017,0,0.044-0.017,0.083-0.051c0.039-0.033,0.101-0.051,0.186-0.051
		c0.068,0,0.134,0.019,0.198,0.058c0.064,0.037,0.104,0.058,0.121,0.058c0.009,0,0.045-0.021,0.109-0.058
		c0.064-0.039,0.121-0.058,0.173-0.058c0.025,0,0.047,0.004,0.063,0.013c0.17,0.067,0.238,0.103,0.205,0.103
		c0.008,0,0.038-0.021,0.089-0.064c0.052-0.043,0.106-0.063,0.166-0.063c0.077,0,0.154,0.03,0.23,0.089
		c0.043,0.018,0.056,0.025,0.038,0.025c0.018,0,0.043-0.011,0.076-0.032c0.035-0.02,0.061-0.03,0.077-0.03
		C7.78,11.298,7.801,11.302,7.809,11.31z M7.311,4.46c0-0.077-0.043-0.115-0.128-0.115c-0.043,0-0.076,0.012-0.102,0.038v0.064
		c0.033,0,0.08,0.008,0.141,0.025C7.197,4.499,7.17,4.511,7.145,4.511c-0.068,0-0.103-0.034-0.103-0.103
		c0-0.103,0.068-0.144,0.205-0.128v-0.14c0-0.017-0.005-0.047-0.013-0.09C7.226,4.009,7.222,3.983,7.222,3.974V3.348
		c0,0.043-0.048-0.051-0.141-0.282H6.046v0.372c0.017-0.025,0.046-0.051,0.09-0.077C6.11,3.395,6.08,3.438,6.046,3.489
		C6.131,3.413,6.2,3.374,6.25,3.374c0.042,0,0.119,0.035,0.229,0.103C6.396,3.527,6.319,3.553,6.25,3.553
		c0.026,0-0.043-0.012-0.205-0.038c0,0.026-0.004,0.07-0.013,0.133C6.024,3.713,6.021,3.753,6.021,3.771
		C6.046,3.95,6.029,4.111,5.969,4.255c-0.034,0.12-0.073,0.179-0.115,0.179c-0.051,0-0.09-0.016-0.115-0.051l0.025-0.026
		c0.06,0.009,0.103,0.014,0.128,0.014c0-0.018,0.002-0.034,0.007-0.051c0.004-0.018,0.006-0.03,0.006-0.039
		c0-0.059-0.038-0.089-0.115-0.089c-0.094,0-0.141,0.043-0.141,0.128c0,0.12,0.063,0.179,0.191,0.179c0.042,0,0.068,0,0.077,0
		C5.952,4.481,6.012,4.43,6.097,4.345c0.017,0.085-0.068,0.162-0.256,0.23h0.128c0.026,0,0.064-0.026,0.115-0.077l0.103-0.116
		C6.178,4.537,6.118,4.623,6.008,4.639c0.077,0.018,0.174-0.051,0.294-0.205C6.276,4.485,6.246,4.558,6.212,4.652
		c0.042-0.009,0.087-0.039,0.134-0.09c0.047-0.051,0.079-0.081,0.096-0.089C6.459,4.499,6.455,4.528,6.43,4.562
		c0.042-0.016,0.076-0.025,0.102-0.025c0.018,0,0.035,0.009,0.051,0.025c0-0.042,0.009-0.067,0.025-0.077
		C6.668,4.546,6.703,4.588,6.71,4.613c-0.008-0.085-0.008-0.128,0-0.128C6.761,4.58,6.809,4.639,6.851,4.665
		C6.834,4.613,6.809,4.542,6.774,4.448L6.8,4.422c0.034,0.059,0.067,0.114,0.102,0.166c0.061,0.077,0.137,0.106,0.23,0.09
		c-0.051,0-0.09-0.009-0.115-0.025C6.923,4.583,6.876,4.511,6.876,4.434c0-0.025,0.004-0.042,0.013-0.051
		c0.018,0.043,0.043,0.09,0.077,0.141c0.051,0.059,0.11,0.089,0.179,0.089c0.025,0,0.06-0.019,0.103-0.058
		C7.29,4.518,7.311,4.485,7.311,4.46z M5.791,9.674C5.739,9.649,5.718,9.589,5.727,9.496C5.692,9.529,5.667,9.564,5.65,9.598
		C5.658,9.657,5.705,9.682,5.791,9.674z M5.931,9.635C5.888,9.568,5.867,9.507,5.867,9.458C5.825,9.466,5.803,9.492,5.803,9.534
		c0,0.034,0.025,0.076,0.077,0.127C5.888,9.653,5.905,9.645,5.931,9.635z M8.104,2.659c-0.035,0-0.066,0.001-0.096,0.005
		c-0.03,0.005-0.05,0.007-0.059,0.007S7.901,2.652,7.829,2.613C7.756,2.575,7.716,2.557,7.708,2.557S7.665,2.575,7.605,2.613
		c-0.06,0.039-0.119,0.058-0.179,0.058c-0.051,0-0.162-0.043-0.332-0.128c-0.018,0-0.052,0.019-0.103,0.058
		C6.941,2.639,6.885,2.659,6.826,2.659c-0.077,0-0.141-0.018-0.192-0.051C6.574,2.564,6.549,2.543,6.557,2.543
		c-0.017,0-0.053,0.024-0.108,0.07C6.394,2.66,6.335,2.684,6.276,2.684c-0.043,0-0.124-0.043-0.243-0.127
		c-0.018,0-0.041,0.011-0.071,0.031C5.933,2.609,5.91,2.62,5.893,2.62c0.017,0-0.005,0-0.064,0L5.88,2.761h2.185
		C8.074,2.726,8.086,2.692,8.104,2.659z M5.969,3.68V3.182C5.935,3.267,5.905,3.391,5.88,3.553C5.871,3.842,5.867,4.03,5.867,4.115
		c0.017-0.069,0.025-0.201,0.025-0.396c0-0.127,0.013-0.222,0.039-0.281C5.939,3.498,5.952,3.578,5.969,3.68z M5.969,4.204V4.025
		H5.931v0.179H5.969z M6.417,10.85v-0.052c-0.06-0.169-0.089-0.331-0.089-0.484V9.661c0-0.033-0.028-0.088-0.083-0.165
		s-0.108-0.114-0.16-0.114c-0.094,0-0.141,0.037-0.141,0.114c0,0.085,0.042,0.128,0.128,0.128l0.089-0.077
		c0.008,0.009,0.017,0.018,0.026,0.026c0.008,0.222,0.017,0.446,0.025,0.677c0.008,0.256,0.042,0.456,0.102,0.601H6.417z
		 M6.25,10.85c-0.068-0.238-0.102-0.388-0.102-0.447V9.802c0-0.018-0.005-0.043-0.013-0.076C6.127,9.692,6.123,9.67,6.123,9.661
		H5.969c0.042,0.215,0.064,0.304,0.064,0.27v0.473c0,0.146,0.034,0.293,0.103,0.447H6.25z M6.531,3.501L6.378,3.95
		c0.034,0.016,0.077,0.038,0.127,0.063v0.063c0-0.008-0.059-0.051-0.178-0.126c0.119-0.265,0.178-0.419,0.178-0.46
		c0-0.136-0.119-0.205-0.357-0.205c-0.043,0-0.073,0.008-0.089,0.025c0.025-0.043,0.079-0.066,0.159-0.07
		c0.081-0.005,0.139-0.02,0.173-0.046h0.076C6.51,3.476,6.531,3.578,6.531,3.501z M6.417,4.115C6.408,4.149,6.396,4.174,6.378,4.192
		C6.293,4.226,6.233,4.243,6.2,4.243c-0.094,0-0.141-0.034-0.141-0.103c0,0.018,0.013-0.008,0.038-0.077l0.09,0.038L6.097,4.09
		L6.084,4.102v0.051C6.11,4.17,6.131,4.178,6.148,4.178C6.182,4.178,6.271,4.158,6.417,4.115z M6.161,3.527
		c0-0.025-0.005-0.055-0.013-0.089C6.131,3.446,6.11,3.459,6.084,3.476c0.008,0.009,0.023,0.017,0.044,0.025
		C6.15,3.511,6.161,3.519,6.161,3.527z M6.366,3.438C6.323,3.464,6.289,3.476,6.264,3.476c-0.026,0-0.051-0.012-0.077-0.038
		c0.042,0.06,0.068,0.089,0.077,0.089C6.297,3.527,6.332,3.498,6.366,3.438z M7.963,9.559c0-0.085-0.052-0.127-0.154-0.127
		c-0.119,0-0.204,0.051-0.255,0.152c0,0.01-0.005,0.014-0.013,0.014c-0.009,0-0.018-0.004-0.025-0.014
		c0.06-0.17,0.148-0.25,0.268-0.242L7.708,9.33c-0.06,0-0.119,0.026-0.179,0.077C7.511,9.44,7.478,9.483,7.426,9.534
		C7.46,9.381,7.511,9.299,7.58,9.291C7.537,9.283,7.493,9.304,7.446,9.356c-0.048,0.051-0.092,0.097-0.135,0.14
		C7.302,9.461,7.313,9.422,7.343,9.381c0.029-0.043,0.04-0.077,0.032-0.103C7.341,9.295,7.302,9.332,7.26,9.386
		c-0.043,0.057-0.072,0.08-0.09,0.071V9.393l0.026-0.037C7.127,9.381,7.082,9.385,7.055,9.368c0,0.018-0.013,0.043-0.038,0.077
		C6.983,9.401,6.95,9.346,6.915,9.279c0.026,0.077,0.03,0.132,0.014,0.166C6.86,9.317,6.788,9.24,6.71,9.214
		c0.085,0.051,0.128,0.132,0.128,0.243c0,0.034-0.004,0.056-0.013,0.063C6.8,9.461,6.774,9.407,6.749,9.356
		C6.707,9.287,6.66,9.253,6.608,9.253c-0.017,0-0.034,0.004-0.051,0.012c0.128,0,0.191,0.073,0.191,0.218
		c0,0.042-0.004,0.063-0.013,0.063C6.676,9.393,6.591,9.317,6.48,9.317c-0.11,0-0.166,0.051-0.166,0.153
		c0,0.085,0.046,0.128,0.141,0.128c0.025,0,0.047-0.014,0.063-0.039V9.47c-0.059,0-0.098-0.004-0.114-0.013
		c0.042-0.043,0.072-0.064,0.089-0.064c0.068,0,0.102,0.039,0.102,0.114c0,0.095-0.046,0.142-0.14,0.142
		c-0.017,0-0.034-0.003-0.051-0.007c-0.018-0.004-0.03-0.007-0.039-0.007c0.025,0.061,0.039,0.116,0.039,0.167v0.473
		c0,0.11,0.013,0.213,0.038,0.307c0.034,0.06,0.076,0.149,0.127,0.269h1.01v-0.37c-0.051,0.051-0.089,0.076-0.114,0.076
		c-0.103,0-0.214-0.038-0.333-0.114c0.085-0.051,0.157-0.077,0.218-0.077c0.093,0,0.166,0.013,0.217,0.038l0.025-0.523
		c0.009-0.256,0.072-0.384,0.191-0.384c0.043,0,0.073,0.018,0.09,0.051H7.72c0,0.009-0.002,0.021-0.006,0.038
		C7.709,9.602,7.708,9.62,7.708,9.635c0,0.052,0.043,0.077,0.128,0.077S7.963,9.661,7.963,9.559z M7.004,4.192
		C6.954,4.226,6.873,4.243,6.761,4.243C6.745,4.269,6.736,4.306,6.736,4.357C6.727,4.316,6.655,4.294,6.519,4.294
		c-0.051,0-0.094,0-0.127,0c0,0.008-0.004,0.018-0.013,0.025C6.37,4.328,6.357,4.332,6.34,4.332c0,0.018,0.004-0.016,0.013-0.103
		c0.051,0.018,0.102,0.026,0.153,0.026H6.71c-0.025-0.026-0.06-0.067-0.103-0.128h0.09c0.018,0,0.042,0.011,0.076,0.032
		c0.035,0.021,0.061,0.032,0.077,0.032h0.128l0.013-0.064C6.966,4.102,6.945,4.094,6.928,4.102l0.076-0.025V4.192z M7.273,6.939
		c0-0.119-0.049-0.224-0.147-0.312C7.028,6.537,6.919,6.493,6.8,6.493S6.577,6.54,6.487,6.632C6.397,6.727,6.353,6.829,6.353,6.939
		s0.046,0.218,0.14,0.32C6.587,7.361,6.69,7.412,6.8,7.412c0.119,0,0.228-0.048,0.325-0.146C7.224,7.168,7.273,7.059,7.273,6.939z
		 M7.209,6.939C7.192,6.982,7.153,7.008,7.094,7.016C7.069,7.034,7.06,7.059,7.069,7.093H6.992L6.979,7.016
		C6.97,6.991,6.945,6.979,6.902,6.979c-0.034,0-0.06,0.021-0.076,0.063C6.851,7.084,6.88,7.106,6.915,7.106v0.103
		c-0.051,0.008-0.072,0.03-0.063,0.063c0,0.051-0.013,0.084-0.038,0.102c-0.025,0-0.052-0.047-0.077-0.14
		C6.719,7.225,6.698,7.203,6.672,7.169c0.009-0.008,0.043-0.034,0.102-0.077V6.991C6.757,6.974,6.727,6.965,6.685,6.965
		C6.676,7,6.655,7.045,6.621,7.106C6.595,7.081,6.562,7.05,6.519,7.016C6.476,7.025,6.43,7,6.378,6.939
		c0.042,0,0.106-0.038,0.191-0.115h0.063c0.018,0.026,0.035,0.063,0.052,0.115h0.051c0.009-0.008,0.021-0.021,0.038-0.038v-0.09
		c-0.017,0-0.042-0.008-0.076-0.026c0-0.033-0.008-0.059-0.025-0.077C6.74,6.684,6.774,6.628,6.774,6.543h0.064
		c0.009,0.034,0.02,0.07,0.032,0.109c0.013,0.038,0.036,0.056,0.07,0.056v0.065c0,0.016-0.009,0.025-0.026,0.025H6.838
		c-0.009-0.009-0.013,0-0.013,0.025c0,0.026,0.021,0.067,0.063,0.128h0.077c0.009-0.018,0.013-0.055,0.013-0.116
		c0.008,0,0.021,0,0.038,0c0.017,0,0.038,0.015,0.064,0.044c0.025,0.031,0.051,0.046,0.076,0.046c0.009,0,0.021-0.004,0.039-0.014
		C7.197,6.923,7.201,6.931,7.209,6.939z M6.646,4.383H6.417V4.345h0.229V4.383z M6.954,10.403c-0.077,0.085-0.158,0.128-0.243,0.128
		c0.051,0-0.017-0.021-0.205-0.063c0.018,0.017,0.047,0.042,0.089,0.077c-0.034-0.018-0.077-0.052-0.128-0.103l0.039,0.012
		c0.009-0.008,0-0.025-0.026-0.051c0.077-0.043,0.153-0.063,0.23-0.063C6.779,10.339,6.86,10.36,6.954,10.403z M6.723,3.924
		c0,0.033-0.017,0.067-0.051,0.101C6.621,4,6.566,3.974,6.506,3.95c0.068,0,0.127,0.008,0.179,0.024
		C6.71,3.958,6.723,3.94,6.723,3.924z M7.017,10.722C7,10.713,6.95,10.709,6.864,10.709c-0.017,0-0.047,0.002-0.09,0.007
		c-0.042,0.004-0.071,0.006-0.089,0.006c-0.052,0-0.111-0.042-0.179-0.127c0.085,0.024,0.132,0.038,0.14,0.038
		c0.018,0,0.048-0.003,0.09-0.007c0.043-0.004,0.068-0.007,0.077-0.007C6.941,10.62,7.008,10.655,7.017,10.722z M6.583,10.454
		c0.009-0.043,0.009-0.062,0-0.062c-0.017,0.008-0.039,0.016-0.064,0.025C6.544,10.424,6.566,10.436,6.583,10.454z M7.12,3.322
		c-0.086-0.008-0.213-0.02-0.384-0.038C6.694,3.277,6.651,3.242,6.608,3.182c0.068,0.034,0.107,0.051,0.115,0.051
		c0.017,0,0.051-0.006,0.103-0.019c0.051-0.014,0.085-0.021,0.103-0.021C7.03,3.194,7.094,3.238,7.12,3.322z M7.004,9.789h-0.09
		c-0.008,0-0.034-0.012-0.076-0.037c-0.043-0.025-0.073-0.039-0.09-0.039c-0.067,0-0.11,0.031-0.128,0.09
		C6.664,9.82,6.698,9.824,6.723,9.815C6.698,9.84,6.668,9.854,6.633,9.854c-0.017-0.026-0.025-0.06-0.025-0.103
		C6.633,9.717,6.698,9.7,6.8,9.7C6.936,9.7,7.004,9.73,7.004,9.789z M6.813,10.48c0-0.069-0.03-0.103-0.09-0.103
		c-0.017,0-0.055,0.029-0.115,0.09c0.111-0.035,0.153-0.051,0.128-0.051C6.761,10.417,6.788,10.436,6.813,10.48z M6.736,10.582
		L6.633,10.57v-0.025l0.103,0.012V10.582z M7.145,3.515C7.034,3.566,6.954,3.592,6.902,3.592c-0.034,0-0.11-0.03-0.229-0.09
		c0.093-0.067,0.175-0.103,0.242-0.103c0.018,0,0.072,0.01,0.167,0.026C7.073,3.409,7.004,3.387,6.876,3.361h0.166
		c0.034,0,0.068,0.034,0.103,0.103V3.515z M6.788,3.515C6.779,3.505,6.774,3.493,6.774,3.476c-0.017,0-0.034,0.009-0.051,0.025
		C6.774,3.511,6.795,3.515,6.788,3.515z M7.004,3.464c-0.009,0-0.027,0.004-0.057,0.012c-0.03,0.009-0.05,0.013-0.059,0.013
		c-0.017,0-0.038-0.004-0.063-0.013C6.8,3.468,6.783,3.464,6.774,3.464C6.8,3.489,6.817,3.515,6.826,3.541h0.166
		C6.992,3.498,6.996,3.472,7.004,3.464z M7.273,9.573c0,0.025-0.005,0.062-0.013,0.114c-0.162-0.026-0.281-0.03-0.358-0.013
		c0.009-0.018,0-0.055-0.025-0.115L6.941,9.61C7,9.635,7.055,9.649,7.107,9.649C7.209,9.649,7.264,9.624,7.273,9.573z M7.094,9.968
		C7.051,9.986,7.008,9.977,6.966,9.943H6.915c0.009,0.017,0,0.039-0.025,0.064c0-0.018,0.013-0.052,0.039-0.103h0.063
		C7.008,9.905,7.042,9.926,7.094,9.968z M9.024,9.009C8.615,9.044,8.175,8.831,7.708,8.372C7.665,8.329,7.537,8.158,7.324,7.86
		C7.127,7.579,7.025,7.438,7.017,7.438c0.008,0-0.021,0.009-0.089,0.025C6.987,7.745,7.047,7.97,7.107,8.141
		c0.033,0.11,0.09,0.255,0.166,0.434c0.06,0.153,0.161,0.354,0.307,0.602C7.478,8.955,7.341,8.622,7.17,8.179
		c-0.009-0.025-0.076-0.256-0.204-0.69C6.983,7.48,6.996,7.477,7.004,7.477c0.008,0,0.013,0.004,0.013,0.012
		C7.58,8.538,8.202,9.061,8.883,9.061C8.917,9.061,8.963,9.044,9.024,9.009z M7.197,9.573H6.979V9.546h0.218V9.573z M7.094,3.501
		L7.055,3.45c-0.017,0.026-0.038,0.055-0.063,0.09C6.983,3.541,7.017,3.527,7.094,3.501z M7.554,10.608
		c0,0.068-0.043,0.102-0.128,0.102c-0.018,0-0.038-0.004-0.063-0.014c-0.025-0.008-0.043-0.012-0.052-0.012
		c-0.018,0-0.06,0.018-0.128,0.051c-0.068-0.153-0.102-0.277-0.102-0.37c0-0.018,0.021-0.068,0.063-0.153
		c0.043-0.111,0.072-0.187,0.09-0.229C7.201,9.956,7.149,9.909,7.082,9.84H7.12c0.017,0.018,0.072,0.051,0.166,0.103
		c-0.018,0.051-0.049,0.141-0.096,0.269s-0.07,0.195-0.07,0.205c0,0.076,0.025,0.144,0.077,0.203c0.033,0,0.086,0.007,0.159,0.021
		c0.072,0.012,0.117,0.019,0.135,0.019C7.499,10.659,7.52,10.641,7.554,10.608z M7.248,10.428v-0.025l-0.064,0.025v0.025
		L7.248,10.428z M7.567,9.789c0,0.018-0.013,0.039-0.038,0.065l-0.09-0.026c0.043,0.009,0.072,0.009,0.09,0l0.013-0.013V9.763
		C7.533,9.748,7.507,9.738,7.465,9.738c-0.018,0-0.061,0.018-0.128,0.051H7.197C7.213,9.763,7.235,9.738,7.26,9.712
		C7.379,9.705,7.434,9.7,7.426,9.7C7.52,9.7,7.567,9.73,7.567,9.789z M7.668,4.473V4.357C7.618,4.316,7.584,4.294,7.567,4.294
		c-0.025,0-0.063,0.025-0.115,0.077c0-0.248-0.034-0.644-0.102-1.189C7.333,3.157,7.316,3.118,7.298,3.066H7.235
		c0.033,0.179,0.051,0.277,0.051,0.295v0.805c0,0.043,0.017,0.11,0.052,0.205c0.059,0.11,0.128,0.166,0.204,0.166
		C7.576,4.537,7.618,4.516,7.668,4.473z M7.465,10.48c-0.052-0.06-0.09-0.089-0.115-0.089c-0.026,0-0.061,0.025-0.103,0.076
		c0.008,0,0.023-0.005,0.044-0.014c0.021-0.008,0.041-0.012,0.059-0.012C7.324,10.442,7.363,10.454,7.465,10.48z M7.414,10.582H7.35
		v-0.025h0.063V10.582z M7.643,4.255c-0.008-0.034-0.019-0.081-0.031-0.14S7.592,4.017,7.592,4V3.413
		c0-0.077-0.034-0.192-0.102-0.346h-0.09c0.051,0.197,0.077,0.316,0.077,0.358v0.448c0,0.016-0.003,0.038-0.007,0.063
		C7.467,3.962,7.465,3.979,7.465,3.987c0.008,0.085,0.025,0.179,0.051,0.281C7.549,4.251,7.592,4.247,7.643,4.255z M7.542,10.428
		l-0.063-0.012c0.008,0.008,0.008,0.029,0,0.063C7.495,10.471,7.516,10.454,7.542,10.428z M7.58,10.454l-0.013-0.012l-0.089,0.063
		l0.025,0.025L7.58,10.454z M8.117,4.09V3.962c0-0.171-0.018-0.384-0.052-0.64c-0.009-0.042-0.06-0.128-0.153-0.256
		c0,0.077-0.004,0.12-0.013,0.128C7.839,3.11,7.796,3.066,7.771,3.066c-0.033,0-0.063,0.018-0.09,0.051
		C7.673,3.11,7.665,3.092,7.656,3.066H7.58v0.051c0,0.018,0.009,0.054,0.025,0.109C7.623,3.282,7.63,3.318,7.63,3.336
		c0.009,0.179,0.025,0.447,0.051,0.805C7.69,4.167,7.708,4.2,7.733,4.243c0.025-0.018,0.056-0.034,0.09-0.051
		c-0.034-0.248-0.06-0.579-0.077-0.998c0.051,0.12,0.085,0.277,0.103,0.474C7.857,3.83,7.87,3.987,7.886,4.141h0.077V3.924
		c-0.035-0.188-0.048-0.401-0.039-0.64l0.128,0.831C8.112,4.098,8.133,4.09,8.117,4.09z M7.746,9.815
		c-0.025,0.171-0.038,0.272-0.038,0.307c0.018,0.153,0.013,0.26-0.013,0.32c-0.009-0.086-0.014-0.192-0.014-0.32
		c0-0.008-0.004,0.061-0.013,0.204c-0.008,0.12-0.013,0.248-0.013,0.384c0,0.018,0.013,0,0.039-0.051
		c0.025-0.051,0.043-0.095,0.051-0.128V9.815z M9.638,11.566L9.625,8.792l-1.61,0.754C8.04,9.708,7.976,9.794,7.823,9.802
		c-0.009,0.196-0.034,0.49-0.077,0.882c0,0.025-0.013,0.068-0.038,0.128c-0.026,0.06-0.039,0.093-0.039,0.103
		c0,0.041,0.064,0.161,0.192,0.357c0.067,0.094,0.141,0.191,0.217,0.294H9.638z M8.857,7.565c0-0.136-0.033-0.247-0.102-0.332
		C8.61,7.045,8.444,6.953,8.257,6.953c-0.367,0-0.55,0.199-0.55,0.601c0,0.128,0.056,0.245,0.166,0.352
		c0.111,0.106,0.238,0.16,0.384,0.16c0.169,0,0.336-0.112,0.498-0.333C8.763,7.714,8.785,7.703,8.82,7.693
		C8.844,7.651,8.857,7.608,8.857,7.565z M7.823,4.371c0-0.034-0.026-0.069-0.077-0.103v0.217C7.796,4.434,7.823,4.396,7.823,4.371z
		 M8.781,7.412c0,0.146-0.071,0.218-0.217,0.218c-0.06,0-0.11-0.021-0.153-0.064L8.373,7.59v0.026
		C8.448,7.66,8.487,7.724,8.487,7.809c0,0.136-0.072,0.204-0.217,0.204c-0.153,0-0.23-0.068-0.23-0.204
		c0-0.068,0.043-0.136,0.128-0.205C8.159,7.596,8.15,7.583,8.142,7.565C8.117,7.608,8.061,7.629,7.976,7.629
		c-0.146,0-0.218-0.072-0.218-0.218c0-0.144,0.056-0.217,0.166-0.217c0.162,0,0.256,0.077,0.281,0.23
		c0.026-0.018,0.039-0.039,0.039-0.064c0-0.076-0.026-0.178-0.077-0.306h0.191C8.316,7.217,8.295,7.301,8.295,7.31
		c0,0.018,0.004,0.047,0.013,0.09c0.008,0.008,0.017,0.017,0.025,0.025c0.018-0.043,0.036-0.09,0.059-0.14
		c0.021-0.051,0.077-0.077,0.172-0.077C8.709,7.208,8.781,7.276,8.781,7.412z M7.963,4.281L7.924,4.243H7.835
		c0.042,0.034,0.067,0.098,0.076,0.191C7.928,4.393,7.946,4.341,7.963,4.281z M8.18,8.127c-0.018,0-0.04-0.001-0.07-0.006
		S8.056,8.116,8.04,8.116c-0.076,0-0.124,0.067-0.141,0.205C8.104,8.26,8.197,8.197,8.18,8.127z M9.56,10.48
		c0,0.229-0.114,0.344-0.345,0.344c-0.11,0-0.2-0.033-0.27-0.102l-0.037,0.039v0.037c0.11,0.069,0.167,0.175,0.167,0.32
		c0,0.213-0.116,0.319-0.346,0.319c-0.094,0-0.177-0.036-0.249-0.109c-0.073-0.071-0.108-0.146-0.108-0.223
		c0-0.103,0.071-0.213,0.217-0.333c-0.009-0.008-0.031-0.025-0.063-0.051c-0.051,0.068-0.137,0.102-0.256,0.102
		c-0.103,0-0.19-0.036-0.262-0.107c-0.073-0.072-0.109-0.152-0.109-0.236c0-0.06,0.029-0.135,0.09-0.224
		c0.06-0.091,0.119-0.135,0.179-0.135c0.265,0,0.418,0.124,0.461,0.371c0.032-0.025,0.05-0.064,0.05-0.115
		c0-0.136-0.029-0.298-0.089-0.486h0.294c-0.069,0.266-0.103,0.405-0.103,0.423l0.025,0.128c0.008,0.008,0.021,0.025,0.038,0.051
		c0.026-0.076,0.054-0.156,0.083-0.236c0.029-0.081,0.121-0.121,0.274-0.121C9.442,10.135,9.56,10.25,9.56,10.48z M8.129,4.294
		c0-0.034-0.021-0.073-0.064-0.116H7.963C8.005,4.213,8.031,4.255,8.04,4.306c0,0.043,0,0.083,0,0.116
		C8.099,4.363,8.129,4.32,8.129,4.294z M9.638,5.316V2.377H8.295c0,0.016-0.056,0.132-0.166,0.345
		C8.069,2.867,8.04,2.978,8.04,3.055c0,0.017,0.011,0.059,0.032,0.127c0.021,0.069,0.032,0.115,0.032,0.14
		c0.017,0.171,0.051,0.423,0.102,0.754C8.214,4.094,8.24,4.111,8.283,4.127c0.033,0.018,0.051,0.057,0.051,0.116
		c0,0.069-0.047,0.124-0.141,0.166L8.781,4.78c0.025-0.341,0.055-0.844,0.09-1.509c0.009-0.051,0.013-0.097,0.013-0.14
		c0.018-0.06,0.055-0.099,0.114-0.116C9.033,3.041,9.07,3.08,9.113,3.131c0.009,0.307,0.026,0.732,0.052,1.277L9.19,5.074
		C9.292,5.125,9.442,5.206,9.638,5.316z M8.257,4.229c0-0.034-0.018-0.067-0.052-0.102H8.117c0.067,0.068,0.085,0.137,0.051,0.205
		C8.227,4.306,8.257,4.273,8.257,4.229z M8.385,8.294c-0.01,0-0.048-0.03-0.115-0.09c-0.061,0.06-0.103,0.095-0.128,0.103
		c0.033,0.085,0.072,0.128,0.115,0.128C8.283,8.435,8.325,8.387,8.385,8.294z M9.178,7.042c-0.035,0-0.089-0.004-0.16-0.012
		C8.945,7.02,8.901,7.016,8.883,7.016C8.832,6.949,8.806,6.88,8.806,6.812c0-0.11,0.019-0.183,0.058-0.217s0.139-0.059,0.301-0.077
		C9.079,6.5,8.995,6.493,8.909,6.493c-0.128,0-0.209,0.012-0.242,0.038c-0.12,0.094-0.242,0.188-0.371,0.281
		c0.137,0.018,0.251,0.061,0.346,0.128c0.025,0.017,0.11,0.12,0.254,0.307C8.973,7.195,9.066,7.126,9.178,7.042z M9.702,6.454
		c0-0.067-0.025-0.103-0.077-0.103c-0.06,0-0.146,0-0.256,0c-0.025,0-0.103-0.016-0.229-0.051c-0.018-0.008-0.041-0.025-0.07-0.051
		c-0.031-0.025-0.05-0.038-0.058-0.038c-0.017,0-0.049,0.015-0.096,0.044c-0.048,0.03-0.084,0.05-0.109,0.058
		c-0.06,0.018-0.115,0.025-0.165,0.025c-0.026,0-0.044-0.004-0.052-0.013c0.008-0.085-0.033-0.128-0.128-0.128
		c-0.076,0-0.115,0.039-0.115,0.116c0,0.034,0.035,0.063,0.102,0.089C8.483,6.42,8.521,6.433,8.564,6.441l0.907,0.012
		C9.463,6.488,9.468,6.52,9.49,6.55c0.021,0.03,0.046,0.044,0.07,0.044C9.655,6.595,9.702,6.547,9.702,6.454z M8.653,8.321
		C8.628,8.183,8.572,8.116,8.487,8.116c-0.033,0-0.076,0.012-0.128,0.038c0.009,0.008,0.017,0.029,0.026,0.064
		c0.119,0.067,0.187,0.103,0.204,0.103H8.653z M9.062,4.704c0-0.018-0.011-0.148-0.032-0.391S8.998,3.944,8.998,3.936
		c0,0.008,0.005-0.089,0.014-0.293C9.027,3.454,9.033,3.314,9.024,3.22c0-0.085-0.018-0.136-0.051-0.154
		C8.938,3.092,8.917,3.2,8.909,3.387L8.806,6.249h0.077l0.09-0.051c0.024-0.195,0.033-0.323,0.024-0.382
		c-0.017-0.086-0.013-0.252,0.014-0.5C9.045,5.019,9.062,4.814,9.062,4.704z M9.241,6.939l-0.37-0.012l0.038,0.038h0.014
		c0-0.025,0.004-0.038,0.012-0.038c0.025,0,0.029,0.012,0.012,0.038L9.241,6.939z M8.934,6.709H8.883
		c0,0.018,0.009,0.035,0.025,0.051C8.917,6.752,8.926,6.735,8.934,6.709z M9.241,6.569C9.037,6.595,8.938,6.607,8.946,6.607
		l0.27,0.013C9.232,6.612,9.241,6.595,9.241,6.569z M9.241,6.748V6.697H8.973L8.946,6.748H9.241z M9.241,6.851V6.812H8.946
		C8.973,6.829,9.07,6.841,9.241,6.851z M10.75,11.822l-0.423,0.435h0.153v0.166H9.983v-0.166h0.14l0.384-0.435l-0.397-0.512h-0.14
		v-0.153h0.512v0.153H10.34L10.75,11.822z M11.03,10.161c0,0.161-0.085,0.242-0.256,0.242c-0.008,0-0.055-0.021-0.14-0.063
		c0.085,0.136,0.128,0.213,0.128,0.23c0,0.161-0.077,0.242-0.23,0.242c-0.161,0-0.242-0.081-0.242-0.242
		c0-0.025,0.042-0.103,0.127-0.23c-0.085,0.042-0.132,0.063-0.141,0.063c-0.169,0-0.256-0.081-0.256-0.242
		c0-0.162,0.087-0.244,0.256-0.244c0.119,0,0.197,0.061,0.23,0.18V9.994c0-0.17-0.043-0.319-0.128-0.447
		c0.034,0.018,0.085,0.026,0.153,0.026c0.067,0,0.119-0.009,0.153-0.026c-0.086,0.128-0.128,0.277-0.128,0.447v0.103
		c0.034-0.119,0.106-0.18,0.217-0.18C10.945,9.917,11.03,9.999,11.03,10.161z M11.094,12.422h-0.511v-0.166h0.167V11.31h-0.154
		v-0.153h0.498v0.153h-0.153v0.946h0.153V12.422z"/>
</g>
</svg>
