<?xml version="1.0" encoding="utf-8"?>
<!-- Generator: Adobe Illustrator 15.1.0, SVG Export Plug-In . SVG Version: 6.00 Build 0)  -->
<!DOCTYPE svg PUBLIC "-//W3C//DTD SVG 1.1//EN" "http://www.w3.org/Graphics/SVG/1.1/DTD/svg11.dtd">
<svg version="1.1" id="Layer_1" xmlns="http://www.w3.org/2000/svg" xmlns:xlink="http://www.w3.org/1999/xlink" x="0px" y="0px"
	 width="14.172px" height="14.172px" viewBox="0 0 14.172 14.172" enable-background="new 0 0 14.172 14.172" xml:space="preserve">
<g enable-background="new    ">
	<path d="M2.267,6.63c0-1.326,0.468-2.456,1.403-3.391s2.065-1.403,3.391-1.403s2.456,0.468,3.393,1.403
		c0.934,0.935,1.402,2.065,1.402,3.391s-0.469,2.457-1.402,3.394c-0.937,0.935-2.066,1.401-3.393,1.401
		c-1.327,0-2.456-0.468-3.391-1.401C2.734,9.087,2.267,7.957,2.267,6.63z M5.337,9.559C5.562,9.628,5.81,9.681,6.082,9.717
		c0.272,0.037,0.57,0.057,0.895,0.057c0.718,0,1.281-0.157,1.691-0.474c0.41-0.315,0.614-0.752,0.614-1.31
		c0-0.379-0.118-0.719-0.356-1.018c-0.237-0.299-0.543-0.494-0.92-0.59c0.718-0.263,1.076-0.748,1.076-1.457
		c0-0.488-0.17-0.853-0.512-1.095C8.23,3.589,7.715,3.469,7.028,3.469c-0.281,0-0.559,0.021-0.835,0.065
		c-0.276,0.043-0.549,0.11-0.816,0.2v1.238h0.577L5.96,4.816c0.026-0.38,0.092-0.598,0.201-0.654
		c0.215-0.112,0.44-0.168,0.673-0.168c0.692,0,1.037,0.356,1.037,1.069c0,0.747-0.543,1.12-1.633,1.12h-0.35v0.525h0.415
		c1.158,0,1.736,0.444,1.736,1.335c0,0.361-0.109,0.654-0.33,0.874C7.49,9.138,7.202,9.249,6.848,9.249
		c-0.268,0-0.518-0.064-0.752-0.194c-0.112-0.057-0.179-0.257-0.2-0.603L5.882,8.295H5.337V9.559z"/>
</g>
</svg>
