<?xml version="1.0" encoding="utf-8"?>
<!-- Generator: Adobe Illustrator 15.1.0, SVG Export Plug-In . SVG Version: 6.00 Build 0)  -->
<!DOCTYPE svg PUBLIC "-//W3C//DTD SVG 1.1//EN" "http://www.w3.org/Graphics/SVG/1.1/DTD/svg11.dtd">
<svg version="1.1" id="Layer_1" xmlns="http://www.w3.org/2000/svg" xmlns:xlink="http://www.w3.org/1999/xlink" x="0px" y="0px"
	 width="14.172px" height="14.172px" viewBox="0 0 14.172 14.172" enable-background="new 0 0 14.172 14.172" xml:space="preserve">
<path d="M11.47,6.585c-0.054,1.138-0.508,2.16-1.361,3.067c-0.887,0.945-1.958,1.449-3.215,1.508
	c-1.308-0.059-2.386-0.512-3.233-1.359C3.249,9.389,2.929,8.91,2.702,8.367C2.445,7.758,2.317,7.164,2.317,6.585
	c0-0.806,0.215-1.577,0.645-2.315c0.397-0.687,0.938-1.227,1.621-1.621C5.32,2.223,6.09,2.006,6.894,2
	c0.582-0.003,1.181,0.127,1.795,0.39c1.12,0.475,1.917,1.273,2.392,2.396C11.312,5.334,11.442,5.935,11.47,6.585z M6.423,5.77
	C6.411,5.606,6.372,5.499,6.307,5.448c-0.065-0.024-0.44-0.04-1.124-0.049c-0.227-0.003-0.427-0.004-0.6-0.004
	c-0.06,0-0.11-0.045-0.152-0.134c-0.033-0.072-0.09-0.107-0.17-0.107C4.275,5.09,4.29,5.02,4.306,4.942l0.551,0.322
	c0.006-0.047,0.009-0.112,0.009-0.192c-0.087-0.137-0.251-0.29-0.493-0.457l0.161-0.587C4.51,3.984,4.479,3.961,4.444,3.961
	c-0.039,0-0.067,0.009-0.085,0.027L4.207,4.557C4.055,4.602,3.849,4.667,3.589,4.754C3.502,4.79,3.454,4.834,3.445,4.888
	l-0.018,0.13l0.667-0.112L4.041,5.107C3.981,5.096,3.941,5.09,3.92,5.09c-0.057,0-0.092,0.046-0.107,0.139
	C3.762,5.24,3.736,5.29,3.736,5.376c0,0.03,0.006,0.051,0.019,0.063C3.719,5.448,3.701,5.475,3.701,5.52
	c0,0.065,0.034,0.106,0.103,0.121L3.629,5.797L3.445,5.752C3.41,5.758,3.366,5.8,3.315,5.878L3.544,5.98l0.009,0.166l0.13,0.071
	c0.006-0.057,0.024-0.139,0.054-0.246C3.844,5.84,3.928,5.77,3.987,5.761c0.024,0.012,0.054,0.018,0.09,0.018
	c0.068,0,0.121-0.017,0.156-0.049C4.84,5.888,5.315,5.996,5.662,6.052c0.131,0.057,0.263,0.085,0.394,0.085
	C6.241,6.087,6.363,5.964,6.423,5.77z M10.489,7.557c0-0.102-0.014-0.18-0.041-0.237c-0.018-0.113-0.075-0.239-0.172-0.378
	c-0.098-0.139-0.213-0.255-0.348-0.348C9.863,6.546,9.68,6.396,9.379,6.142C9.104,5.909,8.95,5.763,8.917,5.703
	C8.834,5.62,8.755,5.467,8.68,5.247c0-0.117,0.033-0.275,0.099-0.475l0.085-0.26c-0.018-0.03-0.058-0.045-0.121-0.045
	C8.686,4.482,8.62,4.539,8.546,4.637C8.507,4.685,8.479,4.72,8.461,4.74c-0.087,0.197-0.13,0.387-0.13,0.569
	c0.038,0.218,0.094,0.407,0.165,0.569C8.502,5.919,8.777,6.242,9.32,6.845c0.269,0.299,0.41,0.466,0.425,0.501
	C9.764,7.427,9.772,7.5,9.772,7.566c0,0.352-0.189,0.564-0.568,0.64c-0.209,0-0.366-0.038-0.471-0.116
	c-0.122-0.054-0.549-0.669-1.28-1.845C7.179,5.797,6.774,5.123,6.239,4.221C6.153,4.128,6.007,4.082,5.801,4.082
	c-0.102,0-0.192,0.012-0.273,0.036C5.453,4.157,5.346,4.239,5.205,4.364L5.049,4.422c-0.03,0.06-0.045,0.114-0.045,0.161
	c0,0.048,0.012,0.091,0.036,0.13c0.012,0.015,0.066,0.062,0.165,0.139C5.22,4.826,5.253,4.797,5.304,4.767l0.322-0.089
	C5.578,4.726,5.505,4.799,5.407,4.897L5.304,4.906l0.067,0.121c0.09,0.027,0.215,0.051,0.376,0.072
	c0.03,0.045,0.045,0.088,0.045,0.13c0,0.036-0.012,0.065-0.036,0.089l0.184-0.009C6.071,5.303,6.185,5.311,6.28,5.332
	c0.068,0.015,0.116,0.051,0.143,0.107c0.069,0.075,0.104,0.188,0.104,0.34c-0.065,0.274-0.24,0.43-0.524,0.465
	C5.871,6.236,5.774,6.212,5.711,6.173C5.673,6.263,5.653,6.357,5.653,6.455c0,0.141,0.034,0.251,0.103,0.332
	C5.717,6.864,5.698,6.952,5.698,7.051c0,0.238,0.061,0.46,0.184,0.662c0.271-0.295,0.492-0.47,0.662-0.523
	c0.06-0.029,0.124-0.045,0.192-0.045c0.144,0,0.281,0.039,0.412,0.117c0.149,0.086,0.234,0.193,0.255,0.322
	c0,0.16-0.021,0.283-0.062,0.367C7.207,8.223,7.023,8.436,6.79,8.592c0.392,0.367,1.033,0.576,1.926,0.626
	c0.346-0.036,0.638-0.091,0.873-0.165c0.382-0.119,0.666-0.502,0.851-1.146C10.473,7.793,10.489,7.676,10.489,7.557z M7.306,7.731
	c0-0.144-0.063-0.261-0.188-0.354C7.004,7.294,6.871,7.252,6.719,7.252c-0.057,0-0.106,0.011-0.147,0.031
	C5.905,7.797,5.572,8.188,5.572,8.457c0.009,0.027,0.051,0.168,0.126,0.426L5.81,9.271C5.55,9.277,5.346,9.403,5.196,9.648
	l0.13-0.019L5.304,9.675H6.45V8.99c0-0.158,0.131-0.354,0.394-0.587c0.123-0.108,0.197-0.179,0.225-0.216
	C7.19,8.045,7.27,7.893,7.306,7.731z M5.617,4.319c0,0.021-0.009,0.036-0.026,0.045c-0.01,0-0.021-0.003-0.036-0.009L5.519,4.337
	c0-0.036,0.012-0.054,0.036-0.054c0.029,0,0.045,0.003,0.045,0.009C5.611,4.305,5.617,4.313,5.617,4.319z M7.462,9.428V9.079
	C7.179,9.02,6.967,8.912,6.826,8.757L6.92,9.043C6.732,9.124,6.598,9.237,6.518,9.384l0.089-0.009L6.562,9.428H7.462z M7.077,4.888
	L7.019,4.87l0.04-0.139c-0.065,0-0.105-0.012-0.12-0.036L6.956,4.66C6.932,4.654,6.877,4.651,6.79,4.651L6.71,4.808l0.08,0.166
	l0.139,0.063C7.027,5.018,7.077,4.969,7.077,4.888z M7.937,5.376L7.798,5.3l0.059-0.135c-0.063-0.015-0.13-0.031-0.202-0.049
	c0.019,0,0.027-0.033,0.027-0.099L7.628,5.009L7.516,5.063l-0.09-0.081c-0.029,0.086-0.085,0.14-0.165,0.161L7.27,5.081L7.202,5.063
	L7.068,5.247l-0.01,0.081l0.282,0.434c0.036,0.054,0.106,0.081,0.211,0.081C7.605,5.833,7.64,5.809,7.654,5.77L7.619,5.641
	l0.21-0.045c-0.012-0.039-0.025-0.073-0.04-0.103C7.789,5.46,7.838,5.421,7.937,5.376z M8.304,6.146L8.196,6.052l0.071-0.099
	C8.232,5.933,8.174,5.908,8.094,5.878L8.12,5.833L8.075,5.779C8.03,5.815,7.99,5.842,7.954,5.86L7.937,5.806L7.883,5.779
	L7.771,5.878L7.708,5.922c-0.029-0.03-0.057-0.044-0.08-0.044c-0.033,0-0.05,0.025-0.05,0.076C7.549,5.999,7.533,6.057,7.533,6.128
	C7.54,6.146,7.588,6.223,7.679,6.357c0.092,0.134,0.142,0.205,0.15,0.21c0.122,0,0.192-0.025,0.211-0.076l0.018-0.045L8.004,6.428
	l0.192-0.071l0.045-0.085C8.238,6.257,8.224,6.236,8.196,6.209l0.005-0.022C8.225,6.178,8.259,6.164,8.304,6.146z M8.662,6.85
	L8.591,6.787L8.617,6.63C8.546,6.643,8.499,6.648,8.479,6.648V6.585c0-0.023-0.003-0.044-0.009-0.062L8.416,6.514L8.312,6.576
	L8.286,6.514L8.25,6.482L8.174,6.558c0.003,0.009-0.009,0.04-0.036,0.09L8.103,6.585L8.04,6.594
	c-0.016,0.027-0.047,0.07-0.095,0.131c0,0.068,0.042,0.158,0.126,0.268c0.083,0.111,0.158,0.186,0.224,0.225
	c0.021-0.01,0.064-0.018,0.13-0.027C8.419,7.16,8.41,7.127,8.397,7.092c0-0.027,0.019-0.05,0.054-0.068l0.09-0.045
	C8.547,6.961,8.587,6.918,8.662,6.85z M8.944,7.409L8.801,7.383l0.018-0.1c-0.057,0-0.1-0.014-0.13-0.04L8.635,7.252L8.591,7.328
	L8.505,7.311C8.457,7.328,8.419,7.387,8.389,7.485L8.591,7.75h0.151l0.05-0.037c0-0.062,0.026-0.094,0.08-0.094
	c0-0.039,0.017-0.091,0.05-0.156C8.937,7.434,8.944,7.415,8.944,7.409z"/>
</svg>
