<?xml version="1.0" encoding="utf-8"?>
<!-- Generator: Adobe Illustrator 15.1.0, SVG Export Plug-In . SVG Version: 6.00 Build 0)  -->
<!DOCTYPE svg PUBLIC "-//W3C//DTD SVG 1.1//EN" "http://www.w3.org/Graphics/SVG/1.1/DTD/svg11.dtd">
<svg version="1.1" id="Layer_1" xmlns="http://www.w3.org/2000/svg" xmlns:xlink="http://www.w3.org/1999/xlink" x="0px" y="0px"
	 width="14.172px" height="14.172px" viewBox="0 0 14.172 14.172" enable-background="new 0 0 14.172 14.172" xml:space="preserve">
<path d="M13.626,5.07l-0.722,0.611h-2.872l-0.015,0.208c-0.016,0.23-0.137,0.477-0.361,0.741C9.474,6.849,9.264,7.035,9.025,7.187
	c-0.267,0.167-0.504,0.25-0.712,0.25L8.45,9.389l-1.242,1.125L5.946,9.459l0.146-2.03c-0.245,0-0.516-0.107-0.811-0.321
	C5.034,6.927,4.826,6.717,4.653,6.477C4.462,6.21,4.367,5.972,4.367,5.76V5.682H1.511L0.786,5.07h4.287
	C5.041,5.285,5.025,5.424,5.025,5.49c0,0.35,0.123,0.64,0.369,0.87C5.626,6.579,5.92,6.703,6.275,6.732l0.086-0.188
	c0.05-0.11,0.074-0.216,0.074-0.318c0-0.214-0.166-0.321-0.497-0.321c-0.01-0.042-0.016-0.077-0.016-0.106
	c0-0.324,0.211-0.518,0.634-0.583c0.058-0.049,0.14-0.108,0.247-0.176C6.93,5.013,7.045,5,7.149,5C7.635,5,7.94,5.158,8.066,5.474
	c0.06,0.144,0.103,0.319,0.129,0.525l0.094,0.74C8.632,6.617,8.875,6.477,9.019,6.32C9.19,6.132,9.277,5.874,9.277,5.544
	c0-0.057-0.005-0.136-0.012-0.235C9.255,5.194,9.248,5.115,9.245,5.07H13.626z M4.328,6.156L2.624,6.61L1.817,5.952l2.421-0.184
	c0.01,0.052,0.027,0.126,0.051,0.223L4.328,6.156z M4.72,6.802L3.709,7.543L2.828,6.802l1.531-0.545
	C4.49,6.472,4.61,6.653,4.72,6.802z M5.339,7.358L4.606,8.311L3.885,7.695l0.882-0.819C4.887,7.005,5.078,7.166,5.339,7.358z
	 M5.978,7.559L5.746,9.283L4.751,8.456l0.689-1.058C5.561,7.434,5.74,7.488,5.978,7.559z M6.965,5.431
	C6.949,5.389,6.91,5.368,6.848,5.368c-0.071,0-0.108,0.023-0.113,0.071C6.76,5.467,6.798,5.482,6.848,5.482
	C6.899,5.482,6.939,5.465,6.965,5.431z M9.637,8.447L8.657,9.283L8.418,7.559c0.126-0.026,0.305-0.08,0.538-0.161L9.637,8.447z
	 M10.53,7.695L9.813,8.311L9.053,7.358c0.226-0.162,0.418-0.322,0.576-0.482L10.53,7.695z M11.581,6.802l-0.874,0.741L9.681,6.802
	c0.084-0.123,0.208-0.304,0.376-0.545L11.581,6.802z M12.576,5.952L11.789,6.61l-1.71-0.455c0.021-0.086,0.055-0.216,0.099-0.388
	L12.576,5.952z"/>
</svg>
