<?xml version="1.0" encoding="utf-8"?>
<!-- Generator: Adobe Illustrator 15.1.0, SVG Export Plug-In . SVG Version: 6.00 Build 0)  -->
<!DOCTYPE svg PUBLIC "-//W3C//DTD SVG 1.1//EN" "http://www.w3.org/Graphics/SVG/1.1/DTD/svg11.dtd">
<svg version="1.1" id="Layer_1" xmlns="http://www.w3.org/2000/svg" xmlns:xlink="http://www.w3.org/1999/xlink" x="0px" y="0px"
	 width="14.172px" height="14.172px" viewBox="0 0 14.172 14.172" enable-background="new 0 0 14.172 14.172" xml:space="preserve">
<path d="M4.392,5.855c0.682,0,1.049,0.367,1.1,1.1c-0.051,0.733-0.418,1.098-1.1,1.098L1.108,6.956L4.392,5.855z M8.24,4.283
	c0,0.682-0.367,1.048-1.101,1.099c-0.732-0.051-1.1-0.417-1.1-1.099L7.14,1L8.24,4.283z M6.04,9.766c0-0.673,0.367-1.039,1.1-1.101
	C7.873,8.727,8.24,9.093,8.24,9.766L7.14,13.062L6.04,9.766z M9.889,8.054c-0.682,0-1.049-0.365-1.1-1.098
	c0.051-0.733,0.418-1.1,1.1-1.1l3.283,1.1L9.889,8.054z"/>
</svg>
