<?xml version="1.0" encoding="utf-8"?>
<!-- Generator: Adobe Illustrator 15.1.0, SVG Export Plug-In . SVG Version: 6.00 Build 0)  -->
<!DOCTYPE svg PUBLIC "-//W3C//DTD SVG 1.1//EN" "http://www.w3.org/Graphics/SVG/1.1/DTD/svg11.dtd">
<svg version="1.1" id="Layer_1" xmlns="http://www.w3.org/2000/svg" xmlns:xlink="http://www.w3.org/1999/xlink" x="0px" y="0px"
	 width="14.172px" height="14.172px" viewBox="0 0 14.172 14.172" enable-background="new 0 0 14.172 14.172" xml:space="preserve">
<g enable-background="new    ">
	<path d="M10.235,13.035c0,0.088-0.108,0.133-0.324,0.133c-0.323,0-0.524-0.018-0.604-0.056c-0.028,0-0.073-0.024-0.131-0.075
		c-0.06-0.05-0.109-0.075-0.148-0.075c-0.02,0-0.051,0.005-0.096,0.015c-0.044,0.011-0.075,0.016-0.095,0.016
		c-0.098,0-0.147-0.03-0.147-0.089c0-0.039,0.007-0.101,0.022-0.184c0.015-0.083,0.022-0.148,0.022-0.198
		c0-0.021-0.008-0.058-0.022-0.11C8.697,12.357,8.69,12.32,8.69,12.299c0-0.029,0.018-0.08,0.052-0.153s0.051-0.136,0.051-0.184
		c0-0.108-0.142-0.387-0.426-0.832c-0.285-0.446-0.437-0.708-0.456-0.786c-0.02-0.118-0.074-0.251-0.162-0.397
		C7.68,9.829,7.606,9.71,7.528,9.593C7.45,9.417,7.327,9.147,7.16,8.785C7.141,8.715,7.114,8.639,7.079,8.556
		C7.045,8.473,6.993,8.431,6.924,8.431c-0.068,0-0.112,0.042-0.131,0.125c-0.02,0.083-0.04,0.164-0.059,0.242
		C6.655,8.78,6.567,8.75,6.469,8.71c-0.01,0.01-0.014,0.123-0.014,0.339c0,0.09-0.035,0.216-0.103,0.377
		C6.282,9.588,6.249,9.715,6.249,9.802v0.251c0,0.139-0.069,0.423-0.207,0.857c-0.138,0.433-0.206,0.737-0.206,0.914
		c0,0.04,0.015,0.1,0.044,0.178c0.03,0.078,0.044,0.137,0.044,0.177c0,0.01-0.007,0.029-0.022,0.06
		c-0.014,0.028-0.021,0.054-0.021,0.073c-0.01,0.128-0.02,0.324-0.029,0.591c-0.049,0.01-0.196,0.063-0.441,0.162
		c-0.176,0.069-0.329,0.103-0.456,0.103c-0.187,0-0.28-0.062-0.28-0.187c0-0.061,0.03-0.093,0.088-0.093
		c0.02,0,0.049,0.005,0.089,0.015c0.038,0.011,0.068,0.016,0.088,0.016c0.009,0,0.034-0.03,0.073-0.09l-0.088-0.073
		c0.108-0.078,0.211-0.255,0.309-0.529c0.097-0.274,0.147-0.485,0.147-0.633v-1.339c0-0.048,0.029-0.181,0.088-0.396
		C5.527,9.643,5.557,9.48,5.557,9.372c0-0.078-0.059-0.416-0.176-1.014c-0.01,0-0.055-0.022-0.133-0.066
		C5.169,8.247,5.13,8.205,5.13,8.167c0-0.068,0.031-0.295,0.096-0.677c0.063-0.383,0.104-0.613,0.125-0.691
		c0.01-0.031,0.093-0.246,0.25-0.648c0-0.029-0.032-0.061-0.096-0.096C5.441,6.021,5.41,5.989,5.41,5.959
		c0-0.029-0.025-0.078-0.073-0.147c-0.05-0.068-0.074-0.123-0.074-0.161c0-0.019,0.031-0.078,0.095-0.177
		c0.064-0.097,0.096-0.191,0.096-0.279c0-0.049,0.02-0.115,0.059-0.198s0.059-0.16,0.059-0.229c0-0.068,0.024-0.174,0.073-0.316
		C5.694,4.31,5.719,4.189,5.719,4.091c0-0.088-0.015-0.132-0.044-0.132c-0.011,0-0.04,0.01-0.089,0.029
		c0-0.088-0.02-0.22-0.059-0.396c0.01,0.039-0.009,0.093-0.058,0.161c-0.01-0.156-0.015-0.215-0.015-0.177
		c0-0.166,0.034-0.303,0.103-0.412c0-0.01-0.009-0.014-0.027-0.014c-0.009,0-0.058,0.118-0.149,0.353V3.37
		c0-0.048,0.046-0.153,0.139-0.316c0.093-0.162,0.144-0.257,0.153-0.286C5.74,2.513,5.872,2.155,6.066,1.694
		C6.086,1.664,6.14,1.63,6.228,1.59c0.087-0.039,0.126-0.093,0.117-0.161C6.422,1.399,6.5,1.384,6.578,1.384
		c-0.019,0,0.019,0.025,0.117,0.073C7.23,1.713,7.499,2.091,7.499,2.591c0,0.04-0.01,0.083-0.03,0.133L7.44,2.693
		c0,0.021,0,0.059,0,0.118c0,0.118,0.039,0.177,0.117,0.177h0.471c0.01,0,0.024-0.004,0.045-0.014
		c0.02-0.011,0.039-0.016,0.059-0.016c0.088,0,0.265,0.286,0.529,0.857c0.265,0.571,0.397,0.911,0.397,1.02
		c0,0.028-0.015,0.104-0.044,0.222S8.959,5.239,8.941,5.249C8.695,5.417,8.372,5.515,7.969,5.544
		C7.92,5.662,7.896,5.716,7.896,5.707c0,0.04,0.019,0.108,0.059,0.208c0.04,0.097,0.059,0.172,0.059,0.22c0,0.021,0,0.048,0,0.081
		c0,0.035,0,0.062,0,0.082c0,0.03,0.008,0.08,0.022,0.148c0.014,0.069,0.021,0.123,0.021,0.163v0.31
		c0,0.009-0.008,0.018-0.021,0.022C8.021,6.945,8.013,6.954,8.013,6.963c0,0.059,0.039,0.128,0.118,0.206
		c0,0.069,0.017,0.177,0.051,0.326c0.035,0.146,0.053,0.26,0.053,0.34c0,0.758,0.068,1.32,0.205,1.684
		c0.146,0.268,0.323,0.676,0.529,1.227c0.039,0.227,0.123,0.557,0.251,0.989c0.059,0.09,0.142,0.233,0.249,0.43
		c0.03,0.146,0.099,0.35,0.206,0.604c0.03,0.04,0.13,0.077,0.302,0.112C10.149,12.914,10.235,12.966,10.235,13.035z M8.278,4.532
		C8.18,4.66,8.131,4.749,8.131,4.797c0,0.011,0.005,0.016,0.014,0.016c0.129-0.04,0.191-0.08,0.191-0.118
		C8.336,4.665,8.317,4.612,8.278,4.532z"/>
</g>
</svg>
