<?xml version="1.0" encoding="utf-8"?>
<!-- Generator: Adobe Illustrator 15.1.0, SVG Export Plug-In . SVG Version: 6.00 Build 0)  -->
<!DOCTYPE svg PUBLIC "-//W3C//DTD SVG 1.1//EN" "http://www.w3.org/Graphics/SVG/1.1/DTD/svg11.dtd">
<svg version="1.1" id="Layer_1" xmlns="http://www.w3.org/2000/svg" xmlns:xlink="http://www.w3.org/1999/xlink" x="0px" y="0px"
	 width="14.172px" height="14.172px" viewBox="0 0 14.172 14.172" enable-background="new 0 0 14.172 14.172" xml:space="preserve">
<path d="M2.843,2.927H1.916V2h0.927V2.927z M2.843,3.854H1.916V4.78h0.927V3.854z M1.916,9.402h0.927v0.926H1.916V9.402z
	 M1.916,11.254h0.927v0.916H1.916V11.254z M4.684,2.927H3.771V2h0.913V2.927z M4.684,3.854H3.771V4.78h0.913V3.854z M3.771,9.402
	h0.913v0.926H3.771V9.402z M3.771,11.254h0.913v0.916H3.771V11.254z M5.611,5.708h0.927v0.926H5.611V5.708z M5.611,7.547h0.927
	v0.926H5.611V7.547z M7.465,5.708h0.927v0.926H7.465V5.708z M7.465,7.547h0.927v0.926H7.465V7.547z M10.231,2.927H9.318V2h0.913
	V2.927z M10.231,3.854H9.318V4.78h0.913V3.854z M9.318,9.402h0.913v0.926H9.318V9.402z M9.318,11.254h0.913v0.916H9.318V11.254z
	 M12.086,2.927h-0.927V2h0.927V2.927z M12.086,3.854h-0.927V4.78h0.927V3.854z M11.159,9.402h0.927v0.926h-0.927V9.402z
	 M11.159,11.254h0.927v0.916h-0.927V11.254z"/>
</svg>
