<?xml version="1.0" encoding="utf-8"?>
<!-- Generator: Adobe Illustrator 15.1.0, SVG Export Plug-In . SVG Version: 6.00 Build 0)  -->
<!DOCTYPE svg PUBLIC "-//W3C//DTD SVG 1.1//EN" "http://www.w3.org/Graphics/SVG/1.1/DTD/svg11.dtd">
<svg version="1.1" id="Layer_1" xmlns="http://www.w3.org/2000/svg" xmlns:xlink="http://www.w3.org/1999/xlink" x="0px" y="0px"
	 width="14.172px" height="14.172px" viewBox="0 0 14.172 14.172" enable-background="new 0 0 14.172 14.172" xml:space="preserve">
<g enable-background="new    ">
	<path d="M4.704,11.086H3.248V2.338h1.456V3.85c0.309-0.478,0.609-0.831,0.899-1.059c0.291-0.228,0.594-0.401,0.909-0.519
		c0.316-0.118,0.671-0.177,1.061-0.177c0.543,0,1.036,0.112,1.475,0.336c0.438,0.224,0.775,0.556,1.014,0.994
		s0.355,1.134,0.355,2.09v5.571H8.961V6.145c0-0.787-0.051-1.342-0.153-1.666c-0.103-0.324-0.306-0.579-0.61-0.767
		C7.89,3.524,7.561,3.43,7.209,3.43c-0.428,0-0.834,0.125-1.22,0.375c-0.387,0.25-0.697,0.601-0.932,1.053
		C4.822,5.312,4.704,5.953,4.704,6.785V11.086z"/>
</g>
</svg>
