<?xml version="1.0" encoding="utf-8"?>
<!-- Generator: Adobe Illustrator 15.1.0, SVG Export Plug-In . SVG Version: 6.00 Build 0)  -->
<!DOCTYPE svg PUBLIC "-//W3C//DTD SVG 1.1//EN" "http://www.w3.org/Graphics/SVG/1.1/DTD/svg11.dtd">
<svg version="1.1" id="Layer_1" xmlns="http://www.w3.org/2000/svg" xmlns:xlink="http://www.w3.org/1999/xlink" x="0px" y="0px"
	 width="14.172px" height="14.172px" viewBox="0 0 14.172 14.172" enable-background="new 0 0 14.172 14.172" xml:space="preserve">
<g enable-background="new    ">
	<path d="M7.468,10.104c-0.172,1.273-0.654,1.911-1.446,1.911c-0.458,0-0.799-0.207-1.026-0.62l-0.11-0.207
		c-0.153-0.28-0.401-0.465-0.746-0.553l-0.236-0.06c-0.694-0.167-1.041-0.554-1.041-1.158c0-0.659,0.495-1.195,1.483-1.608
		c-0.374,0.059-0.674,0.088-0.9,0.088c-0.413,0-0.758-0.115-1.033-0.346C2.138,7.319,2,7.032,2,6.688
		c0-0.276,0.116-0.542,0.347-0.797l0.177-0.199c0.207-0.227,0.31-0.44,0.31-0.642c0-0.044-0.007-0.15-0.022-0.317L2.79,4.54V4.4
		c0-0.812,0.398-1.217,1.195-1.217c0.497,0,1.028,0.32,1.594,0.959C5.264,3.61,5.106,3.133,5.106,2.71
		c0-0.33,0.107-0.606,0.321-0.83c0.214-0.224,0.479-0.336,0.793-0.336c0.177,0,0.344,0.034,0.501,0.104l0.185,0.088
		C7.163,1.85,7.354,1.906,7.482,1.906c0.103,0,0.256-0.039,0.458-0.118l0.214-0.089c0.241-0.098,0.44-0.147,0.598-0.147
		c0.325,0,0.603,0.125,0.834,0.376s0.347,0.551,0.347,0.9c0,0.394-0.17,0.836-0.51,1.329c0.571-0.649,1.105-0.974,1.602-0.974
		c0.33,0,0.601,0.113,0.812,0.339c0.212,0.226,0.317,0.519,0.317,0.878c0,0.074-0.005,0.14-0.015,0.199l-0.029,0.177
		c-0.01,0.074-0.015,0.15-0.015,0.229c0,0.256,0.108,0.504,0.324,0.746l0.141,0.162c0.246,0.275,0.369,0.548,0.369,0.818
		c0,0.359-0.13,0.66-0.388,0.9c-0.259,0.242-0.579,0.361-0.963,0.361c-0.246,0-0.571-0.039-0.974-0.117
		c0.974,0.413,1.46,0.941,1.46,1.586c0,0.576-0.305,0.938-0.915,1.085l-0.213,0.059c-0.414,0.099-0.704,0.291-0.871,0.576
		l-0.096,0.17c-0.266,0.442-0.623,0.664-1.07,0.664C8.038,12.015,7.561,11.377,7.468,10.104z M7.468,8.125L7.623,8.51l0.339-0.066
		l0.008-0.428l0.494,0.553l0.303-0.221L8.353,7.713L8.745,7.86l0.169-0.316L8.596,7.292l0.398-0.015L9.04,6.917L8.641,6.797
		L9.32,6.496L9.223,6.156L8.479,6.333l0.258-0.325L8.5,5.758L8.168,5.986L8.28,5.588L7.948,5.433L7.696,5.78L7.637,5.035H7.269
		L7.202,5.78L6.995,5.433L6.663,5.588l0.104,0.391L6.435,5.75l-0.244,0.25l0.244,0.354l-0.73-0.17L5.586,6.525l0.701,0.296
		L5.889,6.93l0.037,0.34l0.406,0.016L6.014,7.551l0.169,0.316l0.398-0.141L6.213,8.384l0.28,0.214L6.988,8.03L6.973,8.444
		l0.332,0.073L7.468,8.125z M7.468,8.023c-0.31,0-0.57-0.106-0.779-0.317S6.375,7.236,6.375,6.93c0-0.305,0.106-0.562,0.317-0.774
		s0.47-0.317,0.775-0.317c0.304,0,0.563,0.106,0.775,0.317C8.454,6.368,8.559,6.625,8.559,6.93c0,0.306-0.105,0.564-0.316,0.775
		C8.031,7.917,7.772,8.023,7.468,8.023z M7.453,7.388c0.147,0,0.259-0.038,0.332-0.114s0.11-0.19,0.11-0.344
		c0-0.152-0.037-0.266-0.11-0.339C7.711,6.518,7.6,6.481,7.453,6.481s-0.258,0.037-0.332,0.11C7.047,6.665,7.01,6.778,7.01,6.93
		c0,0.153,0.037,0.268,0.11,0.344S7.305,7.388,7.453,7.388z"/>
</g>
</svg>
