<?xml version="1.0" encoding="utf-8"?>
<!-- Generator: Adobe Illustrator 15.1.0, SVG Export Plug-In . SVG Version: 6.00 Build 0)  -->
<!DOCTYPE svg PUBLIC "-//W3C//DTD SVG 1.1//EN" "http://www.w3.org/Graphics/SVG/1.1/DTD/svg11.dtd">
<svg version="1.1" id="Layer_1" xmlns="http://www.w3.org/2000/svg" xmlns:xlink="http://www.w3.org/1999/xlink" x="0px" y="0px"
	 width="14.172px" height="14.172px" viewBox="0 0 14.172 14.172" enable-background="new 0 0 14.172 14.172" xml:space="preserve">
<g enable-background="new    ">
	<path d="M4.198,4.882L4.134,6.94L1.641,4.29l2.652-2.494L4.23,3.854l3.603,0.111C8.973,4,9.932,4.433,10.709,5.261
		c0.775,0.829,1.147,1.811,1.112,2.947c-0.034,1.137-0.467,2.093-1.296,2.873c-0.829,0.778-1.812,1.151-2.947,1.116l-3.603-0.109
		l0.032-1.029l3.603,0.111c0.853,0.025,1.59-0.253,2.211-0.837c0.622-0.585,0.945-1.304,0.972-2.156
		c0.027-0.852-0.254-1.591-0.838-2.213C9.372,5.343,8.653,5.021,7.799,4.994L4.198,4.882z"/>
</g>
</svg>
