<?xml version="1.0" encoding="utf-8"?>
<!-- Generator: Adobe Illustrator 15.1.0, SVG Export Plug-In . SVG Version: 6.00 Build 0)  -->
<!DOCTYPE svg PUBLIC "-//W3C//DTD SVG 1.1//EN" "http://www.w3.org/Graphics/SVG/1.1/DTD/svg11.dtd">
<svg version="1.1" id="Layer_1" xmlns="http://www.w3.org/2000/svg" xmlns:xlink="http://www.w3.org/1999/xlink" x="0px" y="0px"
	 width="14.172px" height="14.172px" viewBox="0 0 14.172 14.172" enable-background="new 0 0 14.172 14.172" xml:space="preserve">
<g>
	<path d="M12.758,3.55v8.191H8.913c0.097,0.334,0.219,0.643,0.368,0.925L8.913,12.85c-0.2-0.293-0.375-0.663-0.524-1.108H2.84V3.55
		h5.299c0.215-0.327,0.546-0.73,0.992-1.209l0.34,0.306C9.069,3.134,8.829,3.435,8.752,3.55H12.758z M3.001,11.562h5.333
		c-0.131-0.476-0.195-0.951-0.195-1.427H7.063c-0.509,0-1.031-0.081-1.566-0.245C4.963,9.728,4.58,9.53,4.35,9.301l0.34-0.362
		c0.215,0.193,0.571,0.353,1.067,0.479c0.496,0.127,0.931,0.189,1.307,0.189h1.075c0-0.192,0.008-0.379,0.025-0.56
		c0.017-0.18,0.041-0.382,0.074-0.604H6.667V7.646c0-0.293,0.073-0.722,0.218-1.284C7.03,5.798,7.212,5.291,7.431,4.837
		c0.197-0.435,0.393-0.802,0.59-1.103h-5.02V11.562z M5.364,4.871h0.435v1.165H5.364V4.871z M12.574,11.562V3.734H8.64
		C8.443,4.017,8.227,4.427,7.988,4.965C7.832,5.3,7.693,5.665,7.57,6.061C7.448,6.456,7.354,6.814,7.289,7.136
		S7.191,7.688,7.191,7.83v0.088h1.666c0,0.146-0.007,0.274-0.02,0.388s-0.03,0.235-0.053,0.365S8.742,8.955,8.724,9.133
		C8.705,9.312,8.696,9.47,8.696,9.606h0.272c0.383-0.044,0.725-0.114,1.025-0.209s0.605-0.236,0.914-0.426l0.289,0.362
		c-0.278,0.178-0.538,0.318-0.779,0.421c-0.242,0.102-0.493,0.182-0.756,0.239c-0.262,0.058-0.584,0.104-0.966,0.142l-0.034,0.189
		c0,0.35,0.065,0.762,0.195,1.237H12.574z M9.437,4.871h0.435v1.165H9.437V4.871z"/>
</g>
</svg>
