<?xml version="1.0" encoding="utf-8"?>
<!-- Generator: Adobe Illustrator 15.1.0, SVG Export Plug-In . SVG Version: 6.00 Build 0)  -->
<!DOCTYPE svg PUBLIC "-//W3C//DTD SVG 1.1//EN" "http://www.w3.org/Graphics/SVG/1.1/DTD/svg11.dtd">
<svg version="1.1" id="Layer_1" xmlns="http://www.w3.org/2000/svg" xmlns:xlink="http://www.w3.org/1999/xlink" x="0px" y="0px"
	 width="14.172px" height="14.172px" viewBox="0 0 14.172 14.172" enable-background="new 0 0 14.172 14.172" xml:space="preserve">
<g enable-background="new    ">
	<path d="M1.184,11.169V2.498h6.357l0.576,1.16h2.315l0.583-1.16h1.734v8.672H1.184z M1.471,10.882h1.16V9.149h8.672v1.733h1.16
		V2.785h-1.16l-0.58,1.16H7.934l-0.575-1.16H1.471V10.882z M6.674,6.259c0,0.556-0.198,1.03-0.594,1.427
		C5.684,8.083,5.207,8.28,4.649,8.28S3.616,8.083,3.222,7.69C2.828,7.295,2.631,6.815,2.631,6.253c0-0.559,0.197-1.035,0.591-1.43
		c0.394-0.395,0.87-0.592,1.428-0.592s1.034,0.198,1.431,0.592C6.476,5.218,6.674,5.696,6.674,6.259z M2.918,10.882h8.098V9.436
		H2.918V10.882z M5.373,6.253c0-0.199-0.07-0.369-0.211-0.51c-0.141-0.141-0.311-0.211-0.51-0.211c-0.199,0-0.369,0.07-0.51,0.211
		c-0.141,0.141-0.211,0.311-0.211,0.51s0.07,0.37,0.211,0.513c0.141,0.144,0.311,0.215,0.51,0.215c0.199,0,0.369-0.071,0.51-0.215
		C5.303,6.624,5.373,6.453,5.373,6.253z M10.723,6.253c0,0.397-0.143,0.739-0.424,1.022S9.678,7.701,9.278,7.701
		c-0.402,0-0.745-0.142-1.027-0.423c-0.281-0.28-0.422-0.623-0.422-1.024c0-0.398,0.141-0.738,0.422-1.02
		c0.282-0.281,0.625-0.422,1.027-0.422c0.4,0,0.74,0.141,1.021,0.422C10.583,5.516,10.723,5.855,10.723,6.253z M9.997,6.259
		c0-0.199-0.072-0.37-0.213-0.513C9.641,5.604,9.473,5.532,9.278,5.532c-0.197,0-0.367,0.071-0.51,0.214
		C8.625,5.889,8.555,6.061,8.555,6.259c0,0.199,0.068,0.369,0.209,0.511c0.141,0.141,0.311,0.211,0.508,0.211
		c0.199,0,0.369-0.071,0.512-0.215C9.924,6.624,9.997,6.455,9.997,6.259z"/>
</g>
</svg>
