<?xml version="1.0" encoding="utf-8"?>
<!-- Generator: Adobe Illustrator 15.1.0, SVG Export Plug-In . SVG Version: 6.00 Build 0)  -->
<!DOCTYPE svg PUBLIC "-//W3C//DTD SVG 1.1//EN" "http://www.w3.org/Graphics/SVG/1.1/DTD/svg11.dtd">
<svg version="1.1" id="Layer_1" xmlns="http://www.w3.org/2000/svg" xmlns:xlink="http://www.w3.org/1999/xlink" x="0px" y="0px"
	 width="14.172px" height="14.172px" viewBox="0 0 14.172 14.172" enable-background="new 0 0 14.172 14.172" xml:space="preserve">
<g enable-background="new    ">
	<path d="M3.451,1.684C3.005,1.715,2.64,1.97,2.354,2.447C2.092,2.867,1.961,3.32,1.961,3.805v0.87H1.377V3.686
		c0-0.047,0.008-0.115,0.024-0.202C1.417,3.379,1.429,3.313,1.437,3.28c0.04-0.444,0.223-0.89,0.548-1.334
		c0.357-0.469,0.747-0.723,1.168-0.763c0.111-0.015,0.202-0.032,0.274-0.048L3.451,1.684z M11.888,6.855
		c0,0.064-0.053,0.163-0.155,0.299c-0.294,0.396-0.663,0.683-1.108,0.857c-0.183,0.071-0.637,0.187-1.358,0.346
		C9.258,8.365,9.254,8.377,9.254,8.392l0.381,2.599h1.334v0.906H2.294v-0.906h1.311l0.405-2.599C3.86,8.361,3.633,8.306,3.331,8.225
		C2.719,8.075,2.239,7.857,1.89,7.57C1.818,7.515,1.718,7.403,1.592,7.236C1.449,7.055,1.377,6.935,1.377,6.879V6.451h10.511V6.855z
		 M6.096,3.126H5.5c0.008-0.024,0.012-0.06,0.012-0.108c0-0.294-0.103-0.584-0.31-0.87C4.98,1.838,4.726,1.684,4.439,1.684V1.135
		h0.048c0.374,0,0.715,0.163,1.025,0.489c0.286,0.294,0.469,0.632,0.548,1.013c0.024,0.11,0.036,0.162,0.036,0.154V3.126z
		 M8.194,5.985H5.071V4.961c0.707,0,1.056,0,1.049,0V3.912h1.025v1.049c0-0.007,0.016-0.013,0.048-0.013
		c0.111,0,0.278,0.002,0.5,0.006c0.222,0.004,0.389,0.006,0.501,0.006V5.985z M8.813,1.684H8.79
		C8.757,1.676,8.726,1.671,8.694,1.671c-0.23,0-0.449,0.155-0.655,0.465c-0.19,0.294-0.286,0.58-0.286,0.857
		c0,0.048,0.004,0.092,0.012,0.132H7.145V3.031c0-0.477,0.159-0.906,0.477-1.288c0.334-0.396,0.73-0.599,1.191-0.607V1.684z
		 M11.888,4.675h-0.585V3.853c0-0.492-0.127-0.949-0.382-1.371c-0.286-0.484-0.655-0.75-1.106-0.798V1.135h0.07
		c0.15,0,0.334,0.044,0.55,0.132c0.778,0.301,1.25,1.033,1.417,2.193c0.023,0.158,0.036,0.242,0.036,0.25V4.675z"/>
</g>
</svg>
