<?xml version="1.0" encoding="utf-8"?>
<!-- Generator: Adobe Illustrator 15.1.0, SVG Export Plug-In . SVG Version: 6.00 Build 0)  -->
<!DOCTYPE svg PUBLIC "-//W3C//DTD SVG 1.1//EN" "http://www.w3.org/Graphics/SVG/1.1/DTD/svg11.dtd">
<svg version="1.1" id="Layer_1" xmlns="http://www.w3.org/2000/svg" xmlns:xlink="http://www.w3.org/1999/xlink" x="0px" y="0px"
	 width="14.172px" height="14.172px" viewBox="0 0 14.172 14.172" enable-background="new 0 0 14.172 14.172" xml:space="preserve">
<text transform="matrix(1 0 0 1 0.3296 9.6675)" fill="#FFFFFF" font-family="'TheBOMBBestOfMagurnoBrushes'" font-size="9">d</text>
<g enable-background="new    ">
	<path fill="none" stroke="#000000" stroke-miterlimit="10" d="M6.104,8.63c0,0.331-0.112,0.622-0.335,0.87
		C5.545,9.751,5.267,9.875,4.937,9.875c-0.247,0-0.412-0.026-0.496-0.078c-0.201,0.305-0.48,0.457-0.836,0.457
		c-0.479,0-0.813-0.152-1.001-0.457c-0.065,0-0.133,0-0.204,0H2.273c-0.337-0.007-0.629-0.113-0.875-0.32
		C1.132,9.256,1,8.981,1,8.651C1,8.372,1.097,8.13,1.292,7.925c0.194-0.203,0.431-0.334,0.709-0.393
		C2.085,7.312,2.22,7.134,2.404,6.998c0.185-0.136,0.394-0.205,0.627-0.205c0.389,0,0.693,0.175,0.914,0.525
		c0.032-0.006,0.061-0.009,0.087-0.009c0.13,0,0.25,0.045,0.36,0.136c0.123-0.052,0.24-0.079,0.35-0.079
		c0.363,0,0.68,0.121,0.952,0.359C5.967,7.966,6.104,8.268,6.104,8.63z M5.948,8.612c0-0.312-0.107-0.579-0.321-0.803
		C5.414,7.585,5.154,7.473,4.85,7.473c-0.143,0-0.279,0.027-0.408,0.078C4.279,7.435,4.098,7.386,3.896,7.406
		C3.689,7.082,3.398,6.92,3.022,6.92c-0.214,0-0.411,0.063-0.589,0.19c-0.178,0.126-0.306,0.293-0.384,0.5
		c-0.266,0.053-0.486,0.168-0.661,0.35C1.194,8.155,1.097,8.381,1.097,8.64c0,0.306,0.123,0.556,0.37,0.754
		c0.246,0.197,0.528,0.297,0.846,0.297c0.117,0,0.233-0.017,0.351-0.049c0.194,0.317,0.499,0.476,0.913,0.476
		c0.396,0,0.691-0.143,0.885-0.427C4.584,9.736,4.714,9.758,4.85,9.758c0.304,0,0.564-0.113,0.777-0.34
		C5.841,9.192,5.948,8.923,5.948,8.612z M5.821,8.621c0,0.291-0.102,0.544-0.306,0.754C5.311,9.585,5.063,9.691,4.771,9.691
		c-0.123,0-0.243-0.023-0.359-0.068c-0.188,0.253-0.47,0.38-0.846,0.38c-0.396,0-0.684-0.14-0.865-0.419
		c-0.11,0.025-0.224,0.039-0.34,0.039c-0.292,0-0.551-0.087-0.778-0.262C1.336,9.173,1.214,8.934,1.214,8.644
		c0-0.239,0.093-0.448,0.282-0.629c0.168-0.168,0.375-0.274,0.622-0.32C2.286,7.27,2.594,7.056,3.042,7.056
		c0.356,0,0.635,0.149,0.836,0.447c0.025,0,0.052,0,0.078,0c0.162,0,0.304,0.042,0.428,0.127c0.123-0.046,0.252-0.069,0.389-0.069
		c0.292,0,0.54,0.104,0.744,0.31C5.72,8.081,5.821,8.329,5.821,8.621z M12.753,5.315c0,0.52-0.173,0.97-0.516,1.353
		c-0.343,0.382-0.771,0.573-1.283,0.573c-0.384,0-0.642-0.025-0.778-0.077c-0.304,0.439-0.73,0.66-1.283,0.66
		c-0.312,0-0.603-0.059-0.875-0.175c-0.31-0.137-0.538-0.321-0.68-0.554C7.241,7.121,7.137,7.13,7.028,7.125H6.822
		c-0.518-0.006-0.972-0.168-1.36-0.486C5.054,6.294,4.85,5.867,4.85,5.354c0-0.434,0.156-0.813,0.466-1.137
		C5.607,3.906,5.97,3.708,6.405,3.624c0.129-0.343,0.339-0.622,0.626-0.836C7.321,2.575,7.643,2.467,8,2.467
		c0.608,0,1.083,0.272,1.418,0.816C9.47,3.277,9.516,3.274,9.555,3.274c0.2,0,0.386,0.072,0.553,0.214
		c0.188-0.084,0.367-0.126,0.535-0.126c0.569,0,1.066,0.187,1.483,0.559S12.753,4.758,12.753,5.315z M12.52,5.291
		c0-0.478-0.165-0.891-0.495-1.24s-0.736-0.523-1.217-0.523c-0.213,0-0.424,0.042-0.632,0.126C9.937,3.465,9.659,3.392,9.34,3.431
		C9.023,2.924,8.573,2.672,7.989,2.672c-0.336,0-0.64,0.098-0.913,0.296C6.804,3.166,6.605,3.424,6.482,3.741
		c-0.408,0.078-0.751,0.256-1.03,0.535C5.154,4.58,5.005,4.934,5.005,5.335c0,0.473,0.197,0.868,0.593,1.186
		C5.967,6.82,6.395,6.968,6.881,6.968c0.188,0,0.373-0.025,0.555-0.078C7.727,7.364,8.196,7.6,8.845,7.6
		c0.608,0,1.065-0.214,1.37-0.641c0.194,0.064,0.393,0.097,0.593,0.097c0.48,0,0.887-0.173,1.217-0.518
		C12.355,6.192,12.52,5.776,12.52,5.291z M12.325,5.306c0,0.454-0.159,0.843-0.477,1.167c-0.316,0.324-0.698,0.487-1.146,0.487
		c-0.194,0-0.384-0.037-0.565-0.107C9.846,7.247,9.411,7.445,8.835,7.445c-0.615,0-1.063-0.218-1.342-0.652
		C7.325,6.832,7.15,6.852,6.969,6.852c-0.46,0-0.865-0.133-1.215-0.398C5.377,6.155,5.19,5.783,5.19,5.335
		c0-0.375,0.142-0.704,0.428-0.982c0.266-0.26,0.589-0.424,0.973-0.496C6.706,3.56,6.896,3.32,7.158,3.138
		C7.421,2.957,7.71,2.866,8.03,2.866c0.543,0,0.971,0.233,1.282,0.701c0.045-0.006,0.087-0.01,0.126-0.01
		c0.245,0,0.468,0.075,0.66,0.223c0.195-0.077,0.396-0.116,0.604-0.116c0.447,0,0.829,0.161,1.146,0.48
		C12.166,4.465,12.325,4.852,12.325,5.306z"/>
</g>
</svg>
