<?xml version="1.0" encoding="utf-8"?>
<!-- Generator: Adobe Illustrator 15.1.0, SVG Export Plug-In . SVG Version: 6.00 Build 0)  -->
<!DOCTYPE svg PUBLIC "-//W3C//DTD SVG 1.1//EN" "http://www.w3.org/Graphics/SVG/1.1/DTD/svg11.dtd">
<svg version="1.1" id="Layer_1" xmlns="http://www.w3.org/2000/svg" xmlns:xlink="http://www.w3.org/1999/xlink" x="0px" y="0px"
	 width="14.172px" height="14.172px" viewBox="0 0 14.172 14.172" enable-background="new 0 0 14.172 14.172" xml:space="preserve">
<g enable-background="new    ">
	<path d="M11.094,10.417c0,0.451-0.206,0.872-0.619,1.266c-0.376,0.376-0.812,0.628-1.307,0.757
		c-0.376,0.102-0.725,0.152-1.045,0.152c-0.661,0-1.119-0.217-1.375-0.647c-0.11-0.174-0.165-0.37-0.165-0.591
		c0-0.366,0.146-0.728,0.44-1.079c0.293-0.354,0.683-0.612,1.168-0.777c0.358-0.129,0.71-0.192,1.06-0.192
		c0.449,0,0.839,0.091,1.168,0.274V5.166H2.774V3.887h7.646V2.951H2.774V1.672h8.32V10.417z"/>
</g>
</svg>
