<?xml version="1.0" encoding="utf-8"?>
<!-- Generator: Adobe Illustrator 15.1.0, SVG Export Plug-In . SVG Version: 6.00 Build 0)  -->
<!DOCTYPE svg PUBLIC "-//W3C//DTD SVG 1.1//EN" "http://www.w3.org/Graphics/SVG/1.1/DTD/svg11.dtd">
<svg version="1.1" id="Layer_1" xmlns="http://www.w3.org/2000/svg" xmlns:xlink="http://www.w3.org/1999/xlink" x="0px" y="0px"
	 width="14.172px" height="14.172px" viewBox="0 0 14.172 14.172" enable-background="new 0 0 14.172 14.172" xml:space="preserve">
<g enable-background="new    ">
	<path d="M6.034,11.23c-1.16-0.091-2.036-0.34-2.626-0.744c-0.59-0.405-1.056-0.955-1.397-1.651
		C1.669,8.139,1.498,7.263,1.498,6.208c0-1.603,0.42-2.837,1.262-3.704c0.841-0.867,1.933-1.301,3.273-1.301
		c1.328,0,2.415,0.434,3.26,1.301c0.846,0.867,1.27,2.095,1.27,3.688c0,0.804-0.101,1.511-0.302,2.121
		c-0.2,0.609-0.529,1.152-0.991,1.626c-0.463,0.474-1.099,0.835-1.912,1.086c0.459,0.359,0.951,0.629,1.477,0.809
		c0.524,0.18,1.079,0.271,1.667,0.271c0.458,0,0.903-0.069,1.335-0.205v1.076c-0.437,0.132-0.897,0.197-1.372,0.197
		c-0.678,0-1.341-0.115-1.997-0.347C7.814,12.596,7,12.063,6.034,11.23z M6.034,10.256c0.961,0,1.715-0.372,2.26-1.113
		c0.544-0.742,0.815-1.724,0.815-2.944c0-1.22-0.271-2.201-0.816-2.943C7.748,2.515,6.995,2.145,6.034,2.145
		c-0.973,0-1.733,0.371-2.282,1.112c-0.55,0.742-0.823,1.722-0.823,2.942c0,1.221,0.273,2.201,0.822,2.943
		S5.061,10.256,6.034,10.256z"/>
</g>
</svg>
