<?xml version="1.0" encoding="utf-8"?>
<!-- Generator: Adobe Illustrator 15.1.0, SVG Export Plug-In . SVG Version: 6.00 Build 0)  -->
<!DOCTYPE svg PUBLIC "-//W3C//DTD SVG 1.1//EN" "http://www.w3.org/Graphics/SVG/1.1/DTD/svg11.dtd">
<svg version="1.1" id="Layer_1" xmlns="http://www.w3.org/2000/svg" xmlns:xlink="http://www.w3.org/1999/xlink" x="0px" y="0px"
	 width="14.172px" height="14.172px" viewBox="0 0 14.172 14.172" enable-background="new 0 0 14.172 14.172" xml:space="preserve">
<path d="M2.099,2.404c0-0.1,0.043-0.191,0.128-0.275C2.312,2.042,2.403,2,2.502,2h9.52c0.087,0,0.166,0.037,0.239,0.111
	c0.073,0.072,0.11,0.152,0.11,0.238c0,0.088-0.024,0.172-0.072,0.256l-4.769,8.3c-0.083,0.146-0.2,0.22-0.35,0.22
	c-0.113,0-0.212-0.073-0.295-0.22L2.139,2.55C2.112,2.513,2.099,2.462,2.099,2.404z M2.952,2.64l4.265,7.562L11.52,2.64H2.952z
	 M3.908,3.303c0-0.173,0.088-0.26,0.264-0.26h6c0.225,0,0.336,0.074,0.336,0.224c0,0.051-0.012,0.104-0.035,0.161l-3.054,5.31
	C7.365,8.813,7.295,8.851,7.208,8.851c-0.099,0-0.169-0.037-0.21-0.112L3.953,3.459C3.923,3.409,3.908,3.357,3.908,3.303z
	 M4.422,3.478l2.795,4.756l2.706-4.756H4.422z"/>
</svg>
