<?xml version="1.0" encoding="utf-8"?>
<!-- Generator: Adobe Illustrator 15.1.0, SVG Export Plug-In . SVG Version: 6.00 Build 0)  -->
<!DOCTYPE svg PUBLIC "-//W3C//DTD SVG 1.1//EN" "http://www.w3.org/Graphics/SVG/1.1/DTD/svg11.dtd">
<svg version="1.1" id="Layer_1" xmlns="http://www.w3.org/2000/svg" xmlns:xlink="http://www.w3.org/1999/xlink" x="0px" y="0px"
	 width="14.172px" height="14.172px" viewBox="0 0 14.172 14.172" enable-background="new 0 0 14.172 14.172" xml:space="preserve">
<g enable-background="new    ">
	<path d="M2.517,6.833c0-1.199,0.423-2.222,1.269-3.067c0.846-0.845,1.868-1.269,3.067-1.269c1.198,0,2.222,0.423,3.067,1.269
		c0.845,0.846,1.269,1.868,1.269,3.067c0,1.198-0.423,2.222-1.269,3.067c-0.847,0.845-1.869,1.269-3.067,1.269
		c-1.199,0-2.222-0.423-3.067-1.269C2.941,9.054,2.517,8.032,2.517,6.833z M7.439,3.992L5.394,4.126v0.498l0.07-0.006
		c0.461,0,0.724,0.02,0.788,0.059s0.097,0.197,0.097,0.474v3.212c0,0.289-0.04,0.459-0.12,0.513c-0.08,0.053-0.358,0.093-0.835,0.12
		v0.475H8.4V8.996H8.336L7.915,8.979c-0.207,0-0.339-0.035-0.394-0.105c-0.056-0.07-0.082-0.24-0.082-0.51V3.992z"/>
</g>
</svg>
