<?xml version="1.0" encoding="utf-8"?>
<!-- Generator: Adobe Illustrator 15.1.0, SVG Export Plug-In . SVG Version: 6.00 Build 0)  -->
<!DOCTYPE svg PUBLIC "-//W3C//DTD SVG 1.1//EN" "http://www.w3.org/Graphics/SVG/1.1/DTD/svg11.dtd">
<svg version="1.1" id="Layer_1" xmlns="http://www.w3.org/2000/svg" xmlns:xlink="http://www.w3.org/1999/xlink" x="0px" y="0px"
	 width="14.172px" height="14.172px" viewBox="0 0 14.172 14.172" enable-background="new 0 0 14.172 14.172" xml:space="preserve">
<g enable-background="new    ">
	<path d="M11.016,2.824c0.287,0.483,0.482,1.03,0.586,1.641c-0.312,0.068-0.622,0.101-0.928,0.101c-0.518,0-1.062-0.137-1.635-0.41
		V4.044c0-0.526-0.798-0.788-2.392-0.788C5,3.256,4.176,3.519,4.176,4.044v0.112c-0.547,0.323-1.087,0.485-1.62,0.485
		c-0.316,0-0.63-0.059-0.943-0.176C1.712,3.89,1.909,3.342,2.202,2.824C2.877,2.573,3.58,2.384,4.309,2.26
		c0.73-0.125,1.488-0.188,2.273-0.188c0.814,0,1.59,0.063,2.329,0.188C9.65,2.384,10.352,2.573,11.016,2.824z M4.176,4.465v0.196
		c0,0.426-0.124,0.737-0.371,0.93C3.559,5.786,3.164,5.882,2.62,5.882c-0.391,0-0.656-0.064-0.796-0.194s-0.21-0.376-0.21-0.738
		V4.72c0.358,0.117,0.684,0.176,0.975,0.176C3.135,4.896,3.665,4.752,4.176,4.465z M5.822,4.764h1.577v-0.72h1.182v0.997
		l1.407,2.242c0.205,0.328,0.341,0.595,0.405,0.802c0.063,0.209,0.096,0.483,0.096,0.823v1.247H2.727V8.908
		c0-0.528,0.178-1.078,0.534-1.646l1.378-2.221V4.044h1.183V4.764z M5.129,5.621V6.08h0.656V5.621H5.129z M5.129,6.41v0.458h0.656
		V6.41H5.129z M5.129,7.198v0.459h0.656V7.198H5.129z M6.248,5.621V6.08h0.655V5.621H6.248z M6.248,6.41v0.458h0.655V6.41H6.248z
		 M6.248,7.198v0.459h0.655V7.198H6.248z M7.367,5.621V6.08h0.654V5.621H7.367z M7.367,6.41v0.458h0.654V6.41H7.367z M7.367,7.198
		v0.459h0.654V7.198H7.367z M11.602,4.7v0.255c0,0.331-0.071,0.558-0.211,0.679c-0.141,0.123-0.4,0.184-0.779,0.184
		c-0.533,0-0.929-0.093-1.187-0.282C9.168,5.348,9.04,5.058,9.04,4.667v-0.24c0.503,0.27,1.048,0.406,1.63,0.406
		C11.003,4.833,11.315,4.788,11.602,4.7z"/>
</g>
</svg>
