<?xml version="1.0" encoding="utf-8"?>
<!-- Generator: Adobe Illustrator 15.1.0, SVG Export Plug-In . SVG Version: 6.00 Build 0)  -->
<!DOCTYPE svg PUBLIC "-//W3C//DTD SVG 1.1//EN" "http://www.w3.org/Graphics/SVG/1.1/DTD/svg11.dtd">
<svg version="1.1" id="Layer_1" xmlns="http://www.w3.org/2000/svg" xmlns:xlink="http://www.w3.org/1999/xlink" x="0px" y="0px"
	 width="14.172px" height="14.172px" viewBox="0 0 14.172 14.172" enable-background="new 0 0 14.172 14.172" xml:space="preserve">
<g enable-background="new    ">
	<path d="M5.318,12.754H4.112V2.288h1.206v4.475c0.255-0.396,0.504-0.688,0.745-0.877c0.24-0.189,0.491-0.333,0.753-0.43
		c0.262-0.097,0.555-0.146,0.876-0.146c0.451,0,0.858,0.093,1.222,0.279c0.36,0.186,0.642,0.459,0.838,0.821
		c0.198,0.363,0.297,0.94,0.297,1.73v4.612H8.842V8.663c0-0.652-0.041-1.112-0.126-1.379C8.629,7.016,8.465,6.804,8.221,6.648
		c-0.243-0.154-0.519-0.233-0.83-0.233c-0.354,0-0.689,0.104-1.01,0.312C6.064,6.934,5.804,7.225,5.611,7.598
		C5.417,7.973,5.318,8.504,5.318,9.193V12.754z"/>
</g>
</svg>
