<?xml version="1.0" encoding="utf-8"?>
<!-- Generator: Adobe Illustrator 15.1.0, SVG Export Plug-In . SVG Version: 6.00 Build 0)  -->
<!DOCTYPE svg PUBLIC "-//W3C//DTD SVG 1.1//EN" "http://www.w3.org/Graphics/SVG/1.1/DTD/svg11.dtd">
<svg version="1.1" id="Layer_1" xmlns="http://www.w3.org/2000/svg" xmlns:xlink="http://www.w3.org/1999/xlink" x="0px" y="0px"
	 width="14.172px" height="14.172px" viewBox="0 0 14.172 14.172" enable-background="new 0 0 14.172 14.172" xml:space="preserve">
<g enable-background="new    ">
	<path d="M3.442,9.461H2.337V3.396h1.106v1.094c0.229-0.362,0.445-0.624,0.649-0.784c0.204-0.161,0.427-0.28,0.67-0.359
		c0.243-0.08,0.501-0.119,0.775-0.119c0.273,0,0.536,0.038,0.784,0.115c0.248,0.077,0.463,0.194,0.645,0.352
		c0.183,0.158,0.36,0.423,0.539,0.795c0.229-0.352,0.457-0.61,0.677-0.773C8.402,3.553,8.627,3.431,8.86,3.35
		C9.092,3.268,9.338,3.227,9.6,3.227c0.374,0,0.715,0.08,1.02,0.241c0.305,0.16,0.539,0.39,0.703,0.688
		c0.165,0.298,0.246,0.802,0.246,1.511V9.46h-1.105V6.088c0-0.714-0.047-1.166-0.143-1.354s-0.225-0.333-0.389-0.432
		c-0.165-0.099-0.366-0.15-0.6-0.15c-0.33,0-0.632,0.093-0.908,0.279c-0.275,0.188-0.5,0.438-0.668,0.753
		C7.588,5.501,7.504,5.942,7.504,6.508v2.953H6.399V6.088c0-0.714-0.042-1.166-0.126-1.354C6.19,4.545,6.056,4.401,5.868,4.301
		c-0.188-0.1-0.387-0.149-0.599-0.149c-0.302,0-0.599,0.097-0.893,0.291C4.084,4.637,3.855,4.894,3.69,5.211
		C3.525,5.53,3.442,5.963,3.442,6.508V9.461z"/>
</g>
</svg>
