<?xml version="1.0" encoding="utf-8"?>
<!-- Generator: Adobe Illustrator 15.1.0, SVG Export Plug-In . SVG Version: 6.00 Build 0)  -->
<!DOCTYPE svg PUBLIC "-//W3C//DTD SVG 1.1//EN" "http://www.w3.org/Graphics/SVG/1.1/DTD/svg11.dtd">
<svg version="1.1" id="Layer_1" xmlns="http://www.w3.org/2000/svg" xmlns:xlink="http://www.w3.org/1999/xlink" x="0px" y="0px"
	 width="14.172px" height="14.172px" viewBox="0 0 14.172 14.172" enable-background="new 0 0 14.172 14.172" xml:space="preserve">
<g enable-background="new    ">
	<path d="M11.673,5.104L8.656,7.371l1.393,3.849L6.54,8.817l-3.399,2.402l1.324-3.849L1.284,5.104h3.932l1.324-3.7l1.297,3.7H11.673
		z M6.54,6.728L1.995,5.391l2.784,1.898L6.54,6.728z M6.54,8.516V6.742l-2.908,3.876L6.54,8.516z M6.54,6.728V2.086L5.407,5.391
		L6.54,6.728z M10.936,5.391H7.605L6.54,6.728L10.936,5.391z M9.584,10.619l-1.229-3.33L6.54,6.728L9.584,10.619z"/>
</g>
</svg>
