<?xml version="1.0" encoding="utf-8"?>
<!-- Generator: Adobe Illustrator 15.1.0, SVG Export Plug-In . SVG Version: 6.00 Build 0)  -->
<!DOCTYPE svg PUBLIC "-//W3C//DTD SVG 1.1//EN" "http://www.w3.org/Graphics/SVG/1.1/DTD/svg11.dtd">
<svg version="1.1" id="Layer_1" xmlns="http://www.w3.org/2000/svg" xmlns:xlink="http://www.w3.org/1999/xlink" x="0px" y="0px"
	 width="14.172px" height="14.172px" viewBox="0 0 14.172 14.172" enable-background="new 0 0 14.172 14.172" xml:space="preserve">
<g enable-background="new    ">
	<path d="M9.652,6.236c0,0.12-0.096,0.387-0.287,0.801c-0.829,1.775-1.398,3.395-1.71,4.854l-0.322,0.25H5.671l-0.323-0.25
		C5.03,10.432,4.456,8.813,3.627,7.038C3.436,6.624,3.34,6.356,3.34,6.236c0-0.112,0.036-0.267,0.108-0.466
		c0.223-0.59,0.496-1.042,0.819-1.357c0.323-0.315,0.783-0.564,1.38-0.747L5.42,3.535L5.253,3.248V1.646H4.356V1h4.292v0.646H7.739
		v1.602L7.572,3.535L7.344,3.667c0.598,0.182,1.059,0.432,1.381,0.747C9.048,4.728,9.321,5.18,9.544,5.771
		C9.616,5.97,9.652,6.125,9.652,6.236z M9.006,6.236c0-0.079-0.072-0.271-0.215-0.574C8.624,5.304,8.424,5.021,8.194,4.814
		C8.034,4.678,7.842,4.563,7.62,4.468C7.397,4.387,7.173,4.312,6.95,4.24C6.678,4.12,6.543,3.961,6.543,3.761
		c0-0.262,0.18-0.498,0.539-0.705v-1.41H5.91v1.41c0.359,0.208,0.538,0.443,0.538,0.705c0,0.2-0.135,0.359-0.406,0.479
		c-0.224,0.072-0.446,0.147-0.67,0.228c-0.223,0.095-0.415,0.21-0.574,0.346c-0.231,0.208-0.431,0.49-0.597,0.848
		C4.058,5.966,3.986,6.157,3.986,6.236C3.993,6.26,4.021,6.329,4.069,6.439c0.486,1.1,0.837,1.928,1.052,2.487
		c0.358,0.924,0.625,1.775,0.801,2.559H7.07c0.271-1.172,0.888-2.854,1.853-5.045C8.947,6.376,8.974,6.308,9.006,6.236z"/>
</g>
</svg>
