<?xml version="1.0" encoding="utf-8"?>
<!-- Generator: Adobe Illustrator 15.1.0, SVG Export Plug-In . SVG Version: 6.00 Build 0)  -->
<!DOCTYPE svg PUBLIC "-//W3C//DTD SVG 1.1//EN" "http://www.w3.org/Graphics/SVG/1.1/DTD/svg11.dtd">
<svg version="1.1" id="Layer_1" xmlns="http://www.w3.org/2000/svg" xmlns:xlink="http://www.w3.org/1999/xlink" x="0px" y="0px"
	 width="14.172px" height="14.172px" viewBox="0 0 14.172 14.172" enable-background="new 0 0 14.172 14.172" xml:space="preserve">
<g enable-background="new    ">
	<path d="M1.614,8.883C1.66,7.486,2.582,6.09,4.379,4.695c1.25-0.967,2.792-1.851,4.624-2.651C8.924,2.386,8.879,2.715,8.87,3.028
		C8.842,3.84,9.077,4.586,9.57,5.267c0.462,0.548,0.927,1.094,1.394,1.638c0.494,0.663,0.729,1.377,0.703,2.146
		c-0.024,0.755-0.3,1.367-0.824,1.837c-0.523,0.471-1.166,0.692-1.926,0.667c-0.519-0.018-0.996-0.168-1.433-0.452
		c-0.476-0.312-0.771-0.709-0.885-1.189c-0.567,1.025-1.369,1.521-2.408,1.486c-0.698-0.022-1.301-0.271-1.811-0.74
		C1.847,10.164,1.591,9.571,1.614,8.883z"/>
</g>
</svg>
