<?xml version="1.0" encoding="utf-8"?>
<!-- Generator: Adobe Illustrator 15.1.0, SVG Export Plug-In . SVG Version: 6.00 Build 0)  -->
<!DOCTYPE svg PUBLIC "-//W3C//DTD SVG 1.1//EN" "http://www.w3.org/Graphics/SVG/1.1/DTD/svg11.dtd">
<svg version="1.1" id="Layer_1" xmlns="http://www.w3.org/2000/svg" xmlns:xlink="http://www.w3.org/1999/xlink" x="0px" y="0px"
	 width="14.172px" height="14.172px" viewBox="0 0 14.172 14.172" enable-background="new 0 0 14.172 14.172" xml:space="preserve">
<g enable-background="new    ">
	<path d="M1.17,7.086c0-1.476,0.521-2.734,1.561-3.775C3.772,2.271,5.03,1.75,6.506,1.75c1.476,0,2.732,0.521,3.773,1.561
		c1.041,1.041,1.562,2.299,1.562,3.775c0,1.477-0.521,2.734-1.562,3.773c-1.041,1.041-2.298,1.562-3.773,1.562
		c-1.477,0-2.734-0.521-3.775-1.562C1.691,9.821,1.17,8.563,1.17,7.086z M1.883,7.09c0,1.276,0.451,2.366,1.351,3.268
		c0.901,0.899,1.99,1.352,3.269,1.352c1.276,0,2.367-0.451,3.271-1.352s1.354-1.99,1.354-3.268c0-1.278-0.451-2.368-1.354-3.272
		C8.87,2.917,7.78,2.464,6.502,2.464S4.136,2.917,3.235,3.818C2.334,4.722,1.883,5.812,1.883,7.09z M6.607,8.528H3.535v-0.59
		l3.366-4.356H7.4v4.11h0.896v0.836H7.4v0.621c0,0.379,0.026,0.598,0.08,0.651c0.052,0.058,0.278,0.097,0.678,0.12l0.079,0.007
		v0.447H5.655V9.927L5.727,9.92c0.289-0.016,0.462-0.021,0.52-0.021c0.148,0,0.246-0.047,0.291-0.145
		c0.047-0.098,0.069-0.298,0.069-0.605V8.528z M4.237,7.692h2.37V4.621L4.237,7.692z"/>
</g>
</svg>
