<?xml version="1.0" encoding="utf-8"?>
<!-- Generator: Adobe Illustrator 15.1.0, SVG Export Plug-In . SVG Version: 6.00 Build 0)  -->
<!DOCTYPE svg PUBLIC "-//W3C//DTD SVG 1.1//EN" "http://www.w3.org/Graphics/SVG/1.1/DTD/svg11.dtd">
<svg version="1.1" id="Layer_1" xmlns="http://www.w3.org/2000/svg" xmlns:xlink="http://www.w3.org/1999/xlink" x="0px" y="0px"
	 width="14.172px" height="14.172px" viewBox="0 0 14.172 14.172" enable-background="new 0 0 14.172 14.172" xml:space="preserve">
<g enable-background="new    ">
	<path d="M13.172,3.533c-0.283,0.578-0.779,1.022-1.491,1.332c-0.614,0.275-1.28,0.413-2,0.413c-0.31,0-0.601-0.025-0.877-0.074
		c0.155,0.232,0.233,0.493,0.233,0.783c0,0.352-0.111,0.661-0.334,0.925C8.482,7.176,8.198,7.34,7.853,7.404v4.282
		c0,0.17-0.088,0.254-0.265,0.254c-0.176,0-0.264-0.084-0.264-0.254V7.404C6.985,7.34,6.706,7.176,6.483,6.912
		C6.262,6.647,6.15,6.339,6.15,5.987c0-0.29,0.077-0.55,0.232-0.783C6.108,5.253,5.815,5.278,5.505,5.278
		c-0.719,0-1.386-0.138-1.999-0.413c-0.712-0.31-1.209-0.754-1.491-1.332c0.226,0.042,0.448,0.063,0.666,0.063
		c0.437,0,0.931-0.084,1.48-0.254c0.204-0.063,0.413-0.134,0.624-0.212C5.04,3.054,5.251,3.015,5.42,3.015
		c0.395,0,0.663,0.119,0.804,0.36c0.063,0.104,0.127,0.359,0.19,0.761c0.049,0.338,0.152,0.571,0.307,0.698
		c0.176-0.133,0.377-0.223,0.604-0.265v-0.93c0.084,0.028,0.172,0.042,0.264,0.042c0.099,0,0.187-0.014,0.265-0.042v0.93
		c0.226,0.042,0.43,0.132,0.613,0.265c0.148-0.127,0.251-0.36,0.307-0.698C8.83,3.734,8.888,3.479,8.954,3.375
		c0.14-0.241,0.407-0.36,0.803-0.36c0.177,0,0.391,0.039,0.645,0.116c0.205,0.078,0.412,0.148,0.624,0.212
		c0.55,0.169,1.04,0.254,1.471,0.254C12.72,3.597,12.946,3.576,13.172,3.533z M7.325,6.928V5.046
		C7.12,5.102,6.951,5.216,6.817,5.389C6.682,5.562,6.616,5.761,6.616,5.987c0,0.225,0.066,0.422,0.201,0.592
		C6.951,6.748,7.12,6.865,7.325,6.928z M8.181,2.94c0,0.163-0.057,0.3-0.17,0.414C7.899,3.466,7.757,3.522,7.588,3.522
		c-0.162,0-0.3-0.056-0.412-0.168C7.063,3.24,7.006,3.103,7.006,2.94c0-0.169,0.057-0.31,0.17-0.422
		c0.112-0.114,0.25-0.169,0.412-0.169c0.169,0,0.311,0.056,0.423,0.169C8.125,2.631,8.181,2.771,8.181,2.94z M7.821,2.94
		c0-0.289-0.095-0.433-0.285-0.433c-0.105,0-0.195,0.044-0.27,0.132C7.192,2.728,7.155,2.828,7.155,2.94
		c0,0.254,0.127,0.381,0.381,0.381C7.726,3.321,7.821,3.194,7.821,2.94z M8.572,5.987c0-0.226-0.066-0.425-0.2-0.598
		C8.237,5.216,8.064,5.102,7.853,5.046v1.882c0.211-0.063,0.384-0.181,0.519-0.35C8.505,6.409,8.572,6.212,8.572,5.987z"/>
</g>
</svg>
