<?xml version="1.0" encoding="utf-8"?>
<!-- Generator: Adobe Illustrator 15.1.0, SVG Export Plug-In . SVG Version: 6.00 Build 0)  -->
<!DOCTYPE svg PUBLIC "-//W3C//DTD SVG 1.1//EN" "http://www.w3.org/Graphics/SVG/1.1/DTD/svg11.dtd">
<svg version="1.1" id="Layer_1" xmlns="http://www.w3.org/2000/svg" xmlns:xlink="http://www.w3.org/1999/xlink" x="0px" y="0px"
	 width="14.172px" height="14.172px" viewBox="0 0 14.172 14.172" enable-background="new 0 0 14.172 14.172" xml:space="preserve">
<g enable-background="new    ">
	<path d="M12.851,7.47c0,1.808-0.763,3.259-2.288,4.352C9.729,12.427,8.739,12.73,7.59,12.73c-1.478,0-2.724-0.507-3.738-1.521
		c-1.014-1.014-1.521-2.26-1.521-3.738c0-1.471,0.507-2.715,1.521-3.733c1.015-1.019,2.257-1.528,3.727-1.528
		s2.716,0.509,3.739,1.528C12.34,4.755,12.851,6,12.851,7.47z M12.203,7.47c0-1.306-0.442-2.4-1.327-3.286
		C9.991,3.3,8.896,2.858,7.59,2.858c-1.297,0-2.39,0.447-3.278,1.339C3.424,5.089,2.979,6.181,2.979,7.47
		c0,1.29,0.446,2.378,1.339,3.268c0.892,0.888,1.983,1.331,3.272,1.331c0.787,0,1.463-0.146,2.029-0.436
		C11.341,10.738,12.203,9.348,12.203,7.47z M6.919,6.456c0,0.291-0.093,0.526-0.277,0.708C6.457,7.344,6.223,7.434,5.94,7.434
		s-0.518-0.09-0.702-0.271C5.053,6.982,4.961,6.75,4.961,6.468c0-0.276,0.094-0.509,0.283-0.702c0.188-0.192,0.42-0.29,0.696-0.29
		c0.283,0,0.517,0.093,0.702,0.277C6.826,5.938,6.919,6.172,6.919,6.456z M6.931,4.085L5.55,5.477L5.079,5.017L6.47,3.625
		L6.931,4.085z M8.888,9.439c0,0.378-0.123,0.691-0.371,0.938S7.96,10.749,7.59,10.749c-0.369,0-0.682-0.125-0.937-0.378
		C6.397,10.12,6.271,9.809,6.271,9.439c0-0.361,0.129-0.672,0.389-0.931c0.26-0.26,0.57-0.39,0.931-0.39
		c0.361,0,0.669,0.128,0.92,0.383C8.762,8.757,8.888,9.071,8.888,9.439z M10.221,6.456c0,0.283-0.097,0.517-0.289,0.702
		C9.739,7.342,9.505,7.434,9.231,7.434c-0.283,0-0.516-0.092-0.697-0.277c-0.18-0.185-0.27-0.418-0.27-0.702
		c0-0.267,0.094-0.497,0.281-0.689c0.189-0.192,0.421-0.29,0.697-0.29c0.274,0,0.507,0.094,0.695,0.283S10.221,6.181,10.221,6.456z
		 M10.221,4.993L9.785,5.465l-1.403-1.38l0.448-0.46L10.221,4.993z M11.731,7.481c0,0.472-0.221,0.708-0.66,0.708
		c-0.434,0-0.649-0.232-0.649-0.696c0-0.236,0.091-0.503,0.271-0.803c0.219-0.354,0.346-0.605,0.378-0.755
		c0.039,0.118,0.169,0.374,0.388,0.767C11.64,7.018,11.731,7.278,11.731,7.481z M11.412,7.458c0-0.149-0.113-0.413-0.341-0.79
		c-0.072,0.134-0.142,0.267-0.214,0.401c-0.085,0.166-0.129,0.303-0.129,0.413c0,0.259,0.114,0.389,0.343,0.389
		C11.298,7.871,11.412,7.734,11.412,7.458z"/>
</g>
</svg>
