<?xml version="1.0" encoding="utf-8"?>
<!-- Generator: Adobe Illustrator 15.1.0, SVG Export Plug-In . SVG Version: 6.00 Build 0)  -->
<!DOCTYPE svg PUBLIC "-//W3C//DTD SVG 1.1//EN" "http://www.w3.org/Graphics/SVG/1.1/DTD/svg11.dtd">
<svg version="1.1" id="Layer_1" xmlns="http://www.w3.org/2000/svg" xmlns:xlink="http://www.w3.org/1999/xlink" x="0px" y="0px"
	 width="14.172px" height="14.172px" viewBox="0 0 14.172 14.172" enable-background="new 0 0 14.172 14.172" xml:space="preserve">
<path d="M12.629,7.152l-0.393,0.324l0.099,0.078c-0.025,0.006-0.112,0.041-0.26,0.104l0.093,0.078l-0.284,0.039l0.133,0.084
	l-0.304,0.048l0.112,0.099L11.604,8.06c0,0.026,0.014,0.048,0.042,0.065c0.027,0.019,0.043,0.035,0.046,0.052l-0.328,0.064
	l0.138,0.108l-0.358,0.028l0.108,0.123l-0.31-0.021l0.04,0.129l-0.373,0.053l0.133,0.129L10.35,8.84l0.078,0.121L10.07,8.992
	l0.059,0.16l-0.534,0.01L9.634,9.25C9.65,9.283,9.662,9.302,9.668,9.305L8.963,9.373l0.171,0.108L8.481,9.535l0.182,0.098
	L7.908,9.736l0.239,0.01L8.119,9.775l0.274,0.029L8.349,9.854l0.324,0.064L8.614,9.956l0.328,0.089l-0.059,0.039l0.382,0.172
	l-0.054,0.019c0.242,0.2,0.376,0.319,0.401,0.353c-0.101-0.049-0.251-0.111-0.45-0.189l-0.029,0.049l-0.29-0.191l-0.01,0.055
	L8.57,10.168L8.55,10.217l-0.239-0.182l-0.01,0.039L8.109,9.956v0.06c-0.089-0.06-0.179-0.123-0.27-0.191l-0.123,1.349H7.496
	l-0.117-1.29C7.32,9.93,7.225,9.992,7.095,10.074v-0.059l-0.191,0.112l-0.01-0.044l-0.25,0.172l-0.01-0.05l-0.271,0.173l-0.01-0.055
	L6.05,10.506l-0.02-0.049c-0.117,0.055-0.271,0.113-0.46,0.17c0.032-0.045,0.118-0.117,0.254-0.22l0.157-0.112l-0.049-0.021
	l0.392-0.16l-0.063-0.04l0.333-0.078l-0.059-0.04l0.328-0.054L6.824,9.854l0.271-0.02l-0.03-0.038h0.24L6.736,9.595l0.117-0.079
	l-0.94-0.162L6.084,9.28L5.437,9.201L5.54,9.113L5.079,9.011l0.088-0.099l-0.52-0.038l0.097-0.083L4.393,8.628L4.485,8.55
	L4.142,8.418L4.246,8.31L3.795,8.177l0.146-0.068L3.51,8.016l0.103-0.098L3.221,7.829l0.059-0.103L3.04,7.707l0.068-0.133
	l-0.26-0.039l0.059-0.078c-0.013-0.008-0.053-0.014-0.123-0.02l-0.118-0.01l0.074-0.094l-0.245-0.02l0.063-0.098l-0.475-0.23
	l0.534,0.127l0.011-0.152l0.239,0.162l0.068-0.107l0.211,0.211l0.024-0.113l0.231,0.152l0.02-0.143l0.24,0.23l0.029-0.191
	l0.191,0.245l0.029-0.151l0.201,0.27l0.049-0.182l0.304,0.314l0.02-0.162l0.26,0.26l0.059-0.152l0.22,0.245l0.074-0.093L5.27,7.977
	l0.078-0.162l0.211,0.294l0.07-0.172L5.779,8.3l0.078-0.142l0.313,0.448l0.032-0.153l0.302,0.395L6.491,8.682l0.573,0.471
	L6.613,8.673l0.182-0.011L6.162,8.25l0.191-0.023L5.941,7.918l0.108-0.05l-0.471-0.21L5.76,7.604l-0.46-0.338l0.128-0.059
	L4.946,6.883l0.191-0.068L4.849,6.5l0.118-0.048l-0.26-0.324l0.161-0.03L4.476,5.697h0.138L4.305,5.358l0.133-0.04L4.123,5.074
	l0.103-0.059l-0.254-0.27l0.133-0.029l-0.3-0.314l0.127-0.02L3.643,4.074L3.77,4L3.412,3.569L3.9,3.931l0.093-0.152L4.15,4.083
	l0.064-0.132l0.118,0.353L4.463,4.24l0.059,0.285l0.171-0.142l0.048,0.221l0.161-0.099L4.98,4.897l0.143-0.093l0.068,0.279
	l0.122-0.107l0.068,0.372l0.162-0.123l0.142,0.471l0.117-0.128L5.935,6.02l0.15-0.132l0.034,0.333
	c0.007,0.065,0.012,0.104,0.016,0.118l0.083-0.074c0.028-0.026,0.047-0.047,0.054-0.064L6.306,6.76l0.165-0.098v0.48l0.123-0.117
	l0.099,0.471l0.063-0.089l0.147,0.521l0.073-0.182l0.146,0.612l0.064-0.132l0.239,0.647L7.275,8.25l0.142,0.07l-0.26-0.564
	l0.118,0.01L6.994,7.148l0.11,0.077L6.977,6.805l0.137,0.01L6.966,6.28l0.147,0.01l-0.2-0.583l0.191,0.025l-0.05-0.446l0.143,0.083
	l-0.03-0.524l0.129,0.054L7.217,4.304l0.107,0.079c-0.039-0.105-0.059-0.275-0.059-0.51l0.133,0.049L7.275,3.52l0.151,0.059
	L7.393,3.358c-0.022-0.147-0.034-0.23-0.034-0.25l0.108,0.068l-0.068-0.49l0.141,0.049l-0.071-0.46
	C7.533,2.297,7.577,2.311,7.6,2.313C7.6,1.477,7.603,1.039,7.608,1l0.173,1.284C7.8,2.268,7.846,2.239,7.918,2.196l-0.03,0.368
	l0.133-0.069L7.888,2.897l0.073-0.024C8.01,2.856,8.043,2.848,8.06,2.848L7.938,3.206C7.954,3.203,7.98,3.189,8.019,3.164
	C8.056,3.14,8.086,3.127,8.109,3.127L8.06,3.417c0.007,0,0.029-0.011,0.069-0.034C8.168,3.36,8.192,3.348,8.202,3.348L8.1,3.73
	c0.02,0,0.047-0.006,0.083-0.02s0.06-0.02,0.068-0.02L8.147,4.113l0.055-0.025C8.237,4.072,8.265,4.064,8.28,4.064L8.158,4.486
	l0.171-0.044L8.192,4.956l0.146-0.04l-0.107,0.55h0.128L8.251,5.809L8.403,5.76L8.192,6.201l0.211-0.063L8.129,6.604l0.23-0.083
	l-0.23,0.652l0.132-0.059l-0.27,0.594l0.128-0.06L7.897,8.926l0.27-1.189l0.094,0.112L8.31,7.295l0.132,0.078l0.089-0.49
	c0.017,0.01,0.041,0.027,0.074,0.055l0.048,0.033C8.67,6.844,8.695,6.654,8.731,6.402l0.171,0.157l0.173-0.397
	c0.006,0.007,0.016,0.02,0.028,0.039l0.04,0.049l0.2-0.383C9.36,5.901,9.387,5.948,9.422,6.01l0.084-0.323l0.059,0.093l0.069-0.294
	c0.02,0.02,0.041,0.064,0.063,0.133c0.006-0.062,0.026-0.148,0.059-0.26l0.059,0.098l0.064-0.279C9.895,5.2,9.921,5.236,9.957,5.285
	l0.039-0.25c0.01,0.01,0.044,0.03,0.103,0.059l0.079-0.187l0.06,0.04L10.3,4.643c0.053,0.052,0.079,0.08,0.079,0.083l0.06-0.24
	l0.072,0.068l0.03-0.21c0.016,0.016,0.046,0.052,0.087,0.107l0.095-0.29l0.048,0.04l0.03-0.152c0.016,0.007,0.032,0.023,0.049,0.049
	l0.029,0.044c0.072-0.072,0.199-0.223,0.383-0.451c-0.053,0.183-0.14,0.367-0.26,0.551l0.182,0.02l-0.212,0.275l0.117,0.049
	L10.85,4.797l0.171,0.039l-0.278,0.212l0.19,0.049l-0.21,0.191l0.156,0.074l-0.24,0.231l0.143,0.02L10.56,5.775l0.133,0.04
	l-0.383,0.31l0.182,0.035l-0.455,0.329l0.273,0.03L9.825,6.95l0.2,0.03L9.604,7.393h0.191L9.457,7.638l0.156,0.06l-0.479,0.27
	l0.161,0.039L8.623,8.55l0.201-0.021L8.329,9.084l0.334-0.305l-0.03,0.123L9.134,8.35v0.172l0.313-0.325
	C9.454,8.223,9.464,8.265,9.477,8.32l0.31-0.344l0.019,0.143l0.304-0.183c0.008,0.021,0.011,0.058,0.011,0.113l0.279-0.19
	l0.02,0.117c0.046-0.023,0.111-0.064,0.196-0.123l0.156-0.117v0.093l0.3-0.2v0.117l0.22-0.23l0.045,0.132l0.26-0.22v0.107
	l0.26-0.211c0.02,0.039,0.029,0.08,0.029,0.122c0.095-0.065,0.179-0.128,0.25-0.19l0.055,0.098L12.629,7.152z"/>
</svg>
