<?xml version="1.0" encoding="utf-8"?>
<!-- Generator: Adobe Illustrator 15.1.0, SVG Export Plug-In . SVG Version: 6.00 Build 0)  -->
<!DOCTYPE svg PUBLIC "-//W3C//DTD SVG 1.1//EN" "http://www.w3.org/Graphics/SVG/1.1/DTD/svg11.dtd">
<svg version="1.1" id="Layer_1" xmlns="http://www.w3.org/2000/svg" xmlns:xlink="http://www.w3.org/1999/xlink" x="0px" y="0px"
	 width="14.172px" height="14.172px" viewBox="0 0 14.172 14.172" enable-background="new 0 0 14.172 14.172" xml:space="preserve">
<g enable-background="new    ">
	<path d="M12.083,7.185c0,1.319-0.461,2.438-1.382,3.359s-2.041,1.382-3.36,1.382c-1.318,0-2.439-0.461-3.36-1.382
		S2.6,8.504,2.6,7.185s0.46-2.44,1.381-3.366c0.921-0.924,2.042-1.387,3.36-1.387c1.319,0,2.439,0.462,3.36,1.387
		C11.622,4.745,12.083,5.866,12.083,7.185z M10.274,7.446h-0.67C9.308,8.674,8.553,9.289,7.341,9.289S5.374,8.674,5.079,7.446H4.407
		C4.521,8.272,4.828,8.94,5.328,9.448c0.531,0.553,1.202,0.83,2.013,0.83S8.823,10,9.353,9.448
		C9.854,8.94,10.161,8.272,10.274,7.446z M6.59,5.673c0-0.212-0.073-0.391-0.221-0.534C6.221,4.995,6.041,4.922,5.829,4.922
		c-0.205,0-0.38,0.074-0.528,0.222C5.152,5.292,5.079,5.468,5.079,5.673c0,0.205,0.074,0.381,0.222,0.528
		c0.148,0.148,0.324,0.223,0.528,0.223c0.212,0,0.393-0.074,0.541-0.223C6.517,6.054,6.59,5.877,6.59,5.673z M9.604,5.673
		c0-0.205-0.074-0.381-0.222-0.529C9.235,4.996,9.057,4.922,8.854,4.922c-0.213,0-0.393,0.074-0.541,0.222
		C8.166,5.292,8.091,5.468,8.091,5.673c0,0.205,0.074,0.381,0.222,0.528c0.148,0.148,0.328,0.223,0.541,0.223
		c0.203,0,0.381-0.074,0.528-0.223C9.53,6.054,9.604,5.877,9.604,5.673z"/>
</g>
</svg>
