<?xml version="1.0" encoding="utf-8"?>
<!-- Generator: Adobe Illustrator 15.1.0, SVG Export Plug-In . SVG Version: 6.00 Build 0)  -->
<!DOCTYPE svg PUBLIC "-//W3C//DTD SVG 1.1//EN" "http://www.w3.org/Graphics/SVG/1.1/DTD/svg11.dtd">
<svg version="1.1" id="Layer_1" xmlns="http://www.w3.org/2000/svg" xmlns:xlink="http://www.w3.org/1999/xlink" x="0px" y="0px"
	 width="14.172px" height="14.172px" viewBox="0 0 14.172 14.172" enable-background="new 0 0 14.172 14.172" xml:space="preserve">
<g enable-background="new    ">
	<path d="M3.068,5.41h7.573c0.719,0,1.146,0.069,1.281,0.205c0.138,0.136,0.205,0.562,0.205,1.274v2.819
		c0,0.702-0.072,1.125-0.218,1.269c-0.147,0.144-0.569,0.217-1.266,0.217H2.485c-0.673,0-1.089-0.079-1.248-0.237S1,10.381,1,9.708
		V6.889c0-0.665,0.062-1.08,0.185-1.245c0.123-0.165,0.437-0.247,0.942-0.247L2.473,5.41V5.295c0-0.609,0.186-1.121,0.557-1.535
		C3.4,3.345,3.861,3.138,4.411,3.138c0.261,0,0.55,0.044,0.866,0.132l0.266,0.078c0.349,0.101,0.649,0.15,0.902,0.15
		c0.73,0,1.228-0.32,1.493-0.962c0.123-0.309,0.25-0.463,0.378-0.463c0.186,0,0.277,0.087,0.277,0.259
		c0,0.305-0.164,0.641-0.493,1.01c-0.44,0.5-0.984,0.751-1.629,0.751c-0.22,0-0.567-0.055-1.04-0.162L5.112,3.858
		C4.764,3.774,4.515,3.733,4.367,3.733c-0.356,0-0.662,0.151-0.917,0.457C3.196,4.494,3.068,4.857,3.068,5.277V5.41z M10.649,5.704
		H2.485c-0.585,0-0.93,0.053-1.034,0.157c-0.104,0.105-0.157,0.447-0.157,1.03v2.817c0,0.586,0.053,0.931,0.157,1.035
		s0.449,0.156,1.034,0.156h8.164c0.585,0,0.929-0.052,1.031-0.156s0.154-0.449,0.154-1.035V6.891c0-0.583-0.053-0.925-0.158-1.03
		C11.573,5.757,11.23,5.704,10.649,5.704z M2.473,6.577h0.739v0.739h0.746V6.577h0.751v0.739h0.733V6.577h0.751v0.739h0.739V6.577
		h0.74v0.739h0.739V6.577h0.74v0.739h0.744V6.577h0.74v0.751H9.904v0.745h0.733v0.74h-0.74V8.084H9.153v0.729h-0.74V8.084H7.673
		v0.729h-0.74V8.084H6.194v0.729H5.443V8.084H4.709v0.729H3.958V8.084H3.212v0.729H2.473v-0.74h0.733V7.328H2.473V6.577z
		 M3.958,10.009V9.27h5.195v0.739H3.958z M3.964,8.073h0.733V7.328H3.964V8.073z M5.449,8.073h0.739V7.328H5.449V8.073z
		 M6.939,8.073h0.728V7.328H6.939V8.073z M8.418,8.073h0.728V7.328H8.418V8.073z"/>
</g>
</svg>
