<?xml version="1.0" encoding="utf-8"?>
<!-- Generator: Adobe Illustrator 15.1.0, SVG Export Plug-In . SVG Version: 6.00 Build 0)  -->
<!DOCTYPE svg PUBLIC "-//W3C//DTD SVG 1.1//EN" "http://www.w3.org/Graphics/SVG/1.1/DTD/svg11.dtd">
<svg version="1.1" id="Layer_1" xmlns="http://www.w3.org/2000/svg" xmlns:xlink="http://www.w3.org/1999/xlink" x="0px" y="0px"
	 width="14.172px" height="14.172px" viewBox="0 0 14.172 14.172" enable-background="new 0 0 14.172 14.172" xml:space="preserve">
<path d="M11.436,3.733c0,0.147-0.191,0.644-0.575,1.487c-0.144,0.317-0.255,0.528-0.332,0.631c-0.096,0.159-0.244,0.238-0.442,0.238
	c-0.033,0-0.125-0.089-0.274-0.266C9.663,5.647,9.588,5.53,9.588,5.475l0.581-1.494L10.141,3.81c-0.125,0.277-0.3,0.642-0.524,1.096
	C9.53,5.053,9.428,5.127,9.306,5.127L9.185,5.115C9.104,5.104,9.011,5.099,8.908,5.099c0.733,0.715,1.1,1.082,1.1,1.101
	c0,0.07-0.088,0.338-0.265,0.805C9.565,7.471,9.449,7.746,9.395,7.832c-0.07,0-0.164,0.018-0.283,0.055
	C8.979,7.932,8.885,7.955,8.829,7.959c0,0.398-0.06,1.14-0.182,2.223l-0.293,2.602H4.083c-0.054-0.055-0.082-0.102-0.082-0.141
	L5.61,7.367c0-0.003-0.059-0.142-0.177-0.415C5.363,6.79,5.328,6.644,5.328,6.515c0-0.236-0.074-0.611-0.221-1.126
	C4.959,4.875,4.885,4.544,4.885,4.396c0-0.03,0.004-0.076,0.011-0.138C4.905,4.195,4.908,4.149,4.908,4.12
	c0-0.03,0.161-0.202,0.481-0.515l0.574-0.564C6.086,3.026,6.402,2.975,6.91,2.886C7.327,2.809,7.628,2.77,7.812,2.77
	c0.029,0,0.199,0.183,0.509,0.548c0.298,0.347,0.479,0.567,0.542,0.664C9.011,3.395,9.208,2.87,9.456,2.405
	C9.613,2.11,9.775,1.962,9.941,1.962c0.141,0,0.284,0.071,0.433,0.213c0.147,0.142,0.221,0.283,0.221,0.423
	c0,0.11-0.069,0.276-0.205,0.498c-0.147,0.236-0.221,0.441-0.221,0.614v0.066c0.081,0,0.122-0.05,0.122-0.149V3.456h0.099v0.183
	c0,0.074-0.033,0.149-0.099,0.227l0.021,0.321c0.144-0.133,0.216-0.237,0.216-0.31c0-0.022-0.007-0.037-0.021-0.044
	c-0.016-0.007-0.023-0.022-0.023-0.045c0-0.015,0.049-0.053,0.145-0.116l-0.089-0.078c0.037-0.062,0.094-0.109,0.171-0.138
	c-0.021-0.081-0.082-0.122-0.182-0.122c-0.041,0-0.087,0.015-0.139,0.044V3.173c0.082-0.051,0.185-0.077,0.31-0.077
	c0.023,0,0.054,0.004,0.092,0.011c0.039,0.008,0.069,0.012,0.092,0.012c0.074,0,0.184,0.084,0.332,0.251
	C11.362,3.538,11.436,3.659,11.436,3.733z"/>
<path d="M5.317,9.519c0-0.021-0.034-0.065-0.1-0.133C5.104,9.493,5.046,9.588,5.046,9.668c0,0.045,0.037,0.066,0.111,0.066
	C5.264,9.654,5.317,9.582,5.317,9.519z"/>
<path d="M5.666,4.673V4.59c-0.1-0.052-0.262-0.106-0.487-0.166C5.149,4.446,5.135,4.472,5.135,4.501
	c0,0.033,0.025,0.102,0.077,0.205C5.275,4.832,5.31,4.904,5.317,4.922c0.095-0.041,0.167-0.076,0.216-0.105
	c-0.03-0.037-0.083-0.07-0.161-0.1C5.402,4.688,5.5,4.673,5.666,4.673z"/>
<path d="M5.533,5.182v-0.16H5.405l0.051,0.205C5.485,5.197,5.51,5.182,5.533,5.182z"/>
<path d="M5.848,8.047C5.796,7.996,5.756,7.971,5.726,7.971c-0.213,0.324-0.321,0.5-0.321,0.53V8.91
	c0.152-0.081,0.271-0.278,0.359-0.592C5.813,8.156,5.841,8.066,5.848,8.047z"/>
<path d="M5.566,5.542c0-0.041-0.001-0.068-0.005-0.083L5.544,5.387c-0.003-0.015-0.007-0.031-0.011-0.05
	c-0.044,0-0.066,0.031-0.066,0.094C5.467,5.468,5.5,5.504,5.566,5.542z"/>
<path d="M6.529,3.218L6.507,3.207L6.479,3.196C6.465,3.188,6.44,3.185,6.407,3.185c-0.165,0-0.302,0.053-0.409,0.16
	c-0.195,0.196-0.369,0.329-0.52,0.398c0.022,0.066,0.056,0.1,0.099,0.1c0.097-0.11,0.244-0.181,0.443-0.21
	C6.123,3.618,6.18,3.609,6.191,3.605C6.144,3.539,6.093,3.482,6.042,3.434C6.326,3.331,6.488,3.259,6.529,3.218z"/>
<path d="M5.848,7.129C5.807,6.864,5.74,6.731,5.643,6.731c-0.015,0-0.028,0.008-0.041,0.025S5.577,6.78,5.566,6.78
	C5.695,6.965,5.789,7.082,5.848,7.129z"/>
<path d="M5.953,7.539H5.859c-0.036,0.011-0.055,0.047-0.055,0.11c0,0.03,0.008,0.059,0.023,0.084
	C5.911,7.677,5.953,7.612,5.953,7.539z"/>
<path d="M8.853,5.043c-0.137-0.272-0.205-0.42-0.205-0.442c0-0.019,0.025-0.089,0.074-0.213c0.05-0.123,0.075-0.2,0.075-0.229V4.048
	C8.727,4.11,8.618,4.203,8.47,4.325C8.434,4.351,8.409,4.363,8.398,4.363c-0.586,0-0.918-0.138-0.996-0.415
	C7.381,3.989,7.314,4.063,7.203,4.169C7.094,4.276,7.023,4.33,6.993,4.33c-0.021,0-0.071-0.019-0.149-0.056
	C6.767,4.238,6.715,4.22,6.689,4.22c-0.108,0-0.161,0.051-0.161,0.154h0.315c0.414,0,0.679,0.03,0.797,0.089
	c0.158,0.081,0.302,0.291,0.432,0.63C8.35,5.82,8.486,6.329,8.486,6.62c0,0.029-0.013,0.072-0.038,0.127
	C8.423,6.803,8.409,6.839,8.409,6.858c0,0.044,0.012,0.077,0.033,0.099c0.118-0.07,0.201-0.171,0.25-0.304l-0.283-1.61
	c0-0.066,0.039-0.1,0.116-0.1c0.026,0,0.066,0.017,0.119,0.05c0.054,0.033,0.09,0.05,0.107,0.05H8.853z"/>
<path d="M8.549,1.376c0,0.007-0.032,0.042-0.095,0.105s-0.1,0.111-0.111,0.144C8.229,1.846,8.116,2.099,8.006,2.383
	C7.966,2.494,7.931,2.583,7.9,2.653c-0.114,0.004-0.297,0.03-0.548,0.078C7.117,2.779,6.937,2.803,6.811,2.803
	c-0.066,0-0.1-0.039-0.1-0.117c0-0.11,0.097-0.382,0.288-0.815c0.192-0.433,0.329-0.677,0.415-0.733C7.558,1.046,7.813,1,8.183,1
	c0.074,0,0.174,0.086,0.3,0.26C8.521,1.315,8.545,1.354,8.549,1.376z"/>
<path d="M7.381,3.92V3.788C7.34,3.736,7.301,3.71,7.265,3.71c-0.03,0-0.045,0.022-0.045,0.066C7.22,3.825,7.273,3.873,7.381,3.92z"
	/>
<path d="M7.834,1.271H7.729c-0.07,0.014-0.171,0.049-0.3,0.105c-0.04,0.026-0.061,0.07-0.061,0.132v0.105L7.47,1.503
	c0.015-0.018,0.036-0.028,0.066-0.028c0.032,0,0.053,0.004,0.061,0.012c0,0.025-0.003,0.046-0.006,0.061L7.586,1.625
	c0.118-0.048,0.185-0.12,0.198-0.216C7.792,1.358,7.809,1.311,7.834,1.271z"/>
<path d="M9.726,1.614L8.763,3.7l-0.68-0.863c0.052-0.084,0.191-0.438,0.421-1.062c0.14-0.379,0.376-0.569,0.708-0.569
	C9.411,1.205,9.582,1.341,9.726,1.614z"/>
<polygon points="8.692,2.123 8.626,2.123 8.626,2.316 "/>
<path d="M8.908,1.863c0-0.018-0.004-0.04-0.013-0.063C8.889,1.775,8.885,1.761,8.885,1.758c-0.106,0.033-0.16,0.079-0.16,0.138V2.04
	C8.847,1.984,8.908,1.925,8.908,1.863z"/>
<path d="M8.962,5.375C8.934,5.338,8.908,5.3,8.885,5.26H8.763v0.149L8.962,5.375z"/>
<path d="M9.306,1.487C9.239,1.442,9.171,1.42,9.101,1.42c-0.181,0-0.271,0.057-0.271,0.171c0,0.044,0.013,0.07,0.034,0.077
	c0.077-0.055,0.174-0.1,0.287-0.133C9.217,1.518,9.269,1.501,9.306,1.487z"/>
<polygon points="9.212,3.605 9.146,3.605 9.146,3.766 "/>
<path d="M9.837,2.211C9.83,2.189,9.803,2.178,9.76,2.178C9.7,2.226,9.611,2.384,9.494,2.653C9.376,2.923,9.316,3.098,9.316,3.18
	c0,0.081-0.003,0.193-0.011,0.337c0.048,0,0.096-0.028,0.144-0.083c0-0.051,0.009-0.088,0.025-0.11
	C9.49,3.301,9.499,3.286,9.499,3.279c0-0.022-0.01-0.045-0.03-0.07c-0.021-0.024-0.03-0.043-0.03-0.058
	c0-0.052,0.028-0.078,0.084-0.078c0.088,0,0.144-0.007,0.165-0.021C9.585,2.99,9.533,2.951,9.533,2.936
	c0-0.074,0.052-0.142,0.154-0.205c-0.008-0.022-0.011-0.056-0.011-0.1C9.677,2.595,9.729,2.455,9.837,2.211z"/>
</svg>
