<?xml version="1.0" encoding="utf-8"?>
<!-- Generator: Adobe Illustrator 15.1.0, SVG Export Plug-In . SVG Version: 6.00 Build 0)  -->
<!DOCTYPE svg PUBLIC "-//W3C//DTD SVG 1.1//EN" "http://www.w3.org/Graphics/SVG/1.1/DTD/svg11.dtd">
<svg version="1.1" id="Layer_1" xmlns="http://www.w3.org/2000/svg" xmlns:xlink="http://www.w3.org/1999/xlink" x="0px" y="0px"
	 width="14.172px" height="14.172px" viewBox="0 0 14.172 14.172" enable-background="new 0 0 14.172 14.172" xml:space="preserve">
<g enable-background="new    ">
	<path d="M11.893,5.02c0.457,0.786,0.687,1.644,0.687,2.572c0,0.93-0.229,1.787-0.687,2.572c-0.458,0.786-1.081,1.408-1.866,1.866
		c-0.786,0.457-1.644,0.687-2.572,0.687c-0.929,0-1.787-0.229-2.572-0.687c-0.787-0.458-1.408-1.08-1.866-1.866
		C2.559,9.379,2.33,8.522,2.33,7.592c0-0.929,0.229-1.786,0.687-2.572c0.458-0.786,1.08-1.408,1.866-1.865
		c0.785-0.458,1.643-0.688,2.572-0.688c0.929,0,1.786,0.229,2.572,0.688C10.812,3.612,11.435,4.234,11.893,5.02z M9.105,8.802
		l0.728-0.729L7.455,5.686L5.077,8.074l0.728,0.729l1.65-1.65L9.105,8.802z"/>
</g>
</svg>
