<?xml version="1.0" encoding="utf-8"?>
<!-- Generator: Adobe Illustrator 15.1.0, SVG Export Plug-In . SVG Version: 6.00 Build 0)  -->
<!DOCTYPE svg PUBLIC "-//W3C//DTD SVG 1.1//EN" "http://www.w3.org/Graphics/SVG/1.1/DTD/svg11.dtd">
<svg version="1.1" id="Layer_1" xmlns="http://www.w3.org/2000/svg" xmlns:xlink="http://www.w3.org/1999/xlink" x="0px" y="0px"
	 width="14.172px" height="14.172px" viewBox="0 0 14.172 14.172" enable-background="new 0 0 14.172 14.172" xml:space="preserve">
<g enable-background="new    ">
	<path d="M11.97,8.674c0,0.811-0.604,1.218-1.814,1.218c-0.343,0-0.725-0.044-1.146-0.131c-0.479,1.456-1.107,2.185-1.888,2.185
		c-0.765,0-1.385-0.729-1.863-2.185C4.844,9.856,4.451,9.904,4.076,9.904c-1.194,0-1.792-0.409-1.792-1.229
		c0-0.605,0.362-1.323,1.087-2.15C2.646,5.711,2.284,5.007,2.284,4.409c0-0.828,0.585-1.242,1.756-1.242
		c0.366,0,0.764,0.048,1.194,0.144c0.501-1.482,1.13-2.222,1.887-2.222c0.78,0,1.409,0.74,1.888,2.222
		c0.438-0.096,0.84-0.144,1.206-0.144c0.477,0,0.872,0.08,1.183,0.239c0.381,0.206,0.572,0.533,0.572,0.979
		c0,0.614-0.362,1.326-1.087,2.139C11.608,7.335,11.97,8.052,11.97,8.674z M5.187,3.55c-0.295-0.057-0.57-0.084-0.825-0.084
		c-0.446,0-0.812,0.076-1.099,0.228C2.897,3.892,2.714,4.194,2.714,4.601c0,0.509,0.282,1.09,0.848,1.744
		c0.382-0.406,0.816-0.78,1.302-1.122C4.92,4.648,5.027,4.091,5.187,3.55z M5.187,9.522C5.036,9.02,4.928,8.47,4.864,7.873
		C4.451,7.571,4.008,7.192,3.539,6.739c-0.549,0.66-0.824,1.242-0.824,1.744c0,0.739,0.557,1.11,1.672,1.11
		C4.625,9.593,4.892,9.57,5.187,9.522z M4.84,5.496C4.403,5.831,4.028,6.182,3.718,6.548c0.311,0.326,0.681,0.657,1.111,0.991
		c-0.032-0.43-0.048-0.769-0.048-1.015C4.781,6.182,4.8,5.838,4.84,5.496z M9.248,6.524c0-0.414-0.02-0.812-0.06-1.195
		c-0.215-0.151-0.55-0.37-1.003-0.656C7.875,4.49,7.52,4.317,7.122,4.159C6.477,4.398,5.796,4.788,5.08,5.329
		C5.023,5.791,4.996,6.189,4.996,6.524c0,0.326,0.028,0.732,0.084,1.218c0.724,0.494,1.405,0.885,2.042,1.17
		c0.558-0.206,1.246-0.604,2.066-1.193C9.228,7.359,9.248,6.962,9.248,6.524z M6.847,4.051C6.353,3.828,5.875,3.673,5.414,3.585
		C5.31,3.92,5.207,4.413,5.104,5.066c0.382-0.318,0.812-0.585,1.29-0.8C6.488,4.218,6.64,4.146,6.847,4.051z M6.871,9.02
		C6.075,8.629,5.485,8.288,5.104,7.992c0.095,0.662,0.203,1.155,0.322,1.482C5.863,9.402,6.346,9.251,6.871,9.02z M8.758,3.346
		C8.32,2.176,7.775,1.591,7.122,1.591c-0.637,0-1.179,0.585-1.625,1.755C6.015,3.458,6.553,3.649,7.11,3.92
		C7.707,3.641,8.256,3.451,8.758,3.346z M8.758,9.689C8.24,9.584,7.703,9.406,7.146,9.151c-0.629,0.271-1.179,0.45-1.649,0.538
		c0.454,1.187,0.996,1.779,1.625,1.779C7.783,11.468,8.329,10.875,8.758,9.689z M8.017,6.535c0,0.239-0.09,0.44-0.269,0.604
		C7.57,7.301,7.365,7.383,7.134,7.383c-0.239,0-0.448-0.082-0.627-0.244C6.328,6.976,6.238,6.774,6.238,6.535
		c0-0.239,0.089-0.44,0.269-0.603c0.179-0.164,0.388-0.245,0.627-0.245c0.231,0,0.436,0.082,0.615,0.245
		C7.927,6.095,8.017,6.296,8.017,6.535z M7.802,6.189c0-0.103-0.08-0.199-0.239-0.287c-0.127-0.072-0.25-0.116-0.37-0.131
		c0.159,0.151,0.255,0.31,0.287,0.477c0.008,0,0.023,0,0.047,0C7.71,6.249,7.802,6.229,7.802,6.189z M9.152,5.042
		C9.112,4.779,9.009,4.29,8.841,3.574C8.459,3.661,7.973,3.812,7.384,4.027c0.581,0.295,0.88,0.446,0.896,0.454
		C8.575,4.648,8.866,4.835,9.152,5.042z M9.165,8.016C8.726,8.295,8.44,8.474,8.304,8.554C7.977,8.753,7.679,8.908,7.408,9.02
		C8.03,9.266,8.507,9.418,8.841,9.474C8.968,9.037,9.076,8.55,9.165,8.016z M7.922,6.535c0-0.086-0.013-0.175-0.036-0.263
		C7.75,6.32,7.624,6.344,7.503,6.344c0.041,0.088,0.06,0.2,0.06,0.334c0.111,0,0.231-0.028,0.359-0.083
		C7.922,6.563,7.922,6.544,7.922,6.535z M11.529,4.577c0-0.749-0.554-1.122-1.659-1.122c-0.247,0-0.511,0.024-0.789,0.071
		c0.144,0.477,0.25,1.034,0.323,1.672c0.524,0.406,0.951,0.776,1.277,1.111C11.246,5.671,11.529,5.095,11.529,4.577z M11.552,8.458
		c0-0.478-0.281-1.051-0.848-1.719c-0.342,0.35-0.776,0.728-1.301,1.133c-0.073,0.614-0.18,1.164-0.323,1.649
		c0.294,0.048,0.562,0.071,0.8,0.071C10.996,9.593,11.552,9.215,11.552,8.458z M10.538,6.524C10.282,6.261,9.919,5.926,9.451,5.52
		c0.016,0.223,0.023,0.526,0.023,0.908v0.227c0,0.358-0.015,0.653-0.048,0.884C9.689,7.324,10.061,6.986,10.538,6.524z"/>
</g>
</svg>
