<?xml version="1.0" encoding="utf-8"?>
<!-- Generator: Adobe Illustrator 15.1.0, SVG Export Plug-In . SVG Version: 6.00 Build 0)  -->
<!DOCTYPE svg PUBLIC "-//W3C//DTD SVG 1.1//EN" "http://www.w3.org/Graphics/SVG/1.1/DTD/svg11.dtd">
<svg version="1.1" id="Layer_1" xmlns="http://www.w3.org/2000/svg" xmlns:xlink="http://www.w3.org/1999/xlink" x="0px" y="0px"
	 width="14.172px" height="14.172px" viewBox="0 0 14.172 14.172" enable-background="new 0 0 14.172 14.172" xml:space="preserve">
<g enable-background="new    ">
	<path d="M3.737,2h1.321v6.549c0,0.949,0.094,1.586,0.282,1.912s0.479,0.576,0.873,0.748c0.394,0.174,0.831,0.26,1.312,0.26
		c0.467,0,0.882-0.086,1.247-0.26c0.363-0.172,0.634-0.443,0.811-0.812c0.176-0.369,0.262-1.143,0.262-2.318V2h1.22v6.42
		c0,1.188-0.136,2.021-0.409,2.502c-0.275,0.48-0.669,0.861-1.184,1.143c-0.514,0.279-1.164,0.42-1.945,0.42
		c-0.727,0-1.392-0.111-1.995-0.332c-0.604-0.221-1.053-0.568-1.349-1.039c-0.297-0.471-0.445-1.268-0.445-2.387V2z"/>
</g>
</svg>
