<?xml version="1.0" encoding="utf-8"?>
<!-- Generator: Adobe Illustrator 15.1.0, SVG Export Plug-In . SVG Version: 6.00 Build 0)  -->
<!DOCTYPE svg PUBLIC "-//W3C//DTD SVG 1.1//EN" "http://www.w3.org/Graphics/SVG/1.1/DTD/svg11.dtd">
<svg version="1.1" id="Layer_1" xmlns="http://www.w3.org/2000/svg" xmlns:xlink="http://www.w3.org/1999/xlink" x="0px" y="0px"
	 width="14.172px" height="14.172px" viewBox="0 0 14.172 14.172" enable-background="new 0 0 14.172 14.172" xml:space="preserve">
<g enable-background="new    ">
	<path d="M11.757,6.729c0,0.479-0.181,0.888-0.54,1.23c-0.357,0.342-0.776,0.512-1.254,0.512c-0.393,0-0.785-0.214-1.178-0.64
		c0.307-0.146,0.46-0.304,0.46-0.475c0-0.119-0.089-0.179-0.269-0.179c-0.333,0-0.576,0.222-0.73,0.666
		c0.162,0,0.297,0.054,0.403,0.161c0.107,0.106,0.161,0.241,0.161,0.403c0,0.153-0.054,0.286-0.161,0.396
		C8.543,8.916,8.409,8.971,8.247,8.971H8.131c0.035,0.375,0.12,0.562,0.257,0.562c0.068,0,0.103-0.067,0.103-0.205
		c0-0.06-0.009-0.132-0.025-0.217c0.094-0.12,0.209-0.18,0.346-0.18c0.256,0,0.472,0.099,0.646,0.294
		C9.632,9.423,9.72,9.654,9.72,9.918c0,0.29-0.097,0.527-0.288,0.711c-0.192,0.184-0.438,0.275-0.736,0.275
		c-0.376,0-0.7-0.137-0.974-0.41c-0.025,0.23-0.15,0.517-0.372,0.859c-0.24,0.367-0.38,0.644-0.423,0.832
		c-0.042-0.188-0.184-0.465-0.422-0.832c-0.223-0.343-0.346-0.629-0.372-0.859c-0.265,0.273-0.589,0.41-0.974,0.41
		c-0.299,0-0.544-0.092-0.736-0.275c-0.192-0.184-0.288-0.421-0.288-0.711c0-0.265,0.087-0.495,0.262-0.692
		c0.175-0.195,0.391-0.294,0.647-0.294c0.145,0,0.264,0.06,0.359,0.18C5.378,9.197,5.365,9.269,5.365,9.329
		c0,0.138,0.034,0.205,0.103,0.205c0.145,0,0.23-0.188,0.256-0.562H5.608c-0.153,0-0.286-0.056-0.396-0.167
		C5.1,8.694,5.045,8.561,5.045,8.408c0-0.162,0.055-0.297,0.167-0.403c0.111-0.107,0.244-0.161,0.396-0.161
		C5.463,7.399,5.22,7.177,4.878,7.177c-0.18,0-0.27,0.061-0.27,0.179c0,0.171,0.158,0.33,0.475,0.475
		c-0.393,0.426-0.786,0.64-1.179,0.64c-0.487,0-0.909-0.17-1.268-0.512c-0.358-0.343-0.538-0.751-0.538-1.23
		c0-0.538,0.202-0.993,0.608-1.364c0.405-0.371,0.877-0.557,1.415-0.557c0.615,0,1.148,0.23,1.601,0.692
		C5.63,5.124,5.583,4.782,5.583,4.475c0-0.4,0.196-0.875,0.589-1.422c0.444-0.614,0.696-1.071,0.756-1.371
		c0.068,0.299,0.32,0.757,0.756,1.371c0.393,0.546,0.589,1.021,0.589,1.422c0,0.308-0.048,0.649-0.142,1.025
		c0.462-0.461,0.995-0.692,1.603-0.692c0.537,0,1.009,0.186,1.414,0.557S11.757,6.191,11.757,6.729z M11.385,6.729
		c0-0.436-0.17-0.803-0.513-1.101c-0.324-0.29-0.704-0.436-1.139-0.436c-0.685,0-1.243,0.337-1.679,1.012
		C7.679,6.785,7.47,7.455,7.427,8.214H7.056c0.026-0.4,0.18-1.024,0.461-1.87c0.257-0.785,0.384-1.409,0.384-1.87
		c0-0.282-0.119-0.605-0.358-0.973C7.338,3.21,7.133,2.917,6.928,2.617C6.723,2.917,6.518,3.21,6.313,3.502
		c-0.23,0.367-0.346,0.691-0.346,0.973c0,0.461,0.128,1.085,0.385,1.87c0.273,0.846,0.422,1.469,0.448,1.87H6.441
		C6.39,7.455,6.18,6.785,5.813,6.204C5.378,5.53,4.814,5.192,4.123,5.192c-0.436,0-0.815,0.146-1.14,0.436
		c-0.333,0.298-0.5,0.665-0.5,1.101c0,0.376,0.141,0.699,0.423,0.968C3.188,7.965,3.521,8.1,3.905,8.1
		c0.205,0,0.405-0.081,0.602-0.243c-0.179-0.197-0.268-0.363-0.268-0.5c0-0.154,0.066-0.283,0.198-0.39
		c0.132-0.106,0.28-0.16,0.442-0.16c0.341,0,0.623,0.149,0.845,0.448c0.179,0.256,0.299,0.578,0.359,0.96H5.608
		c-0.119,0-0.179,0.064-0.179,0.193c0,0.12,0.06,0.179,0.179,0.179h0.5v0.026c0,0.861-0.214,1.293-0.64,1.293
		c-0.146,0-0.263-0.062-0.353-0.186s-0.13-0.264-0.122-0.417C4.678,9.346,4.52,9.551,4.52,9.918c0,0.41,0.214,0.615,0.641,0.615
		c0.418,0,0.743-0.227,0.974-0.679c0.188-0.358,0.29-0.781,0.308-1.269h0.371C6.804,8.783,6.748,9.082,6.646,9.483
		c-0.095,0.384-0.141,0.684-0.141,0.896c0,0.18,0.141,0.491,0.422,0.936c0.282-0.444,0.423-0.756,0.423-0.936
		c0-0.213-0.047-0.513-0.141-0.896c-0.103-0.401-0.158-0.7-0.167-0.896h0.372c0.026,0.487,0.128,0.91,0.308,1.269
		c0.239,0.452,0.563,0.679,0.974,0.679c0.435,0,0.652-0.205,0.652-0.615c0-0.367-0.157-0.572-0.473-0.615
		C8.883,9.457,8.842,9.596,8.752,9.72C8.664,9.844,8.542,9.906,8.388,9.906c-0.427,0-0.641-0.432-0.641-1.293V8.586h0.499
		c0.129,0,0.192-0.059,0.192-0.179c0-0.129-0.063-0.193-0.192-0.193h-0.46c0.05-0.383,0.17-0.704,0.357-0.96
		c0.223-0.298,0.5-0.448,0.833-0.448c0.162,0,0.312,0.054,0.448,0.16C9.562,7.073,9.63,7.203,9.63,7.356
		c0,0.138-0.095,0.303-0.282,0.5C9.553,8.019,9.758,8.1,9.963,8.1c0.375,0,0.707-0.135,0.992-0.403
		C11.242,7.428,11.385,7.105,11.385,6.729z"/>
</g>
</svg>
