<?xml version="1.0" encoding="utf-8"?>
<!-- Generator: Adobe Illustrator 15.1.0, SVG Export Plug-In . SVG Version: 6.00 Build 0)  -->
<!DOCTYPE svg PUBLIC "-//W3C//DTD SVG 1.1//EN" "http://www.w3.org/Graphics/SVG/1.1/DTD/svg11.dtd">
<svg version="1.1" id="Layer_1" xmlns="http://www.w3.org/2000/svg" xmlns:xlink="http://www.w3.org/1999/xlink" x="0px" y="0px"
	 width="14.172px" height="14.172px" viewBox="0 0 14.172 14.172" enable-background="new 0 0 14.172 14.172" xml:space="preserve">
<g enable-background="new    ">
	<path d="M3.312,1.991c0.221-0.06,1.66-0.085,4.317-0.077l4,0.025l0.395,0.281c0.035,0.025,0.08,0.06,0.141,0.102
		c0.33,0.221,0.525,0.506,0.58,0.854c0.055,0.348,0.086,1.452,0.096,3.312c0,0.34,0,0.604,0,0.79c0.018,2.123,0.018,3.381,0,3.771
		c-0.018,0.391-0.078,0.68-0.18,0.866c-0.143,0.247-0.34,0.454-0.584,0.624l-0.369,0.255H7.426h-4.28l-0.37-0.279
		c-0.238-0.196-0.429-0.417-0.573-0.663c-0.102-0.178-0.161-0.457-0.178-0.834C2.008,10.637,2,9.438,2,7.417
		c0-1.893,0.008-3.065,0.025-3.515s0.068-0.764,0.153-0.942C2.271,2.739,2.422,2.539,2.63,2.36C2.839,2.182,3.065,2.059,3.312,1.991
		z M4.305,7.315C4.093,6.721,3.94,6.318,3.847,6.105l-0.14-0.332L3.579,6.055C3.503,6.241,3.46,6.679,3.452,7.366
		c0,0.484,0.015,0.808,0.044,0.968c0.03,0.162,0.113,0.387,0.249,0.675c0.331,0.713,0.798,1.273,1.401,1.682
		c0.271,0.188,0.42,0.28,0.446,0.28c0.008,0,0.011-0.018,0.006-0.051c-0.004-0.034-0.015-0.083-0.032-0.147
		c-0.017-0.062-0.039-0.129-0.064-0.196l-0.509-1.39L4.305,7.315z M9.083,3.659c-0.281-0.127-0.51-0.211-0.689-0.254
		C8.215,3.363,7.958,3.337,7.618,3.329c-0.451-0.017-0.807,0-1.071,0.051C6.284,3.43,5.979,3.545,5.63,3.724
		C5.367,3.851,5.055,4.078,4.694,4.405C4.333,4.732,4.152,4.946,4.152,5.048c0,0.059,0.047,0.091,0.14,0.095
		c0.094,0.004,0.285-0.006,0.573-0.032c0.433-0.042,0.658-0.038,0.675,0.013c0.008,0.018,0.008,0.052,0,0.103
		C5.524,5.346,5.429,5.413,5.254,5.43C5.08,5.447,4.993,5.481,4.993,5.532c0,0.042,0.234,0.746,0.701,2.107
		c0.467,1.363,0.713,2.059,0.739,2.083c0.085-0.22,0.163-0.428,0.236-0.624C6.74,8.904,6.814,8.691,6.891,8.461l0.433-1.286
		L7.019,6.334c-0.145-0.382-0.247-0.62-0.306-0.713c-0.06-0.093-0.153-0.153-0.28-0.178C6.254,5.417,6.157,5.354,6.14,5.251
		C6.131,5.218,6.138,5.192,6.159,5.176C6.18,5.158,6.237,5.144,6.331,5.131c0.093-0.014,0.214-0.02,0.363-0.02
		c0.148,0,0.367,0,0.656,0c0.525,0,0.865,0.012,1.02,0.032c0.152,0.021,0.229,0.061,0.229,0.122c0,0.093-0.086,0.148-0.254,0.165
		c-0.17,0.018-0.26,0.048-0.27,0.089c0,0.068,0.23,0.775,0.689,2.12c0.457,1.347,0.699,2.02,0.725,2.02
		c0.061,0,0.189-0.373,0.389-1.12s0.301-1.228,0.301-1.44c0.008-0.288-0.107-0.654-0.344-1.096C9.622,5.587,9.508,5.269,9.497,5.048
		C9.483,4.828,9.575,4.645,9.77,4.5c0.127-0.102,0.199-0.172,0.217-0.209c0.018-0.039-0.01-0.091-0.078-0.16
		C9.807,4.029,9.532,3.872,9.083,3.659z M8.167,9.474C7.782,8.409,7.571,7.875,7.528,7.875S7.396,8.071,7.261,8.461L6.7,10.13
		c-0.246,0.714-0.335,1.095-0.267,1.146c0.178,0.11,0.607,0.146,1.287,0.108c0.678-0.039,1.02-0.116,1.02-0.235
		C8.739,11.099,8.547,10.541,8.167,9.474z M11.463,6.716c-0.076-0.441-0.152-0.734-0.229-0.878c-0.068-0.12-0.111-0.149-0.127-0.089
		C11.09,5.8,11.073,5.923,11.055,6.118c-0.033,0.247-0.105,0.549-0.215,0.911C10.729,7.39,10.454,8.19,10.012,9.43
		c-0.289,0.807-0.434,1.235-0.434,1.286c0,0.136,0.25-0.038,0.752-0.522c0.457-0.441,0.789-0.975,0.992-1.599
		C11.528,7.971,11.575,7.345,11.463,6.716z"/>
</g>
</svg>
