<?xml version="1.0" encoding="utf-8"?>
<!-- Generator: Adobe Illustrator 15.1.0, SVG Export Plug-In . SVG Version: 6.00 Build 0)  -->
<!DOCTYPE svg PUBLIC "-//W3C//DTD SVG 1.1//EN" "http://www.w3.org/Graphics/SVG/1.1/DTD/svg11.dtd">
<svg version="1.1" id="Layer_1" xmlns="http://www.w3.org/2000/svg" xmlns:xlink="http://www.w3.org/1999/xlink" x="0px" y="0px"
	 width="14.172px" height="14.172px" viewBox="0 0 14.172 14.172" enable-background="new 0 0 14.172 14.172" xml:space="preserve">
<g enable-background="new    ">
	<path d="M2.875,4.801c0,0.207-0.097,0.312-0.289,0.312c-0.082,0-0.154-0.034-0.217-0.101C2.307,4.945,2.275,4.875,2.275,4.801
		s0.033-0.145,0.1-0.212s0.137-0.1,0.211-0.1s0.14,0.032,0.2,0.095C2.846,4.648,2.875,4.719,2.875,4.801z M2.875,7.035
		c0,0.2-0.097,0.301-0.289,0.301c-0.208,0-0.312-0.097-0.312-0.29c0-0.082,0.032-0.154,0.095-0.216
		c0.062-0.063,0.135-0.095,0.217-0.095C2.779,6.735,2.875,6.835,2.875,7.035z M2.998,2.568c0,0.199-0.096,0.299-0.289,0.299
		c-0.081,0-0.154-0.031-0.216-0.095C2.429,2.709,2.397,2.642,2.397,2.568c0-0.208,0.104-0.312,0.311-0.312
		C2.901,2.256,2.998,2.359,2.998,2.568z M3.82,3.734c0,0.075-0.032,0.145-0.095,0.211c-0.063,0.067-0.131,0.1-0.206,0.1
		c-0.2,0-0.3-0.1-0.3-0.3c0-0.2,0.097-0.299,0.289-0.299c0.074,0,0.145,0.027,0.211,0.083C3.787,3.584,3.82,3.653,3.82,3.734z
		 M3.898,5.924c0,0.208-0.1,0.312-0.3,0.312c-0.074,0-0.143-0.032-0.206-0.095C3.329,6.077,3.297,6.005,3.297,5.924
		c0-0.193,0.104-0.289,0.312-0.289C3.801,5.635,3.898,5.731,3.898,5.924z M11.067,9.424c0,1.867-1.257,2.802-3.768,2.802
		c-2.512,0-3.768-0.935-3.768-2.802c0-1.074,0.459-1.881,1.378-2.422C4.487,6.573,4.275,6.064,4.275,5.479
		c0-0.4,0.089-0.748,0.267-1.044c0.512-0.838,1.43-1.256,2.756-1.256c0.823,0,1.504,0.173,2.045,0.522
		c0.645,0.408,0.968,1,0.968,1.778c0,0.601-0.209,1.107-0.623,1.523C10.607,7.513,11.067,8.321,11.067,9.424z M4.743,2.689
		c0,0.193-0.097,0.289-0.289,0.289c-0.208,0-0.311-0.101-0.311-0.301c0-0.074,0.031-0.142,0.094-0.205
		C4.299,2.41,4.372,2.378,4.454,2.378C4.646,2.378,4.743,2.482,4.743,2.689z M6.743,5.49c0-0.125-0.046-0.234-0.139-0.328
		C6.512,5.069,6.402,5.024,6.276,5.024c-0.118,0-0.222,0.045-0.311,0.138C5.876,5.255,5.832,5.364,5.832,5.49
		c0,0.119,0.044,0.225,0.133,0.317c0.089,0.092,0.196,0.139,0.322,0.139c0.111,0,0.215-0.048,0.311-0.145
		C6.695,5.705,6.743,5.601,6.743,5.49z M6.465,2.434c0,0.208-0.097,0.311-0.289,0.311c-0.082,0-0.153-0.031-0.217-0.094
		c-0.063-0.063-0.094-0.14-0.094-0.229c0-0.185,0.104-0.277,0.311-0.277C6.369,2.145,6.465,2.241,6.465,2.434z M8.411,2.556
		c0,0.207-0.097,0.311-0.289,0.311c-0.082,0-0.154-0.034-0.217-0.101C7.841,2.7,7.81,2.63,7.81,2.556c0-0.2,0.101-0.3,0.3-0.3
		C8.31,2.256,8.411,2.356,8.411,2.556z M8.766,5.49c0-0.125-0.047-0.234-0.139-0.328C8.535,5.069,8.425,5.024,8.299,5.024
		c-0.111,0-0.213,0.048-0.306,0.144C7.901,5.264,7.855,5.372,7.855,5.49c0,0.119,0.046,0.225,0.139,0.317
		C8.086,5.899,8.192,5.946,8.31,5.946c0.119,0,0.225-0.048,0.317-0.145C8.719,5.705,8.766,5.601,8.766,5.49z M10.255,2.689
		c0,0.193-0.103,0.289-0.312,0.289c-0.207,0-0.312-0.096-0.312-0.289c0-0.074,0.034-0.144,0.101-0.211
		C9.8,2.412,9.871,2.378,9.944,2.378c0.082,0,0.154,0.034,0.218,0.101C10.224,2.545,10.255,2.616,10.255,2.689z M11.299,3.745
		c0,0.2-0.1,0.3-0.3,0.3c-0.198,0-0.3-0.1-0.3-0.3c0-0.2,0.097-0.299,0.288-0.299C11.197,3.446,11.299,3.545,11.299,3.745z
		 M11.299,5.924c0,0.208-0.1,0.312-0.3,0.312c-0.198,0-0.3-0.104-0.3-0.312c0-0.193,0.104-0.289,0.312-0.289
		C11.204,5.635,11.299,5.731,11.299,5.924z M12.222,2.422c0,0.082-0.03,0.156-0.094,0.223c-0.063,0.066-0.136,0.1-0.218,0.1
		c-0.072,0-0.143-0.031-0.211-0.094c-0.065-0.063-0.1-0.136-0.1-0.217c0-0.193,0.104-0.289,0.311-0.289
		C12.119,2.145,12.222,2.237,12.222,2.422z M12.323,4.801c0,0.207-0.096,0.312-0.289,0.312c-0.074,0-0.145-0.034-0.211-0.101
		c-0.066-0.067-0.1-0.137-0.1-0.211s0.033-0.145,0.1-0.212s0.137-0.1,0.211-0.1c0.081,0,0.151,0.032,0.206,0.095
		C12.294,4.648,12.323,4.719,12.323,4.801z M12.323,7.035c0,0.2-0.101,0.301-0.3,0.301c-0.2,0-0.3-0.097-0.3-0.29
		c0-0.082,0.03-0.154,0.094-0.216c0.063-0.063,0.136-0.095,0.217-0.095C12.227,6.735,12.323,6.835,12.323,7.035z"/>
</g>
</svg>
