<?xml version="1.0" encoding="utf-8"?>
<!-- Generator: Adobe Illustrator 15.1.0, SVG Export Plug-In . SVG Version: 6.00 Build 0)  -->
<!DOCTYPE svg PUBLIC "-//W3C//DTD SVG 1.1//EN" "http://www.w3.org/Graphics/SVG/1.1/DTD/svg11.dtd">
<svg version="1.1" id="Layer_1" xmlns="http://www.w3.org/2000/svg" xmlns:xlink="http://www.w3.org/1999/xlink" x="0px" y="0px"
	 width="14.172px" height="14.172px" viewBox="0 0 14.172 14.172" enable-background="new 0 0 14.172 14.172" xml:space="preserve">
<g enable-background="new    ">
	<path d="M13.03,8.767c0,0.241-0.104,0.528-0.316,0.859c-0.182,0.295-0.4,0.57-0.656,0.827c-0.34,0.347-0.623,0.521-0.85,0.521
		c-0.152,0-0.332-0.079-0.543-0.237c-0.039-0.031-0.193-0.171-0.467-0.42c-0.143-0.128-0.354-0.316-0.633-0.565
		c-0.377,0.309-0.566,0.57-0.566,0.781c0,0.188,0.072,0.389,0.215,0.6c-0.566-0.143-0.85-0.404-0.85-0.781
		c0-0.385,0.242-0.777,0.727-1.178L7.515,7.624L5.941,9.174c0.483,0.4,0.725,0.793,0.725,1.178c0,0.37-0.284,0.63-0.85,0.781
		c0.143-0.211,0.215-0.411,0.215-0.6c0-0.211-0.189-0.473-0.566-0.781c-0.143,0.127-0.353,0.317-0.629,0.565
		c-0.275,0.249-0.432,0.389-0.47,0.42c-0.211,0.158-0.393,0.237-0.543,0.237c-0.227,0-0.509-0.175-0.849-0.521
		c-0.257-0.257-0.476-0.532-0.657-0.827C2.105,9.295,2,9.008,2,8.767c0-0.454,0.159-0.819,0.476-1.099
		c0.302-0.25,0.683-0.375,1.144-0.375c0.854,0,1.586,0.345,2.197,1.031l1.212-1.178L2.997,3.183c0.46,0.007,0.924,0.185,1.393,0.532
		c0.129,0.09,0.336,0.271,0.624,0.544C5.563,4.758,6.398,5.558,7.515,6.66c0.997-0.989,1.831-1.789,2.503-2.401
		c0.127-0.129,0.336-0.309,0.623-0.544c0.469-0.347,0.932-0.525,1.393-0.532L8.002,7.147l1.199,1.178
		c0.619-0.687,1.357-1.031,2.209-1.031c0.461,0,0.842,0.125,1.145,0.375C12.874,7.948,13.03,8.313,13.03,8.767z M5.465,8.665
		C4.892,8.159,4.318,7.906,3.744,7.906c-0.31,0-0.566,0.071-0.77,0.216c-0.242,0.166-0.363,0.396-0.363,0.69
		c0,0.31,0.144,0.601,0.431,0.872c0.362,0.354,0.623,0.532,0.781,0.532C3.974,10.216,4.521,9.7,5.465,8.665z M12.42,8.812
		c0-0.294-0.123-0.524-0.363-0.69c-0.205-0.145-0.461-0.216-0.771-0.216c-0.572,0-1.146,0.253-1.721,0.759
		c0.943,1.035,1.488,1.552,1.631,1.552c0.068,0,0.203-0.075,0.408-0.227c0.166-0.121,0.295-0.224,0.385-0.306
		C12.276,9.413,12.42,9.122,12.42,8.812z"/>
</g>
</svg>
