<?xml version="1.0" encoding="utf-8"?>
<!-- Generator: Adobe Illustrator 15.1.0, SVG Export Plug-In . SVG Version: 6.00 Build 0)  -->
<!DOCTYPE svg PUBLIC "-//W3C//DTD SVG 1.1//EN" "http://www.w3.org/Graphics/SVG/1.1/DTD/svg11.dtd">
<svg version="1.1" id="Layer_1" xmlns="http://www.w3.org/2000/svg" xmlns:xlink="http://www.w3.org/1999/xlink" x="0px" y="0px"
	 width="14.172px" height="14.172px" viewBox="0 0 14.172 14.172" enable-background="new 0 0 14.172 14.172" xml:space="preserve">
<path d="M5.604,11.261c-0.041,0.144-0.137,0.215-0.289,0.215h-2.75c-0.2,0-0.301-0.092-0.301-0.275c0-0.04,0.004-0.076,0.013-0.108
	l2.748-9.876C5.065,1.072,5.161,1,5.313,1h2.748c0.199,0,0.3,0.092,0.3,0.275c0,0.04-0.005,0.076-0.014,0.108L5.604,11.261z
	 M5.086,10.888L7.666,1.6H5.541l-2.584,9.288H5.086z M9.993,11.26c-0.04,0.144-0.137,0.216-0.288,0.216H6.957
	c-0.2,0-0.3-0.092-0.3-0.275c0-0.039,0.005-0.075,0.017-0.107l2.743-9.877C9.457,1.072,9.553,1,9.705,1h2.736
	c0.208,0,0.312,0.092,0.312,0.276c0,0.032-0.008,0.068-0.023,0.108L9.993,11.26z M9.474,10.888L12.047,1.6H9.933l-2.579,9.288H9.474
	z"/>
</svg>
