<?xml version="1.0" encoding="utf-8"?>
<!-- Generator: Adobe Illustrator 15.1.0, SVG Export Plug-In . SVG Version: 6.00 Build 0)  -->
<!DOCTYPE svg PUBLIC "-//W3C//DTD SVG 1.1//EN" "http://www.w3.org/Graphics/SVG/1.1/DTD/svg11.dtd">
<svg version="1.1" id="Layer_1" xmlns="http://www.w3.org/2000/svg" xmlns:xlink="http://www.w3.org/1999/xlink" x="0px" y="0px"
	 width="14.172px" height="14.172px" viewBox="0 0 14.172 14.172" enable-background="new 0 0 14.172 14.172" xml:space="preserve">
<g enable-background="new    ">
	<path d="M3.001,2.106C3.145,2.042,4.48,2.01,7.008,2.01h3.792l0.395,0.204c0.104,0.056,0.22,0.142,0.347,0.257
		c0.128,0.116,0.228,0.222,0.299,0.317l0.263,0.382l0.024,3.756c0.017,2.096,0,3.362-0.048,3.797s-0.203,0.787-0.467,1.059
		c-0.143,0.135-0.276,0.232-0.4,0.293c-0.123,0.06-0.353,0.11-0.688,0.154s-0.79,0.062-1.368,0.055c-0.578-0.009-1.39-0.009-2.435,0
		l-3.588-0.036l-0.371-0.215C2.507,11.889,2.3,11.702,2.141,11.47l-0.239-0.347V7.153c0-1.801,0.008-2.927,0.024-3.378
		c0.016-0.451,0.059-0.74,0.131-0.867c0.08-0.144,0.213-0.295,0.4-0.455S2.827,2.178,3.001,2.106z M7.044,4.737V2.441L5.227,2.453
		c-1.22,0.008-1.874,0.028-1.961,0.059C3.137,2.56,3.001,2.651,2.858,2.782C2.715,2.914,2.595,3.06,2.5,3.218
		C2.404,3.37,2.346,3.545,2.326,3.745c-0.02,0.199-0.03,0.709-0.03,1.531v1.746h2.38h2.368V4.737z M11.756,8.815V7.153L9.448,7.128
		L7.14,7.105v2.38v2.368h1.674c1.116,0,1.767-0.04,1.949-0.12c0.175-0.071,0.36-0.215,0.557-0.43
		c0.194-0.216,0.316-0.407,0.364-0.574C11.733,10.569,11.756,9.931,11.756,8.815z"/>
</g>
</svg>
