<?xml version="1.0" encoding="utf-8"?>
<!-- Generator: Adobe Illustrator 15.1.0, SVG Export Plug-In . SVG Version: 6.00 Build 0)  -->
<!DOCTYPE svg PUBLIC "-//W3C//DTD SVG 1.1//EN" "http://www.w3.org/Graphics/SVG/1.1/DTD/svg11.dtd">
<svg version="1.1" id="Layer_1" xmlns="http://www.w3.org/2000/svg" xmlns:xlink="http://www.w3.org/1999/xlink" x="0px" y="0px"
	 width="14.172px" height="14.172px" viewBox="0 0 14.172 14.172" enable-background="new 0 0 14.172 14.172" xml:space="preserve">
<g enable-background="new    ">
	<path d="M11.961,2.498v1.956h-0.646v0.978h0.646v6.845H2.184V2.498H11.961z M9.359,3.151H2.837V5.43h6.521L9.359,3.151L9.359,3.151
		z M8.394,7.389c0-0.352-0.132-0.656-0.394-0.916C7.739,6.214,7.428,6.085,7.072,6.085S6.411,6.212,6.154,6.466
		C5.899,6.722,5.771,7.029,5.771,7.389c0,0.356,0.127,0.662,0.383,0.916c0.257,0.256,0.562,0.383,0.918,0.383S7.739,8.559,8,8.302
		C8.262,8.044,8.394,7.741,8.394,7.389z M7.561,11.132V9.831c0-0.326-0.163-0.489-0.489-0.489c-0.325,0-0.487,0.163-0.487,0.489
		v1.302c0,0.325,0.162,0.488,0.488,0.488C7.372,11.621,7.536,11.458,7.561,11.132z"/>
</g>
</svg>
