<?xml version="1.0" encoding="utf-8"?>
<!-- Generator: Adobe Illustrator 15.1.0, SVG Export Plug-In . SVG Version: 6.00 Build 0)  -->
<!DOCTYPE svg PUBLIC "-//W3C//DTD SVG 1.1//EN" "http://www.w3.org/Graphics/SVG/1.1/DTD/svg11.dtd">
<svg version="1.1" id="Layer_1" xmlns="http://www.w3.org/2000/svg" xmlns:xlink="http://www.w3.org/1999/xlink" x="0px" y="0px"
	 width="14.172px" height="14.172px" viewBox="0 0 14.172 14.172" enable-background="new 0 0 14.172 14.172" xml:space="preserve">
<g enable-background="new    ">
	<path d="M12.302,3.697c0,0.173-0.03,0.296-0.09,0.374c-0.086,0.095-0.172,0.19-0.259,0.285L11.05,5.338L7.909,8.646l-1.68,1.615
		c-1.017,0.983-1.646,1.461-1.886,1.436L4.045,11.67c-0.181-0.018-0.474-0.189-0.879-0.518c-0.181-0.137-0.354-0.305-0.517-0.503
		c-0.078-0.086-0.117-0.247-0.117-0.479L2.352,8.608C2.283,8.013,2.261,7.496,2.287,7.056C2.305,6.704,2.324,6.5,2.346,6.449
		C2.367,6.397,2.49,6.238,2.714,5.971c0.172-0.207,0.271-0.327,0.297-0.362c0.146-0.137,0.276-0.223,0.387-0.258
		c0.242-0.078,0.461-0.116,0.66-0.116c0.146,0,0.28,0.043,0.4,0.129C4.58,5.467,4.639,5.605,4.639,5.778
		c0,0.146,0.044,0.464,0.129,0.956l0.117,0.698C4.902,7.579,4.958,7.768,5.053,8c0.095,0.111,0.211,0.168,0.349,0.168
		c0.06,0,0.15-0.057,0.271-0.168l0.22-0.207l4.498-4.381l0.994-0.828c0.146-0.12,0.315-0.18,0.505-0.18
		c0.188,0,0.306,0.026,0.35,0.078c0.042,0.052,0.062,0.176,0.062,0.375V3.697z M11.67,3.735v-0.18V3.167
		c-0.198,0.164-0.487,0.404-0.865,0.723c-0.175,0.155-0.784,0.746-1.837,1.771L6.333,8.246c-0.379,0.37-0.689,0.556-0.93,0.556
		c-0.328,0-0.604-0.13-0.828-0.389C4.446,8.268,4.347,8.017,4.278,7.665C4.226,7.388,4.179,7.113,4.136,6.837
		C4.101,6.622,4.058,6.299,4.006,5.868C3.825,5.876,3.683,5.902,3.58,5.945C3.545,5.963,3.431,6.087,3.237,6.32
		C3.043,6.552,2.942,6.682,2.934,6.708c-0.018,0.138-0.026,0.4-0.026,0.788c0,0.276,0.086,1.155,0.259,2.637
		c0-0.008-0.005,0.039-0.013,0.143c0.439,0.49,0.753,0.745,0.943,0.763l0.298,0.025c0.008,0,0.047-0.029,0.116-0.091
		c1.189-1.059,2.171-1.986,2.947-2.778c0.164-0.163,1.206-1.258,3.127-3.283C10.817,4.644,11.178,4.252,11.67,3.735z"/>
</g>
</svg>
