<?xml version="1.0" encoding="utf-8"?>
<!-- Generator: Adobe Illustrator 15.1.0, SVG Export Plug-In . SVG Version: 6.00 Build 0)  -->
<!DOCTYPE svg PUBLIC "-//W3C//DTD SVG 1.1//EN" "http://www.w3.org/Graphics/SVG/1.1/DTD/svg11.dtd">
<svg version="1.1" id="Layer_1" xmlns="http://www.w3.org/2000/svg" xmlns:xlink="http://www.w3.org/1999/xlink" x="0px" y="0px"
	 width="14.172px" height="14.172px" viewBox="0 0 14.172 14.172" enable-background="new 0 0 14.172 14.172" xml:space="preserve">
<g enable-background="new    ">
	<path d="M1.684,7.083c0-1.407,0.496-2.606,1.488-3.598C4.164,2.494,5.363,1.998,6.77,1.998c1.408,0,2.605,0.496,3.597,1.488
		c0.992,0.992,1.489,2.191,1.489,3.598s-0.497,2.604-1.489,3.598c-0.991,0.993-2.19,1.488-3.597,1.488
		c-1.407,0-2.606-0.496-3.598-1.488C2.18,9.69,1.684,8.491,1.684,7.083z M2.371,7.083c0,1.219,0.429,2.258,1.286,3.117
		c0.857,0.858,1.893,1.288,3.109,1.288c1.216,0,2.254-0.43,3.111-1.288c0.86-0.859,1.291-1.898,1.291-3.117
		c0-1.219-0.431-2.259-1.291-3.12C9.02,3.102,7.982,2.671,6.766,2.671c-1.216,0-2.252,0.43-3.109,1.292
		C2.799,4.824,2.371,5.864,2.371,7.083z M5.776,6.856C5.211,6.471,4.927,6,4.927,5.44c0-0.5,0.174-0.902,0.523-1.209
		c0.349-0.307,0.808-0.46,1.377-0.46c0.543,0,0.973,0.13,1.293,0.392c0.317,0.261,0.479,0.611,0.479,1.052
		c0,0.646-0.367,1.17-1.102,1.573c0.906,0.398,1.362,1.008,1.362,1.827c0,0.546-0.201,0.988-0.603,1.33s-0.922,0.513-1.562,0.513
		c-0.63,0-1.136-0.16-1.517-0.481c-0.382-0.32-0.572-0.742-0.572-1.265C4.605,7.87,4.995,7.251,5.776,6.856z M6.085,7.131
		C5.666,7.53,5.457,8.024,5.457,8.61c0,0.472,0.107,0.826,0.321,1.063c0.215,0.238,0.536,0.356,0.964,0.356
		c0.36,0,0.661-0.11,0.902-0.336S8.006,9.19,8.006,8.856c0-0.285-0.09-0.522-0.271-0.715C7.556,7.95,7.199,7.713,6.667,7.434
		L6.085,7.131z M7.106,6.582c0.496-0.334,0.743-0.783,0.743-1.347c0-0.344-0.093-0.602-0.279-0.773S7.104,4.204,6.732,4.204
		c-0.295,0-0.544,0.092-0.749,0.275C5.779,4.662,5.677,4.886,5.677,5.152s0.094,0.494,0.282,0.684S6.529,6.274,7.106,6.582z"/>
</g>
</svg>
