<?xml version="1.0" encoding="utf-8"?>
<!-- Generator: Adobe Illustrator 15.1.0, SVG Export Plug-In . SVG Version: 6.00 Build 0)  -->
<!DOCTYPE svg PUBLIC "-//W3C//DTD SVG 1.1//EN" "http://www.w3.org/Graphics/SVG/1.1/DTD/svg11.dtd">
<svg version="1.1" id="Layer_1" xmlns="http://www.w3.org/2000/svg" xmlns:xlink="http://www.w3.org/1999/xlink" x="0px" y="0px"
	 width="14.172px" height="14.172px" viewBox="0 0 14.172 14.172" enable-background="new 0 0 14.172 14.172" xml:space="preserve">
<g enable-background="new    ">
	<path d="M9.25,4.529c0,0.833-0.272,1.552-0.816,2.158C7.89,7.293,7.21,7.642,6.394,7.732v2.424h1.793v0.754H6.394v1.719H5.64V10.91
		H3.847v-0.754H5.64V7.002h0.383c0.684,0,1.268-0.241,1.75-0.723c0.481-0.483,0.723-1.065,0.723-1.75
		c0-0.693-0.241-1.277-0.723-1.755c-0.482-0.478-1.066-0.718-1.75-0.718c-0.577,0-1.183,0.244-1.818,0.729L3.748,2.193
		c0.75-0.594,1.508-0.891,2.275-0.891c0.898,0,1.661,0.314,2.288,0.94C8.936,2.869,9.25,3.631,9.25,4.529z"/>
</g>
</svg>
