<?xml version="1.0" encoding="utf-8"?>
<!-- Generator: Adobe Illustrator 15.1.0, SVG Export Plug-In . SVG Version: 6.00 Build 0)  -->
<!DOCTYPE svg PUBLIC "-//W3C//DTD SVG 1.1//EN" "http://www.w3.org/Graphics/SVG/1.1/DTD/svg11.dtd">
<svg version="1.1" id="Layer_1" xmlns="http://www.w3.org/2000/svg" xmlns:xlink="http://www.w3.org/1999/xlink" x="0px" y="0px"
	 width="14.172px" height="14.172px" viewBox="0 0 14.172 14.172" enable-background="new 0 0 14.172 14.172" xml:space="preserve">
<g enable-background="new    ">
	<path d="M6.741,11.54l-2.078,1.741l-0.477-2.669H1.477l1.354-2.348l-2.077-1.75L3.3,5.587L2.84,2.918l2.545,0.928l1.356-2.349
		l1.363,2.349l2.546-0.928l-0.469,2.669l2.546,0.928l-2.077,1.75l1.354,2.348h-2.71l-0.476,2.669L6.741,11.54z M6.741,11.122
		c0.98,0,1.815-0.347,2.507-1.039s1.04-1.528,1.04-2.509c0-0.979-0.348-1.816-1.04-2.508S7.721,4.027,6.741,4.027
		S4.924,4.373,4.232,5.065C3.539,5.758,3.193,6.594,3.193,7.574c0,0.98,0.348,1.816,1.043,2.509S5.767,11.122,6.741,11.122z"/>
</g>
</svg>
