<?xml version="1.0" encoding="utf-8"?>
<!-- Generator: Adobe Illustrator 15.1.0, SVG Export Plug-In . SVG Version: 6.00 Build 0)  -->
<!DOCTYPE svg PUBLIC "-//W3C//DTD SVG 1.1//EN" "http://www.w3.org/Graphics/SVG/1.1/DTD/svg11.dtd">
<svg version="1.1" id="Layer_1" xmlns="http://www.w3.org/2000/svg" xmlns:xlink="http://www.w3.org/1999/xlink" x="0px" y="0px"
	 width="14.172px" height="14.172px" viewBox="0 0 14.172 14.172" enable-background="new 0 0 14.172 14.172" xml:space="preserve">
<g enable-background="new    ">
	<path d="M7.549,6.607C8.39,6.812,8.997,7.156,9.372,7.639c0.375,0.482,0.561,1.029,0.561,1.637c0,0.506-0.129,0.981-0.387,1.428
		c-0.26,0.443-0.627,0.799-1.104,1.064c-0.478,0.267-1.304,0.397-2.474,0.397H2.79V1.586h2.813c1.278,0,2.142,0.093,2.579,0.279
		C8.62,2.05,8.95,2.322,9.172,2.681C9.398,3.04,9.51,3.437,9.51,3.872c0,0.487-0.143,0.97-0.424,1.45S8.293,6.23,7.549,6.607z
		 M4.172,6.186h1.325c0.679,0,1.187-0.09,1.527-0.269c0.339-0.179,0.609-0.438,0.812-0.778c0.201-0.339,0.301-0.688,0.301-1.046
		c0-0.396-0.157-0.736-0.475-1.018C7.346,2.793,6.778,2.651,5.958,2.651H4.172V6.186z M4.172,11.11h1.939
		c0.921,0,1.552-0.172,1.888-0.513c0.336-0.343,0.504-0.747,0.504-1.216c0-0.377-0.109-0.727-0.328-1.046
		C7.958,8.016,7.633,7.754,7.206,7.552C6.777,7.351,6.105,7.25,5.19,7.25H4.172V11.11z"/>
</g>
</svg>
