<?xml version="1.0" encoding="utf-8"?>
<!-- Generator: Adobe Illustrator 15.1.0, SVG Export Plug-In . SVG Version: 6.00 Build 0)  -->
<!DOCTYPE svg PUBLIC "-//W3C//DTD SVG 1.1//EN" "http://www.w3.org/Graphics/SVG/1.1/DTD/svg11.dtd">
<svg version="1.1" id="Layer_1" xmlns="http://www.w3.org/2000/svg" xmlns:xlink="http://www.w3.org/1999/xlink" x="0px" y="0px"
	 width="14.172px" height="14.172px" viewBox="0 0 14.172 14.172" enable-background="new 0 0 14.172 14.172" xml:space="preserve">
<g enable-background="new    ">
	<path d="M5.874,10.092l-1.042,1.689c-1.009-0.408-1.807-1.041-2.392-1.896C1.871,9.067,1.587,8.174,1.587,7.208
		c0-0.74,0.185-1.439,0.555-2.097c0.386-0.686,0.923-1.24,1.613-1.663L2.836,2.841L5.79,2.187L5.517,4.635L4.69,4.09
		C3.835,4.72,3.407,5.596,3.407,6.718C3.407,8.159,4.229,9.282,5.874,10.092z M12.195,6.76c0,0.74-0.183,1.439-0.546,2.098
		c-0.387,0.686-0.928,1.239-1.622,1.662l0.918,0.602l-2.953,0.662l0.272-2.449l0.828,0.545c0.854-0.63,1.281-1.506,1.281-2.628
		c0-1.439-0.822-2.564-2.465-3.374l1.042-1.69c1.015,0.409,1.814,1.042,2.398,1.897C11.915,4.901,12.195,5.794,12.195,6.76z"/>
</g>
</svg>
