<?xml version="1.0" encoding="utf-8"?>
<!-- Generator: Adobe Illustrator 15.1.0, SVG Export Plug-In . SVG Version: 6.00 Build 0)  -->
<!DOCTYPE svg PUBLIC "-//W3C//DTD SVG 1.1//EN" "http://www.w3.org/Graphics/SVG/1.1/DTD/svg11.dtd">
<svg version="1.1" id="Layer_1" xmlns="http://www.w3.org/2000/svg" xmlns:xlink="http://www.w3.org/1999/xlink" x="0px" y="0px"
	 width="14.172px" height="14.172px" viewBox="0 0 14.172 14.172" enable-background="new 0 0 14.172 14.172" xml:space="preserve">
<g enable-background="new    ">
	<path d="M12.657,6.834c0,0.687-0.241,1.271-0.722,1.752c-0.482,0.482-1.066,0.723-1.755,0.723c-0.687,0-1.271-0.24-1.753-0.723
		C7.946,8.105,7.705,7.521,7.705,6.834v2.75H7.155v-2.75c0,0.687-0.241,1.271-0.723,1.752c-0.481,0.482-1.07,0.723-1.765,0.723
		c-0.688,0-1.272-0.24-1.753-0.723C2.432,8.105,2.192,7.521,2.192,6.834c0-0.695,0.24-1.282,0.722-1.76
		C3.395,4.597,3.98,4.358,4.667,4.358c0.695,0,1.284,0.239,1.765,0.716c0.481,0.478,0.723,1.065,0.723,1.76V4.083h0.549v2.751
		c0-0.695,0.241-1.282,0.723-1.76C8.91,4.597,9.494,4.358,10.18,4.358c0.688,0,1.272,0.239,1.755,0.716
		C12.416,5.552,12.657,6.139,12.657,6.834z M6.604,6.834c0-0.535-0.187-0.993-0.562-1.371C5.668,5.086,5.21,4.896,4.667,4.896
		c-0.535,0-0.989,0.19-1.364,0.567C2.929,5.841,2.742,6.299,2.742,6.834s0.187,0.989,0.562,1.363
		c0.375,0.376,0.83,0.562,1.364,0.562c0.542,0,1.001-0.187,1.375-0.562C6.417,7.823,6.604,7.369,6.604,6.834z M12.106,6.834
		c0-0.535-0.187-0.993-0.562-1.371c-0.374-0.377-0.829-0.567-1.364-0.567c-0.534,0-0.991,0.19-1.369,0.567
		C8.433,5.841,8.244,6.299,8.244,6.834s0.189,0.989,0.567,1.363c0.378,0.376,0.835,0.562,1.369,0.562
		c0.535,0,0.99-0.187,1.364-0.562C11.919,7.823,12.106,7.369,12.106,6.834z"/>
</g>
</svg>
