<?xml version="1.0" encoding="utf-8"?>
<!-- Generator: Adobe Illustrator 15.1.0, SVG Export Plug-In . SVG Version: 6.00 Build 0)  -->
<!DOCTYPE svg PUBLIC "-//W3C//DTD SVG 1.1//EN" "http://www.w3.org/Graphics/SVG/1.1/DTD/svg11.dtd">
<svg version="1.1" id="Layer_1" xmlns="http://www.w3.org/2000/svg" xmlns:xlink="http://www.w3.org/1999/xlink" x="0px" y="0px"
	 width="14.172px" height="14.172px" viewBox="0 0 14.172 14.172" enable-background="new 0 0 14.172 14.172" xml:space="preserve">
<g enable-background="new    ">
	<path d="M13.172,2.124v9.888c0,0.288-0.104,0.536-0.312,0.744c-0.209,0.208-0.457,0.312-0.744,0.312H2.229
		c-0.288,0-0.536-0.104-0.744-0.312s-0.312-0.456-0.312-0.744V2.124c0-0.288,0.104-0.536,0.312-0.744S1.94,1.068,2.229,1.068h9.888
		c0.287,0,0.535,0.104,0.744,0.312C13.068,1.587,13.172,1.835,13.172,2.124z M9.896,8.064c0-0.208-0.07-0.387-0.209-0.534
		C9.546,7.381,9.376,7.307,9.176,7.307c-0.12,0-0.231,0.032-0.336,0.097C8.28,7.692,7.72,7.835,7.161,7.835
		c-0.553,0-1.104-0.144-1.656-0.432C5.376,7.347,5.264,7.32,5.168,7.32c-0.2,0-0.37,0.073-0.51,0.222s-0.21,0.326-0.21,0.534
		c0,0.544,0.588,0.932,1.764,1.164l-1.404,1.452c-0.144,0.144-0.216,0.319-0.216,0.527s0.07,0.386,0.21,0.534s0.31,0.222,0.51,0.222
		c0.2,0,0.372-0.071,0.516-0.216l1.344-1.392l1.345,1.392c0.143,0.145,0.315,0.216,0.516,0.216c0.199,0,0.369-0.073,0.51-0.222
		c0.14-0.148,0.21-0.326,0.21-0.534s-0.072-0.384-0.216-0.527L8.132,9.24C9.308,9,9.896,8.608,9.896,8.064z M8.924,6.515
		c0.472-0.504,0.708-1.104,0.708-1.8s-0.236-1.296-0.708-1.8S7.868,2.16,7.172,2.16c-0.696,0-1.28,0.252-1.752,0.756
		c-0.472,0.504-0.708,1.104-0.708,1.8s0.236,1.296,0.708,1.8c0.472,0.504,1.056,0.756,1.752,0.756
		C7.868,7.271,8.453,7.019,8.924,6.515z M7.899,3.971c0.195,0.208,0.293,0.456,0.293,0.744S8.094,5.251,7.899,5.459
		C7.702,5.667,7.46,5.771,7.172,5.771s-0.53-0.104-0.726-0.312C6.25,5.251,6.152,5.003,6.152,4.715S6.25,4.179,6.446,3.971
		C6.642,3.763,6.884,3.66,7.172,3.66S7.702,3.763,7.899,3.971z"/>
</g>
</svg>
