<?xml version="1.0" encoding="utf-8"?>
<!-- Generator: Adobe Illustrator 15.1.0, SVG Export Plug-In . SVG Version: 6.00 Build 0)  -->
<!DOCTYPE svg PUBLIC "-//W3C//DTD SVG 1.1//EN" "http://www.w3.org/Graphics/SVG/1.1/DTD/svg11.dtd">
<svg version="1.1" id="Layer_1" xmlns="http://www.w3.org/2000/svg" xmlns:xlink="http://www.w3.org/1999/xlink" x="0px" y="0px"
	 width="14.172px" height="14.172px" viewBox="0 0 14.172 14.172" enable-background="new 0 0 14.172 14.172" xml:space="preserve">
<g enable-background="new    ">
	<path d="M12.342,7.418c0,0.15-0.045,0.3-0.135,0.449c-0.105,0.181-0.229,0.271-0.372,0.271c-0.083,0-0.165-0.036-0.253-0.107
		c-0.085-0.071-0.128-0.147-0.128-0.229c0-0.061,0.01-0.152,0.027-0.276C11.5,7.402,11.51,7.31,11.51,7.25
		c0-0.405-0.083-0.768-0.247-1.09c-0.21-0.405-0.499-0.607-0.865-0.607c-0.226,0-0.449,0.028-0.674,0.084
		C9.5,5.694,9.289,5.785,9.094,5.913C8.832,6.078,8.702,6.25,8.702,6.43c0,0.134,0.175,0.322,0.527,0.561
		c0.464,0.331,0.791,0.603,0.978,0.82c0.352,0.412,0.528,0.885,0.528,1.417c0,0.307-0.063,0.689-0.191,1.146
		c-0.136,0.486-0.289,0.839-0.461,1.056c-0.097,0.12-0.235,0.251-0.415,0.394c-0.218,0.172-0.379,0.259-0.483,0.259
		c-0.068,0-0.131-0.026-0.191-0.078c-0.06-0.054-0.09-0.113-0.09-0.181c0-0.037,0.125-0.259,0.376-0.662
		c0.251-0.405,0.377-0.735,0.377-0.99c0-0.225-0.092-0.476-0.275-0.753C9.196,9.142,8.998,8.962,8.78,8.879
		C8.704,8.91,8.667,8.981,8.667,9.093c0,0.045,0.009,0.112,0.027,0.202c0.019,0.091,0.028,0.156,0.028,0.201
		c0,0.578-0.277,1.166-0.831,1.766c-0.562,0.614-1.128,0.922-1.698,0.922c-1.266,0-2.184-0.391-2.753-1.17
		C3.314,10.841,3.25,10.7,3.25,10.587c0-0.09,0.042-0.165,0.124-0.224c0.068-0.054,0.146-0.079,0.236-0.079
		c0.082,0,0.259,0.119,0.528,0.359c0.284,0.262,0.494,0.408,0.629,0.438c0.12,0.03,0.315,0.046,0.584,0.046
		c0.307,0,0.619-0.128,0.933-0.383c0.307-0.247,0.51-0.525,0.607-0.837c0.097-0.312,0.146-0.515,0.146-0.612
		c0-0.112-0.042-0.169-0.124-0.169c-0.008,0-0.173,0.112-0.495,0.338c-0.33,0.24-0.524,0.375-0.584,0.404
		c-0.3,0.143-0.648,0.213-1.045,0.213c-0.465,0-0.989-0.265-1.574-0.798C2.632,8.752,2.34,8.258,2.34,7.801
		c0-0.981,0.259-1.851,0.776-2.608C3.25,4.999,3.359,4.861,3.441,4.778c0.104-0.097,0.206-0.146,0.303-0.146
		c0.12,0,0.18,0.053,0.18,0.157c0,0.083-0.042,0.21-0.124,0.382c-0.39,0.771-0.585,1.364-0.585,1.775
		c0,0.533,0.191,0.96,0.573,1.282c0.36,0.307,0.809,0.461,1.349,0.461c0.562,0,0.843-0.157,0.843-0.473
		c0-0.3-0.135-0.573-0.405-0.82c-0.254-0.209-0.51-0.422-0.764-0.64C4.542,6.47,4.408,6.123,4.408,5.71
		c0-0.629,0.251-1.263,0.753-1.899c0.45-0.592,0.985-1.03,1.607-1.314c0.464-0.211,0.827-0.315,1.09-0.315
		c0.098,0,0.184,0.039,0.258,0.117c0.075,0.079,0.112,0.163,0.112,0.253c0,0.09-0.074,0.157-0.224,0.202
		C7.937,2.762,7.832,2.781,7.689,2.811c-0.3,0.076-0.577,0.192-0.831,0.349C6.565,3.34,6.295,3.65,6.049,4.092
		C5.801,4.534,5.678,4.923,5.678,5.261c0,0.277,0.129,0.555,0.388,0.832s0.526,0.416,0.804,0.416c0.262,0,0.581-0.199,0.956-0.595
		c0.659-0.705,1.014-1.08,1.067-1.125c0.472-0.396,0.95-0.596,1.438-0.596c0.861,0,1.427,0.375,1.697,1.125
		C12.237,5.901,12.342,6.602,12.342,7.418z"/>
</g>
</svg>
