<?xml version="1.0" encoding="utf-8"?>
<!-- Generator: Adobe Illustrator 15.1.0, SVG Export Plug-In . SVG Version: 6.00 Build 0)  -->
<!DOCTYPE svg PUBLIC "-//W3C//DTD SVG 1.1//EN" "http://www.w3.org/Graphics/SVG/1.1/DTD/svg11.dtd">
<svg version="1.1" id="Layer_1" xmlns="http://www.w3.org/2000/svg" xmlns:xlink="http://www.w3.org/1999/xlink" x="0px" y="0px"
	 width="14.172px" height="14.172px" viewBox="0 0 14.172 14.172" enable-background="new 0 0 14.172 14.172" xml:space="preserve">
<g enable-background="new    ">
	<path d="M6.918,12.112c-1.048,0-1.899-0.459-2.553-1.379c-0.653-0.92-0.979-2.17-0.979-3.751c0-1.581,0.326-2.831,0.979-3.75
		C5.019,2.312,5.87,1.853,6.918,1.853c1.061,0,1.916,0.459,2.565,1.379c0.649,0.919,0.976,2.169,0.976,3.75
		c0,1.582-0.324,2.832-0.976,3.751C8.834,11.653,7.979,12.112,6.918,12.112z M6.918,11.147c0.819,0,1.412-0.422,1.778-1.266
		s0.55-1.809,0.55-2.899c0-1.083-0.184-2.047-0.55-2.894c-0.366-0.847-0.959-1.27-1.778-1.27c-0.814,0-1.404,0.423-1.771,1.269
		C4.782,4.935,4.599,5.899,4.599,6.982c0,1.09,0.183,2.056,0.549,2.899C5.514,10.725,6.104,11.147,6.918,11.147z"/>
</g>
</svg>
