<?xml version="1.0" encoding="utf-8"?>
<!-- Generator: Adobe Illustrator 15.1.0, SVG Export Plug-In . SVG Version: 6.00 Build 0)  -->
<!DOCTYPE svg PUBLIC "-//W3C//DTD SVG 1.1//EN" "http://www.w3.org/Graphics/SVG/1.1/DTD/svg11.dtd">
<svg version="1.1" id="Layer_1" xmlns="http://www.w3.org/2000/svg" xmlns:xlink="http://www.w3.org/1999/xlink" x="0px" y="0px"
	 width="14.172px" height="14.172px" viewBox="0 0 14.172 14.172" enable-background="new 0 0 14.172 14.172" xml:space="preserve">
<g enable-background="new    ">
	<path d="M3.258,1.744c0.217-0.069,1.647-0.108,4.293-0.117c2.163-0.008,3.475,0.013,3.942,0.064
		c0.469,0.053,0.84,0.208,1.117,0.468c0.275,0.259,0.438,0.618,0.484,1.076c0.049,0.458,0.064,1.824,0.047,4.099l-0.027,4.162
		l-0.258,0.402c-0.07,0.104-0.17,0.219-0.307,0.344c-0.133,0.125-0.256,0.214-0.369,0.267c-0.197,0.111-0.492,0.176-0.883,0.194
		c-0.387,0.017-1.625,0.026-3.707,0.026c-1.92,0-3.115-0.01-3.586-0.026c-0.472-0.019-0.78-0.064-0.927-0.143
		c-0.389-0.217-0.687-0.541-0.895-0.974c-0.078-0.182-0.128-0.495-0.149-0.94C2.011,10.201,2,9.066,2,7.243
		c0-2.638,0.035-4.077,0.104-4.319c0.06-0.225,0.211-0.46,0.454-0.707C2.8,1.971,3.033,1.812,3.258,1.744z M6.345,6.996
		C6.06,6.909,5.856,6.868,5.735,6.873C5.614,6.877,5.354,6.931,4.958,7.035l-0.61,0.156L4.023,8.332
		C3.816,9.084,3.727,9.473,3.757,9.5c0.031,0.024,0.167,0.008,0.409-0.052c0.553-0.156,1.111-0.13,1.673,0.076
		c0.329,0.13,0.51,0.182,0.545,0.156C6.41,9.646,6.481,9.439,6.598,9.058c0.117-0.38,0.227-0.761,0.33-1.142
		c0.086-0.337,0.106-0.544,0.059-0.622S6.725,7.117,6.345,6.996z M7.616,3.91c-0.233-0.113-0.54-0.175-0.92-0.188
		C6.314,3.708,5.978,3.749,5.684,3.844c-0.19,0.052-0.313,0.125-0.37,0.22C5.258,4.16,5.151,4.458,4.996,4.959
		C4.78,5.625,4.672,6.028,4.672,6.166c0,0.095,0.021,0.145,0.065,0.149C4.78,6.319,4.914,6.288,5.139,6.218
		C5.406,6.14,5.703,6.112,6.027,6.133c0.325,0.022,0.617,0.093,0.875,0.214C7.136,6.459,7.268,6.5,7.298,6.471
		c0.03-0.031,0.136-0.363,0.317-1c0.182-0.636,0.295-1.022,0.338-1.16C7.987,4.217,7.983,4.145,7.94,4.097
		C7.897,4.05,7.788,3.986,7.616,3.91z M9.147,8.229c-0.355-0.01-0.682-0.078-0.98-0.209C7.87,7.891,7.708,7.866,7.68,7.942
		c-0.078,0.243-0.2,0.664-0.369,1.265c-0.168,0.602-0.253,0.915-0.253,0.94c0,0.043,0.168,0.143,0.505,0.299
		c0.562,0.26,1.177,0.285,1.841,0.078c0.027-0.009,0.057-0.022,0.092-0.039c0.104-0.026,0.176-0.052,0.221-0.078
		c0.043-0.026,0.088-0.056,0.135-0.091c0.049-0.035,0.094-0.119,0.137-0.253c0.043-0.135,0.086-0.263,0.123-0.389
		c0.039-0.126,0.105-0.353,0.201-0.681c0.035-0.13,0.064-0.229,0.092-0.299l0.168-0.597l-0.455,0.064
		C9.825,8.214,9.5,8.237,9.147,8.229z M10.807,4.966c-0.373,0.074-0.703,0.089-0.992,0.045C9.524,4.968,9.264,4.888,9.03,4.772
		C8.795,4.655,8.67,4.613,8.653,4.648c-0.061,0.113-0.234,0.692-0.52,1.738c-0.086,0.345-0.115,0.553-0.09,0.623
		c0.045,0.12,0.252,0.225,0.623,0.311c0.371,0.086,0.721,0.117,1.051,0.09c0.207-0.017,0.359-0.029,0.453-0.038
		c0.096-0.009,0.197-0.035,0.305-0.078c0.107-0.043,0.184-0.084,0.229-0.124c0.041-0.039,0.096-0.118,0.16-0.24
		c0.064-0.121,0.115-0.241,0.15-0.356c0.033-0.117,0.086-0.297,0.156-0.539c0.205-0.718,0.291-1.093,0.252-1.128
		C11.383,4.873,11.178,4.893,10.807,4.966z"/>
</g>
</svg>
