<?xml version="1.0" encoding="utf-8"?>
<!-- Generator: Adobe Illustrator 15.1.0, SVG Export Plug-In . SVG Version: 6.00 Build 0)  -->
<!DOCTYPE svg PUBLIC "-//W3C//DTD SVG 1.1//EN" "http://www.w3.org/Graphics/SVG/1.1/DTD/svg11.dtd">
<svg version="1.1" id="Layer_1" xmlns="http://www.w3.org/2000/svg" xmlns:xlink="http://www.w3.org/1999/xlink" x="0px" y="0px"
	 width="14.172px" height="14.172px" viewBox="0 0 14.172 14.172" enable-background="new 0 0 14.172 14.172" xml:space="preserve">
<g enable-background="new    ">
	<path d="M11.172,7.576c0,0.976-0.456,1.946-1.365,2.907c-0.918,0.962-1.865,1.443-2.842,1.443c-1.449,0-2.722-0.381-3.817-1.144
		C1.913,9.925,1.295,8.8,1.295,7.408c0-1.583,0.562-2.847,1.687-3.795c1.05-0.88,2.382-1.32,3.995-1.32
		c1.494,0,2.597,0.528,3.307,1.586C10.875,4.768,11.172,6,11.172,7.576z M10.05,6.865c0-0.776-0.351-1.532-1.055-2.269
		C8.294,3.86,7.554,3.492,6.778,3.492c-1.11,0-2.094,0.321-2.952,0.965c-0.94,0.71-1.41,1.601-1.41,2.674
		c0,1.14,0.506,2.049,1.521,2.73c0.888,0.599,1.927,0.898,3.118,0.898c0.859,0,1.588-0.447,2.188-1.343
		C9.782,8.618,10.05,7.768,10.05,6.865z M8.563,7.042c0,0.682-0.233,1.243-0.703,1.687C7.389,9.173,6.814,9.395,6.133,9.395
		c-0.406,0-0.857-0.199-1.354-0.6c-0.518-0.414-0.777-0.82-0.777-1.22c0-0.762,0.218-1.38,0.655-1.854
		C5.109,5.234,5.715,4.99,6.477,4.99c0.541,0,1.023,0.207,1.448,0.621C8.351,6.025,8.563,6.502,8.563,7.042z M7.166,7.01
		c0-0.207-0.122-0.377-0.366-0.511C6.592,6.381,6.374,6.321,6.145,6.321c-0.163,0-0.336,0.085-0.517,0.255
		c-0.181,0.17-0.271,0.338-0.271,0.5c0,0.222,0.126,0.425,0.378,0.609C5.957,7.849,6.186,7.93,6.422,7.93
		c0.214,0,0.396-0.104,0.543-0.311C7.099,7.435,7.166,7.232,7.166,7.01z"/>
</g>
</svg>
