<?xml version="1.0" encoding="utf-8"?>
<!-- Generator: Adobe Illustrator 15.1.0, SVG Export Plug-In . SVG Version: 6.00 Build 0)  -->
<!DOCTYPE svg PUBLIC "-//W3C//DTD SVG 1.1//EN" "http://www.w3.org/Graphics/SVG/1.1/DTD/svg11.dtd">
<svg version="1.1" id="Layer_1" xmlns="http://www.w3.org/2000/svg" xmlns:xlink="http://www.w3.org/1999/xlink" x="0px" y="0px"
	 width="14.172px" height="14.172px" viewBox="0 0 14.172 14.172" enable-background="new 0 0 14.172 14.172" xml:space="preserve">
<g enable-background="new    ">
	<path d="M6.858,9.607c-0.544,1.24-1.354,1.861-2.429,1.861c-1.076,0-1.885-0.621-2.429-1.861l0.06-0.06
		c0.086,0.073,0.183,0.136,0.289,0.188L4.21,5.664C4.15,5.505,4.12,5.359,4.12,5.226c0-0.232,0.104-0.348,0.309-0.348
		s0.309,0.116,0.309,0.348c0,0.133-0.03,0.279-0.09,0.438L6.51,9.736c0.106-0.053,0.203-0.115,0.289-0.188L6.858,9.607z
		 M3.941,5.644C3.868,5.652,3.795,5.655,3.722,5.655c-0.776,0-1.165-0.236-1.165-0.707c0-0.325,0.146-0.489,0.438-0.489
		c0.258,0,0.388,0.1,0.388,0.299c0,0.04-0.012,0.094-0.035,0.165C3.325,4.992,3.314,5.048,3.314,5.087
		c0,0.092,0.136,0.139,0.408,0.139c0.053,0,0.103-0.003,0.149-0.01C3.872,5.35,3.895,5.492,3.941,5.644z M4.22,10.154V6.641
		L2.707,9.886C3.131,10.045,3.636,10.134,4.22,10.154z M6.151,9.886L4.648,6.641v3.513C5.226,10.134,5.727,10.045,6.151,9.886z
		 M6.62,4.439L6.45,5.157c-0.213-0.026-0.315-0.04-0.309-0.04c-0.252,0-0.647,0.123-1.184,0.368c0.02-0.1,0.029-0.186,0.029-0.259
		c0-0.086-0.016-0.172-0.049-0.258l0.667-0.398C5.83,4.437,6.029,4.37,6.201,4.37C6.367,4.37,6.506,4.394,6.62,4.439z M8.073,4.419
		L7.844,5.385H7.067L6.848,4.419l0.378-0.348l0.1-2.27h0.268l0.09,2.27L8.073,4.419z M7.793,4.729c0-0.093-0.033-0.171-0.1-0.234
		C7.628,4.432,7.548,4.399,7.456,4.399c-0.093,0-0.173,0.033-0.239,0.096c-0.067,0.063-0.1,0.141-0.1,0.234
		c0,0.226,0.113,0.338,0.338,0.338S7.793,4.955,7.793,4.729z M12.92,9.607c-0.551,1.24-1.363,1.861-2.439,1.861
		c-1.068,0-1.877-0.621-2.428-1.861l0.059-0.06c0.094,0.073,0.189,0.136,0.289,0.188l1.861-4.072
		c-0.053-0.159-0.08-0.305-0.08-0.438c0-0.232,0.1-0.348,0.299-0.348c0.207,0,0.309,0.116,0.309,0.348
		c0,0.133-0.025,0.279-0.078,0.438l1.852,4.072c0.105-0.053,0.205-0.115,0.299-0.188L12.92,9.607z M9.975,4.968
		C9.94,5.054,9.924,5.14,9.924,5.226c0,0.073,0.01,0.159,0.029,0.259C9.422,5.24,9.028,5.117,8.77,5.117
		c0.014,0-0.09,0.014-0.311,0.04L8.301,4.439C8.409,4.394,8.543,4.37,8.709,4.37c0.18,0,0.379,0.066,0.598,0.199L9.975,4.968z
		 M10.272,10.154V6.641L8.76,9.886C9.192,10.045,9.696,10.134,10.272,10.154z M12.213,9.886l-1.512-3.246v3.513
		C11.28,10.134,11.782,10.045,12.213,9.886z M12.364,4.948c0,0.471-0.393,0.707-1.176,0.707c-0.072,0-0.143-0.003-0.209-0.011
		c0.047-0.152,0.07-0.294,0.07-0.428c0.047,0.006,0.096,0.01,0.15,0.01c0.271,0,0.408-0.046,0.408-0.139
		c0-0.04-0.012-0.095-0.035-0.165c-0.023-0.07-0.035-0.125-0.035-0.165c0-0.199,0.125-0.299,0.377-0.299
		C12.213,4.459,12.364,4.623,12.364,4.948z"/>
</g>
</svg>
