<?xml version="1.0" encoding="utf-8"?>
<!-- Generator: Adobe Illustrator 15.1.0, SVG Export Plug-In . SVG Version: 6.00 Build 0)  -->
<!DOCTYPE svg PUBLIC "-//W3C//DTD SVG 1.1//EN" "http://www.w3.org/Graphics/SVG/1.1/DTD/svg11.dtd">
<svg version="1.1" id="Layer_1" xmlns="http://www.w3.org/2000/svg" xmlns:xlink="http://www.w3.org/1999/xlink" x="0px" y="0px"
	 width="14.172px" height="14.172px" viewBox="0 0 14.172 14.172" enable-background="new 0 0 14.172 14.172" xml:space="preserve">
<g enable-background="new    ">
	<path d="M9.704,10.6v0.997c-0.757,0.398-1.558,0.599-2.402,0.599c-0.914,0-1.757-0.223-2.531-0.666
		c-0.773-0.444-1.364-1.088-1.772-1.928c-0.41-0.841-0.614-1.744-0.614-2.713c0-0.968,0.204-1.865,0.613-2.693
		c0.408-0.829,0.991-1.468,1.75-1.918C5.506,1.828,6.42,1.603,7.491,1.603c0.997,0,1.85,0.199,2.555,0.599
		c0.703,0.399,1.252,0.943,1.645,1.632c0.395,0.689,0.59,1.454,0.59,2.294c0,0.605-0.107,1.137-0.33,1.598
		c-0.221,0.457-0.521,0.818-0.906,1.082c-0.383,0.264-0.802,0.396-1.248,0.396c-0.388,0-0.737-0.101-1.057-0.3
		c-0.316-0.199-0.51-0.525-0.576-0.979C7.924,8.287,7.657,8.573,7.354,8.786C7.051,8.998,6.747,9.104,6.439,9.104
		c-0.314,0-0.617-0.096-0.907-0.287c-0.29-0.189-0.507-0.449-0.653-0.778c-0.145-0.33-0.217-0.688-0.217-1.076
		c0-0.501,0.127-0.996,0.381-1.482C5.297,4.994,5.63,4.643,6.045,4.428c0.414-0.215,1.036-0.322,1.864-0.322h1.252v2.793
		c0,0.593,0.08,0.989,0.244,1.193c0.162,0.202,0.371,0.303,0.625,0.303c0.374,0,0.707-0.192,0.994-0.58
		c0.287-0.387,0.43-0.913,0.43-1.578c0-0.756-0.168-1.424-0.512-2.004c-0.342-0.58-0.825-1.031-1.451-1.352
		c-0.625-0.32-1.307-0.48-2.035-0.48c-0.793,0-1.519,0.181-2.178,0.544c-0.659,0.363-1.16,0.892-1.502,1.591
		c-0.341,0.698-0.512,1.458-0.512,2.28c0,0.799,0.163,1.573,0.49,2.327c0.326,0.752,0.83,1.317,1.51,1.691
		c0.68,0.375,1.355,0.562,2.027,0.562C8.1,11.399,8.905,11.131,9.704,10.6z M8.161,4.903H7.754c-0.357,0-0.625,0.024-0.805,0.073
		C6.773,5.024,6.613,5.106,6.475,5.22C6.22,5.426,6.038,5.674,5.926,5.964c-0.112,0.29-0.167,0.623-0.167,0.997
		c0,0.418,0.082,0.711,0.245,0.879C6.167,8.01,6.342,8.096,6.53,8.096c0.217,0,0.446-0.085,0.684-0.251
		c0.24-0.166,0.556-0.536,0.947-1.111V4.903z"/>
</g>
</svg>
