<?xml version="1.0" encoding="utf-8"?>
<!-- Generator: Adobe Illustrator 15.1.0, SVG Export Plug-In . SVG Version: 6.00 Build 0)  -->
<!DOCTYPE svg PUBLIC "-//W3C//DTD SVG 1.1//EN" "http://www.w3.org/Graphics/SVG/1.1/DTD/svg11.dtd">
<svg version="1.1" id="Layer_1" xmlns="http://www.w3.org/2000/svg" xmlns:xlink="http://www.w3.org/1999/xlink" x="0px" y="0px"
	 width="14.172px" height="14.172px" viewBox="0 0 14.172 14.172" enable-background="new 0 0 14.172 14.172" xml:space="preserve">
<g enable-background="new    ">
	<path d="M6.356,8.499C6.147,8.752,5.918,8.943,5.669,9.072C5.42,9.2,5.152,9.263,4.863,9.263c-0.463,0-0.84-0.161-1.135-0.482
		C3.434,8.459,3.287,8.045,3.287,7.54c0-0.352,0.028-0.695,0.083-1.031L3.453,6.01C3.536,5.465,3.577,5.1,3.577,4.914
		c0-0.26-0.09-0.479-0.27-0.655c-0.18-0.175-0.402-0.263-0.667-0.263c-0.277,0-0.599,0.138-0.967,0.414
		C1.583,4.478,1.499,4.511,1.42,4.511c-0.17,0-0.255-0.08-0.255-0.237c0-0.198,0.164-0.391,0.492-0.58
		c0.328-0.19,0.66-0.285,0.995-0.285c0.435,0,0.795,0.145,1.082,0.432c0.287,0.289,0.43,0.654,0.43,1.097
		c0,0.257-0.027,0.562-0.082,0.913L3.99,6.443C3.912,6.917,3.874,7.274,3.874,7.516c0,0.339,0.092,0.617,0.278,0.835
		s0.42,0.326,0.704,0.326c0.315,0,0.598-0.104,0.848-0.312c0.25-0.207,0.468-0.519,0.653-0.933c0.071-0.632,0.187-1.12,0.347-1.465
		c0.16-0.344,0.419-0.669,0.779-0.973C8.086,4.479,8.784,4.22,9.575,4.22c0.885,0,1.643,0.314,2.271,0.942
		c0.632,0.628,0.946,1.385,0.946,2.273v2.049c0,0.567-0.054,0.903-0.16,1.009c-0.105,0.104-0.444,0.157-1.014,0.157H7.524
		c-0.562,0-0.896-0.054-1.005-0.162c-0.109-0.109-0.163-0.444-0.163-1.005V8.499z M6.647,7.433v2.051
		c0,0.414,0.042,0.664,0.127,0.749s0.335,0.128,0.75,0.128h4.1c0.451,0,0.71-0.035,0.776-0.104c0.066-0.069,0.102-0.327,0.102-0.773
		V7.433h-0.578c-0.028-0.612-0.267-1.166-0.72-1.659l0.409-0.421c-0.639-0.561-1.324-0.842-2.057-0.842
		c-0.537,0-1.093,0.18-1.666,0.54l0.346,0.485C7.627,6.027,7.301,6.659,7.257,7.433H6.647z M6.967,7.143
		c0.099-0.648,0.386-1.202,0.859-1.66L7.655,5.246C7.109,5.752,6.773,6.383,6.647,7.143H6.967z M7.82,7.433
		c0-0.481,0.172-0.895,0.513-1.239c0.343-0.344,0.756-0.515,1.242-0.515c0.482,0,0.895,0.17,1.239,0.513
		c0.342,0.341,0.515,0.756,0.515,1.241s-0.173,0.899-0.515,1.241c-0.345,0.342-0.757,0.513-1.239,0.513
		c-0.486,0-0.899-0.171-1.242-0.513C7.992,8.333,7.82,7.918,7.82,7.433z M8.111,7.433c0,0.402,0.143,0.747,0.427,1.034
		c0.284,0.286,0.63,0.43,1.037,0.43c0.402,0,0.748-0.144,1.034-0.43c0.286-0.287,0.43-0.632,0.43-1.034
		c0-0.404-0.144-0.748-0.43-1.034c-0.286-0.287-0.632-0.43-1.034-0.43c-0.403,0-0.748,0.143-1.034,0.43
		C8.254,6.685,8.111,7.029,8.111,7.433z M8.555,7.436c0-0.28,0.1-0.521,0.299-0.722c0.198-0.201,0.439-0.302,0.724-0.302
		c0.279,0,0.519,0.101,0.717,0.302c0.199,0.201,0.299,0.441,0.299,0.722c0,0.283-0.1,0.525-0.299,0.723
		c-0.198,0.199-0.438,0.3-0.717,0.3c-0.284,0-0.525-0.101-0.724-0.3C8.655,7.961,8.555,7.719,8.555,7.436z M11.614,5.785
		c0.314,0.399,0.506,0.852,0.578,1.358h0.311C12.434,6.6,12.209,6.074,11.829,5.56L11.614,5.785z"/>
</g>
</svg>
