<?xml version="1.0" encoding="utf-8"?>
<!-- Generator: Adobe Illustrator 15.1.0, SVG Export Plug-In . SVG Version: 6.00 Build 0)  -->
<!DOCTYPE svg PUBLIC "-//W3C//DTD SVG 1.1//EN" "http://www.w3.org/Graphics/SVG/1.1/DTD/svg11.dtd">
<svg version="1.1" id="Layer_1" xmlns="http://www.w3.org/2000/svg" xmlns:xlink="http://www.w3.org/1999/xlink" x="0px" y="0px"
	 width="14.172px" height="14.172px" viewBox="0 0 14.172 14.172" enable-background="new 0 0 14.172 14.172" xml:space="preserve">
<g enable-background="new    ">
	<path d="M11.319,8.663l0.503,1.049c0.245,0.505,0.368,0.994,0.368,1.467v0.808H1v-0.808c0-0.468,0.123-0.957,0.369-1.467
		l0.503-1.049H11.319z M11.089,9.009H2.073L1.629,9.968c-0.188,0.408-0.282,0.737-0.282,0.987v0.683h10.495v-0.263
		c0-0.474-0.107-0.947-0.324-1.421L11.089,9.009z M11.319,1.498v6.817H1.872V1.498H11.319z M10.971,1.845H2.219v6.123h8.752V1.845z
		 M2.566,6.543V3.269c0-0.482,0.059-0.782,0.178-0.9c0.118-0.118,0.423-0.177,0.915-0.177h5.872c0.491,0,0.798,0.059,0.915,0.177
		c0.119,0.118,0.178,0.418,0.178,0.9v3.274c0,0.477-0.061,0.774-0.182,0.893c-0.12,0.118-0.424,0.178-0.911,0.178H3.659
		c-0.487,0-0.791-0.06-0.912-0.178C2.626,7.318,2.566,7.021,2.566,6.543z M2.616,9.449h0.872v0.348H4.38V9.449h0.857v0.348h0.886
		V9.449h0.865v0.348h0.885V9.449h0.865v0.348h0.879V9.449h0.871v0.348H9.625v0.361h0.864v0.333H9.618v-0.333H8.739v0.333H7.874
		v-0.333H6.981v0.333H6.124v-0.333H5.238v0.333H4.38v-0.333H3.487v0.333H2.616v-0.348H3.48V9.796H2.616V9.449z M2.914,3.271v3.265
		c0,0.327,0.041,0.53,0.124,0.61c0.083,0.081,0.29,0.121,0.621,0.121H9.51c0.34,0,0.553-0.039,0.639-0.117
		c0.085-0.078,0.127-0.275,0.127-0.593v-3.3c0-0.316-0.043-0.516-0.131-0.597c-0.088-0.08-0.3-0.12-0.635-0.12H3.659
		c-0.331,0-0.538,0.039-0.621,0.117S2.914,2.94,2.914,3.271z M4.366,10.143h0.872V9.81H4.366V10.143z M6.124,10.143h0.865V9.81
		H6.124V10.143z M7.874,10.143h0.865V9.81H7.874V10.143z"/>
</g>
</svg>
