<?xml version="1.0" encoding="utf-8"?>
<!-- Generator: Adobe Illustrator 15.1.0, SVG Export Plug-In . SVG Version: 6.00 Build 0)  -->
<!DOCTYPE svg PUBLIC "-//W3C//DTD SVG 1.1//EN" "http://www.w3.org/Graphics/SVG/1.1/DTD/svg11.dtd">
<svg version="1.1" id="Layer_1" xmlns="http://www.w3.org/2000/svg" xmlns:xlink="http://www.w3.org/1999/xlink" x="0px" y="0px"
	 width="14.172px" height="14.172px" viewBox="0 0 14.172 14.172" enable-background="new 0 0 14.172 14.172" xml:space="preserve">
<g enable-background="new    ">
	<path d="M13.172,6.986L11.896,8.1L8.434,4.14c-0.502-0.574-0.93-0.88-1.283-0.919C6.795,3.182,6.383,3.277,5.91,3.505
		C5.439,3.733,4.971,4.05,4.507,4.456c-0.453,0.395-0.808,0.798-1.069,1.21C3.178,6.078,3.06,6.47,3.085,6.842
		c0.026,0.371,0.351,0.912,0.972,1.623l3.214,3.678l-1.179,1.029L2.699,9.288C2.071,8.57,1.761,7.95,1.771,7.43
		c0.013-0.523,0.192-1.087,0.54-1.69C2.66,5.136,3.215,4.502,3.969,3.843c0.702-0.614,1.404-1.109,2.105-1.484
		c0.699-0.376,1.317-0.546,1.853-0.51c0.535,0.034,1.098,0.39,1.69,1.068L13.172,6.986z"/>
</g>
</svg>
