<?xml version="1.0" encoding="utf-8"?>
<!-- Generator: Adobe Illustrator 15.1.0, SVG Export Plug-In . SVG Version: 6.00 Build 0)  -->
<!DOCTYPE svg PUBLIC "-//W3C//DTD SVG 1.1//EN" "http://www.w3.org/Graphics/SVG/1.1/DTD/svg11.dtd">
<svg version="1.1" id="Layer_1" xmlns="http://www.w3.org/2000/svg" xmlns:xlink="http://www.w3.org/1999/xlink" x="0px" y="0px"
	 width="14.172px" height="14.172px" viewBox="0 0 14.172 14.172" enable-background="new 0 0 14.172 14.172" xml:space="preserve">
<g enable-background="new    ">
	<path d="M4.648,9.595h2.06l-2.575,2.574L1.559,9.595h2.06V5.992c0-1.141,0.402-2.113,1.207-2.915
		C5.631,2.274,6.6,1.873,7.737,1.873s2.105,0.402,2.911,1.207c0.806,0.805,1.208,1.775,1.208,2.912v3.604h-1.029V5.992
		c0-0.854-0.302-1.582-0.904-2.186C9.319,3.204,8.59,2.902,7.737,2.902S6.155,3.204,5.552,3.806C4.949,4.41,4.648,5.137,4.648,5.992
		V9.595z"/>
</g>
</svg>
