<?xml version="1.0" encoding="utf-8"?>
<!-- Generator: Adobe Illustrator 15.1.0, SVG Export Plug-In . SVG Version: 6.00 Build 0)  -->
<!DOCTYPE svg PUBLIC "-//W3C//DTD SVG 1.1//EN" "http://www.w3.org/Graphics/SVG/1.1/DTD/svg11.dtd">
<svg version="1.1" id="Layer_1" xmlns="http://www.w3.org/2000/svg" xmlns:xlink="http://www.w3.org/1999/xlink" x="0px" y="0px"
	 width="14.172px" height="14.172px" viewBox="0 0 14.172 14.172" enable-background="new 0 0 14.172 14.172" xml:space="preserve">
<g enable-background="new    ">
	<path d="M4.422,12.106H2.587V1.086H6.5c1.483,0,2.538,0.12,3.155,0.36c0.615,0.24,1.078,0.591,1.391,1.05
		c0.308,0.459,0.46,0.997,0.46,1.61c0,1.033-0.446,1.899-1.341,2.6c-0.896,0.7-2.232,1.05-4.009,1.05H4.422V12.106z M4.422,6.656
		h1.224c1.623,0,2.688-0.245,3.197-0.734c0.513-0.49,0.766-1.075,0.766-1.754c0-0.594-0.204-1.07-0.615-1.431
		C8.58,2.376,7.761,2.196,6.538,2.196H4.422V6.656z"/>
</g>
</svg>
