<?xml version="1.0" encoding="utf-8"?>
<!-- Generator: Adobe Illustrator 15.1.0, SVG Export Plug-In . SVG Version: 6.00 Build 0)  -->
<!DOCTYPE svg PUBLIC "-//W3C//DTD SVG 1.1//EN" "http://www.w3.org/Graphics/SVG/1.1/DTD/svg11.dtd">
<svg version="1.1" id="Layer_1" xmlns="http://www.w3.org/2000/svg" xmlns:xlink="http://www.w3.org/1999/xlink" x="0px" y="0px"
	 width="14.172px" height="14.172px" viewBox="0 0 14.172 14.172" enable-background="new 0 0 14.172 14.172" xml:space="preserve">
<g enable-background="new    ">
	<path d="M2.517,6.5c0-1.292,0.455-2.393,1.366-3.303c0.911-0.911,2.012-1.366,3.303-1.366c1.292,0,2.393,0.456,3.303,1.366
		C11.4,4.108,11.856,5.209,11.856,6.5S11.4,8.893,10.489,9.803c-0.91,0.911-2.011,1.366-3.303,1.366
		c-1.291,0-2.392-0.455-3.303-1.366C2.972,8.893,2.517,7.792,2.517,6.5z M3.148,6.5c0,1.119,0.394,2.072,1.181,2.861
		c0.787,0.789,1.738,1.183,2.854,1.183s2.069-0.394,2.856-1.183c0.789-0.789,1.186-1.742,1.186-2.861s-0.395-2.074-1.184-2.865
		S8.299,2.449,7.183,2.449S5.115,2.844,4.329,3.635C3.542,4.426,3.148,5.381,3.148,6.5z M5.975,6.418
		C6.158,6.157,6.366,5.962,6.6,5.834c0.232-0.128,0.49-0.192,0.773-0.192c0.508,0,0.924,0.175,1.248,0.524
		C8.943,6.516,9.105,6.963,9.105,7.51c0,0.59-0.185,1.084-0.552,1.486C8.186,9.397,7.734,9.6,7.195,9.6
		c-0.685,0-1.199-0.248-1.543-0.744C5.308,8.358,5.136,7.612,5.136,6.621c0-1.001,0.207-1.778,0.623-2.332
		c0.415-0.553,0.996-0.83,1.742-0.83c0.48,0,0.905,0.086,1.277,0.259v1.06H8.31L8.297,4.621C8.276,4.295,8.215,4.086,8.113,3.993
		C8.01,3.897,7.799,3.851,7.475,3.851c-0.498,0-0.873,0.213-1.124,0.641C6.101,4.917,5.975,5.561,5.975,6.418z M5.994,7.257
		c0,0.589,0.12,1.062,0.359,1.413c0.239,0.354,0.555,0.53,0.946,0.53c0.341,0,0.598-0.134,0.768-0.397s0.257-0.662,0.257-1.191
		c0-0.519-0.089-0.904-0.267-1.161C7.879,6.193,7.614,6.065,7.26,6.065c-0.387,0-0.694,0.108-0.923,0.325
		C6.108,6.606,5.994,6.895,5.994,7.257z"/>
</g>
</svg>
