<?xml version="1.0" encoding="utf-8"?>
<!-- Generator: Adobe Illustrator 15.1.0, SVG Export Plug-In . SVG Version: 6.00 Build 0)  -->
<!DOCTYPE svg PUBLIC "-//W3C//DTD SVG 1.1//EN" "http://www.w3.org/Graphics/SVG/1.1/DTD/svg11.dtd">
<svg version="1.1" id="Layer_1" xmlns="http://www.w3.org/2000/svg" xmlns:xlink="http://www.w3.org/1999/xlink" x="0px" y="0px"
	 width="14.172px" height="14.172px" viewBox="0 0 14.172 14.172" enable-background="new 0 0 14.172 14.172" xml:space="preserve">
<path d="M2,6.161c0-0.176,0.257-0.345,0.771-0.509c0.451-0.144,0.796-0.215,1.032-0.215c0.257,0,0.385,0.067,0.385,0.2
	c0,0.114-0.103,0.268-0.307,0.462c0.811-0.79,1.463-1.186,1.956-1.186c0.083,0,0.123,0.025,0.123,0.077
	c0,0.236-0.591,0.704-1.771,1.402C5.368,7.09,5.959,7.558,5.959,7.793c0,0.052-0.04,0.076-0.123,0.076
	c-0.236,0-0.585-0.154-1.047-0.461C4.45,7.182,4.146,6.941,3.88,6.686c0.205,0.193,0.307,0.348,0.307,0.461
	c0,0.123-0.128,0.186-0.385,0.186c-0.247,0-0.585-0.068-1.017-0.201C2.262,6.966,2,6.798,2,6.622c0-0.154,0.34-0.23,1.017-0.23
	C2.34,6.392,2,6.314,2,6.161z M7.7,1c0.174,0,0.344,0.257,0.508,0.771c0.144,0.452,0.216,0.796,0.216,1.031
	c0,0.247-0.067,0.37-0.2,0.37c-0.112,0-0.267-0.097-0.462-0.293C8.028,3.147,8.28,3.45,8.516,3.788
	C8.803,4.23,8.947,4.579,8.947,4.835c0,0.083-0.025,0.124-0.076,0.124c-0.237,0-0.703-0.596-1.402-1.787
	C6.77,4.363,6.304,4.959,6.066,4.959c-0.051,0-0.076-0.041-0.076-0.124c0-0.256,0.149-0.605,0.446-1.047
	C6.673,3.45,6.919,3.147,7.176,2.879C6.98,3.075,6.828,3.172,6.715,3.172c-0.134,0-0.201-0.123-0.201-0.37
	c0-0.235,0.071-0.58,0.216-1.031C6.894,1.257,7.063,1,7.237,1c0.154,0,0.232,0.339,0.232,1.017C7.469,1.339,7.546,1,7.7,1z
	 M7.237,11.936c-0.164,0-0.333-0.26-0.507-0.784c-0.145-0.452-0.216-0.796-0.216-1.032c0-0.246,0.066-0.369,0.201-0.369
	c0.113,0,0.266,0.098,0.461,0.292C6.385,9.251,5.99,8.604,5.99,8.102c0-0.082,0.025-0.124,0.076-0.124
	c0.237,0,0.704,0.592,1.403,1.772c0.699-1.181,1.165-1.772,1.402-1.772c0.051,0,0.076,0.042,0.076,0.124
	c0,0.503-0.395,1.149-1.186,1.94C7.957,9.848,8.111,9.75,8.224,9.75c0.133,0,0.2,0.123,0.2,0.369c0,0.236-0.072,0.58-0.216,1.032
	c-0.164,0.524-0.334,0.784-0.508,0.784c-0.154,0-0.231-0.343-0.231-1.031C7.469,11.593,7.392,11.936,7.237,11.936z M12.938,6.622
	c0,0.176-0.261,0.344-0.779,0.509c-0.419,0.133-0.756,0.201-1.011,0.201s-0.383-0.062-0.383-0.186c0-0.113,0.099-0.268,0.294-0.461
	c-0.268,0.256-0.57,0.496-0.909,0.723C9.687,7.715,9.339,7.869,9.102,7.869c-0.081,0-0.123-0.024-0.123-0.076
	c0-0.235,0.596-0.703,1.786-1.401c-1.19-0.698-1.786-1.166-1.786-1.402c0-0.051,0.042-0.077,0.123-0.077
	c0.492,0,1.146,0.396,1.957,1.186c-0.195-0.194-0.294-0.348-0.294-0.462c0-0.133,0.128-0.2,0.383-0.2
	c0.244,0,0.587,0.072,1.025,0.215c0.51,0.165,0.765,0.333,0.765,0.509c0,0.153-0.339,0.23-1.017,0.23
	C12.599,6.392,12.938,6.468,12.938,6.622z"/>
</svg>
