<?xml version="1.0" encoding="utf-8"?>
<!-- Generator: Adobe Illustrator 15.1.0, SVG Export Plug-In . SVG Version: 6.00 Build 0)  -->
<!DOCTYPE svg PUBLIC "-//W3C//DTD SVG 1.1//EN" "http://www.w3.org/Graphics/SVG/1.1/DTD/svg11.dtd">
<svg version="1.1" id="Layer_1" xmlns="http://www.w3.org/2000/svg" xmlns:xlink="http://www.w3.org/1999/xlink" x="0px" y="0px"
	 width="14.172px" height="14.172px" viewBox="0 0 14.172 14.172" enable-background="new 0 0 14.172 14.172" xml:space="preserve">
<g enable-background="new    ">
	<path d="M9.056,12.467c-1.114-0.157-2.064-0.572-2.852-1.245l-1.553-0.166l-1.987-0.838C3,9.513,3.476,9.162,4.092,9.162
		c0.133,0,0.278,0.021,0.435,0.064C4.684,9.271,4.849,9.338,5.024,9.43c0.35-0.106,0.64-0.187,0.87-0.241
		c0.055-0.295,0.083-0.522,0.083-0.683C5.59,8.221,5.277,7.942,5.038,7.67C4.757,7.833,4.442,7.984,4.092,8.126
		C4.009,9.042,3.519,9.5,2.622,9.5V7.458l1.602-1.49L2.911,4.856C2.304,4.351,2,3.9,2,3.504c0-0.28,0.138-0.567,0.414-0.862
		l2.265,1.649l-0.221-0.49c-0.193-0.427-0.29-0.809-0.29-1.145c0-0.459,0.267-0.809,0.801-1.048l1.526,2.704l0.062-0.49
		c0.106-0.909,0.518-1.365,1.236-1.365c0.046,0,0.126,0.005,0.241,0.013C7.993,2.788,7.972,3.167,7.972,3.608
		c0,1.072,0.085,2.256,0.255,3.553l3.287,4.323c-0.492,0.909-1.082,1.472-1.768,1.688L9.056,12.467z M6.916,6.333l-4.432-3.2
		C2.405,3.266,2.366,3.39,2.366,3.504c0,0.331,0.329,0.766,0.987,1.304l1.312,1.07L6.916,6.333z M9.173,12.1l0.655,0.726
		c0.549-0.345,0.97-0.793,1.264-1.342l-3.555-4.64L4.506,6.167L2.959,7.595v1.538c0.525-0.12,0.787-0.456,0.787-1.007
		c0-0.073-0.002-0.156-0.007-0.249C4.251,7.712,4.697,7.497,5.079,7.23c0.341,0.367,0.76,0.749,1.257,1.146
		c0,0.327-0.064,0.698-0.193,1.117C5.94,9.528,5.749,9.572,5.569,9.622C5.298,9.702,5.091,9.758,4.948,9.79
		C4.81,9.693,4.671,9.621,4.53,9.572C4.39,9.524,4.249,9.5,4.106,9.5c-0.368,0-0.677,0.187-0.925,0.561l1.574,0.664l1.553,0.145
		C7.137,11.607,8.092,12.017,9.173,12.1z M7.075,6.05L4.837,2.091C4.617,2.238,4.506,2.431,4.506,2.67
		c0,0.299,0.133,0.736,0.4,1.311l0.338,0.725L7.075,6.05z M7.786,6.574C7.67,5.687,7.614,4.708,7.614,3.635
		c0-0.215,0.011-0.498,0.033-0.848c-0.29,0.078-0.492,0.23-0.607,0.456S6.868,3.831,6.868,4.333c0,0.143,0.014,0.375,0.041,0.696
		L7.786,6.574z"/>
</g>
</svg>
