<?xml version="1.0" encoding="utf-8"?>
<!-- Generator: Adobe Illustrator 15.1.0, SVG Export Plug-In . SVG Version: 6.00 Build 0)  -->
<!DOCTYPE svg PUBLIC "-//W3C//DTD SVG 1.1//EN" "http://www.w3.org/Graphics/SVG/1.1/DTD/svg11.dtd">
<svg version="1.1" id="Layer_1" xmlns="http://www.w3.org/2000/svg" xmlns:xlink="http://www.w3.org/1999/xlink" x="0px" y="0px"
	 width="14.172px" height="14.172px" viewBox="0 0 14.172 14.172" enable-background="new 0 0 14.172 14.172" xml:space="preserve">
<g enable-background="new    ">
	<path d="M2.077,1.314l0.464-0.231h4.03c2,0,3.192,0.01,3.573,0.032c0.382,0.021,0.677,0.084,0.883,0.187
		c0.274,0.146,0.511,0.34,0.708,0.58l0.283,0.361v4.391v4.378l-0.283,0.36c-0.197,0.249-0.434,0.442-0.708,0.579
		c-0.206,0.104-0.501,0.166-0.883,0.187c-0.381,0.022-1.564,0.033-3.547,0.033c-2.181,0-3.483-0.024-3.908-0.071
		c-0.425-0.047-0.779-0.208-1.062-0.482c-0.009,0-0.021-0.009-0.039-0.026c-0.274-0.258-0.436-0.57-0.482-0.939
		c-0.048-0.369-0.08-1.52-0.097-3.451c0-0.104,0-0.185,0-0.246C0.991,4.396,1,2.989,1.034,2.731
		c0.043-0.292,0.159-0.567,0.348-0.825C1.571,1.649,1.802,1.451,2.077,1.314z M8.657,3.117c0-0.343-0.023-0.515-0.07-0.515
		s-0.26,0.107-0.638,0.322C7.691,3.07,7.519,3.153,7.435,3.175c-0.086,0.021-0.19,0.002-0.311-0.059
		C6.953,3.022,6.721,2.975,6.43,2.975c-0.352,0-0.667,0.096-0.947,0.29C5.204,3.458,4.998,3.694,4.865,3.974
		C4.731,4.252,4.682,4.56,4.717,4.894c0.034,0.335,0.168,0.64,0.399,0.915C5.21,5.928,5.265,6.023,5.277,6.091
		C5.29,6.161,5.275,6.29,5.232,6.478C5.163,6.744,5.159,6.984,5.219,7.199c0.051,0.137,0.068,0.233,0.051,0.289
		C5.253,7.545,5.185,7.615,5.065,7.701c-0.327,0.24-0.509,0.571-0.548,0.991C4.479,9.114,4.601,9.474,4.885,9.774
		c0.231,0.241,0.48,0.415,0.747,0.521c0.266,0.108,0.588,0.161,0.965,0.161c0.42,0,0.8-0.083,1.14-0.251
		c0.339-0.168,0.593-0.375,0.76-0.625c0.167-0.248,0.241-0.527,0.225-0.837s-0.15-0.597-0.399-0.862
		C8.16,7.709,7.984,7.576,7.795,7.482c-0.19-0.094-0.46-0.176-0.812-0.244c-0.292-0.061-0.466-0.11-0.521-0.149
		C6.406,7.05,6.378,6.954,6.378,6.8c0-0.137,0.015-0.223,0.045-0.258c0.03-0.035,0.092-0.051,0.187-0.051
		c0.31,0,0.604-0.111,0.888-0.335c0.284-0.223,0.494-0.498,0.632-0.824c0.138-0.326,0.158-0.631,0.063-0.914
		C8.15,4.271,8.131,4.17,8.135,4.115c0.005-0.056,0.041-0.11,0.11-0.162c0.188-0.129,0.304-0.238,0.347-0.328
		C8.635,3.536,8.657,3.366,8.657,3.117z M6.133,8.281C6.434,8.16,6.741,8.162,7.054,8.287s0.471,0.312,0.471,0.561
		c0,0.224-0.12,0.396-0.354,0.515c-0.236,0.12-0.499,0.155-0.786,0.103C6.097,9.414,5.889,9.285,5.76,9.079
		c-0.069-0.104-0.104-0.18-0.104-0.231S5.691,8.718,5.76,8.615C5.863,8.453,5.987,8.34,6.133,8.281z M5.992,4.044
		c0.086-0.068,0.236-0.105,0.451-0.109c0.214-0.004,0.386,0.023,0.515,0.083c0.111,0.06,0.207,0.189,0.283,0.386
		C7.317,4.603,7.335,4.77,7.292,4.906C7.231,5.182,7.084,5.368,6.848,5.467s-0.47,0.094-0.702-0.013
		C5.915,5.346,5.764,5.16,5.696,4.894C5.661,4.756,5.674,4.603,5.734,4.431C5.794,4.259,5.88,4.13,5.992,4.044z"/>
</g>
</svg>
