<?xml version="1.0" encoding="utf-8"?>
<!-- Generator: Adobe Illustrator 15.1.0, SVG Export Plug-In . SVG Version: 6.00 Build 0)  -->
<!DOCTYPE svg PUBLIC "-//W3C//DTD SVG 1.1//EN" "http://www.w3.org/Graphics/SVG/1.1/DTD/svg11.dtd">
<svg version="1.1" id="Layer_1" xmlns="http://www.w3.org/2000/svg" xmlns:xlink="http://www.w3.org/1999/xlink" x="0px" y="0px"
	 width="14.172px" height="14.172px" viewBox="0 0 14.172 14.172" enable-background="new 0 0 14.172 14.172" xml:space="preserve">
<g enable-background="new    ">
	<path d="M4.183,12.075v-1.036c0.548-0.273,0.921-0.624,1.118-1.049c0.196-0.426,0.361-0.984,0.493-1.676l0.17-0.908H4.697V6.464
		h1.464l0.292-1.456c0.138-0.708,0.304-1.23,0.501-1.567c0.195-0.339,0.452-0.604,0.765-0.798c0.314-0.194,0.689-0.291,1.123-0.291
		c0.184,0,0.369,0.017,0.554,0.051c0.187,0.034,0.442,0.138,0.774,0.308v0.968C9.708,3.492,9.307,3.397,8.971,3.397
		c-0.274,0-0.498,0.06-0.672,0.176C8.124,3.69,7.987,3.877,7.883,4.138C7.78,4.397,7.667,4.831,7.541,5.436L7.327,6.464h1.995v0.942
		H7.139L6.975,8.22c-0.08,0.382-0.183,0.77-0.312,1.161C6.534,9.772,6.4,10.078,6.264,10.297c-0.137,0.221-0.363,0.468-0.676,0.741
		h4.583v1.036H4.183z"/>
</g>
</svg>
