<?xml version="1.0" encoding="utf-8"?>
<!-- Generator: Adobe Illustrator 15.1.0, SVG Export Plug-In . SVG Version: 6.00 Build 0)  -->
<!DOCTYPE svg PUBLIC "-//W3C//DTD SVG 1.1//EN" "http://www.w3.org/Graphics/SVG/1.1/DTD/svg11.dtd">
<svg version="1.1" id="Layer_1" xmlns="http://www.w3.org/2000/svg" xmlns:xlink="http://www.w3.org/1999/xlink" x="0px" y="0px"
	 width="14.172px" height="14.172px" viewBox="0 0 14.172 14.172" enable-background="new 0 0 14.172 14.172" xml:space="preserve">
<g enable-background="new    ">
	<path d="M4.373,6.54V1.754h5.072v1.082H5.464v2.666h0.295c1.02,0,1.809,0.125,2.367,0.375c0.557,0.25,0.982,0.604,1.274,1.06
		s0.437,1.008,0.437,1.659c0,0.858-0.265,1.624-0.795,2.299c-0.531,0.674-1.346,1.01-2.442,1.01c-0.864,0-1.559-0.189-2.084-0.571
		c-0.524-0.381-0.787-0.843-0.787-1.388V9.884h1.18v0.062c0,0.287,0.151,0.521,0.452,0.703c0.301,0.183,0.708,0.272,1.22,0.272
		c0.692,0,1.202-0.222,1.533-0.667C8.444,9.811,8.61,9.309,8.61,8.748c0-0.626-0.22-1.151-0.66-1.573
		C7.508,6.75,6.617,6.54,5.276,6.54H4.373z"/>
</g>
</svg>
