<?xml version="1.0" encoding="utf-8"?>
<!-- Generator: Adobe Illustrator 15.1.0, SVG Export Plug-In . SVG Version: 6.00 Build 0)  -->
<!DOCTYPE svg PUBLIC "-//W3C//DTD SVG 1.1//EN" "http://www.w3.org/Graphics/SVG/1.1/DTD/svg11.dtd">
<svg version="1.1" id="Layer_1" xmlns="http://www.w3.org/2000/svg" xmlns:xlink="http://www.w3.org/1999/xlink" x="0px" y="0px"
	 width="14.172px" height="14.172px" viewBox="0 0 14.172 14.172" enable-background="new 0 0 14.172 14.172" xml:space="preserve">
<g enable-background="new    ">
	<path d="M4.043,9.83C3.931,9.815,3.823,9.768,3.72,9.681C3.617,9.596,3.492,9.448,3.344,9.237C3.111,8.899,2.928,8.5,2.794,8.046
		c-0.135-0.455-0.202-0.91-0.202-1.367c0-0.645,0.125-1.258,0.373-1.84c0.249-0.582,0.615-1.11,1.099-1.585
		c0.465-0.461,0.994-0.812,1.585-1.054c0.59-0.243,1.217-0.364,1.88-0.364c0.658,0,1.285,0.123,1.882,0.37
		c0.596,0.246,1.129,0.6,1.598,1.061c0.476,0.47,0.838,1,1.092,1.588c0.253,0.588,0.38,1.206,0.38,1.85
		c0,0.672-0.125,1.306-0.373,1.9c-0.249,0.597-0.608,1.127-1.084,1.592c-0.472,0.467-1.008,0.82-1.61,1.064
		c-0.602,0.244-1.238,0.366-1.91,0.366c-0.828,0-1.493-0.146-1.992-0.44c-0.5-0.293-0.749-0.682-0.749-1.164
		c0-0.135,0.027-0.263,0.081-0.383C4.897,9.52,4.979,9.399,5.09,9.278C5.019,9.194,4.965,9.1,4.929,8.997
		C4.894,8.893,4.876,8.782,4.876,8.661c0-0.479,0.165-1.138,0.494-1.975C5.699,5.849,6.135,5.03,6.676,4.233
		c0.287-0.425,0.547-0.715,0.779-0.87c0.233-0.154,0.521-0.231,0.86-0.231H8.45c0.143,0,0.239,0.023,0.291,0.07
		C8.792,3.25,8.819,3.34,8.819,3.475c0,0.287-0.047,0.561-0.143,0.823C8.584,4.561,8.456,4.771,8.295,4.933
		c-0.233,0.041-0.41,0.095-0.53,0.165c-0.121,0.07-0.231,0.176-0.33,0.319C7.17,5.784,6.948,6.187,6.766,6.625
		C6.585,7.063,6.494,7.375,6.494,7.56c0,0.099,0.018,0.187,0.054,0.266C6.584,7.903,6.64,7.975,6.715,8.043L6.77,8.177
		C6.667,8.571,6.495,8.914,6.256,9.205c-0.24,0.291-0.444,0.437-0.615,0.437C5.587,9.637,5.534,9.623,5.48,9.597
		c-0.054-0.024-0.11-0.062-0.168-0.11C5.258,9.559,5.22,9.63,5.198,9.702c-0.022,0.07-0.033,0.152-0.033,0.242
		c0,0.375,0.208,0.678,0.625,0.906c0.417,0.228,0.979,0.342,1.686,0.342c0.618,0,1.205-0.112,1.76-0.338
		c0.556-0.228,1.046-0.556,1.472-0.984c0.438-0.43,0.769-0.915,0.989-1.454c0.222-0.54,0.334-1.127,0.334-1.763
		c0-0.569-0.116-1.122-0.35-1.659c-0.234-0.537-0.563-1.016-0.988-1.438c-0.431-0.417-0.914-0.733-1.451-0.951
		c-0.536-0.218-1.104-0.326-1.7-0.326c-0.604,0-1.175,0.11-1.712,0.329c-0.537,0.219-1.021,0.54-1.451,0.96
		c-0.43,0.435-0.76,0.93-0.991,1.488C3.156,5.614,3.042,6.203,3.042,6.819c0,0.516,0.095,1.008,0.285,1.479
		c0.19,0.47,0.48,0.937,0.87,1.396l0.027,0.067l-0.027,0.04C4.161,9.811,4.11,9.821,4.043,9.83z M7.032,8.264
		C7.233,8.399,7.37,8.507,7.438,8.59s0.104,0.171,0.104,0.266c0,0.215-0.119,0.471-0.355,0.766
		c-0.237,0.295-0.443,0.443-0.618,0.443c-0.067,0-0.147-0.021-0.242-0.061C6.232,9.963,6.109,9.897,5.957,9.802
		C6.23,9.61,6.455,9.385,6.631,9.127C6.809,8.87,6.942,8.583,7.032,8.264z M9.108,3.288c0.219,0.058,0.385,0.151,0.497,0.279
		c0.11,0.128,0.168,0.286,0.168,0.474c0,0.295-0.076,0.562-0.228,0.799c-0.15,0.237-0.312,0.355-0.492,0.355
		c-0.059,0-0.129-0.011-0.215-0.034c-0.086-0.022-0.188-0.055-0.309-0.1C8.706,4.873,8.84,4.631,8.935,4.338
		C9.032,4.044,9.088,3.694,9.108,3.288z"/>
</g>
</svg>
