<?xml version="1.0" encoding="utf-8"?>
<!-- Generator: Adobe Illustrator 15.1.0, SVG Export Plug-In . SVG Version: 6.00 Build 0)  -->
<!DOCTYPE svg PUBLIC "-//W3C//DTD SVG 1.1//EN" "http://www.w3.org/Graphics/SVG/1.1/DTD/svg11.dtd">
<svg version="1.1" id="Layer_1" xmlns="http://www.w3.org/2000/svg" xmlns:xlink="http://www.w3.org/1999/xlink" x="0px" y="0px"
	 width="14.172px" height="14.172px" viewBox="0 0 14.172 14.172" enable-background="new 0 0 14.172 14.172" xml:space="preserve">
<path d="M11.896,6.71h-0.824c-0.054,0.944-0.434,1.793-1.142,2.551c-0.734,0.789-1.625,1.209-2.673,1.264v0.828H7.185v-0.828
	C6.099,10.484,5.203,10.109,4.498,9.4C3.803,8.703,3.427,7.807,3.37,6.71H2.542V6.639H3.37c0.057-1.092,0.434-1.991,1.131-2.695
	c0.696-0.705,1.592-1.078,2.684-1.12V2h0.072v0.824c1.089,0.054,1.984,0.432,2.685,1.133c0.699,0.701,1.076,1.595,1.13,2.682h0.824
	V6.71z M7.185,5.609V3.191c-1.34,0.057-2.325,0.627-2.955,1.71C3.932,5.415,3.767,5.994,3.737,6.639h2.418
	C6.182,6.23,6.351,5.936,6.661,5.757C6.813,5.667,6.988,5.618,7.185,5.609z M7.185,10.158V7.74C6.552,7.705,6.209,7.361,6.155,6.71
	H3.737c0.057,0.991,0.4,1.803,1.032,2.436C5.4,9.779,6.206,10.117,7.185,10.158z M7.185,6.639V5.905
	C6.734,5.929,6.489,6.173,6.45,6.639H7.185z M7.185,7.445V6.71H6.45C6.489,7.176,6.734,7.421,7.185,7.445z M10.704,6.639
	c-0.042-0.967-0.384-1.773-1.027-2.417c-0.644-0.645-1.45-0.988-2.42-1.03v2.418c0.399,0.036,0.69,0.208,0.873,0.515
	c0.086,0.149,0.139,0.321,0.156,0.515H10.704z M7.991,6.639C7.943,6.2,7.698,5.956,7.257,5.905v0.734H7.991z M10.704,6.71H8.286
	C8.263,6.976,8.152,7.207,7.955,7.402S7.525,7.711,7.257,7.74v2.418C8.197,10.104,9,9.725,9.666,9.016
	C10.316,8.32,10.662,7.552,10.704,6.71z M7.991,6.71H7.257v0.734c0.193-0.021,0.358-0.1,0.494-0.237S7.967,6.905,7.991,6.71z"/>
</svg>
