<?xml version="1.0" encoding="utf-8"?>
<!-- Generator: Adobe Illustrator 15.1.0, SVG Export Plug-In . SVG Version: 6.00 Build 0)  -->
<!DOCTYPE svg PUBLIC "-//W3C//DTD SVG 1.1//EN" "http://www.w3.org/Graphics/SVG/1.1/DTD/svg11.dtd">
<svg version="1.1" id="Layer_1" xmlns="http://www.w3.org/2000/svg" xmlns:xlink="http://www.w3.org/1999/xlink" x="0px" y="0px"
	 width="14.172px" height="14.172px" viewBox="0 0 14.172 14.172" enable-background="new 0 0 14.172 14.172" xml:space="preserve">
<g enable-background="new    ">
	<path d="M1.684,6.958c0-1.407,0.496-2.606,1.488-3.598C4.164,2.369,5.363,1.873,6.77,1.873c1.406,0,2.605,0.496,3.597,1.488
		c0.992,0.992,1.489,2.191,1.489,3.598s-0.497,2.606-1.489,3.598c-0.991,0.992-2.19,1.488-3.597,1.488
		c-1.407,0-2.606-0.496-3.599-1.488C2.179,9.565,1.684,8.366,1.684,6.958z M2.371,6.958c0,1.219,0.428,2.258,1.286,3.117
		c0.856,0.858,1.893,1.288,3.109,1.288c1.216,0,2.254-0.43,3.113-1.288c0.859-0.859,1.289-1.898,1.289-3.117
		c0-1.219-0.43-2.259-1.289-3.121C9.02,2.978,7.982,2.546,6.766,2.546c-1.216,0-2.252,0.431-3.109,1.292
		C2.799,4.699,2.371,5.739,2.371,6.958z M8.076,7.117c-0.196,0.28-0.421,0.489-0.677,0.629S6.861,7.955,6.552,7.955
		c-0.561,0-1.016-0.188-1.367-0.566c-0.35-0.379-0.526-0.865-0.526-1.461c0-0.646,0.199-1.188,0.599-1.625
		c0.399-0.438,0.895-0.657,1.489-0.657c0.748,0,1.309,0.271,1.682,0.815C8.801,5.003,8.99,5.817,8.99,6.903
		c0,1.085-0.228,1.929-0.679,2.531c-0.451,0.6-1.086,0.898-1.907,0.898c-0.52,0-0.982-0.094-1.388-0.281V8.897h0.509l0.014,0.172
		c0.018,0.344,0.087,0.569,0.208,0.677c0.12,0.108,0.356,0.163,0.706,0.163c0.542,0,0.948-0.233,1.217-0.698
		C7.941,8.744,8.076,8.046,8.076,7.117z M8.055,6.195c0-0.639-0.131-1.152-0.391-1.539C7.407,4.271,7.061,4.08,6.629,4.08
		c-0.374,0-0.652,0.144-0.838,0.433c-0.187,0.289-0.28,0.724-0.28,1.306c0,0.56,0.098,0.979,0.293,1.258
		C6,7.355,6.292,7.495,6.678,7.495c0.416,0,0.752-0.12,1-0.356C7.928,6.901,8.055,6.587,8.055,6.195z"/>
</g>
</svg>
