<?xml version="1.0" encoding="utf-8"?>
<!-- Generator: Adobe Illustrator 15.1.0, SVG Export Plug-In . SVG Version: 6.00 Build 0)  -->
<!DOCTYPE svg PUBLIC "-//W3C//DTD SVG 1.1//EN" "http://www.w3.org/Graphics/SVG/1.1/DTD/svg11.dtd">
<svg version="1.1" id="Layer_1" xmlns="http://www.w3.org/2000/svg" xmlns:xlink="http://www.w3.org/1999/xlink" x="0px" y="0px"
	 width="14.172px" height="14.172px" viewBox="0 0 14.172 14.172" enable-background="new 0 0 14.172 14.172" xml:space="preserve">
<g enable-background="new    ">
	<path d="M9.08,8.778C8.592,8.904,8.155,8.966,7.768,8.966c-0.386,0-0.773-0.059-1.159-0.177v1.651h1.828v0.769H6.609v1.753H5.84
		v-1.753H4.025v-0.769H5.84V8.475c-0.664-0.354-1.197-0.837-1.601-1.45c-0.42-0.639-0.63-1.324-0.63-2.054
		c0-1.077,0.424-2.013,1.273-2.812c0.832-0.781,1.793-1.172,2.886-1.172c0.387,0,0.824,0.063,1.312,0.19v0.05
		C8.248,1.235,7.562,1.668,7.025,2.525C6.554,3.273,6.319,4.088,6.319,4.971c0,0.881,0.235,1.701,0.706,2.458
		C7.562,8.285,8.248,8.719,9.08,8.727V8.778z"/>
</g>
</svg>
