<?xml version="1.0" encoding="utf-8"?>
<!-- Generator: Adobe Illustrator 15.1.0, SVG Export Plug-In . SVG Version: 6.00 Build 0)  -->
<!DOCTYPE svg PUBLIC "-//W3C//DTD SVG 1.1//EN" "http://www.w3.org/Graphics/SVG/1.1/DTD/svg11.dtd">
<svg version="1.1" id="Layer_1" xmlns="http://www.w3.org/2000/svg" xmlns:xlink="http://www.w3.org/1999/xlink" x="0px" y="0px"
	 width="14.172px" height="14.172px" viewBox="0 0 14.172 14.172" enable-background="new 0 0 14.172 14.172" xml:space="preserve">
<g enable-background="new    ">
	<path d="M1.827,3.046c-0.103,0.267-0.18,0.485-0.232,0.657L1.146,3.42V3.046H1.827z M8.413,5.375H8.284v0.218H7.975v0.682H7.087
		V5.593H2.804v0.682h-0.9V5.593H1.595V5.375H1.467V4.95h0.128V4.153c0-0.386,0.292-1.184,0.875-2.393
		c0.669-0.121,1.492-0.18,2.47-0.18s1.801,0.06,2.47,0.18c0.583,1.208,0.874,2.006,0.874,2.393V4.95h0.129V5.375z M8.284,5.247
		V5.079H1.595v0.168H8.284z M2.882,4.86V4.243H1.853V4.86H2.882z M7.756,3.407C7.62,2.969,7.417,2.515,7.152,2.044
		C6.637,1.967,5.9,1.927,4.939,1.927s-1.697,0.04-2.212,0.117C2.461,2.515,2.26,2.969,2.123,3.407
		C2.98,3.373,3.919,3.355,4.939,3.355C5.96,3.355,6.899,3.373,7.756,3.407z M6.741,4.488V4.243H3.139v0.245H6.741z M6.741,4.86
		V4.629H3.139V4.86H6.741z M13.172,12.359H5.801l3.691-5.93L13.172,12.359z M8.026,4.86V4.243H6.998V4.86H8.026z M11.885,11.638
		L9.493,7.793L7.1,11.638H11.885z M8.748,3.42L8.284,3.704c-0.052-0.172-0.129-0.39-0.231-0.657h0.695V3.42z"/>
</g>
</svg>
