<?xml version="1.0" encoding="utf-8"?>
<!-- Generator: Adobe Illustrator 15.1.0, SVG Export Plug-In . SVG Version: 6.00 Build 0)  -->
<!DOCTYPE svg PUBLIC "-//W3C//DTD SVG 1.1//EN" "http://www.w3.org/Graphics/SVG/1.1/DTD/svg11.dtd">
<svg version="1.1" id="Layer_1" xmlns="http://www.w3.org/2000/svg" xmlns:xlink="http://www.w3.org/1999/xlink" x="0px" y="0px"
	 width="14.172px" height="14.172px" viewBox="0 0 14.172 14.172" enable-background="new 0 0 14.172 14.172" xml:space="preserve">
<g enable-background="new    ">
	<path d="M7.336,12.169c-1.476,0-2.734-0.521-3.775-1.562C2.521,9.568,2,8.309,2,6.833S2.521,4.1,3.565,3.059
		c1.043-1.041,2.3-1.561,3.771-1.561c1.475,0,2.734,0.521,3.775,1.561c1.041,1.041,1.562,2.299,1.562,3.775
		s-0.521,2.734-1.562,3.774C10.07,11.649,8.811,12.169,7.336,12.169z M7.336,11.816c1.375,0,2.549-0.486,3.522-1.46
		c0.974-0.974,1.461-2.147,1.461-3.522s-0.487-2.549-1.461-3.522c-0.973-0.974-2.146-1.46-3.522-1.46
		c-1.375,0-2.549,0.486-3.522,1.46s-1.46,2.147-1.46,3.522s0.486,2.549,1.46,3.522S5.961,11.816,7.336,11.816z M4.3,9.408
		L3.594,8.174l1.846-1.066L6.153,8.34L4.3,9.408z M7.336,7.901c-0.293,0-0.544-0.105-0.753-0.314s-0.314-0.46-0.314-0.753
		c0-0.293,0.105-0.544,0.314-0.753c0.209-0.209,0.46-0.314,0.753-0.314S7.88,5.871,8.089,6.08c0.209,0.209,0.313,0.46,0.313,0.753
		c0,0.293-0.104,0.544-0.313,0.753S7.629,7.901,7.336,7.901z M6.622,5.052V2.918h1.427v2.134H6.622z M10.372,9.408L8.526,8.34
		l0.707-1.232l1.853,1.066L10.372,9.408z"/>
</g>
</svg>
