<?xml version="1.0" encoding="utf-8"?>
<!-- Generator: Adobe Illustrator 15.1.0, SVG Export Plug-In . SVG Version: 6.00 Build 0)  -->
<!DOCTYPE svg PUBLIC "-//W3C//DTD SVG 1.1//EN" "http://www.w3.org/Graphics/SVG/1.1/DTD/svg11.dtd">
<svg version="1.1" id="Layer_1" xmlns="http://www.w3.org/2000/svg" xmlns:xlink="http://www.w3.org/1999/xlink" x="0px" y="0px"
	 width="14.172px" height="14.172px" viewBox="0 0 14.172 14.172" enable-background="new 0 0 14.172 14.172" xml:space="preserve">
<path d="M4.504,3.541C4.373,3.559,4.189,3.71,3.953,3.997C3.831,4.146,3.715,4.336,3.604,4.566L2.834,2
	C3.479,2.919,4.035,3.433,4.504,3.541z M9.896,6.491c0,0.576-0.144,1.109-0.431,1.601C9.179,8.583,8.787,8.974,8.29,9.265
	S7.258,9.702,6.685,9.702c-0.647,0-1.239-0.182-1.775-0.543c-0.536-0.36-0.932-0.838-1.188-1.432
	C3.557,7.339,3.475,6.927,3.475,6.491c0-0.573,0.144-1.106,0.432-1.601s0.679-0.886,1.173-1.175s1.029-0.435,1.605-0.435
	s1.11,0.143,1.604,0.428C8.78,3.994,9.171,4.384,9.461,4.879C9.75,5.375,9.896,5.912,9.896,6.491z M9.25,6.491
	c0-0.713-0.249-1.319-0.747-1.818C8.004,4.175,7.398,3.926,6.685,3.926c-0.707,0-1.312,0.25-1.813,0.752
	C4.37,5.179,4.119,5.784,4.119,6.491c0,0.46,0.114,0.887,0.343,1.281c0.228,0.394,0.54,0.707,0.936,0.939s0.824,0.35,1.287,0.35
	c0.714,0,1.319-0.252,1.818-0.757C9.001,7.8,9.25,7.196,9.25,6.491z M7.647,10.024l-0.963,1.768l-0.963-1.768
	c0.228,0.115,0.548,0.174,0.963,0.174C7.105,10.198,7.427,10.14,7.647,10.024z M10.535,2l-0.77,2.566
	C9.61,4.231,9.428,3.97,9.219,3.782C9.043,3.621,8.925,3.541,8.865,3.541C9.334,3.433,9.891,2.919,10.535,2z"/>
</svg>
