<?xml version="1.0" encoding="utf-8"?>
<!-- Generator: Adobe Illustrator 15.1.0, SVG Export Plug-In . SVG Version: 6.00 Build 0)  -->
<!DOCTYPE svg PUBLIC "-//W3C//DTD SVG 1.1//EN" "http://www.w3.org/Graphics/SVG/1.1/DTD/svg11.dtd">
<svg version="1.1" id="Layer_1" xmlns="http://www.w3.org/2000/svg" xmlns:xlink="http://www.w3.org/1999/xlink" x="0px" y="0px"
	 width="14.172px" height="14.172px" viewBox="0 0 14.172 14.172" enable-background="new 0 0 14.172 14.172" xml:space="preserve">
<g enable-background="new    ">
	<path d="M10.847,10.333c0,0.388-0.188,0.725-0.568,1.009c-0.351,0.273-0.725,0.411-1.122,0.411c-0.464,0-0.86-0.166-1.187-0.496
		c-0.327-0.333-0.49-0.729-0.49-1.194c0-0.473,0.163-0.874,0.49-1.2c0.326-0.326,0.727-0.489,1.2-0.489
		c0.143,0,0.322,0.032,0.54,0.099v-3.14c0-0.208-0.066-0.451-0.198-0.725c-0.209-0.464-0.569-0.811-1.08-1.037
		C7.987,3.362,7.485,3.258,6.926,3.258c-0.644,0-1.246,0.151-1.804,0.454c-0.664,0.36-0.995,0.839-0.995,1.435v6.606H2.99V5.247
		c0-0.967,0.421-1.733,1.265-2.301c0.729-0.503,1.601-0.753,2.614-0.753c0.947,0,1.814,0.236,2.6,0.709
		c0.919,0.549,1.378,1.264,1.378,2.146V10.333z M9.725,10.063c0-0.368-0.19-0.554-0.568-0.554c-0.379,0-0.568,0.189-0.568,0.568
		c0,0.359,0.194,0.54,0.582,0.54C9.541,10.618,9.725,10.432,9.725,10.063z"/>
</g>
</svg>
