<?xml version="1.0" encoding="utf-8"?>
<!-- Generator: Adobe Illustrator 15.1.0, SVG Export Plug-In . SVG Version: 6.00 Build 0)  -->
<!DOCTYPE svg PUBLIC "-//W3C//DTD SVG 1.1//EN" "http://www.w3.org/Graphics/SVG/1.1/DTD/svg11.dtd">
<svg version="1.1" id="Layer_1" xmlns="http://www.w3.org/2000/svg" xmlns:xlink="http://www.w3.org/1999/xlink" x="0px" y="0px"
	 width="14.172px" height="14.172px" viewBox="0 0 14.172 14.172" enable-background="new 0 0 14.172 14.172" xml:space="preserve">
<g enable-background="new    ">
	<path d="M10.837,3.288L9.795,2.694L8.572,4.827c0.711,0.526,1.066,1.232,1.066,2.122c0,0.678-0.224,1.264-0.672,1.756
		C8.518,9.198,7.961,9.481,7.3,9.553v1.018h1.164v0.57H7.3v1.126H6.73v-1.126H5.566v-0.57H6.73V9.553
		C6.067,9.481,5.512,9.198,5.063,8.705C4.616,8.212,4.391,7.626,4.391,6.949c0-0.89,0.355-1.592,1.066-2.109L4.961,3.967
		L3.955,4.549L3.664,4.04L4.67,3.458L4.234,2.694L3.192,3.288l0.339-2.375l2.23,0.897L4.73,2.403l0.437,0.763l1.006-0.581
		l0.291,0.508L5.458,3.676l0.509,0.873c0.331-0.146,0.678-0.218,1.042-0.218c0.372,0,0.723,0.073,1.054,0.218l1.236-2.146
		L8.269,1.81l2.23-0.897L10.837,3.288z M9.057,6.949c0-0.565-0.198-1.047-0.594-1.442C8.067,5.11,7.583,4.912,7.009,4.912
		c-0.565,0-1.046,0.199-1.442,0.595C5.171,5.902,4.973,6.383,4.973,6.949c0,0.573,0.198,1.058,0.593,1.453
		c0.396,0.396,0.877,0.594,1.442,0.594c0.574,0,1.058-0.197,1.455-0.594C8.859,8.006,9.057,7.521,9.057,6.949z"/>
</g>
</svg>
