<?xml version="1.0" encoding="utf-8"?>
<!-- Generator: Adobe Illustrator 15.1.0, SVG Export Plug-In . SVG Version: 6.00 Build 0)  -->
<!DOCTYPE svg PUBLIC "-//W3C//DTD SVG 1.1//EN" "http://www.w3.org/Graphics/SVG/1.1/DTD/svg11.dtd">
<svg version="1.1" id="Layer_1" xmlns="http://www.w3.org/2000/svg" xmlns:xlink="http://www.w3.org/1999/xlink" x="0px" y="0px"
	 width="14.172px" height="14.172px" viewBox="0 0 14.172 14.172" enable-background="new 0 0 14.172 14.172" xml:space="preserve">
<g enable-background="new    ">
	<path d="M2.715,4.482l0.001-1.527l9.166,0.007l-0.002,3.255c0,1.235-0.102,2.112-0.301,2.625c-0.199,0.512-0.492,0.896-0.875,1.155
		c-0.383,0.258-0.828,0.384-1.34,0.384c-0.859-0.001-1.58-0.373-2.162-1.118c-0.58-0.745-0.87-1.858-0.869-3.335l0.001-1.442
		L2.715,4.482z M7.249,4.486v1.018C7.247,6.854,7.45,7.739,7.858,8.165C8.265,8.589,8.75,8.801,9.316,8.801
		c0.494,0,0.892-0.169,1.19-0.51c0.3-0.344,0.449-1.025,0.449-2.043l0.002-1.76L7.249,4.486z"/>
</g>
</svg>
