<?xml version="1.0" encoding="utf-8"?>
<!-- Generator: Adobe Illustrator 15.1.0, SVG Export Plug-In . SVG Version: 6.00 Build 0)  -->
<!DOCTYPE svg PUBLIC "-//W3C//DTD SVG 1.1//EN" "http://www.w3.org/Graphics/SVG/1.1/DTD/svg11.dtd">
<svg version="1.1" id="Layer_1" xmlns="http://www.w3.org/2000/svg" xmlns:xlink="http://www.w3.org/1999/xlink" x="0px" y="0px"
	 width="14.172px" height="14.172px" viewBox="0 0 14.172 14.172" enable-background="new 0 0 14.172 14.172" xml:space="preserve">
<path d="M12.732,7.519c0,0.11-0.081,0.166-0.246,0.166l-0.499-0.062c0,0.037-0.001,0.065-0.005,0.079L11.977,7.76
	c-0.016,0.102-0.022,0.14-0.022,0.108c0.045,0,0.09,0.036,0.135,0.106c0.044,0.07,0.064,0.13,0.064,0.18
	c0,0.107-0.065,0.16-0.199,0.16c-0.062,0-0.101-0.018-0.115-0.057c-0.256,0.922-0.727,1.641-1.41,2.161
	c-0.614,0.465-1.335,0.728-2.159,0.785c-0.127,0.007-0.217,0.01-0.271,0.01c-0.042-0.003-0.104-0.005-0.188-0.005l-0.115-0.005
	c-0.362-0.008-0.734-0.08-1.117-0.213c-0.279-0.095-0.594-0.27-0.942-0.522c-0.35-0.251-0.648-0.529-0.897-0.836
	c-0.13-0.16-0.286-0.443-0.47-0.849c-0.087-0.197-0.155-0.421-0.2-0.67C3.79,7.896,3.628,7.788,3.587,7.788H3.483
	c-0.076,0-0.232-0.09-0.47-0.27c-0.058,0-0.144,0.017-0.257,0.051C2.641,7.604,2.555,7.622,2.498,7.622
	c-0.08,0-0.12-0.054-0.12-0.161c0-0.049,0.044-0.118,0.129-0.204c0.086-0.085,0.128-0.155,0.128-0.208H2.377
	c-0.21,0-0.315-0.056-0.315-0.167c0-0.072,0.123-0.175,0.366-0.309C2.525,6.52,2.579,6.487,2.59,6.476
	c-0.1-0.054-0.242-0.144-0.43-0.269C2.095,6.153,2.062,6.105,2.062,6.062c0-0.08,0.07-0.12,0.212-0.12
	c0.305,0,0.688,0.142,1.146,0.424c0.16,0.1,0.338,0.189,0.533,0.27c0.145-0.672,0.375-1.255,0.688-1.748
	c0.188-0.293,0.451-0.57,0.791-0.831l0.149-0.166c0.229-0.256,0.386-0.499,0.47-0.728c0.083-0.18,0.144-0.296,0.177-0.35
	c0.069-0.106,0.155-0.2,0.259-0.28c0.091-0.069,0.189-0.111,0.292-0.126c0.064-0.007,0.158-0.021,0.281-0.04
	c-0.004,0,0.044-0.036,0.144-0.109C7.291,2.201,7.346,2.17,7.369,2.166C7.579,2.055,7.754,2,7.896,2
	c0.152,0,0.269,0.105,0.349,0.315c0.047,0.111,0.105,0.167,0.178,0.167c0.035,0,0.086-0.01,0.155-0.029
	C8.646,2.434,8.7,2.424,8.739,2.424c0.072,0,0.108,0.037,0.108,0.109c0,0.122-0.162,0.235-0.487,0.338
	C8.238,2.913,8.173,2.94,8.165,2.951L8.212,3.06c0,0.027-0.035,0.061-0.104,0.103c0.394,0,0.831,0.083,1.312,0.247
	c0.173,0.057,0.375,0.158,0.607,0.304c0.413,0.252,0.793,0.59,1.142,1.014c0.255,0.31,0.502,0.767,0.738,1.37
	c-0.037,0-0.014-0.006,0.075-0.017c0.088-0.011,0.146-0.018,0.171-0.018c0.142,0,0.213,0.031,0.213,0.092
	c0,0.073-0.015,0.125-0.046,0.155c-0.03,0.114-0.152,0.24-0.366,0.378c0.022,0.069,0.033,0.205,0.033,0.407
	c0.13,0,0.279,0.038,0.447,0.115C12.634,7.301,12.732,7.404,12.732,7.519z M9.948,5.415C9.554,5.064,9.17,4.888,8.795,4.888H8.469
	c0,0.069-0.029,0.214-0.091,0.436C8.236,5.526,8.129,5.627,8.057,5.627c0,0.13,0.054,0.053,0.16-0.232
	c0.107-0.284,0.161-0.468,0.161-0.553c0-0.149-0.06-0.353-0.178-0.613C8.097,4,8.046,3.835,8.046,3.736V3.41
	c0-0.233-0.065-0.439-0.195-0.619h0.034c0.038,0,0.096,0.09,0.172,0.27c0.034,0,0.052-0.021,0.052-0.063L8.057,2.951
	c0-0.031,0.108-0.084,0.326-0.161C8.62,2.71,8.739,2.644,8.739,2.59c0-0.038-0.021-0.057-0.058-0.057
	c-0.023,0-0.06,0.009-0.108,0.028C8.523,2.581,8.488,2.59,8.469,2.59c-0.126,0-0.244-0.107-0.354-0.32
	C8.057,2.154,7.999,2.098,7.941,2.098c-0.134,0-0.286,0.038-0.458,0.114c-0.076,0.072-0.2,0.163-0.373,0.27
	c-0.381,0.065-0.645,0.206-0.79,0.424c-0.065,0.187-0.209,0.445-0.43,0.774C5.791,3.805,5.646,4,5.455,4.264
	C5.328,4.455,5.266,4.609,5.266,4.728c0,0.172,0.138,0.472,0.413,0.899l0.022,0.058C5.693,5.681,5.62,5.608,5.479,5.467
	C5.371,5.486,5.251,5.568,5.117,5.713C5.109,5.721,5.002,5.849,4.796,6.097C4.59,6.258,4.347,6.455,4.068,6.688
	c0.103,0.031,0.155,0.062,0.155,0.092c0,0.038-0.042,0.057-0.122,0.057c-0.05,0-0.246-0.091-0.59-0.275
	c-0.217-0.118-0.435-0.235-0.653-0.35c-0.21-0.099-0.405-0.149-0.584-0.149h-0.11c0,0.016,0.18,0.161,0.539,0.436
	c0.065,0.046,0.098,0.109,0.098,0.189L2.635,6.521c-0.026,0-0.111,0.056-0.255,0.166C2.237,6.798,2.165,6.863,2.165,6.882
	c0,0.042,0.071,0.063,0.212,0.063h0.257C2.647,6.957,2.67,6.974,2.704,6.997l0.093,0.052C2.869,7.091,2.905,7.121,2.905,7.14v0.075
	L2.681,7.094c0,0.046-0.042,0.118-0.129,0.215C2.466,7.407,2.424,7.458,2.424,7.461c0,0.038,0.025,0.057,0.074,0.057H2.59
	c-0.05,0-0.018-0.01,0.098-0.028c0.114-0.02,0.186-0.029,0.217-0.029c0-0.031-0.019-0.06-0.057-0.086
	c0.022,0,0.119,0.052,0.286,0.155c0.168,0.103,0.264,0.155,0.287,0.155c0-0.043-0.016-0.077-0.046-0.109h0.046
	c0.065,0,0.2,0.079,0.406,0.235C4.034,7.967,4.145,8.045,4.16,8.045c0.111,0,0.167-0.031,0.167-0.091
	c0-0.007-0.034-0.079-0.103-0.212c0-0.148,0.034-0.224,0.103-0.224C4.287,7.557,4.269,7.592,4.269,7.622
	c0.202-0.046,0.433-0.146,0.688-0.298c0.256-0.153,0.486-0.229,0.688-0.229c0.038,0,0.065,0.016,0.08,0.046L5.536,7.215
	c0,0.203,0.055,0.359,0.165,0.47L9.948,5.415z M5.536,7.742c-0.039-0.11-0.057-0.271-0.057-0.481c-0.046,0-0.129,0.02-0.247,0.06
	C5.113,7.36,5.053,7.396,5.053,7.427c0,0.062,0.018,0.17,0.053,0.327c0.015,0.057,0.03,0.123,0.045,0.2L5.536,7.742z M6.63,9.055
	C6.553,8.981,6.435,8.877,6.274,8.739l-0.55,0.257C5.823,9.104,5.968,9.264,6.16,9.479C6.274,9.391,6.431,9.249,6.63,9.055z
	 M10.797,7.954h-0.579c-0.05,0-0.14,0.015-0.27,0.045C9.817,8.03,9.717,8.045,9.645,8.045c-0.261,0-0.391-0.07-0.391-0.211
	c0-0.072,0.052-0.176,0.155-0.31l0.115-0.149L9.318,7.14L6.366,8.693c0.607,0.443,1.348,0.705,2.223,0.785
	C8.556,9.502,8.5,9.513,8.423,9.513c-0.26,0-0.663-0.083-1.215-0.253C6.979,9.188,6.813,9.123,6.709,9.066
	c0,0.096-0.081,0.178-0.246,0.245L6.354,9.398C6.321,9.424,6.286,9.463,6.252,9.513c0.244,0.202,0.591,0.368,1.042,0.499
	c0.203,0.057,0.372,0.085,0.505,0.085h0.366c0.73,0,1.408-0.353,2.035-1.06C10.494,8.709,10.692,8.347,10.797,7.954z M6.791,2.905
	C6.76,2.955,6.689,3.041,6.578,3.163H6.521c0-0.111,0.075-0.197,0.224-0.258H6.791z M6.791,3.479c-0.017,0-0.024-0.02-0.026-0.058
	C6.762,3.383,6.756,3.364,6.744,3.364V3.53c0,0.069-0.038,0.103-0.114,0.103c-0.026,0-0.063-0.051-0.109-0.154
	c0-0.137,0.06-0.206,0.178-0.206c0.062,0,0.093,0.03,0.093,0.091V3.479z M6.944,4.997c0,0.172-0.051,0.258-0.153,0.258
	c-0.107,0-0.161-0.086-0.161-0.258c0-0.134,0.054-0.201,0.161-0.201C6.894,4.796,6.944,4.863,6.944,4.997z M7.037,4.269
	c0,0.1-0.027,0.149-0.08,0.149c-0.081,0-0.155-0.034-0.224-0.104V4.269h0.058l0.108,0.046c0.037,0,0.084-0.037,0.138-0.109V4.269z
	 M7.483,3.576c-0.03,0-0.045-0.033-0.045-0.098c0,0.172-0.04,0.258-0.122,0.258c-0.076,0-0.113-0.035-0.113-0.104
	c0-0.179,0.055-0.269,0.166-0.269c0.069,0,0.103,0.055,0.103,0.166L7.483,3.576z M7.587,3.221c-0.039,0-0.131-0.075-0.281-0.224
	c0-0.03,0.021-0.045,0.063-0.045c0.034,0,0.075,0.027,0.123,0.08c0.049,0.054,0.072,0.097,0.072,0.132L7.587,3.221z M10.218,5.323
	c-0.555-0.561-1.167-0.897-1.84-1.008c0.062,0.298,0.091,0.474,0.091,0.527c0.333,0,0.594,0.034,0.785,0.103
	C9.361,4.983,9.507,5.039,9.69,5.111c0.022,0.023,0.058,0.056,0.103,0.098l0.126,0.103L9.994,5.37
	C10.104,5.37,10.179,5.354,10.218,5.323z M12.579,7.461c0-0.015-0.031-0.044-0.093-0.086c-0.03-0.026-0.055-0.049-0.074-0.069
	c-0.054,0-0.175-0.035-0.361-0.105s-0.313-0.106-0.378-0.106h-0.092c0.03,0.031,0.045,0.086,0.045,0.167l-0.051-0.029
	c-0.026-0.019-0.04-0.065-0.04-0.138c0-0.137,0.148-0.331,0.447-0.579c0.152-0.13,0.229-0.214,0.229-0.252
	c0-0.038-0.033-0.057-0.103-0.057c-0.143,0-0.386,0.087-0.733,0.263s-0.581,0.264-0.7,0.264V6.688
	c0.058-0.015,0.133-0.056,0.224-0.121l-0.377,0.069l-0.219,0.012L9.42,7.094c0.039,0,0.113,0.056,0.225,0.167
	c0.025,0,0.072-0.04,0.137-0.121c0,0.073-0.067,0.188-0.203,0.344c-0.136,0.156-0.203,0.272-0.203,0.35c0,0.08,0.066,0.12,0.2,0.12
	c0.123,0,0.315-0.037,0.579-0.11c0.248-0.066,0.407-0.102,0.476-0.102c-0.072,0.015-0.177,0.046-0.315,0.092l0.046,0.045h0.115
	c0.072,0,0.168-0.015,0.288-0.045c0.121-0.031,0.2-0.046,0.239-0.046c0.175,0,0.278,0.015,0.309,0.046
	c0.233,0.244,0.433,0.367,0.596,0.367c0.054,0,0.08-0.029,0.08-0.087c0-0.05-0.069-0.143-0.211-0.28l-0.15-0.149h-0.045V7.622
	c0.062-0.069,0.17-0.104,0.326-0.104l0.459,0.057C12.508,7.576,12.579,7.538,12.579,7.461z M10.675,6.521
	c0-0.031-0.015-0.046-0.045-0.046L10.429,6.59C10.482,6.575,10.565,6.552,10.675,6.521z"/>
</svg>
