<?xml version="1.0" encoding="utf-8"?>
<!-- Generator: Adobe Illustrator 15.1.0, SVG Export Plug-In . SVG Version: 6.00 Build 0)  -->
<!DOCTYPE svg PUBLIC "-//W3C//DTD SVG 1.1//EN" "http://www.w3.org/Graphics/SVG/1.1/DTD/svg11.dtd">
<svg version="1.1" id="Layer_1" xmlns="http://www.w3.org/2000/svg" xmlns:xlink="http://www.w3.org/1999/xlink" x="0px" y="0px"
	 width="14.172px" height="14.172px" viewBox="0 0 14.172 14.172" enable-background="new 0 0 14.172 14.172" xml:space="preserve">
<g>
	<path d="M0.922,0.563h12.687V13.25H0.922V0.563z M13.45,13.094V0.72L1.078,13.094H13.45z M8.823,8.488
		c0.434-0.438,0.957-0.657,1.574-0.657c0.615,0,1.141,0.22,1.574,0.657c0.432,0.439,0.648,0.967,0.648,1.582
		c0,0.617-0.217,1.142-0.648,1.574c-0.434,0.434-0.959,0.65-1.574,0.65c-0.617,0-1.141-0.217-1.574-0.65
		c-0.434-0.433-0.65-0.957-0.65-1.574C8.173,9.455,8.39,8.928,8.823,8.488z"/>
</g>
</svg>
