<?xml version="1.0" encoding="utf-8"?>
<!-- Generator: Adobe Illustrator 15.1.0, SVG Export Plug-In . SVG Version: 6.00 Build 0)  -->
<!DOCTYPE svg PUBLIC "-//W3C//DTD SVG 1.1//EN" "http://www.w3.org/Graphics/SVG/1.1/DTD/svg11.dtd">
<svg version="1.1" id="Layer_1" xmlns="http://www.w3.org/2000/svg" xmlns:xlink="http://www.w3.org/1999/xlink" x="0px" y="0px"
	 width="14.172px" height="14.172px" viewBox="0 0 14.172 14.172" enable-background="new 0 0 14.172 14.172" xml:space="preserve">
<g enable-background="new    ">
	<path d="M2.184,7.25c0-1.314,0.463-2.436,1.391-3.362c0.927-0.927,2.048-1.391,3.362-1.391c1.315,0,2.435,0.463,3.362,1.391
		c0.926,0.927,1.391,2.048,1.391,3.362c0,1.314-0.465,2.436-1.393,3.361c-0.926,0.927-2.047,1.392-3.361,1.392
		c-1.314,0-2.436-0.464-3.362-1.392C2.647,9.686,2.184,8.565,2.184,7.25z M2.819,7.253c0,1.138,0.401,2.108,1.203,2.911
		c0.803,0.802,1.773,1.203,2.911,1.203c1.138,0,2.108-0.401,2.913-1.203c0.806-0.803,1.207-1.771,1.207-2.911
		c0-1.139-0.401-2.109-1.207-2.914C9.043,3.537,8.071,3.133,6.933,3.133c-1.138,0-2.108,0.403-2.91,1.206
		C3.22,5.146,2.819,6.115,2.819,7.253z M5.479,10.27V9.132h0.475l0.013,0.174c0,0.278,0.048,0.464,0.144,0.56
		c0.096,0.093,0.287,0.141,0.573,0.141c0.4,0,0.699-0.125,0.898-0.373s0.297-0.619,0.297-1.111c0-0.547-0.17-0.931-0.51-1.148
		C7.03,7.154,6.431,7.044,5.575,7.044V4.302h3.02v0.835H5.986v1.458h0.212c0.844,0,1.477,0.162,1.895,0.485
		c0.422,0.324,0.631,0.811,0.631,1.461c0,0.587-0.194,1.044-0.582,1.371c-0.389,0.328-0.928,0.49-1.622,0.49
		C6.198,10.403,5.851,10.358,5.479,10.27z"/>
</g>
</svg>
