<?xml version="1.0" encoding="utf-8"?>
<!-- Generator: Adobe Illustrator 15.1.0, SVG Export Plug-In . SVG Version: 6.00 Build 0)  -->
<!DOCTYPE svg PUBLIC "-//W3C//DTD SVG 1.1//EN" "http://www.w3.org/Graphics/SVG/1.1/DTD/svg11.dtd">
<svg version="1.1" id="Layer_1" xmlns="http://www.w3.org/2000/svg" xmlns:xlink="http://www.w3.org/1999/xlink" x="0px" y="0px"
	 width="14.172px" height="14.172px" viewBox="0 0 14.172 14.172" enable-background="new 0 0 14.172 14.172" xml:space="preserve">
<g enable-background="new    ">
	<path d="M3.795,9.551c0-0.75,0.486-1.421,1.459-2.01c0.527-0.32,0.791-0.742,0.791-1.265V5.051h2.25v1.125
		c0,0.434-0.119,0.849-0.359,1.245S7.381,8.104,6.997,8.278C6.361,8.566,6.045,8.991,6.045,9.55c0,0.315,0.109,0.583,0.326,0.8
		s0.483,0.326,0.799,0.326s0.584-0.108,0.801-0.325s0.324-0.483,0.324-0.8V8.883h2.25v0.668c0,0.715-0.402,1.286-1.207,1.717
		c-0.665,0.354-1.388,0.533-2.168,0.533c-0.785,0-1.51-0.179-2.174-0.533C4.195,10.842,3.795,10.269,3.795,9.551z M6.045,2.801
		c0-0.316,0.109-0.583,0.326-0.801C6.588,1.783,6.854,1.676,7.17,1.676S7.754,1.783,7.971,2c0.217,0.218,0.324,0.482,0.324,0.801
		c0,0.316-0.107,0.583-0.324,0.8S7.486,3.926,7.17,3.926c-0.315,0-0.582-0.108-0.799-0.325S6.045,3.117,6.045,2.801z"/>
</g>
</svg>
