<?xml version="1.0" encoding="utf-8"?>
<!-- Generator: Adobe Illustrator 15.1.0, SVG Export Plug-In . SVG Version: 6.00 Build 0)  -->
<!DOCTYPE svg PUBLIC "-//W3C//DTD SVG 1.1//EN" "http://www.w3.org/Graphics/SVG/1.1/DTD/svg11.dtd">
<svg version="1.1" id="Layer_1" xmlns="http://www.w3.org/2000/svg" xmlns:xlink="http://www.w3.org/1999/xlink" x="0px" y="0px"
	 width="14.172px" height="14.172px" viewBox="0 0 14.172 14.172" enable-background="new 0 0 14.172 14.172" xml:space="preserve">
<g enable-background="new    ">
	<path d="M12.715,4.408c0,0.583-0.26,1.013-0.78,1.291c-0.168,0.09-0.652,0.246-1.451,0.467C9.967,6.31,9.709,6.506,9.709,6.757
		c0,0.339,0.179,0.51,0.535,0.51c0.241,0,0.362-0.14,0.362-0.417c0.164,0,0.246,0.133,0.246,0.399c0,0.189-0.099,0.332-0.295,0.43
		c-0.16,0.082-0.343,0.123-0.548,0.123c-0.217,0-0.395-0.05-0.534-0.147c-0.09,0.68-0.586,1.157-1.487,1.432v0.221h0.146V9.46h0.289
		C8.482,9.491,8.51,9.536,8.51,9.596c0,0.07-0.027,0.136-0.086,0.198H8.148v0.142H7.989v0.234c0,0.308,0.026,0.552,0.08,0.737
		c0.143,0,0.266,0.013,0.368,0.036c0.16,0.04,0.24,0.113,0.24,0.221c0.327-0.005,0.491,0.178,0.491,0.547
		c0,0.041-0.127,0.082-0.381,0.123c-0.492,0.082-0.969,0.123-1.432,0.123c-0.447,0-0.908-0.039-1.383-0.117
		c-0.266-0.045-0.399-0.088-0.399-0.129c0-0.37,0.164-0.552,0.492-0.547c-0.004-0.107,0.075-0.181,0.24-0.222
		c0.102-0.024,0.227-0.037,0.375-0.037c0.049-0.176,0.073-0.409,0.073-0.7V9.935H6.593V9.793H6.323
		C6.261,9.728,6.229,9.663,6.229,9.596c0-0.061,0.031-0.105,0.093-0.135h0.283V9.307h0.147V9.086
		C5.851,8.816,5.356,8.338,5.271,7.655C5.131,7.752,4.952,7.802,4.73,7.802c-0.209,0-0.391-0.041-0.546-0.123
		c-0.193-0.099-0.289-0.241-0.289-0.43c0-0.266,0.08-0.399,0.24-0.399C4.129,7.127,4.251,7.267,4.497,7.267
		c0.361,0,0.542-0.17,0.542-0.51c0-0.25-0.26-0.447-0.781-0.59C3.458,5.945,2.974,5.79,2.807,5.7
		C2.286,5.421,2.026,4.991,2.026,4.409c0-0.385,0.133-0.688,0.399-0.909C2.619,3.34,2.929,3.199,3.36,3.076
		c0.074-0.065,0.135-0.161,0.185-0.288h0.307c0.028,0.266,0.283,0.397,0.763,0.393l0.012-0.148c0.324-0.307,1.238-0.46,2.742-0.46
		s2.42,0.153,2.748,0.46l0.012,0.148h0.123c0.397,0,0.61-0.131,0.64-0.393h0.307c0.046,0.127,0.106,0.223,0.185,0.288
		C11.81,3.199,12.119,3.34,12.312,3.5C12.581,3.72,12.715,4.023,12.715,4.408z M3.089,5.582C2.601,5.348,2.357,4.953,2.357,4.396
		c0-0.344,0.146-0.652,0.437-0.923C2.593,3.519,2.433,3.637,2.314,3.831C2.212,4.007,2.16,4.204,2.16,4.421
		c0,0.254,0.095,0.492,0.283,0.713C2.616,5.335,2.831,5.485,3.089,5.582z M5.185,5.878C5.12,5.137,5.019,4.474,4.884,3.892
		L4.601,4.408L4.38,4.292l0.006-0.129c0.021-0.446-0.228-0.67-0.744-0.67c-0.503,0-0.757,0.228-0.757,0.682
		c0,0.34,0.148,0.617,0.443,0.83c0.172,0.123,0.49,0.269,0.952,0.436C4.724,5.605,5.025,5.751,5.185,5.878z M7.177,8.583
		C6.795,8.467,6.503,8.161,6.298,7.661C6.133,7.259,6.051,6.824,6.051,6.357L6.046,3.542c0-0.07-0.045-0.115-0.135-0.135
		C5.619,3.346,5.314,3.288,4.995,3.234C5.229,3.578,5.382,3.95,5.456,4.347c0.058,0.284,0.086,0.687,0.086,1.211
		c0,0.894,0.069,1.543,0.208,1.948C5.989,8.2,6.464,8.557,7.177,8.583z M9.562,3.02C9.529,2.961,9.187,2.9,8.536,2.834
		C7.978,2.782,7.59,2.755,7.374,2.755c-0.475,0-1.041,0.049-1.697,0.147C5.55,2.918,5.389,2.952,5.197,3.001
		C5.189,3.005,5.183,3.012,5.178,3.021c0,0.045,0.193,0.092,0.578,0.141c0.566,0.07,1.103,0.105,1.61,0.105
		c0.295,0,0.685-0.019,1.169-0.056C9.191,3.157,9.534,3.093,9.562,3.02z M8.892,11.453H8.756c-0.155,0-0.389,0.006-0.7,0.016
		c-0.312,0.012-0.545,0.016-0.701,0.016c-0.168,0-0.418-0.004-0.754-0.016c-0.334-0.01-0.582-0.016-0.746-0.016
		c0.434,0.106,0.934,0.16,1.5,0.16C7.942,11.613,8.454,11.559,8.892,11.453z M7.22,8.348c-0.57-0.295-0.854-1.13-0.854-2.507
		c0-0.283,0.012-0.671,0.039-1.164c0.026-0.494,0.04-0.884,0.04-1.166L6.107,3.462c0.073,0.287,0.11,0.562,0.11,0.824
		c0,0.118-0.005,0.294-0.016,0.529c-0.01,0.234-0.015,0.41-0.015,0.528C6.187,7.252,6.531,8.254,7.22,8.348z M9.752,3.234
		C9.728,3.239,9.502,3.29,9.077,3.389C8.991,3.409,8.948,3.46,8.948,3.542c0,0.312-0.003,0.78-0.007,1.408S8.935,6.046,8.935,6.357
		c0,1.202-0.457,1.942-1.371,2.225C8.273,8.557,8.749,8.2,8.991,7.506C9.129,7.1,9.2,6.451,9.2,5.558
		c0-0.521,0.026-0.924,0.079-1.211C9.361,3.95,9.519,3.578,9.752,3.234z M11.855,4.176c0-0.456-0.25-0.682-0.75-0.682
		c-0.541,0-0.789,0.267-0.744,0.799L10.14,4.408L9.856,3.892c-0.139,0.582-0.238,1.245-0.3,1.986
		c0.155-0.127,0.454-0.273,0.897-0.437c0.467-0.168,0.784-0.314,0.952-0.437C11.706,4.792,11.855,4.515,11.855,4.176z M11.971,3.745
		c0.054,0.172,0.08,0.342,0.08,0.51c0,0.357-0.24,0.703-0.72,1.039c0.217,0,0.427-0.1,0.634-0.298s0.312-0.409,0.312-0.63
		C12.279,4.051,12.176,3.843,11.971,3.745z"/>
</g>
</svg>
