<?xml version="1.0" encoding="utf-8"?>
<!-- Generator: Adobe Illustrator 15.1.0, SVG Export Plug-In . SVG Version: 6.00 Build 0)  -->
<!DOCTYPE svg PUBLIC "-//W3C//DTD SVG 1.1//EN" "http://www.w3.org/Graphics/SVG/1.1/DTD/svg11.dtd">
<svg version="1.1" id="Layer_1" xmlns="http://www.w3.org/2000/svg" xmlns:xlink="http://www.w3.org/1999/xlink" x="0px" y="0px"
	 width="14.172px" height="14.172px" viewBox="0 0 14.172 14.172" enable-background="new 0 0 14.172 14.172" xml:space="preserve">
<g enable-background="new    ">
	<path d="M1.824,6.295c0.16-0.075,0.522-0.124,1.087-0.148c0.565-0.023,1.907-0.036,4.026-0.036c2.778,0,4.369,0.038,4.774,0.114
		c0.283,0.047,0.515,0.169,0.692,0.367c0.009,0.01,0.033,0.033,0.07,0.071c0.246,0.263,0.4,0.531,0.467,0.805s0.099,0.8,0.099,1.582
		c0,0.678-0.014,1.121-0.041,1.328c-0.03,0.208-0.095,0.415-0.199,0.621c-0.16,0.302-0.371,0.561-0.636,0.777l-0.396,0.311
		l-4.732,0.029l-4.718,0.042l-0.466-0.283c-0.301-0.179-0.537-0.395-0.707-0.649c-0.132-0.188-0.21-0.379-0.233-0.572
		C0.89,10.46,0.877,9.931,0.877,9.064V7.298l0.296-0.423C1.372,6.602,1.588,6.408,1.824,6.295z M4.833,7.313
		c0-0.133-0.041-0.207-0.12-0.227C4.633,7.069,4.36,7.059,3.894,7.059s-0.739,0.01-0.819,0.027c-0.08,0.02-0.12,0.094-0.12,0.227
		c0,0.104,0.021,0.172,0.064,0.205C3.06,7.551,3.143,7.567,3.265,7.567h0.311v1.611v1.61h0.311h0.325v-1.61V7.567h0.311
		c0.123,0,0.205-0.016,0.247-0.049S4.833,7.417,4.833,7.313z M3.477,1.054c0-0.018,0.118-0.027,0.354-0.027
		c0.17,0,0.28,0.035,0.332,0.106c0.052,0.07,0.134,0.299,0.247,0.685c0.141,0.508,0.24,0.749,0.296,0.72
		c0.047-0.046,0.123-0.301,0.227-0.762c0.075-0.339,0.136-0.542,0.184-0.608c0.047-0.065,0.15-0.104,0.311-0.113
		c0.198-0.018,0.306,0.014,0.325,0.099c0.009,0.104-0.109,0.514-0.353,1.229c-0.151,0.442-0.25,0.786-0.297,1.031
		c-0.047,0.245-0.07,0.546-0.07,0.905v0.861H4.678H4.31V4.375c0-0.339-0.026-0.638-0.077-0.896C4.181,3.218,4.065,2.83,3.887,2.312
		C3.614,1.493,3.477,1.074,3.477,1.054z M5.652,9.163V8.09H5.398H5.13l0.028,1.328l0.028,1.327l0.297,0.028
		c0.198,0.02,0.348-0.019,0.452-0.113c0.075-0.047,0.125-0.07,0.148-0.07c0.023,0,0.044,0.023,0.063,0.07
		c0.037,0.085,0.136,0.128,0.296,0.128h0.255V9.446V8.09H6.443c-0.131,0-0.21,0.045-0.233,0.133
		c-0.023,0.09-0.036,0.389-0.036,0.898c0,0.451-0.009,0.744-0.028,0.875c-0.019,0.132-0.071,0.222-0.155,0.269
		c-0.132,0.065-0.221,0.078-0.269,0.036C5.676,10.258,5.652,9.879,5.652,9.163z M6.316,2.171c0.283-0.113,0.551-0.125,0.805-0.036
		C7.376,2.225,7.545,2.387,7.63,2.623C7.696,2.82,7.729,3.171,7.729,3.676c0,0.503-0.038,0.858-0.113,1.065
		C7.55,4.958,7.404,5.107,7.178,5.186C6.952,5.267,6.707,5.264,6.443,5.179c-0.245-0.084-0.4-0.188-0.466-0.31
		C5.902,4.747,5.865,4.348,5.865,3.676c0-0.674,0.037-1.076,0.112-1.208C6.053,2.335,6.166,2.236,6.316,2.171z M6.995,2.708
		C6.9,2.623,6.813,2.586,6.733,2.595C6.653,2.604,6.594,2.656,6.557,2.75C6.509,2.863,6.486,3.171,6.486,3.676
		c0,0.503,0.021,0.812,0.064,0.924c0.042,0.114,0.113,0.167,0.211,0.163C6.86,4.759,6.938,4.694,6.995,4.572
		C7.07,4.431,7.107,4.103,7.107,3.59C7.107,3.077,7.07,2.784,6.995,2.708z M7.63,7.624c0-0.272-0.012-0.436-0.035-0.487
		C7.571,7.084,7.498,7.059,7.376,7.059H7.107v1.85v1.865h0.65c0.433,0,0.694-0.035,0.784-0.106c0.089-0.07,0.134-0.482,0.134-1.235
		c0-0.537-0.012-0.867-0.035-0.989C8.617,8.32,8.543,8.216,8.421,8.131C8.251,8.028,8.096,8.014,7.956,8.09
		C7.794,8.174,7.701,8.196,7.672,8.154C7.644,8.111,7.63,7.934,7.63,7.624z M7.757,8.5c0.198-0.122,0.315-0.009,0.354,0.339
		c0.019,0.16,0.023,0.377,0.014,0.649c-0.01,0.378-0.026,0.61-0.049,0.699c-0.024,0.09-0.083,0.135-0.177,0.135
		c-0.095,0-0.156-0.047-0.184-0.142c-0.028-0.094-0.048-0.339-0.057-0.734C7.63,8.872,7.664,8.556,7.757,8.5z M8.153,3.47V2.171
		h0.312h0.31v1.2c0,0.49,0.01,0.817,0.029,0.981C8.822,4.518,8.864,4.61,8.929,4.628c0.095,0.029,0.173,0.036,0.233,0.021
		c0.062-0.014,0.108-0.077,0.142-0.19C9.336,4.346,9.361,4.2,9.375,4.021c0.014-0.179,0.021-0.419,0.021-0.721v-1.13H9.72h0.312
		l-0.028,1.483C9.985,4.388,9.964,4.819,9.94,4.947c-0.024,0.126-0.097,0.2-0.22,0.218c-0.169,0.029-0.278,0-0.324-0.085
		C9.348,4.997,9.254,4.992,9.114,5.067c-0.171,0.094-0.34,0.132-0.509,0.112c-0.17-0.018-0.288-0.084-0.354-0.198
		C8.186,4.851,8.153,4.346,8.153,3.47z M10.329,8.174c-0.16-0.131-0.344-0.191-0.551-0.176C9.571,8.012,9.392,8.095,9.24,8.246
		C9.127,8.358,9.057,8.479,9.029,8.605C9,8.733,8.987,9.01,8.987,9.439S9,10.146,9.029,10.272c0.028,0.128,0.099,0.252,0.211,0.375
		c0.207,0.207,0.451,0.28,0.729,0.219c0.276-0.062,0.468-0.233,0.571-0.516c0.065-0.188,0.079-0.318,0.042-0.389
		c-0.038-0.071-0.142-0.105-0.311-0.105c-0.094,0-0.16,0.019-0.197,0.057c-0.038,0.038-0.058,0.107-0.058,0.211
		s-0.014,0.173-0.041,0.205c-0.029,0.033-0.09,0.04-0.185,0.021c-0.104-0.009-0.17-0.04-0.197-0.092S9.551,10.09,9.551,9.913V9.488
		l0.564-0.027l0.565-0.028L10.61,8.895C10.574,8.528,10.479,8.288,10.329,8.174z M9.622,8.542c0.085-0.095,0.173-0.113,0.262-0.057
		c0.09,0.057,0.134,0.155,0.134,0.297c0,0.094-0.017,0.157-0.048,0.19c-0.035,0.032-0.102,0.05-0.205,0.05
		c-0.143,0-0.229-0.055-0.262-0.164C9.468,8.751,9.509,8.645,9.622,8.542z"/>
</g>
</svg>
