<?xml version="1.0" encoding="utf-8"?>
<!-- Generator: Adobe Illustrator 15.1.0, SVG Export Plug-In . SVG Version: 6.00 Build 0)  -->
<!DOCTYPE svg PUBLIC "-//W3C//DTD SVG 1.1//EN" "http://www.w3.org/Graphics/SVG/1.1/DTD/svg11.dtd">
<svg version="1.1" id="Layer_1" xmlns="http://www.w3.org/2000/svg" xmlns:xlink="http://www.w3.org/1999/xlink" x="0px" y="0px"
	 width="14.172px" height="14.172px" viewBox="0 0 14.172 14.172" enable-background="new 0 0 14.172 14.172" xml:space="preserve">
<g enable-background="new    ">
	<path d="M4.811,12.961h-1.52V1.336h3.597c0.884,0,1.548,0.127,1.994,0.379c0.443,0.252,0.795,0.624,1.055,1.107
		c0.261,0.485,0.392,1.009,0.392,1.572c0,0.449-0.088,0.884-0.264,1.301C9.887,6.118,9.639,6.496,9.323,6.833
		C9.008,7.17,8.518,7.469,7.858,7.729c0.247,0.142,0.433,0.274,0.559,0.402c0.125,0.126,0.28,0.328,0.461,0.605
		c0.18,0.277,0.334,0.54,0.467,0.785l1.847,3.439H9.461L7.858,9.901C7.464,9.165,6.959,8.518,6.34,7.961h-1.53V12.961z M4.811,6.801
		h1.476c0.621,0,1.092-0.096,1.414-0.286c0.323-0.19,0.58-0.469,0.771-0.838c0.188-0.369,0.281-0.761,0.281-1.176
		c0-0.366-0.07-0.693-0.223-0.982C8.377,3.231,8.157,2.99,7.868,2.798c-0.285-0.194-0.78-0.291-1.476-0.291H4.811V6.801z"/>
</g>
</svg>
