<?xml version="1.0" encoding="utf-8"?>
<!-- Generator: Adobe Illustrator 15.1.0, SVG Export Plug-In . SVG Version: 6.00 Build 0)  -->
<!DOCTYPE svg PUBLIC "-//W3C//DTD SVG 1.1//EN" "http://www.w3.org/Graphics/SVG/1.1/DTD/svg11.dtd">
<svg version="1.1" id="Layer_1" xmlns="http://www.w3.org/2000/svg" xmlns:xlink="http://www.w3.org/1999/xlink" x="0px" y="0px"
	 width="14.172px" height="14.172px" viewBox="0 0 14.172 14.172" enable-background="new 0 0 14.172 14.172" xml:space="preserve">
<g>
	<path d="M12.265,0.641c0.232,0,0.434,0.083,0.604,0.248c0.17,0.166,0.254,0.366,0.254,0.603v10.413
		c0,0.151-0.039,0.292-0.117,0.422c-0.076,0.131-0.182,0.235-0.314,0.312s-0.273,0.116-0.426,0.116H1.896
		c-0.233,0-0.434-0.083-0.603-0.248c-0.169-0.165-0.254-0.366-0.254-0.603V1.491c0-0.24,0.083-0.442,0.251-0.605
		c0.167-0.163,0.369-0.245,0.606-0.245H12.265z M12.847,11.776V1.614c0-0.118-0.031-0.229-0.096-0.333
		c-0.062-0.104-0.148-0.188-0.256-0.254c-0.107-0.065-0.221-0.098-0.34-0.098H2.018c-0.114,0-0.223,0.031-0.327,0.095
		C1.587,1.086,1.503,1.172,1.44,1.28C1.376,1.389,1.345,1.5,1.345,1.614v10.163c0,0.118,0.03,0.23,0.092,0.336
		c0.061,0.106,0.143,0.189,0.245,0.251s0.214,0.092,0.336,0.092h10.137c0.184,0,0.346-0.065,0.484-0.195
		C12.776,12.129,12.847,11.968,12.847,11.776z M2.41,2.018h9.373v9.373H2.41V2.018z M11.177,10.803V2.617h-8.18v8.186H11.177z
		 M10.601,9.023l-0.359,0.36L8.833,7.982H8.46C8.411,8.37,8.274,8.727,8.05,9.051S7.54,9.629,7.191,9.812s-0.723,0.274-1.123,0.274
		c-0.445,0-0.85-0.106-1.214-0.321C4.489,9.553,4.198,9.262,3.982,8.895S3.658,8.123,3.658,7.684c0-0.307,0.054-0.598,0.162-0.875
		s0.263-0.527,0.465-0.75c0.202-0.222,0.433-0.401,0.691-0.535c0.259-0.135,0.54-0.218,0.841-0.251V3.382h1.187v1.193H6.332v0.851
		h2.042v0.514H6.332v1.529h2.716L10.601,9.023z M6.068,9.5c0.293,0,0.568-0.067,0.823-0.201c0.255-0.135,0.468-0.318,0.64-0.551
		C7.702,8.516,7.812,8.26,7.86,7.982H5.817v-2.08C5.516,5.947,5.25,6.052,5.019,6.218c-0.23,0.165-0.414,0.375-0.551,0.63
		S4.264,7.381,4.264,7.684c0,0.497,0.176,0.924,0.529,1.281C5.146,9.322,5.571,9.5,6.068,9.5z"/>
</g>
</svg>
