<?xml version="1.0" encoding="utf-8"?>
<!-- Generator: Adobe Illustrator 15.1.0, SVG Export Plug-In . SVG Version: 6.00 Build 0)  -->
<!DOCTYPE svg PUBLIC "-//W3C//DTD SVG 1.1//EN" "http://www.w3.org/Graphics/SVG/1.1/DTD/svg11.dtd">
<svg version="1.1" id="Layer_1" xmlns="http://www.w3.org/2000/svg" xmlns:xlink="http://www.w3.org/1999/xlink" x="0px" y="0px"
	 width="14.172px" height="14.172px" viewBox="0 0 14.172 14.172" enable-background="new 0 0 14.172 14.172" xml:space="preserve">
<g enable-background="new    ">
	<path d="M2.309,7.61c0-1.32,0.465-2.446,1.396-3.377c0.931-0.931,2.057-1.396,3.377-1.396c1.32,0,2.444,0.465,3.375,1.396
		c0.932,0.931,1.397,2.057,1.397,3.377c0,1.319-0.466,2.446-1.396,3.377c-0.933,0.931-2.057,1.396-3.377,1.396
		c-1.32,0-2.446-0.466-3.376-1.396C2.775,10.056,2.309,8.93,2.309,7.61z M2.954,7.61c0,1.144,0.402,2.119,1.207,2.926
		c0.804,0.806,1.777,1.209,2.917,1.209c1.143,0,2.115-0.403,2.922-1.209c0.808-0.807,1.211-1.782,1.211-2.926
		c0-1.145-0.403-2.121-1.211-2.93C9.194,3.874,8.219,3.468,7.079,3.468S4.965,3.873,4.161,4.68C3.356,5.489,2.954,6.465,2.954,7.61z
		 M9.178,7.623c0,0.955-0.19,1.72-0.574,2.293c-0.385,0.573-0.893,0.86-1.525,0.86c-0.629,0-1.135-0.283-1.519-0.854
		C5.177,9.354,4.985,8.597,4.985,7.655c0-0.956,0.19-1.719,0.572-2.293C5.938,4.788,6.445,4.5,7.079,4.5
		c0.629,0,1.137,0.286,1.521,0.858C8.986,5.93,9.178,6.686,9.178,7.623z M8.329,7.635c0-0.912-0.105-1.594-0.314-2.048
		s-0.522-0.68-0.941-0.68c-0.41,0-0.718,0.228-0.924,0.684C5.941,6.046,5.837,6.73,5.837,7.643c0,0.911,0.104,1.596,0.314,2.051
		c0.208,0.455,0.521,0.685,0.941,0.685c0.414,0,0.723-0.229,0.928-0.688C8.224,9.233,8.329,8.547,8.329,7.635z"/>
</g>
</svg>
