<?xml version="1.0" encoding="utf-8"?>
<!-- Generator: Adobe Illustrator 15.1.0, SVG Export Plug-In . SVG Version: 6.00 Build 0)  -->
<!DOCTYPE svg PUBLIC "-//W3C//DTD SVG 1.1//EN" "http://www.w3.org/Graphics/SVG/1.1/DTD/svg11.dtd">
<svg version="1.1" id="Layer_1" xmlns="http://www.w3.org/2000/svg" xmlns:xlink="http://www.w3.org/1999/xlink" x="0px" y="0px"
	 width="14.172px" height="14.172px" viewBox="0 0 14.172 14.172" enable-background="new 0 0 14.172 14.172" xml:space="preserve">
<path d="M12.887,6.27c0,0.833-0.278,1.527-0.836,2.085C11.494,8.912,10.8,9.19,9.967,9.19c-0.453,0-0.879-0.095-1.277-0.285
	C8.291,9.096,7.87,9.19,7.426,9.19c-0.733,0-1.376-0.241-1.929-0.721C5.48,8.578,5.471,8.688,5.471,8.797
	c0,0.544,0.19,1.004,0.57,1.384s0.842,0.57,1.385,0.57v0.979c-0.823,0-1.519-0.281-2.084-0.842
	c-0.566-0.562-0.849-1.258-0.849-2.092c0-0.445,0.1-0.865,0.299-1.264C4.592,7.126,4.493,6.704,4.493,6.27
	c0-0.742,0.249-1.389,0.748-1.942C5.186,4.319,5.131,4.314,5.077,4.314c-0.543,0-1.002,0.19-1.378,0.57
	C3.322,5.265,3.134,5.727,3.134,6.27H2.156c0-0.833,0.281-1.53,0.842-2.091s1.254-0.842,2.078-0.842
	c0.408,0,0.797,0.082,1.168,0.245c0.38-0.163,0.775-0.245,1.182-0.245c0.743,0,1.391,0.25,1.942,0.748V3.92
	c0-0.535-0.188-0.992-0.563-1.372S7.971,1.978,7.426,1.978V1C8.26,1,8.955,1.278,9.511,1.835c0.558,0.557,0.836,1.252,0.836,2.085
	c0,0.407-0.082,0.801-0.244,1.182c0.162,0.371,0.244,0.76,0.244,1.167c0,0.724-0.24,1.363-0.72,1.916
	c0.108,0.019,0.222,0.027,0.34,0.027c0.543,0,1.002-0.19,1.378-0.57c0.376-0.381,0.563-0.839,0.563-1.373H12.887z M8.805,7.643
	C9.181,7.261,9.368,6.804,9.368,6.27c0-0.543-0.186-1.005-0.556-1.385c-0.371-0.38-0.833-0.57-1.386-0.57
	c-0.542,0-1.004,0.19-1.385,0.57c-0.38,0.38-0.57,0.842-0.57,1.385s0.19,1.002,0.57,1.38c0.38,0.375,0.842,0.563,1.385,0.563
	C7.971,8.213,8.429,8.022,8.805,7.643z"/>
</svg>
