<?xml version="1.0" encoding="utf-8"?>
<!-- Generator: Adobe Illustrator 15.1.0, SVG Export Plug-In . SVG Version: 6.00 Build 0)  -->
<!DOCTYPE svg PUBLIC "-//W3C//DTD SVG 1.1//EN" "http://www.w3.org/Graphics/SVG/1.1/DTD/svg11.dtd">
<svg version="1.1" id="Layer_1" xmlns="http://www.w3.org/2000/svg" xmlns:xlink="http://www.w3.org/1999/xlink" x="0px" y="0px"
	 width="14.172px" height="14.172px" viewBox="0 0 14.172 14.172" enable-background="new 0 0 14.172 14.172" xml:space="preserve">
<g enable-background="new    ">
	<path d="M7.085,13.597c-0.704,0-1.303-0.236-1.797-0.709c-0.492-0.473-0.738-1.046-0.738-1.722c0-0.631,0.215-1.174,0.645-1.633
		c0.432-0.457,0.967-0.72,1.608-0.787v-3.32C6.162,5.359,5.626,5.095,5.195,4.638C4.765,4.181,4.55,3.636,4.55,3.006
		c0-0.676,0.246-1.25,0.738-1.722c0.494-0.473,1.093-0.709,1.797-0.709c0.713,0,1.313,0.236,1.804,0.709
		c0.488,0.472,0.733,1.046,0.733,1.722c0,0.63-0.215,1.174-0.646,1.631C8.546,5.095,8.009,5.359,7.368,5.426v3.32
		c0.642,0.067,1.179,0.33,1.609,0.787c0.431,0.459,0.646,1.002,0.646,1.633c0,0.676-0.245,1.249-0.733,1.722
		C8.399,13.361,7.798,13.597,7.085,13.597z M7.085,4.908c0.548,0,1.017-0.184,1.404-0.551c0.387-0.369,0.581-0.818,0.581-1.351
		c0-0.525-0.194-0.972-0.581-1.34C8.102,1.299,7.633,1.115,7.085,1.115c-0.549,0-1.014,0.184-1.396,0.551
		c-0.385,0.369-0.576,0.815-0.576,1.34c0,0.533,0.191,0.982,0.576,1.351C6.072,4.724,6.537,4.908,7.085,4.908z M7.085,13.057
		c0.548,0,1.017-0.183,1.404-0.551c0.387-0.367,0.581-0.814,0.581-1.34c0-0.526-0.194-0.972-0.581-1.34
		C8.102,9.458,7.633,9.275,7.085,9.275c-0.549,0-1.014,0.184-1.396,0.552c-0.385,0.368-0.576,0.813-0.576,1.34
		c0,0.525,0.191,0.973,0.576,1.34C6.072,12.875,6.537,13.057,7.085,13.057z"/>
</g>
</svg>
