<?xml version="1.0" encoding="utf-8"?>
<!-- Generator: Adobe Illustrator 15.1.0, SVG Export Plug-In . SVG Version: 6.00 Build 0)  -->
<!DOCTYPE svg PUBLIC "-//W3C//DTD SVG 1.1//EN" "http://www.w3.org/Graphics/SVG/1.1/DTD/svg11.dtd">
<svg version="1.1" id="Layer_1" xmlns="http://www.w3.org/2000/svg" xmlns:xlink="http://www.w3.org/1999/xlink" x="0px" y="0px"
	 width="14.172px" height="14.172px" viewBox="0 0 14.172 14.172" enable-background="new 0 0 14.172 14.172" xml:space="preserve">
<path d="M3.983,6.345c-0.528,0-0.928-0.339-1.203-1.015C2.569,4.812,2.463,4.257,2.463,3.665S2.569,2.522,2.78,2.015
	C3.065,1.338,3.466,1,3.983,1C4.52,1,4.927,1.333,5.201,1.999c0.211,0.497,0.317,1.052,0.317,1.666c0,0.592-0.111,1.153-0.333,1.681
	C4.911,6.012,4.51,6.345,3.983,6.345z M2.862,12.07c-0.266,0-0.399-0.129-0.399-0.393v-1.135c0-0.266,0.133-0.396,0.399-0.396h7.986
	c0.265,0,0.397,0.131,0.397,0.396v1.135c0,0.264-0.133,0.393-0.397,0.393H2.862z M4.739,3.665c0-0.341-0.054-0.703-0.162-1.086
	C4.438,2.045,4.239,1.779,3.983,1.779c-0.248,0-0.44,0.266-0.579,0.799C3.297,2.983,3.244,3.345,3.244,3.665
	c0,0.32,0.053,0.682,0.161,1.086c0.15,0.544,0.343,0.815,0.579,0.815c0.256,0,0.456-0.271,0.594-0.815
	C4.685,4.346,4.739,3.984,4.739,3.665z M3.244,11.293h7.221v-0.365H3.244V11.293z M10.692,5.758
	c-0.265,0.392-0.587,0.587-0.966,0.587c-0.528,0-0.934-0.339-1.22-1.015C8.296,4.823,8.19,4.267,8.19,3.665
	c0-0.613,0.105-1.168,0.316-1.666C8.793,1.333,9.198,1,9.727,1c0.526,0,0.928,0.338,1.202,1.015
	c0.211,0.507,0.316,1.057,0.316,1.649C11.245,4.532,11.061,5.23,10.692,5.758z M10.465,3.665c0-0.33-0.053-0.692-0.16-1.086
	c-0.14-0.533-0.333-0.799-0.578-0.799c-0.248,0-0.446,0.266-0.596,0.799C9.023,2.961,8.97,3.324,8.97,3.665
	c0,0.32,0.054,0.682,0.161,1.086C9.28,5.294,9.479,5.566,9.727,5.566c0.245,0,0.438-0.271,0.578-0.815
	C10.412,4.346,10.465,3.984,10.465,3.665z"/>
</svg>
