<?xml version="1.0" encoding="utf-8"?>
<!-- Generator: Adobe Illustrator 15.1.0, SVG Export Plug-In . SVG Version: 6.00 Build 0)  -->
<!DOCTYPE svg PUBLIC "-//W3C//DTD SVG 1.1//EN" "http://www.w3.org/Graphics/SVG/1.1/DTD/svg11.dtd">
<svg version="1.1" id="Layer_1" xmlns="http://www.w3.org/2000/svg" xmlns:xlink="http://www.w3.org/1999/xlink" x="0px" y="0px"
	 width="14.172px" height="14.172px" viewBox="0 0 14.172 14.172" enable-background="new 0 0 14.172 14.172" xml:space="preserve">
<g enable-background="new    ">
	<path d="M3.082,1.271C3.2,1.204,3.514,1.161,4.023,1.144c0.51-0.017,1.654-0.025,3.437-0.025c1.926,0,3.106,0.008,3.544,0.025
		C11.44,1.161,11.74,1.212,11.9,1.297c0.425,0.212,0.726,0.53,0.904,0.954c0.059,0.153,0.098,0.489,0.115,1.006
		c0.017,0.518,0.024,1.621,0.024,3.309c0,1.815-0.008,2.948-0.024,3.397c-0.018,0.45-0.064,0.76-0.142,0.93
		c-0.102,0.212-0.267,0.429-0.496,0.649c-0.229,0.22-0.437,0.355-0.623,0.406c-0.17,0.051-1.562,0.077-4.18,0.077
		s-4.011-0.026-4.18-0.077c-0.187-0.051-0.397-0.187-0.63-0.406c-0.233-0.221-0.396-0.438-0.49-0.649
		c-0.085-0.17-0.136-0.481-0.153-0.936C2.008,9.503,2,8.364,2,6.54c0-1.833,0.008-2.972,0.025-3.417s0.068-0.757,0.153-0.935
		C2.356,1.797,2.657,1.492,3.082,1.271z M8.922,3.562c-0.526-0.271-0.95-0.564-1.271-0.878l-0.484-0.47L7.103,2.505
		c-0.034,0.17-0.138,0.346-0.312,0.528c-0.174,0.182-0.384,0.337-0.63,0.465C5.304,3.922,4.668,4.455,4.252,5.095
		c-0.416,0.64-0.598,1.351-0.547,2.131c0.093,1.281,0.679,2.27,1.756,2.965c0.585,0.374,1.272,0.56,2.062,0.56
		c0.79,0,1.477-0.186,2.062-0.56c0.789-0.509,1.303-1.213,1.54-2.113c0.237-0.898,0.144-1.797-0.281-2.697
		C10.496,4.644,9.856,4.037,8.922,3.562z M6.263,6.883c0.449-0.118,1.013,0.034,1.692,0.459c0.45,0.28,0.734,0.419,0.853,0.419
		S9.194,7.633,9.609,7.38c0.374-0.221,0.655-0.335,0.841-0.344c0.187-0.008,0.326,0.085,0.42,0.28
		c0.067,0.204,0.081,0.435,0.038,0.693c-0.042,0.259-0.14,0.501-0.292,0.726c-0.153,0.225-0.307,0.337-0.459,0.337
		c-0.11,0-0.289-0.129-0.534-0.388S9.177,8.257,9.025,8.181C8.88,8.105,8.727,8.094,8.566,8.15c-0.16,0.055-0.491,0.23-0.992,0.527
		c-0.28,0.17-0.492,0.278-0.636,0.324c-0.144,0.047-0.331,0.07-0.56,0.07c-0.331,0-0.581-0.063-0.75-0.191
		c-0.17-0.126-0.276-0.334-0.318-0.623c-0.043-0.296,0.03-0.579,0.216-0.846S5.958,6.968,6.263,6.883z M7.052,9.937
		c0-0.094,0.072-0.118,0.216-0.076c0.331,0.102,0.601,0.159,0.809,0.173c0.207,0.012,0.451-0.021,0.731-0.097
		c0.416-0.094,0.627-0.118,0.637-0.076c0.008,0.034-0.056,0.094-0.191,0.179c-0.195,0.136-0.471,0.221-0.827,0.254
		c-0.356,0.034-0.675,0.018-0.954-0.051C7.192,10.175,7.052,10.074,7.052,9.937z M8.313,9.008c0.126-0.051,0.269-0.074,0.425-0.069
		c0.157,0.004,0.291,0.04,0.401,0.107c0.051,0.025,0.074,0.099,0.07,0.217S9.177,9.441,9.126,9.441c-0.06,0-0.106-0.047-0.141-0.14
		c-0.033-0.094-0.139-0.14-0.317-0.14c-0.178,0-0.335,0.051-0.472,0.151C8.053,9.408,7.964,9.441,7.93,9.416
		C7.887,9.364,7.903,9.301,7.974,9.224C8.046,9.149,8.16,9.077,8.313,9.008z"/>
</g>
</svg>
