<?xml version="1.0" encoding="utf-8"?>
<!-- Generator: Adobe Illustrator 15.1.0, SVG Export Plug-In . SVG Version: 6.00 Build 0)  -->
<!DOCTYPE svg PUBLIC "-//W3C//DTD SVG 1.1//EN" "http://www.w3.org/Graphics/SVG/1.1/DTD/svg11.dtd">
<svg version="1.1" id="Layer_1" xmlns="http://www.w3.org/2000/svg" xmlns:xlink="http://www.w3.org/1999/xlink" x="0px" y="0px"
	 width="14.172px" height="14.172px" viewBox="0 0 14.172 14.172" enable-background="new 0 0 14.172 14.172" xml:space="preserve">
<g enable-background="new    ">
	<path d="M3.225,2.061c0.22-0.042,1.658-0.059,4.313-0.051l3.97,0.014l0.407,0.279c0.109,0.076,0.224,0.182,0.343,0.317
		c0.117,0.135,0.206,0.258,0.267,0.367l0.228,0.419v4.021c0,1.996-0.011,3.184-0.032,3.564c-0.021,0.381-0.082,0.672-0.184,0.875
		c-0.145,0.279-0.351,0.513-0.621,0.698l-0.407,0.278L7.449,12.87L3.39,12.894l-0.469-0.228c-0.491-0.237-0.817-0.596-0.977-1.078
		c-0.076-0.212-0.114-1.611-0.114-4.2V3.507l0.241-0.482C2.341,2.484,2.726,2.163,3.225,2.061z M6.637,4.675
		C6.223,4.489,5.792,4.476,5.344,4.637c-0.347,0.119-0.63,0.329-0.85,0.634c-0.22,0.305-0.33,0.631-0.33,0.977
		c0,0.432,0.114,0.804,0.343,1.117C4.734,7.676,5.06,7.901,5.483,8.036c0.211,0.068,0.349,0.129,0.413,0.184
		c0.063,0.057,0.103,0.134,0.12,0.236c0.017,0.159,0,0.24-0.05,0.24c-0.051,0-0.396-0.078-1.034-0.234S3.959,8.226,3.929,8.226
		c-0.029,0-0.044,0.389-0.044,1.168c0,0.778,0.017,1.166,0.051,1.166c0.034,0,0.363-0.093,0.989-0.278
		c0.626-0.187,0.966-0.263,1.021-0.229C6,10.087,6.029,10.227,6.029,10.471v0.369h1.497c0.99,0,1.484-0.026,1.484-0.077
		c0-0.05-0.14-0.492-0.419-1.325C8.312,8.605,8.172,8.18,8.172,8.163c0-0.016,0.305-0.025,0.913-0.025
		c0.55,0,0.969-0.059,1.256-0.178c0.287-0.117,0.545-0.338,0.774-0.66c0.117-0.168,0.193-0.312,0.228-0.43
		c0.034-0.119,0.051-0.305,0.051-0.559s-0.017-0.438-0.051-0.552c-0.034-0.114-0.11-0.26-0.228-0.438
		c-0.271-0.38-0.62-0.627-1.047-0.741c-0.428-0.114-0.84-0.078-1.237,0.107C8.434,4.873,8.138,5.178,7.944,5.601l-0.165,0.38
		L7.614,5.625C7.419,5.204,7.094,4.886,6.637,4.675z M5.623,5.968c0.11-0.119,0.239-0.173,0.387-0.165
		c0.148,0.009,0.265,0.081,0.349,0.216c0.194,0.304,0.144,0.538-0.152,0.698c-0.11,0.068-0.194,0.101-0.254,0.101
		c-0.059,0-0.139-0.029-0.241-0.089C5.567,6.654,5.487,6.542,5.47,6.394C5.453,6.245,5.504,6.104,5.623,5.968z M9.238,6.032
		c0.102-0.153,0.22-0.229,0.355-0.229c0.16,0,0.294,0.062,0.399,0.185c0.104,0.122,0.152,0.257,0.14,0.406
		c-0.013,0.148-0.087,0.26-0.223,0.335c-0.245,0.127-0.456,0.1-0.634-0.083C9.098,6.465,9.085,6.26,9.238,6.032z"/>
</g>
</svg>
