<?xml version="1.0" encoding="utf-8"?>
<!-- Generator: Adobe Illustrator 15.1.0, SVG Export Plug-In . SVG Version: 6.00 Build 0)  -->
<!DOCTYPE svg PUBLIC "-//W3C//DTD SVG 1.1//EN" "http://www.w3.org/Graphics/SVG/1.1/DTD/svg11.dtd">
<svg version="1.1" id="Layer_1" xmlns="http://www.w3.org/2000/svg" xmlns:xlink="http://www.w3.org/1999/xlink" x="0px" y="0px"
	 width="14.172px" height="14.172px" viewBox="0 0 14.172 14.172" enable-background="new 0 0 14.172 14.172" xml:space="preserve">
<g enable-background="new    ">
	<path d="M6.588,2.409c-0.557,0.588-0.957,1.119-1.2,1.592C5.147,4.475,4.962,4.992,4.834,5.556
		C4.707,6.119,4.642,6.677,4.642,7.229c0,0.557,0.064,1.117,0.192,1.68c0.128,0.562,0.313,1.081,0.555,1.555
		c0.243,0.473,0.643,1.002,1.198,1.585h-0.74c-0.413-0.354-0.796-0.81-1.15-1.363c-0.354-0.555-0.61-1.125-0.767-1.713
		C3.772,8.384,3.693,7.804,3.693,7.229c0-0.571,0.079-1.148,0.236-1.737c0.157-0.588,0.413-1.16,0.768-1.714
		c0.354-0.554,0.738-1.011,1.15-1.37H6.588z"/>
	<path d="M7.853,12.049c0.552-0.583,0.949-1.112,1.191-1.585c0.242-0.474,0.428-0.992,0.558-1.557
		c0.132-0.562,0.196-1.122,0.196-1.678c0-0.551-0.064-1.11-0.196-1.673c-0.13-0.563-0.315-1.082-0.558-1.559S8.405,2.993,7.853,2.41
		h0.739c0.409,0.358,0.793,0.815,1.149,1.37c0.357,0.555,0.612,1.125,0.769,1.714c0.154,0.588,0.23,1.167,0.23,1.737
		c0,0.575-0.076,1.157-0.23,1.744c-0.156,0.587-0.411,1.157-0.769,1.712c-0.356,0.554-0.74,1.009-1.149,1.363H7.853z"/>
</g>
</svg>
