<?xml version="1.0" encoding="utf-8"?>
<!-- Generator: Adobe Illustrator 15.1.0, SVG Export Plug-In . SVG Version: 6.00 Build 0)  -->
<!DOCTYPE svg PUBLIC "-//W3C//DTD SVG 1.1//EN" "http://www.w3.org/Graphics/SVG/1.1/DTD/svg11.dtd">
<svg version="1.1" id="Layer_1" xmlns="http://www.w3.org/2000/svg" xmlns:xlink="http://www.w3.org/1999/xlink" x="0px" y="0px"
	 width="14.172px" height="14.172px" viewBox="0 0 14.172 14.172" enable-background="new 0 0 14.172 14.172" xml:space="preserve">
<g enable-background="new    ">
	<path d="M6.5,9.354L6.306,9.665C5.59,9.213,4.813,8.638,3.975,7.936C2.83,6.984,2.256,6.303,2.256,5.896
		c0-0.437,0.81-0.716,2.428-0.838l0.032,0.365c-0.373,0.028-0.759,0.08-1.16,0.151C2.934,5.695,2.622,5.816,2.622,5.938
		c0,0.243,0.509,0.794,1.525,1.654C5.006,8.323,5.791,8.91,6.5,9.354z M9.034,8.892C8.412,9.407,7.66,9.948,6.779,10.513
		c-1.146,0.724-1.944,1.085-2.396,1.085c-0.337,0-0.505-0.275-0.505-0.827c0-0.451,0.089-1.038,0.269-1.761l0.354,0.086
		C4.33,9.84,4.244,10.46,4.244,10.954c0,0.193,0.054,0.291,0.161,0.291c0.308,0,0.97-0.316,1.987-0.946
		c0.981-0.601,1.783-1.163,2.406-1.686L9.034,8.892z M8.54,4.263L8.196,4.402C8.06,4.073,7.895,3.729,7.703,3.372
		C7.416,2.834,7.215,2.566,7.101,2.566c-0.222,0-0.601,0.655-1.139,1.965C5.533,5.577,5.214,6.507,5.006,7.323L4.663,7.227
		c0.208-0.845,0.522-1.79,0.945-2.835C6.202,2.93,6.7,2.201,7.101,2.201S7.981,2.887,8.54,4.263z M12.009,5.841
		c0,0.408-0.513,1.045-1.535,1.911l-0.237-0.289c0.931-0.809,1.396-1.332,1.396-1.568c0-0.208-0.597-0.369-1.793-0.484
		C9.024,5.34,8.256,5.305,7.541,5.305c-0.358,0-0.712,0.01-1.063,0.031L6.457,4.971c0.286-0.021,0.68-0.032,1.182-0.032
		c0.938,0,1.75,0.04,2.438,0.118C11.366,5.208,12.009,5.469,12.009,5.841z M10.409,10.728c0,0.538-0.165,0.806-0.493,0.806
		c-0.445,0-1.146-0.297-2.106-0.892l0.204-0.322c0.945,0.574,1.571,0.86,1.88,0.86c0.108,0,0.161-0.114,0.161-0.345
		c0-0.544-0.139-1.343-0.418-2.395C9.393,7.538,9.138,6.754,8.873,6.089L9.206,5.96C9.485,6.64,9.747,7.427,9.99,8.323
		C10.269,9.361,10.409,10.163,10.409,10.728z"/>
</g>
</svg>
