<?xml version="1.0" encoding="utf-8"?>
<!-- Generator: Adobe Illustrator 15.1.0, SVG Export Plug-In . SVG Version: 6.00 Build 0)  -->
<!DOCTYPE svg PUBLIC "-//W3C//DTD SVG 1.1//EN" "http://www.w3.org/Graphics/SVG/1.1/DTD/svg11.dtd">
<svg version="1.1" id="Layer_1" xmlns="http://www.w3.org/2000/svg" xmlns:xlink="http://www.w3.org/1999/xlink" x="0px" y="0px"
	 width="14.172px" height="14.172px" viewBox="0 0 14.172 14.172" enable-background="new 0 0 14.172 14.172" xml:space="preserve">
<path d="M6.993,5.485c-0.08,0.253-0.246,0.422-0.497,0.506c-0.173,0-0.356-0.038-0.551-0.112c-0.597-0.116-1.253-0.266-1.97-0.448
	C3.925,5.473,3.86,5.494,3.783,5.494c-0.057,0-0.104-0.009-0.139-0.027C3.561,5.488,3.447,5.585,3.304,5.758
	c0,0.081-0.023,0.191-0.071,0.331L3.058,6.009L3.049,5.781L2.727,5.633c0.065-0.102,0.127-0.16,0.184-0.175l0.26,0.063l0.219-0.202
	c-0.086-0.024-0.13-0.082-0.13-0.174c0-0.069,0.025-0.108,0.076-0.117C3.314,4.999,3.304,4.97,3.304,4.943
	c0-0.113,0.034-0.181,0.104-0.202c0.021-0.128,0.076-0.192,0.165-0.192C3.6,4.552,3.651,4.558,3.729,4.567l0.062-0.255L2.874,4.451
	L2.9,4.276c0.027-0.114,0.172-0.202,0.435-0.264c0.152-0.036,0.356-0.099,0.613-0.188l0.22-0.779C4.198,3.015,4.235,3,4.28,3
	s0.083,0.03,0.116,0.089L4.186,3.9c0.338,0.248,0.562,0.456,0.672,0.623c0,0.116-0.004,0.205-0.014,0.264l-0.747-0.43
	C4.094,4.375,4.068,4.473,4.021,4.652c0.102,0,0.183,0.051,0.244,0.154C4.325,4.91,4.391,4.961,4.459,4.961
	c0.421,0,0.851,0.006,1.29,0.018C6.08,4.982,6.437,5.001,6.818,5.037C6.923,5.121,6.981,5.27,6.993,5.485z M12.56,7.943
	c0,0.183-0.019,0.337-0.055,0.466c-0.143,0.51-0.36,0.924-0.653,1.24c-0.155,0.17-0.333,0.287-0.533,0.35
	c-0.334,0.107-0.731,0.178-1.19,0.209C8.91,10.14,8.029,9.858,7.486,9.362c0.334-0.227,0.588-0.52,0.761-0.877
	C8.31,8.356,8.341,8.183,8.341,7.961c-0.057-0.224-0.234-0.394-0.532-0.51C7.677,7.4,7.549,7.375,7.423,7.375
	c-0.098,0-0.187,0.018-0.264,0.054c-0.146,0.069-0.37,0.24-0.672,0.511C6.347,8.064,6.268,8.136,6.25,8.153
	c-0.164-0.259-0.246-0.56-0.246-0.899c0-0.152,0.023-0.275,0.071-0.367c-0.086-0.117-0.13-0.271-0.13-0.466
	c0-0.164,0.025-0.292,0.076-0.385c0.069,0.048,0.203,0.081,0.403,0.099C6.815,6.081,7.05,5.87,7.128,5.503
	c0-0.203-0.045-0.361-0.135-0.475C6.954,4.948,6.856,4.896,6.698,4.872C6.629,4.86,6.565,4.854,6.505,4.854H6.331L6.075,4.872
	c0.03-0.03,0.045-0.073,0.045-0.13c0-0.062-0.018-0.124-0.054-0.184C5.774,4.514,5.6,4.484,5.543,4.469l-0.09-0.157l0.135-0.027
	C5.668,4.234,5.772,4.133,5.9,3.98L5.453,4.11c-0.03,0.003-0.059,0.025-0.085,0.067c-0.015,0.024-0.027,0.04-0.036,0.049L5.225,4.16
	c-0.06-0.042-0.105-0.081-0.139-0.116c-0.033-0.048-0.049-0.104-0.049-0.17c0-0.051,0.007-0.095,0.022-0.134L5.104,3.64L5.332,3.56
	c0.158-0.158,0.299-0.271,0.421-0.34c0.135-0.033,0.266-0.047,0.395-0.044C6.451,3.181,6.65,3.242,6.742,3.358
	c0.233,0.445,0.807,1.401,1.72,2.87c0.334,0.534,0.609,0.964,0.824,1.29c0.48,0.728,0.772,1.115,0.877,1.16
	C10.304,8.779,10.516,8.83,10.8,8.83c0.525-0.116,0.788-0.409,0.788-0.878c0-0.099-0.013-0.196-0.036-0.296
	c-0.021-0.045-0.101-0.143-0.237-0.295l-0.663-0.739c-0.263-0.29-0.534-0.62-0.814-0.99c-0.123-0.25-0.2-0.507-0.233-0.77
	c0-0.29,0.062-0.549,0.184-0.779C9.844,4.009,9.9,3.933,9.958,3.855c0.074-0.087,0.148-0.139,0.224-0.157
	c0.08,0,0.133,0.021,0.156,0.062c-0.051,0.149-0.119,0.377-0.206,0.685c-0.026,0.12-0.04,0.224-0.04,0.313
	c0.087,0.301,0.197,0.512,0.331,0.631c0.069,0.128,0.527,0.536,1.375,1.222c0.161,0.102,0.312,0.247,0.452,0.435
	c0.155,0.206,0.243,0.394,0.265,0.563C12.544,7.699,12.56,7.809,12.56,7.943z M8.221,8.073c0,0.027-0.007,0.062-0.019,0.107
	c-0.06,0.224-0.17,0.428-0.331,0.613C7.686,8.952,7.438,9.218,7.128,9.591c-0.06,0.099-0.09,0.2-0.09,0.305v0.945H5.462l0.018-0.072
	l-0.174,0.027c0.083-0.125,0.209-0.242,0.378-0.35s0.323-0.162,0.464-0.166c-0.063-0.248-0.166-0.615-0.31-1.102
	c0-0.227,0.177-0.525,0.528-0.895c0.266-0.278,0.542-0.517,0.829-0.717c0.06-0.03,0.133-0.045,0.219-0.045
	c0.274,0,0.5,0.088,0.677,0.265C8.177,7.873,8.221,7.969,8.221,8.073z M5.874,3.466C5.868,3.442,5.843,3.43,5.798,3.43
	C5.762,3.454,5.744,3.488,5.744,3.533l0.049,0.018C5.817,3.557,5.838,3.56,5.856,3.56C5.868,3.551,5.874,3.52,5.874,3.466z
	 M8.413,10.509H7.186l0.063-0.08l-0.13,0.008c0.125-0.217,0.312-0.371,0.56-0.461L7.553,9.582c0.152,0.197,0.439,0.345,0.86,0.443
	V10.509z M7.889,4.276c0,0.107-0.067,0.174-0.201,0.201L7.504,4.384l-0.116-0.21l0.107-0.237c0.122,0,0.2,0.006,0.232,0.018
	L7.696,4.007c0.027,0.039,0.082,0.059,0.166,0.059L7.809,4.245L7.889,4.276z M9.066,4.935C8.938,5,8.874,5.055,8.874,5.1L8.9,5.181
	c0.007,0.018,0.013,0.04,0.019,0.067L8.614,5.319L8.69,5.485C8.651,5.536,8.603,5.566,8.543,5.575c-0.144,0-0.239-0.036-0.287-0.107
	L7.862,4.881l0.009-0.112l0.192-0.255l0.085,0.027L8.14,4.621C8.259,4.6,8.335,4.527,8.368,4.401l0.107,0.112l0.166-0.085
	l0.085,0.022c0,0.06-0.013,0.102-0.036,0.125C8.732,4.6,8.82,4.628,8.955,4.661L8.883,4.845L9.066,4.935z M9.568,6
	C9.556,6.006,9.508,6.024,9.425,6.054C9.422,6.06,9.42,6.069,9.42,6.081l0.022,0.022c0.024,0.021,0.036,0.045,0.036,0.072
	L9.42,6.282L9.147,6.394l0.089,0.018L9.219,6.483c-0.045,0.063-0.145,0.094-0.3,0.094c-0.021-0.015-0.092-0.11-0.213-0.287
	s-0.185-0.279-0.19-0.309c0-0.101,0.019-0.182,0.054-0.242c0-0.062,0.024-0.099,0.072-0.107c0.006,0,0.034,0.015,0.085,0.045
	c0.015,0.006,0.026,0.012,0.035,0.018l0.09-0.062l0.147-0.13L9.066,5.53l0.027,0.076C9.105,5.6,9.15,5.573,9.228,5.525l0.031-0.022
	l0.062,0.063L9.286,5.624c0.048,0.03,0.127,0.062,0.237,0.099L9.42,5.879L9.568,6z M10.065,6.963
	C9.964,7.055,9.911,7.117,9.908,7.146c-0.06,0.027-0.127,0.06-0.201,0.098C9.701,7.254,9.698,7.269,9.698,7.29l0.018,0.058
	c0.006,0.021,0.012,0.045,0.018,0.072C9.642,7.438,9.583,7.458,9.56,7.482c-0.09-0.057-0.19-0.161-0.301-0.313
	C9.143,7.004,9.084,6.875,9.084,6.779C9.108,6.74,9.147,6.685,9.201,6.613l0.094-0.018l0.062,0.089
	C9.366,6.658,9.382,6.62,9.402,6.569l0.094-0.094L9.55,6.501l0.027,0.085l0.139-0.085L9.797,6.52C9.803,6.537,9.806,6.564,9.806,6.6
	v0.085c0.018,0.012,0.031,0.018,0.04,0.018c0.012,0,0.025-0.003,0.04-0.009l0.054-0.013c0.015-0.006,0.031-0.01,0.05-0.014
	l-0.027,0.21L10.065,6.963z M10.45,7.732c-0.003,0.027-0.02,0.074-0.05,0.139c-0.023,0.055-0.035,0.102-0.035,0.144
	c-0.084,0.024-0.126,0.07-0.126,0.139l-0.066,0.055H9.962L9.688,7.832C9.716,7.709,9.774,7.63,9.863,7.594l0.099,0.027l0.067-0.09
	l0.071-0.018c0.036,0.036,0.095,0.054,0.175,0.054l-0.026,0.139L10.45,7.732z"/>
</svg>
