<?xml version="1.0" encoding="utf-8"?>
<!-- Generator: Adobe Illustrator 15.1.0, SVG Export Plug-In . SVG Version: 6.00 Build 0)  -->
<!DOCTYPE svg PUBLIC "-//W3C//DTD SVG 1.1//EN" "http://www.w3.org/Graphics/SVG/1.1/DTD/svg11.dtd">
<svg version="1.1" id="Layer_1" xmlns="http://www.w3.org/2000/svg" xmlns:xlink="http://www.w3.org/1999/xlink" x="0px" y="0px"
	 width="14.172px" height="14.172px" viewBox="0 0 14.172 14.172" enable-background="new 0 0 14.172 14.172" xml:space="preserve">
<g enable-background="new    ">
	<path d="M1.824,2.059l0.343-0.228h4.3h4.301l0.381,0.266c0.101,0.077,0.206,0.18,0.316,0.311c0.11,0.131,0.195,0.256,0.253,0.375
		c0.093,0.194,0.151,0.493,0.172,0.894c0.021,0.402,0.033,1.576,0.033,3.521c0,1.987-0.012,3.172-0.033,3.552
		c-0.021,0.381-0.083,0.673-0.184,0.875c-0.144,0.28-0.352,0.512-0.622,0.698L10.679,12.6H6.455H2.23l-0.393-0.278
		c-0.11-0.077-0.222-0.18-0.337-0.312c-0.114-0.131-0.201-0.247-0.259-0.349c-0.094-0.178-0.151-0.47-0.171-0.875
		C1.048,10.38,1.034,9.214,1.025,7.286L1,3.277l0.241-0.495C1.401,2.452,1.596,2.211,1.824,2.059z M10.984,8.985
		c0-0.075-0.316-1.078-0.946-3.006S9.072,3.011,9.03,2.858C8.987,2.756,8.95,2.71,8.916,2.718C8.874,2.777,8.586,3.636,8.053,5.294
		L7.241,7.792H4.539c-1.801,0-2.702,0.028-2.702,0.083s0.089,0.137,0.266,0.248c0.423,0.27,1.7,1.196,3.831,2.777
		c0.829,0.617,1.264,0.9,1.306,0.85c0.043-0.051,0.117-0.229,0.223-0.532c0.105-0.305,0.159-0.495,0.159-0.571
		c0-0.067-0.318-0.333-0.952-0.799L5.719,9.15l1.218-0.024l1.205-0.038l0.355-1.092c0.236-0.728,0.376-1.112,0.418-1.154
		c0.042-0.042,0.186,0.325,0.432,1.104l0.355,1.153h0.647C10.772,9.099,10.984,9.061,10.984,8.985z M10.249,9.378H9.422L9.196,8.618
		C9.068,8.211,8.983,8.004,8.942,7.996c-0.052,0-0.166,0.274-0.343,0.825c0,0.008,0,0.017,0,0.024L8.433,9.378H7.596
		c-0.49,0-0.735,0.034-0.735,0.102c0,0.06,0.229,0.249,0.685,0.571c0.153,0.102,0.279,0.2,0.38,0.297
		c0.103,0.099,0.145,0.159,0.128,0.185c-0.06,0.145-0.148,0.41-0.266,0.8c-0.12,0.389-0.17,0.592-0.153,0.608
		c0.025,0.025,0.25-0.114,0.672-0.419l0.623-0.456l0.634,0.456c0.422,0.305,0.643,0.444,0.658,0.419
		c0.018-0.009-0.024-0.178-0.126-0.507c-0.101-0.331-0.199-0.626-0.292-0.889c-0.018-0.025,0.036-0.093,0.159-0.203
		c0.123-0.109,0.276-0.228,0.464-0.355c0.431-0.312,0.646-0.492,0.646-0.538C11.073,9.402,10.797,9.378,10.249,9.378z"/>
</g>
</svg>
