<?xml version="1.0" encoding="utf-8"?>
<!-- Generator: Adobe Illustrator 15.1.0, SVG Export Plug-In . SVG Version: 6.00 Build 0)  -->
<!DOCTYPE svg PUBLIC "-//W3C//DTD SVG 1.1//EN" "http://www.w3.org/Graphics/SVG/1.1/DTD/svg11.dtd">
<svg version="1.1" id="Layer_1" xmlns="http://www.w3.org/2000/svg" xmlns:xlink="http://www.w3.org/1999/xlink" x="0px" y="0px"
	 width="14.172px" height="14.172px" viewBox="0 0 14.172 14.172" enable-background="new 0 0 14.172 14.172" xml:space="preserve">
<g enable-background="new    ">
	<path d="M12.522,5.778c0,0.267-0.414,0.607-1.241,1.021c-0.232,0.315-0.652,0.473-1.264,0.473c-0.252,0-0.536,0.025-0.852,0.074
		C8.639,7.424,8.362,7.465,8.334,7.473L7.271,9.755l-0.41-0.494l-1.6,1.789h-0.2l1.736-3.589l0.368,0.442l0.316-0.62
		C7.278,7.22,7.11,7.188,6.977,7.188c-0.084,0-0.209,0.011-0.374,0.032C6.438,7.241,6.314,7.251,6.229,7.251
		c-0.372,0-0.684-0.098-0.937-0.295C5.111,6.81,5.002,6.729,4.967,6.714C4.876,6.667,4.736,6.642,4.546,6.642
		c-0.169,0-0.416,0.038-0.742,0.115C3.479,6.834,3.231,6.874,3.063,6.874C2.354,6.874,2,6.663,2,6.242
		c0-0.288,0.547-0.512,1.641-0.674C3.648,5.372,3.69,5.21,3.768,5.084C3.81,5.007,3.918,4.881,4.094,4.706
		c0.336-0.834,0.68-1.252,1.031-1.252c0.091,0,0.175,0.018,0.252,0.052c0.056-0.28,0.224-0.564,0.505-0.852
		c0.301-0.302,0.589-0.452,0.863-0.452c0.196,0,0.368,0.099,0.515,0.294c0.288-0.505,0.656-0.758,1.105-0.758
		c0.322,0,0.606,0.107,0.852,0.321c0.246,0.214,0.369,0.479,0.369,0.795c0,0.133-0.018,0.259-0.052,0.379
		c0.126-0.042,0.272-0.063,0.44-0.063c0.288,0,0.53,0.1,0.727,0.299c0.195,0.201,0.294,0.44,0.294,0.722
		c0,0.188-0.042,0.378-0.126,0.567c0.063-0.013,0.126-0.021,0.189-0.021c0.302,0,0.609,0.099,0.927,0.294
		C12.342,5.249,12.522,5.498,12.522,5.778z M11.986,5.705c0-0.183-0.135-0.322-0.401-0.421c-0.195-0.063-0.405-0.095-0.631-0.095
		c-0.295,0-0.533,0.102-0.715,0.306c0.077,0.12,0.115,0.217,0.115,0.295c0,0.35-0.246,0.525-0.735,0.525
		c-0.295,0-0.546-0.056-0.748-0.168C8.788,6.091,8.746,6.021,8.746,5.937c0-0.084,0.042-0.141,0.125-0.168
		c0.386,0.126,0.638,0.189,0.758,0.189c0.225,0,0.336-0.06,0.336-0.18c0-0.055-0.098-0.157-0.294-0.305
		c0.183-0.28,0.273-0.551,0.273-0.81c0-0.12-0.063-0.214-0.19-0.285C9.65,4.315,9.535,4.285,9.408,4.285
		c-0.288,0-0.537,0.099-0.747,0.294C8.611,4.594,8.561,4.6,8.513,4.6c-0.112,0-0.169-0.045-0.169-0.137
		c0-0.042,0.018-0.084,0.053-0.126c0.246-0.287,0.6-0.431,1.063-0.431c0.225,0,0.424,0.067,0.599,0.201
		c0.189,0.14,0.284,0.319,0.284,0.537c0,0.076-0.003,0.157-0.01,0.242c0.153-0.203,0.231-0.389,0.231-0.558
		c0-0.183-0.062-0.346-0.184-0.49c-0.123-0.143-0.273-0.215-0.448-0.215c-0.398,0-0.681,0.099-0.842,0.295
		C8.896,3.909,8.772,3.854,8.723,3.748c0.168-0.183,0.271-0.306,0.306-0.369c0.084-0.133,0.126-0.29,0.126-0.473
		c0-0.189-0.084-0.349-0.252-0.479c-0.169-0.13-0.352-0.194-0.548-0.194c-0.406,0-0.786,0.41-1.136,1.23
		C7.113,2.987,6.935,2.749,6.682,2.749c-0.197,0-0.411,0.115-0.642,0.347C5.794,3.341,5.672,3.636,5.672,3.979L5.43,4.306
		C5.318,3.99,5.213,3.833,5.115,3.833c-0.168,0-0.33,0.168-0.484,0.504C4.42,4.8,4.304,5.042,4.283,5.063
		c-0.062,0.063-0.125,0.13-0.188,0.2C4.052,5.319,4.027,5.407,4.021,5.526l0.873-0.063c0.014,0.021,0.021,0.05,0.021,0.084
		c0,0.105-0.049,0.204-0.147,0.294c-0.421,0-0.954,0.06-1.599,0.18C3.027,6.042,2.884,6.062,2.736,6.083
		C2.512,6.125,2.4,6.178,2.4,6.242c0,0.168,0.221,0.252,0.663,0.252c0.168,0,0.417-0.039,0.747-0.116
		c0.33-0.077,0.579-0.115,0.747-0.115c0.323,0,0.625,0.1,0.905,0.299c0.28,0.2,0.537,0.3,0.768,0.3c0.737,0,1.105-0.202,1.105-0.61
		c0.042-0.063,0.098-0.094,0.168-0.094c0.077,0,0.144,0.031,0.201,0.094c0,0.253-0.096,0.457-0.285,0.61
		c0.436,0.154,0.723,0.232,0.863,0.232c0.195,0,0.681-0.063,1.452-0.189c0.119-0.021,0.217-0.031,0.295-0.031
		c0.428,0,0.715-0.12,0.862-0.358c0.21-0.112,0.421-0.231,0.631-0.358C11.831,5.968,11.986,5.817,11.986,5.705z M3.452,9.388
		C3.41,9.542,3.385,9.696,3.378,9.85c-0.006,0.218-0.014,0.344-0.021,0.379c-0.035,0.133-0.126,0.2-0.273,0.2
		c-0.204,0-0.306-0.099-0.306-0.294C2.778,9.826,3.003,9.578,3.452,9.388z M4.22,7.84C4.178,7.995,4.157,8.153,4.157,8.314
		C4.15,8.525,4.14,8.651,4.125,8.693C4.09,8.819,3.999,8.882,3.852,8.882c-0.204,0-0.306-0.095-0.306-0.283
		C3.546,8.283,3.771,8.03,4.22,7.84z M4.988,9.388C4.946,9.542,4.925,9.696,4.925,9.85c-0.007,0.218-0.018,0.344-0.032,0.379
		c-0.036,0.133-0.126,0.2-0.274,0.2c-0.203,0-0.305-0.099-0.305-0.294C4.314,9.826,4.539,9.578,4.988,9.388z M6.83,4.116
		c-0.036,0.105-0.105,0.157-0.21,0.157c-0.015,0-0.032-0.003-0.053-0.01c-0.021-0.21-0.045-0.315-0.074-0.315
		c-0.133,0-0.231,0.102-0.295,0.305C6.163,4.408,6.131,4.565,6.103,4.727c-0.035,0.112-0.108,0.172-0.22,0.179
		c-0.063-0.133-0.105-0.2-0.126-0.2c-0.091,0-0.165,0.073-0.221,0.221C5.507,5.038,5.479,5.151,5.451,5.263
		C5.36,5.551,5.202,5.803,4.978,6.021c0.217-1.129,0.48-1.694,0.789-1.694c0.027,0,0.056,0.003,0.084,0.01
		c0.042-0.175,0.112-0.339,0.21-0.494c0.133-0.189,0.27-0.284,0.41-0.284C6.717,3.559,6.836,3.745,6.83,4.116z M5.756,7.84
		C5.721,7.995,5.7,8.153,5.693,8.314C5.686,8.525,5.679,8.651,5.672,8.693C5.63,8.819,5.535,8.882,5.388,8.882
		c-0.203,0-0.305-0.095-0.305-0.283C5.083,8.283,5.308,8.03,5.756,7.84z M8.06,7.461L7.713,7.368l-0.495,1.01L6.851,7.935l-1,2.073
		l1.021-1.137l0.347,0.411L8.06,7.461z M8.071,9.388C8.029,9.542,8.007,9.696,8.007,9.85c-0.006,0.218-0.017,0.344-0.031,0.379
		c-0.035,0.133-0.126,0.2-0.272,0.2c-0.205,0-0.306-0.099-0.306-0.294C7.397,9.826,7.622,9.578,8.071,9.388z M8.838,7.84
		C8.804,7.995,8.783,8.153,8.776,8.314C8.77,8.525,8.762,8.651,8.755,8.693C8.713,8.819,8.619,8.882,8.471,8.882
		c-0.204,0-0.306-0.095-0.306-0.283C8.166,8.283,8.39,8.03,8.838,7.84z M9.619,9.388C9.577,9.542,9.551,9.696,9.544,9.85
		c-0.008,0.218-0.015,0.344-0.021,0.379c-0.042,0.133-0.138,0.2-0.283,0.2c-0.197,0-0.295-0.099-0.295-0.294
		C8.945,9.826,9.168,9.578,9.619,9.388z M10.385,7.84c-0.042,0.154-0.062,0.312-0.062,0.474c-0.008,0.211-0.019,0.337-0.032,0.379
		c-0.036,0.126-0.127,0.189-0.274,0.189c-0.203,0-0.305-0.095-0.305-0.283C9.712,8.283,9.938,8.03,10.385,7.84z"/>
</g>
</svg>
