<?xml version="1.0" encoding="utf-8"?>
<!-- Generator: Adobe Illustrator 15.1.0, SVG Export Plug-In . SVG Version: 6.00 Build 0)  -->
<!DOCTYPE svg PUBLIC "-//W3C//DTD SVG 1.1//EN" "http://www.w3.org/Graphics/SVG/1.1/DTD/svg11.dtd">
<svg version="1.1" id="Layer_1" xmlns="http://www.w3.org/2000/svg" xmlns:xlink="http://www.w3.org/1999/xlink" x="0px" y="0px"
	 width="14.172px" height="14.172px" viewBox="0 0 14.172 14.172" enable-background="new 0 0 14.172 14.172" xml:space="preserve">
<path d="M7.255,6.226c0,0.025-0.055,0.053-0.165,0.085C6.98,6.343,6.926,6.387,6.926,6.443L6.438,11.77H3.791L2.953,6.443
	C2.941,6.369,2.896,6.316,2.814,6.287c-0.081-0.03-0.122-0.05-0.122-0.061c0-0.18,0.053-0.271,0.159-0.271h4.207
	C7.188,5.955,7.255,6.045,7.255,6.226z M3.864,6.92L3.822,6.412h-0.62L3.255,6.92H3.864z M3.992,7.717L3.907,7.17H3.308l0.09,0.547
	H3.992z M4.082,8.518L4.039,7.966H3.451l0.052,0.552H4.082z M6.782,4.342c-0.053,0.088-0.109,0.198-0.17,0.329
	C6.503,4.749,6.397,4.843,6.294,4.953L5.929,5.345C5.91,5.359,5.892,5.403,5.869,5.478c-0.017,0.061-0.034,0.09-0.053,0.09
	c-0.3-0.021-0.531-0.02-0.692,0.005s-0.32,0.05-0.48,0.074c-0.64,0-1.031-0.129-1.172-0.387c0.102-0.035,0.207-0.117,0.312-0.244
	C3.87,4.92,3.995,4.762,4.162,4.539c0.05-0.104,0.11-0.218,0.181-0.345c0.018-0.032,0.044-0.085,0.08-0.159
	c0.035-0.075,0.06-0.112,0.074-0.112c0.06,0.021,0.175,0.07,0.345,0.148c0.184,0.081,0.318,0.122,0.403,0.122
	c0.194,0,0.524-0.135,0.987-0.403c0.043,0.032,0.093,0.13,0.148,0.296c0.046,0.127,0.132,0.2,0.256,0.218L6.782,4.342z M4.156,9.377
	L4.103,8.766h-0.53l0.074,0.611H4.156z M4.236,10.247l-0.047-0.62H3.679l0.111,0.62H4.236z M6.495,4.485
	C6.475,4.436,6.387,4.412,6.23,4.412c-0.06,0-0.144,0.003-0.249,0.01L5.806,4.433C5.555,4.433,5.287,4.396,5,4.321
	c-0.124-0.035-0.274-0.078-0.45-0.127C4.546,4.197,4.542,4.203,4.538,4.209C4.51,4.284,4.444,4.415,4.342,4.603
	c-0.078,0.092-0.19,0.226-0.334,0.403C3.916,5.129,3.831,5.207,3.753,5.239C3.948,5.37,4.092,5.435,4.188,5.435h0.425
	c0.108,0,0.252-0.012,0.429-0.037c0.06-0.021,0.261-0.032,0.605-0.032C5.679,5.32,5.755,5.241,5.875,5.128l0.249-0.239
	C6.372,4.655,6.495,4.521,6.495,4.485z M4.374,11.388l-0.105-0.891H3.822l0.139,0.891H4.374z M4.952,6.92L4.941,6.412h-0.88
	L4.125,6.92H4.952z M4.952,7.717L4.941,7.17H4.156l0.08,0.547H4.952z M4.952,8.518L4.941,7.966H4.246l0.053,0.552H4.952z
	 M4.941,9.377l-0.01-0.611H4.332l0.074,0.611H4.941z M4.921,10.247l-0.012-0.62H4.406l0.043,0.62H4.921z M4.941,11.388l-0.021-0.891
	H4.507l0.095,0.891H4.941z M11.238,5.674L8.634,5.791c-0.088-0.339-0.23-0.843-0.425-1.512C8.142,4.067,8.07,3.934,7.991,3.881
	c-0.543-0.12-1.166-0.257-1.867-0.409C5.096,3.239,4.581,3.075,4.581,2.979c0,0.025,0.025-0.013,0.074-0.112h5.284l1.279,2.361
	L11.238,5.674z M5.689,9.627h-0.52v0.62h0.499L5.689,9.627z M5.647,10.497H5.169v0.891h0.456L5.647,10.497z M5.722,8.766H5.19v0.611
	h0.511L5.722,8.766z M5.854,6.412H5.202V6.92h0.631L5.854,6.412z M5.822,7.17h-0.62v0.547h0.583L5.822,7.17z M5.785,7.966H5.202
	v0.552h0.551L5.785,7.966z M6.23,4.215c0-0.024-0.011-0.063-0.031-0.116c-0.021-0.053-0.032-0.09-0.032-0.112
	c-0.181,0.06-0.242,0.09-0.186,0.09C5.953,4.095,5.903,4.128,5.833,4.178C5.815,4.188,5.772,4.205,5.705,4.226
	c-0.05,0.018-0.074,0.036-0.074,0.053h0.234C5.922,4.286,6,4.29,6.104,4.29C6.188,4.29,6.23,4.265,6.23,4.215z M6.29,10.497H5.865
	l-0.043,0.891H6.21L6.29,10.497z M6.363,9.627H5.929l-0.032,0.62h0.414L6.363,9.627z M6.428,8.766H5.96L5.939,9.377h0.435
	L6.428,8.766z M6.518,7.966H6.003L5.981,8.518h0.478L6.518,7.966z M6.612,7.17h-0.54L6.04,7.717h0.52L6.612,7.17z M6.676,6.412
	H6.104L6.072,6.92h0.551L6.676,6.412z M9.69,8.125l-2.054,3.751c-0.054,0-0.08-0.048-0.08-0.144l0.233-1.241
	c0.135-0.732,0.336-1.829,0.605-3.29l0.238-1.268l2.53,0.085l-0.466,5.784c-0.029,0.027-0.054,0.041-0.074,0.041
	c-0.061,0-0.105-0.044-0.133-0.132c-0.033-0.15-0.074-0.333-0.128-0.554C10.147,10.19,9.923,9.18,9.69,8.125z M9.567,1.828
	C9.557,2.043,9.473,2.231,9.312,2.393C9.153,2.554,8.968,2.64,8.757,2.65C8.229,2.625,7.953,2.352,7.928,1.828
	c0.012-0.233,0.094-0.427,0.248-0.581C8.329,1.093,8.522,1.011,8.757,1C8.989,1.011,9.18,1.093,9.329,1.247
	C9.478,1.401,9.557,1.594,9.567,1.828z"/>
</svg>
