<?xml version="1.0" encoding="utf-8"?>
<!-- Generator: Adobe Illustrator 15.1.0, SVG Export Plug-In . SVG Version: 6.00 Build 0)  -->
<!DOCTYPE svg PUBLIC "-//W3C//DTD SVG 1.1//EN" "http://www.w3.org/Graphics/SVG/1.1/DTD/svg11.dtd">
<svg version="1.1" id="Layer_1" xmlns="http://www.w3.org/2000/svg" xmlns:xlink="http://www.w3.org/1999/xlink" x="0px" y="0px"
	 width="14.172px" height="14.172px" viewBox="0 0 14.172 14.172" enable-background="new 0 0 14.172 14.172" xml:space="preserve">
<g enable-background="new    ">
	<path d="M2.85,2.191c0.176-0.072,1.568-0.112,4.176-0.12c0.056,0,0.14,0,0.252,0c1.943,0,3.098,0.02,3.462,0.06
		s0.657,0.176,0.882,0.408c0.008,0.016,0.016,0.028,0.023,0.036c0.256,0.264,0.406,0.594,0.451,0.99
		c0.043,0.396,0.065,1.613,0.065,3.653c0,1.849-0.011,2.948-0.03,3.3c-0.02,0.353-0.078,0.624-0.174,0.816
		c-0.137,0.256-0.316,0.476-0.54,0.66l-0.336,0.264H6.99H2.91l-0.336-0.264c-0.232-0.185-0.412-0.404-0.54-0.66
		c-0.096-0.192-0.154-0.466-0.174-0.822c-0.02-0.355-0.03-1.458-0.03-3.306c0-1.584,0.008-2.622,0.024-3.114s0.056-0.806,0.12-0.941
		c0.08-0.208,0.202-0.4,0.366-0.576S2.673,2.271,2.85,2.191z M3.414,7.962c0.008-0.399-0.002-0.6-0.03-0.6
		c-0.028,0-0.074,0.056-0.138,0.168C3.182,7.659,3.153,7.806,3.162,7.974c0.008,0.168,0.048,0.305,0.12,0.408
		c0.064,0.088,0.104,0.096,0.12,0.024C3.41,8.351,3.414,8.203,3.414,7.962z M4.109,7.962C4.102,7.611,4.085,7.384,4.062,7.285
		C4.038,7.184,3.994,7.13,3.93,7.123c-0.072-0.016-0.116,0.02-0.132,0.108C3.781,7.319,3.773,7.554,3.773,7.938
		c0,0.393,0.01,0.631,0.03,0.715c0.02,0.084,0.072,0.126,0.156,0.126s0.134-0.04,0.15-0.12S4.125,8.346,4.109,7.962z M4.746,7.758
		c0-0.672-0.01-1.008-0.03-1.008c-0.021,0-0.08,0.104-0.18,0.312c-0.1,0.209-0.15,0.545-0.15,1.009c0,0.328,0.01,0.527,0.03,0.6
		s0.07,0.108,0.15,0.108c0.088,0,0.14-0.05,0.156-0.15C4.737,8.529,4.746,8.239,4.746,7.758z M5.333,8.55
		C5.35,8.399,5.357,8.063,5.357,7.542c0-0.52-0.008-0.855-0.024-1.008S5.281,6.306,5.226,6.306c-0.056,0-0.092,0.076-0.108,0.229
		C5.102,6.687,5.094,7.023,5.094,7.542c0,0.521,0.008,0.856,0.024,1.008c0.016,0.152,0.052,0.229,0.108,0.229
		C5.281,8.779,5.317,8.703,5.333,8.55z M6.054,7.483C6.03,6.579,5.97,6.126,5.874,6.126c-0.032,0-0.064,0.021-0.096,0.06
		c-0.041,0.041-0.06,0.48-0.06,1.32c0,0.608,0.008,0.972,0.024,1.092c0.016,0.12,0.068,0.181,0.156,0.181s0.138-0.061,0.15-0.181
		C6.06,8.478,6.062,8.107,6.054,7.483z M6.689,7.518v-1.26H6.461c-0.144,0-0.218,0.008-0.222,0.024
		C6.235,6.298,6.233,6.71,6.233,7.518v1.213l0.228,0.023l0.228,0.036V7.518z M8.561,5.718c-0.199-0.08-0.43-0.115-0.689-0.107
		S7.394,5.67,7.218,5.766L6.906,5.922L6.881,7.35L6.857,8.779h1.644c1.088,0,1.716-0.044,1.884-0.133
		c0.256-0.136,0.404-0.34,0.444-0.611c0.04-0.272-0.024-0.519-0.192-0.738s-0.396-0.33-0.684-0.33c-0.16,0-0.264-0.014-0.312-0.042
		C9.594,6.897,9.549,6.819,9.51,6.691C9.454,6.523,9.328,6.338,9.131,6.138C8.936,5.939,8.746,5.798,8.561,5.718z"/>
</g>
</svg>
