<?xml version="1.0" encoding="utf-8"?>
<!-- Generator: Adobe Illustrator 15.1.0, SVG Export Plug-In . SVG Version: 6.00 Build 0)  -->
<!DOCTYPE svg PUBLIC "-//W3C//DTD SVG 1.1//EN" "http://www.w3.org/Graphics/SVG/1.1/DTD/svg11.dtd">
<svg version="1.1" id="Layer_1" xmlns="http://www.w3.org/2000/svg" xmlns:xlink="http://www.w3.org/1999/xlink" x="0px" y="0px"
	 width="14.172px" height="14.172px" viewBox="0 0 14.172 14.172" enable-background="new 0 0 14.172 14.172" xml:space="preserve">
<g enable-background="new    ">
	<path d="M1.796,12.54V1H4.99c1.548,0,2.682,0.212,3.401,0.633C9.112,2.056,9.674,2.7,10.078,3.565
		c0.404,0.866,0.606,1.918,0.606,3.163c0,1.164-0.182,2.175-0.548,3.029c-0.367,0.855-0.918,1.533-1.654,2.035
		C7.745,12.29,6.65,12.54,5.198,12.54H1.796z M3.303,11.272h1.77c1.055,0,1.848-0.156,2.386-0.467s0.95-0.797,1.237-1.459
		c0.286-0.664,0.427-1.494,0.427-2.493c0-1.004-0.127-1.867-0.391-2.586c-0.259-0.72-0.658-1.25-1.188-1.593
		C7.012,2.333,6.177,2.163,5.031,2.163H3.303V11.272z"/>
</g>
</svg>
