<?xml version="1.0" encoding="utf-8"?>
<!-- Generator: Adobe Illustrator 15.1.0, SVG Export Plug-In . SVG Version: 6.00 Build 0)  -->
<!DOCTYPE svg PUBLIC "-//W3C//DTD SVG 1.1//EN" "http://www.w3.org/Graphics/SVG/1.1/DTD/svg11.dtd">
<svg version="1.1" id="Layer_1" xmlns="http://www.w3.org/2000/svg" xmlns:xlink="http://www.w3.org/1999/xlink" x="0px" y="0px"
	 width="14.172px" height="14.172px" viewBox="0 0 14.172 14.172" enable-background="new 0 0 14.172 14.172" xml:space="preserve">
<path d="M12.158,11.552h-9.9V2h9.9V11.552z M11.762,5.972L9.435,5.756l1.451-1.812L8.727,4.832l0.432-2.268l-1.5,1.764L6.975,2.132
	L6.482,4.376L4.838,2.744l0.624,2.22L3.23,4.268l1.596,1.68L2.534,6.356l2.208,0.756L2.895,8.528l2.315-0.36l-0.972,2.124
	l1.884-1.368l0.132,2.305l1.021-2.076l1.2,1.979L8.414,8.828l1.992,1.2L9.254,8.013l2.328,0.155l-1.956-1.26L11.762,5.972z
	 M9.458,6.32L8.294,6.212l0.721-0.9l-1.08,0.444l0.216-1.14L7.406,5.504L7.059,4.4l-0.24,1.128L5.99,4.712l0.312,1.104L5.187,5.48
	L5.99,6.32L4.838,6.524l1.104,0.372L5.019,7.604L6.17,7.437L5.69,8.48l0.948-0.685l0.06,1.152l0.516-1.032L7.814,8.9L7.778,7.748
	l0.996,0.6L8.198,7.341l1.164,0.084L8.391,6.788L9.458,6.32z"/>
</svg>
