<?xml version="1.0" encoding="utf-8"?>
<!-- Generator: Adobe Illustrator 15.1.0, SVG Export Plug-In . SVG Version: 6.00 Build 0)  -->
<!DOCTYPE svg PUBLIC "-//W3C//DTD SVG 1.1//EN" "http://www.w3.org/Graphics/SVG/1.1/DTD/svg11.dtd">
<svg version="1.1" id="Layer_1" xmlns="http://www.w3.org/2000/svg" xmlns:xlink="http://www.w3.org/1999/xlink" x="0px" y="0px"
	 width="14.172px" height="14.172px" viewBox="0 0 14.172 14.172" enable-background="new 0 0 14.172 14.172" xml:space="preserve">
<path d="M13.172,6.848c-0.008,0.18-0.062,0.32-0.163,0.42l-5.175,5.179c-0.138,0.141-0.283,0.209-0.438,0.209
	c-0.168,0-0.321-0.068-0.46-0.209L1.733,7.246c-0.1-0.142-0.151-0.288-0.151-0.438c0-0.175,0.066-0.329,0.197-0.459L6.93,1.2
	C7.061,1.067,7.199,1,7.349,1c0.137,0,0.304,0.065,0.497,0.196l5.152,5.152C13.117,6.513,13.176,6.679,13.172,6.848z M12.667,6.796
	c0-0.162-0.08-0.302-0.238-0.422L7.796,1.766C7.681,1.622,7.534,1.55,7.362,1.55c-0.161,0-0.309,0.079-0.44,0.237L2.388,6.302
	C2.191,6.5,2.093,6.672,2.093,6.818c0,0.149,0.067,0.292,0.203,0.427l4.631,4.63c0.153,0.154,0.306,0.232,0.459,0.232
	c0.126,0,0.267-0.078,0.419-0.232l4.621-4.618C12.586,7.125,12.667,6.972,12.667,6.796z M9.83,8.799H6.511
	C6.575,8.676,6.679,8.6,6.824,8.569c0.079-0.019,0.15-0.034,0.214-0.046c0-0.179,0.107-0.279,0.325-0.303
	c0.019-0.148,0.114-0.248,0.285-0.297L6.382,6.893L6.349,6.96c0.131,0.146,0.195,0.256,0.195,0.331c0,0.146-0.223,0.598-0.666,1.357
	C5.817,8.748,5.733,8.799,5.625,8.799c-0.16,0-0.241-0.08-0.241-0.241c0-0.123,0.185-0.528,0.555-1.217L5.283,6.534l0.022,0.589
	c0.007,0.187-0.071,0.553-0.236,1.098C5.006,8.43,4.962,8.572,4.935,8.647C4.891,8.748,4.813,8.799,4.705,8.799
	c-0.175,0-0.263-0.092-0.263-0.275l0.263-1.137V6.169c0-0.049,0.091-0.153,0.269-0.314C4.941,5.837,4.861,5.761,4.737,5.628
	c-0.126-0.133-0.189-0.21-0.189-0.233c0-0.052,0.026-0.079,0.079-0.079c0.018,0,0.067,0.032,0.146,0.096l0.073,0.056
	C4.888,5.144,4.948,4.885,5.03,4.695c0.057-0.127,0.126-0.191,0.208-0.191h1.16c0.097,0,0.24,0.147,0.426,0.442
	C7.012,5.241,7.105,5.425,7.105,5.5c0,0.19-0.217,0.61-0.646,1.259l1.377,1.107c0.1-0.188,0.244-0.284,0.432-0.284
	c0.093,0,0.192,0.038,0.299,0.115c0.106,0.076,0.172,0.16,0.193,0.25c0.049-0.023,0.088-0.034,0.117-0.034
	c0.09,0,0.168,0.048,0.232,0.144C9.176,8.15,9.207,8.246,9.207,8.34c0.084,0,0.139,0.027,0.169,0.084l0.039,0.072
	C9.646,8.496,9.784,8.597,9.83,8.799z M5.787,5.02H5.408C5.351,5.195,5.316,5.356,5.306,5.502L5.787,5.02z M6.359,5.928
	C6.207,5.988,6,6.08,5.743,6.203l0.33,0.252L6.359,5.928z M7.891,4.201c0,0.34-0.173,0.511-0.517,0.511
	c-0.328,0-0.493-0.17-0.493-0.511c0-0.336,0.165-0.504,0.493-0.504c0.135,0,0.255,0.05,0.358,0.151
	C7.838,3.949,7.891,4.067,7.891,4.201z"/>
</svg>
