<?xml version="1.0" encoding="utf-8"?>
<!-- Generator: Adobe Illustrator 15.1.0, SVG Export Plug-In . SVG Version: 6.00 Build 0)  -->
<!DOCTYPE svg PUBLIC "-//W3C//DTD SVG 1.1//EN" "http://www.w3.org/Graphics/SVG/1.1/DTD/svg11.dtd">
<svg version="1.1" id="Layer_1" xmlns="http://www.w3.org/2000/svg" xmlns:xlink="http://www.w3.org/1999/xlink" x="0px" y="0px"
	 width="14.172px" height="14.172px" viewBox="0 0 14.172 14.172" enable-background="new 0 0 14.172 14.172" xml:space="preserve">
<g enable-background="new    ">
	<path d="M7.596,4.347h1.326V9.72c0,0.542-0.098,0.946-0.289,1.214c-0.192,0.267-0.502,0.479-0.926,0.637
		c-0.426,0.158-0.884,0.236-1.375,0.236c-0.359,0-0.742-0.027-1.146-0.08v-0.713l0.279,0.021c0.259,0.019,0.468,0.027,0.627,0.027
		c0.438,0,0.798-0.076,1.08-0.229c0.283-0.152,0.424-0.521,0.424-1.114V4.347L7.596,4.347z M7.596,3.113v-0.86h1.326v0.86H7.596z"/>
</g>
</svg>
