<?xml version="1.0" encoding="utf-8"?>
<!-- Generator: Adobe Illustrator 15.1.0, SVG Export Plug-In . SVG Version: 6.00 Build 0)  -->
<!DOCTYPE svg PUBLIC "-//W3C//DTD SVG 1.1//EN" "http://www.w3.org/Graphics/SVG/1.1/DTD/svg11.dtd">
<svg version="1.1" id="Layer_1" xmlns="http://www.w3.org/2000/svg" xmlns:xlink="http://www.w3.org/1999/xlink" x="0px" y="0px"
	 width="14.172px" height="14.172px" viewBox="0 0 14.172 14.172" enable-background="new 0 0 14.172 14.172" xml:space="preserve">
<g enable-background="new    ">
	<path d="M5.133,6.828V5.879h0.715c0.553,0,0.984-0.088,1.299-0.264c0.312-0.174,0.562-0.394,0.745-0.659
		C8.077,4.692,8.17,4.399,8.17,4.078c0-0.414-0.153-0.74-0.455-0.979C7.415,2.86,7.016,2.74,6.522,2.74
		c-0.287,0-0.556,0.038-0.807,0.113c-0.25,0.075-0.441,0.2-0.573,0.375C5.01,3.403,4.944,3.585,4.944,3.775v0.069H3.857V3.775
		c0-0.495,0.209-0.949,0.63-1.363c0.419-0.414,1.118-0.62,2.095-0.62c0.926,0,1.624,0.198,2.088,0.594
		c0.465,0.397,0.696,0.909,0.696,1.536c0,0.339-0.067,0.656-0.202,0.952C9.028,5.17,8.831,5.436,8.566,5.668
		s-0.644,0.421-1.14,0.564c0.777,0.224,1.354,0.553,1.738,0.987c0.381,0.436,0.574,0.979,0.574,1.627
		c0,0.76-0.271,1.451-0.808,2.077c-0.538,0.628-1.349,0.94-2.436,0.94c-0.955,0-1.65-0.202-2.087-0.608
		C3.971,10.85,3.753,10.391,3.753,9.88V9.819h1.139V9.88c0,0.347,0.161,0.604,0.482,0.776c0.321,0.172,0.733,0.259,1.233,0.259
		c0.39,0,0.735-0.073,1.034-0.22c0.301-0.146,0.529-0.381,0.683-0.707c0.155-0.325,0.234-0.682,0.234-1.064
		c0-0.594-0.236-1.091-0.705-1.493C7.385,7.028,6.67,6.828,5.711,6.828H5.133z"/>
</g>
</svg>
