<?xml version="1.0" encoding="utf-8"?>
<!-- Generator: Adobe Illustrator 15.1.0, SVG Export Plug-In . SVG Version: 6.00 Build 0)  -->
<!DOCTYPE svg PUBLIC "-//W3C//DTD SVG 1.1//EN" "http://www.w3.org/Graphics/SVG/1.1/DTD/svg11.dtd">
<svg version="1.1" id="Layer_1" xmlns="http://www.w3.org/2000/svg" xmlns:xlink="http://www.w3.org/1999/xlink" x="0px" y="0px"
	 width="14.172px" height="14.172px" viewBox="0 0 14.172 14.172" enable-background="new 0 0 14.172 14.172" xml:space="preserve">
<g enable-background="new    ">
	<path d="M2.47,13.461V2.346C2.354,2.249,2.296,2.133,2.296,2c0-0.302,0.163-0.453,0.489-0.453c0.335,0,0.503,0.151,0.503,0.453
		c0,0.12-0.054,0.235-0.16,0.346V3.3C3.97,2.57,4.871,2.206,5.832,2.206c1.369,0,2.054,0.592,2.054,1.774v1.44
		c1.394,0.236,2.626-0.034,3.696-0.808v5.886c-0.768,0.604-1.663,0.906-2.684,0.906c-0.698,0-1.302-0.104-1.81-0.308
		c-0.508-0.203-0.762-0.445-0.762-0.725V8.161C6.105,8.134,5.945,8.12,5.849,8.12c-1.018,0-1.924,0.385-2.72,1.154v4.188H2.47z
		 M3.129,8.807c0.806-0.676,1.72-1.014,2.742-1.014c0.603,0,1.165,0.116,1.688,0.347V4.024c0-0.995-0.576-1.492-1.728-1.492
		c-0.92,0-1.821,0.397-2.702,1.193V8.807z M11.255,5.247C10.447,5.635,9.654,5.83,8.877,5.83c-0.373,0-0.704-0.028-0.992-0.083
		v3.081c0,0.35-0.191,0.614-0.574,0.793L7.132,9.7c-0.378,0.175-0.566,0.35-0.566,0.527c0,0.221,0.244,0.419,0.729,0.591
		c0.486,0.174,1.034,0.26,1.642,0.26c0.853,0,1.626-0.243,2.318-0.726V5.247z M6.652,9.574c0.657-0.32,0.986-0.589,0.986-0.807
		c0-0.285-0.329-0.471-0.986-0.561V9.574z"/>
</g>
</svg>
