<?xml version="1.0" encoding="utf-8"?>
<!-- Generator: Adobe Illustrator 15.1.0, SVG Export Plug-In . SVG Version: 6.00 Build 0)  -->
<!DOCTYPE svg PUBLIC "-//W3C//DTD SVG 1.1//EN" "http://www.w3.org/Graphics/SVG/1.1/DTD/svg11.dtd">
<svg version="1.1" id="Layer_1" xmlns="http://www.w3.org/2000/svg" xmlns:xlink="http://www.w3.org/1999/xlink" x="0px" y="0px"
	 width="14.172px" height="14.172px" viewBox="0 0 14.172 14.172" enable-background="new 0 0 14.172 14.172" xml:space="preserve">
<path d="M5.908,5.228C5.431,5.499,5.18,5.934,5.156,6.533H1.442c0.053-1.016,0.31-1.916,0.771-2.701
	C2.674,3.047,3.295,2.437,4.076,2L5.908,5.228z M9.288,11.018c-0.913,0.484-1.778,0.729-2.597,0.729
	c-0.829,0-1.697-0.244-2.604-0.729l1.834-3.145c0.217,0.11,0.474,0.174,0.771,0.195C6.951,8.052,7.186,7.977,7.4,7.844L9.288,11.018
	z M7.687,6.533C7.673,6.795,7.57,7.026,7.377,7.224C7.184,7.423,6.953,7.53,6.691,7.546c-0.4-0.024-0.694-0.192-0.874-0.504
	c-0.093-0.157-0.14-0.327-0.14-0.509c0-0.275,0.101-0.513,0.304-0.713c0.201-0.2,0.437-0.298,0.709-0.294
	c0.283,0.008,0.516,0.107,0.701,0.297C7.575,6.013,7.673,6.25,7.687,6.533z M11.935,6.533H8.208C8.184,5.897,7.94,5.455,7.48,5.204
	L9.301,2c0.792,0.429,1.416,1.036,1.874,1.82C11.644,4.625,11.897,5.529,11.935,6.533z"/>
</svg>
