<?xml version="1.0" encoding="utf-8"?>
<!-- Generator: Adobe Illustrator 15.1.0, SVG Export Plug-In . SVG Version: 6.00 Build 0)  -->
<!DOCTYPE svg PUBLIC "-//W3C//DTD SVG 1.1//EN" "http://www.w3.org/Graphics/SVG/1.1/DTD/svg11.dtd">
<svg version="1.1" id="Layer_1" xmlns="http://www.w3.org/2000/svg" xmlns:xlink="http://www.w3.org/1999/xlink" x="0px" y="0px"
	 width="14.172px" height="14.172px" viewBox="0 0 14.172 14.172" enable-background="new 0 0 14.172 14.172" xml:space="preserve">
<path d="M12.177,10.722c0,0.1-0.042,0.191-0.128,0.275c-0.085,0.086-0.177,0.129-0.275,0.129H2.255c-0.087,0-0.167-0.037-0.24-0.111
	c-0.073-0.072-0.109-0.152-0.109-0.238c0-0.088,0.023-0.172,0.071-0.256L6.745,2.22C6.829,2.073,6.945,2,7.095,2
	c0.113,0,0.212,0.073,0.296,0.22l4.746,8.355C12.163,10.614,12.177,10.663,12.177,10.722z M11.321,10.485L7.059,2.927l-4.303,7.559
	H11.321z M10.368,9.822c0,0.173-0.088,0.26-0.265,0.26h-6c-0.224,0-0.336-0.074-0.336-0.224c0-0.051,0.013-0.104,0.036-0.161
	l3.054-5.311c0.054-0.075,0.124-0.112,0.211-0.112c0.098,0,0.168,0.037,0.21,0.112l3.045,5.279
	C10.353,9.717,10.368,9.769,10.368,9.822z M9.857,9.647L7.059,4.888L4.354,9.647H9.857z M6.987,7.96
	C6.913,7.992,6.875,8.048,6.875,8.125L6.804,8.184c-0.116-0.167-0.282-0.25-0.497-0.25S5.926,8.017,5.81,8.184
	C5.762,8.252,5.727,8.329,5.702,8.412C5.696,8.437,5.685,8.448,5.666,8.448c-0.021,0-0.031-0.01-0.031-0.027
	c0-0.304,0.12-0.531,0.358-0.681c0.078-0.047,0.15-0.084,0.22-0.107c0-0.039-0.003-0.067-0.009-0.085V7.467
	c0-0.143,0.037-0.281,0.111-0.412C6.402,6.906,6.504,6.802,6.62,6.742c0.006-0.006,0.012-0.009,0.018-0.009h0.01
	C6.653,6.742,6.656,6.751,6.656,6.76C6.65,6.778,6.631,6.803,6.598,6.836C6.49,6.925,6.437,7.066,6.437,7.257
	c0,0.367,0.184,0.571,0.551,0.613V7.96z M8.049,9.173C8.046,9.179,8.04,9.185,8.03,9.19c-0.128,0.066-0.269,0.1-0.421,0.1
	c-0.128,0-0.288-0.048-0.479-0.144C7.101,9.12,7.077,9.101,7.059,9.089L6.92,9.183C6.807,9.26,6.666,9.299,6.499,9.299
	c-0.286,0-0.43-0.045-0.43-0.135c0.003-0.012,0.012-0.018,0.027-0.018h0.026c0.06,0.024,0.124,0.036,0.192,0.036
	c0.23,0,0.408-0.107,0.533-0.322c0.054-0.094,0.08-0.193,0.08-0.301c0-0.086-0.018-0.173-0.054-0.26l0.072-0.036
	C6.979,8.288,7.018,8.3,7.059,8.3c0.042,0,0.078-0.012,0.107-0.036L7.242,8.3C7.201,8.387,7.18,8.474,7.18,8.56
	c0,0.221,0.106,0.398,0.318,0.533c0.099,0.06,0.203,0.09,0.313,0.09c0.06,0,0.12-0.012,0.184-0.036h0.018
	C8.036,9.146,8.049,9.155,8.049,9.173z M6.849,8.771C6.84,8.8,6.812,8.849,6.764,8.913C6.396,8.776,6.213,8.511,6.213,8.117
	l0.014-0.148h0.17C6.385,8.025,6.378,8.074,6.378,8.117C6.378,8.454,6.535,8.672,6.849,8.771z M7.601,7.467
	C7.583,7.5,7.555,7.549,7.516,7.615C7.388,7.499,7.235,7.44,7.059,7.44c-0.17,0-0.323,0.058-0.461,0.175
	C6.574,7.582,6.559,7.56,6.553,7.548L6.518,7.476c0.158-0.134,0.338-0.201,0.541-0.201C7.25,7.275,7.431,7.339,7.601,7.467z
	 M8.479,8.412C8.473,8.437,8.464,8.448,8.451,8.448c-0.018,0-0.029-0.012-0.035-0.036C8.377,8.242,8.272,8.104,8.103,8
	c-0.084-0.051-0.184-0.076-0.3-0.076c-0.213,0-0.375,0.087-0.488,0.26L7.242,8.135c0-0.042-0.01-0.078-0.031-0.107
	C7.19,7.997,7.163,7.975,7.131,7.96V7.861C7.292,7.85,7.424,7.785,7.527,7.669C7.63,7.552,7.682,7.412,7.682,7.248
	c0-0.179-0.07-0.33-0.211-0.453C7.465,6.778,7.462,6.766,7.462,6.76c0-0.018,0.003-0.03,0.009-0.036
	c0.012,0,0.021,0.003,0.027,0.009C7.772,6.906,7.91,7.151,7.91,7.467V7.53C7.903,7.554,7.9,7.588,7.9,7.633
	C7.948,7.645,8.026,7.684,8.134,7.75C8.363,7.89,8.479,8.11,8.479,8.412z M7.9,8.117c0.013,0.176-0.035,0.339-0.143,0.487
	C7.659,8.741,7.523,8.845,7.35,8.913C7.314,8.872,7.287,8.824,7.27,8.771C7.4,8.729,7.514,8.646,7.609,8.52
	c0.09-0.116,0.135-0.251,0.135-0.402c0-0.043-0.009-0.092-0.027-0.148h0.175L7.9,8.117z"/>
</svg>
