<?xml version="1.0" encoding="utf-8"?>
<!-- Generator: Adobe Illustrator 15.1.0, SVG Export Plug-In . SVG Version: 6.00 Build 0)  -->
<!DOCTYPE svg PUBLIC "-//W3C//DTD SVG 1.1//EN" "http://www.w3.org/Graphics/SVG/1.1/DTD/svg11.dtd">
<svg version="1.1" id="Layer_1" xmlns="http://www.w3.org/2000/svg" xmlns:xlink="http://www.w3.org/1999/xlink" x="0px" y="0px"
	 width="14.172px" height="14.172px" viewBox="0 0 14.172 14.172" enable-background="new 0 0 14.172 14.172" xml:space="preserve">
<g enable-background="new    ">
	<path d="M2.905,2.175c0.176-0.092,0.353-0.148,0.533-0.169c0.18-0.021,0.529-0.032,1.047-0.032c1.011,0,1.384,0.063,1.116,0.189
		C5.584,2.171,5.564,2.179,5.539,2.188C5.463,2.213,5.284,2.435,5,2.853C4.422,3.705,4.226,4.6,4.41,5.536
		c0.142,0.719,0.439,1.308,0.891,1.769l0.3,0.301L5.488,8.759c-0.075,0.77-0.098,1.17-0.069,1.204
		c0.029,0.033,0.403-0.172,1.123-0.614l1.079-0.652l0.451,0.1c0.661,0.134,1.394,0.111,2.201-0.069
		c0.808-0.18,1.46-0.465,1.963-0.857c0.226-0.185,0.354-0.277,0.389-0.277c0.033,0,0.05,0.628,0.05,1.882
		c0,0.895-0.01,1.45-0.03,1.668c-0.021,0.218-0.082,0.423-0.183,0.614c-0.143,0.268-0.363,0.493-0.665,0.678l-0.438,0.275H7.382
		c-2.651,0-4.059-0.021-4.227-0.063c-0.192-0.058-0.408-0.204-0.646-0.438c-0.238-0.233-0.399-0.459-0.483-0.677
		c-0.066-0.167-0.106-0.502-0.119-1.003c-0.013-0.502-0.015-1.622-0.007-3.361l0.038-3.976L2.215,2.79
		C2.399,2.522,2.629,2.317,2.905,2.175z M8.11,2.676c0.359-0.092,0.672-0.138,0.94-0.138c0.268,0,0.585,0.042,0.953,0.125
		c0.359,0.083,0.704,0.235,1.034,0.452s0.588,0.455,0.771,0.714C12,4.106,12.106,4.433,12.124,4.808
		c0.016,0.377-0.056,0.703-0.215,0.979c-0.149,0.251-0.327,0.46-0.532,0.626c-0.204,0.167-0.495,0.339-0.872,0.515
		c-0.233,0.109-0.435,0.177-0.602,0.207C9.735,7.165,9.463,7.179,9.088,7.179c-0.385,0-0.662-0.017-0.829-0.05
		C8.093,7.095,7.892,7.024,7.658,6.916C7.282,6.749,6.991,6.581,6.787,6.414C6.582,6.248,6.408,6.042,6.266,5.799
		C6.074,5.498,5.99,5.183,6.015,4.852c0.025-0.33,0.117-0.637,0.276-0.921C6.45,3.647,6.69,3.392,7.012,3.166
		C7.334,2.94,7.7,2.777,8.11,2.676z"/>
</g>
</svg>
