<?xml version="1.0" encoding="utf-8"?>
<!-- Generator: Adobe Illustrator 15.1.0, SVG Export Plug-In . SVG Version: 6.00 Build 0)  -->
<!DOCTYPE svg PUBLIC "-//W3C//DTD SVG 1.1//EN" "http://www.w3.org/Graphics/SVG/1.1/DTD/svg11.dtd">
<svg version="1.1" id="Layer_1" xmlns="http://www.w3.org/2000/svg" xmlns:xlink="http://www.w3.org/1999/xlink" x="0px" y="0px"
	 width="14.172px" height="14.172px" viewBox="0 0 14.172 14.172" enable-background="new 0 0 14.172 14.172" xml:space="preserve">
<g enable-background="new    ">
	<path d="M11.05,11.377c0,0.573-0.271,0.858-0.811,0.858H2.726c-0.541,0-0.811-0.285-0.811-0.858V1.765
		c0-0.579,0.27-0.871,0.811-0.871h7.514c0.54,0,0.811,0.292,0.811,0.871V11.377z M10.848,11.377V1.765
		c0-0.445-0.203-0.667-0.608-0.667H2.726c-0.406,0-0.609,0.222-0.609,0.667v9.613c0,0.445,0.203,0.667,0.609,0.667h7.514
		C10.645,12.044,10.848,11.823,10.848,11.377z M3.883,2.921H3.334V2.754h0.167L3.394,2.433H2.869L2.762,2.754h0.167v0.167H2.38
		V2.754h0.167L2.929,1.67H2.762V1.515h0.739V1.67H3.334l0.382,1.084h0.167V2.921z M3.68,3.9c0,0.175-0.083,0.263-0.25,0.263
		c-0.15,0-0.242-0.061-0.274-0.18C3.187,4.238,3.238,4.429,3.31,4.556c-0.04-0.007-0.099-0.011-0.179-0.011
		c-0.087,0-0.147,0.004-0.178,0.011c0.063-0.119,0.115-0.31,0.154-0.573c-0.04,0.119-0.135,0.18-0.286,0.18
		c-0.16,0-0.239-0.088-0.239-0.263c0-0.064,0.183-0.298,0.548-0.703C3.497,3.593,3.68,3.829,3.68,3.9z M3.346,2.254L3.143,1.67
		H3.119l-0.19,0.584H3.346z M8.927,6.583c0,0.303-0.099,0.563-0.298,0.781C8.431,7.583,8.18,7.692,7.877,7.692
		c-0.564,0-0.985-0.317-1.264-0.953H6.602c0,1.376,0.612,2.083,1.837,2.123l0.022,0.189H4.502l0.024-0.189
		c1.232-0.04,1.849-0.747,1.849-2.123H6.351c-0.278,0.636-0.7,0.953-1.264,0.953c-0.303,0-0.553-0.109-0.752-0.328
		C4.137,7.146,4.038,6.886,4.038,6.583c0-0.373,0.183-0.759,0.548-1.157c0.365-0.358,0.731-0.72,1.097-1.085
		C6.105,3.88,6.371,3.403,6.482,2.91c0.104,0.493,0.37,0.97,0.799,1.431c0.365,0.358,0.731,0.72,1.097,1.085
		C8.744,5.824,8.927,6.21,8.927,6.583z M10.584,10.388h-0.166l-0.382,1.085h0.167v0.154h-0.74v-0.154h0.168L9.25,10.388H9.082v-0.18
		h0.55v0.18H9.463l0.108,0.321h0.525l0.106-0.321h-0.167v-0.18h0.548V10.388z M10.382,9.243c0,0.057-0.183,0.29-0.549,0.704
		C9.469,9.542,9.286,9.306,9.286,9.243c0-0.175,0.083-0.263,0.25-0.263c0.151,0,0.242,0.061,0.274,0.18
		C9.778,8.897,9.726,8.703,9.655,8.576c0.04,0.015,0.1,0.023,0.179,0.023c0.088,0,0.147-0.009,0.18-0.023
		C9.949,8.695,9.897,8.889,9.858,9.16c0.039-0.119,0.135-0.18,0.287-0.18C10.303,8.98,10.382,9.068,10.382,9.243z M10.037,10.876
		H9.62l0.202,0.597h0.023L10.037,10.876z"/>
</g>
</svg>
