<?xml version="1.0" encoding="utf-8"?>
<!-- Generator: Adobe Illustrator 15.1.0, SVG Export Plug-In . SVG Version: 6.00 Build 0)  -->
<!DOCTYPE svg PUBLIC "-//W3C//DTD SVG 1.1//EN" "http://www.w3.org/Graphics/SVG/1.1/DTD/svg11.dtd">
<svg version="1.1" id="Layer_1" xmlns="http://www.w3.org/2000/svg" xmlns:xlink="http://www.w3.org/1999/xlink" x="0px" y="0px"
	 width="14.172px" height="14.172px" viewBox="0 0 14.172 14.172" enable-background="new 0 0 14.172 14.172" xml:space="preserve">
<g enable-background="new    ">
	<path d="M10.908,3.101c0.284,0.693,0.429,1.383,0.429,2.07c0,0.705-0.158,1.392-0.472,2.061H9.842
		c-0.232,0-0.402,0.037-0.514,0.116C9.217,7.428,9.03,7.645,8.768,7.999L8.525,8.321C8.256,8.688,8.068,8.934,7.959,9.063
		l-1.625,1.721l-0.437,1.938l-0.244-0.061c-0.919-0.217-1.379-0.758-1.379-1.624c0-0.314,0.155-0.759,0.463-1.335l0.132-0.245
		c0.254-0.49,0.416-0.998,0.486-1.521H5.11c-0.843,0-1.524-0.146-2.042-0.439C2.55,7.202,2.293,6.818,2.293,6.347
		c0-0.413,0.159-0.788,0.479-1.126C2.644,5.019,2.58,4.827,2.58,4.646c0-0.448,0.236-0.736,0.708-0.864
		C3.269,3.675,3.261,3.592,3.261,3.528c0-0.54,0.314-0.837,0.943-0.89C4.192,2.562,4.186,2.506,4.186,2.472
		c0-0.303,0.105-0.529,0.319-0.681c0.213-0.152,0.533-0.226,0.964-0.226h0.384l0.306,0.156c0.385-0.104,0.721-0.156,1.014-0.156
		c0.104,0,0.268,0.009,0.488,0.027c0.699,0.32,1.348,0.823,1.947,1.509L10.908,3.101L10.908,3.101z M6.158,2.186L5.81,2.019
		c-0.148-0.03-0.258-0.044-0.334-0.044c-0.288,0-0.502,0.056-0.647,0.167c-0.143,0.11-0.216,0.273-0.216,0.488
		c0,0.122,0.01,0.265,0.028,0.427c-0.635,0-0.953,0.175-0.953,0.525c0,0.07,0.025,0.235,0.077,0.498
		c-0.482,0.098-0.722,0.28-0.722,0.54c0,0.163,0.108,0.382,0.324,0.654C2.948,5.641,2.736,6.017,2.736,6.401
		c0,0.372,0.23,0.651,0.694,0.833c0.463,0.184,1.157,0.275,2.081,0.275h0.315L5.818,7.753c0,0.687-0.226,1.408-0.68,2.165
		L5.024,10.11c-0.198,0.332-0.297,0.642-0.297,0.926c0,0.547,0.292,0.919,0.873,1.117l0.35-1.614l1.754-1.869
		C8,8.297,8.225,8.01,8.375,7.805c0.379-0.524,0.658-0.83,0.842-0.916c0.184-0.086,0.645-0.131,1.377-0.131
		c0.197-0.553,0.297-1.114,0.297-1.685c0-0.483-0.092-0.989-0.271-1.52H9.417C8.92,2.897,8.297,2.357,7.547,1.939L7.301,1.947
		C6.848,1.947,6.466,2.026,6.158,2.186z"/>
</g>
</svg>
