<?xml version="1.0" encoding="utf-8"?>
<!-- Generator: Adobe Illustrator 15.1.0, SVG Export Plug-In . SVG Version: 6.00 Build 0)  -->
<!DOCTYPE svg PUBLIC "-//W3C//DTD SVG 1.1//EN" "http://www.w3.org/Graphics/SVG/1.1/DTD/svg11.dtd">
<svg version="1.1" id="Layer_1" xmlns="http://www.w3.org/2000/svg" xmlns:xlink="http://www.w3.org/1999/xlink" x="0px" y="0px"
	 width="14.172px" height="14.172px" viewBox="0 0 14.172 14.172" enable-background="new 0 0 14.172 14.172" xml:space="preserve">
<g enable-background="new    ">
	<path d="M8.184,13.375H4.8v-0.271c1.054-1.037,1.749-1.796,2.087-2.275c0.322-0.456,0.483-0.896,0.483-1.32
		c0-0.307-0.091-0.566-0.271-0.778C6.918,8.518,6.691,8.412,6.416,8.412c-0.582,0-0.963,0.311-1.144,0.932H4.953
		c0.165-1.155,0.719-1.734,1.663-1.734c0.433,0,0.816,0.146,1.15,0.437c0.333,0.292,0.5,0.656,0.5,1.097
		c0,0.661-0.408,1.428-1.226,2.3l-1.061,1.132h1.474c0.417,0,0.696-0.146,0.836-0.437l0.343,0.013L8.184,13.375z M5.59,6.465v-0.33
		C5.928,6.128,6.13,6.093,6.198,6.029c0.066-0.063,0.1-0.235,0.1-0.518v-3.29c0-0.267-0.012-0.446-0.035-0.537
		c-0.024-0.09-0.086-0.136-0.189-0.136c-0.071,0-0.228,0.047-0.471,0.142L5.46,1.408l1.438-0.708h0.26v4.598
		c0,0.337,0.028,0.55,0.083,0.637C7.319,6.069,7.52,6.135,7.842,6.135v0.33H5.59z"/>
</g>
</svg>
