<?xml version="1.0" encoding="utf-8"?>
<!-- Generator: Adobe Illustrator 15.1.0, SVG Export Plug-In . SVG Version: 6.00 Build 0)  -->
<!DOCTYPE svg PUBLIC "-//W3C//DTD SVG 1.1//EN" "http://www.w3.org/Graphics/SVG/1.1/DTD/svg11.dtd">
<svg version="1.1" id="Layer_1" xmlns="http://www.w3.org/2000/svg" xmlns:xlink="http://www.w3.org/1999/xlink" x="0px" y="0px"
	 width="14.172px" height="14.172px" viewBox="0 0 14.172 14.172" enable-background="new 0 0 14.172 14.172" xml:space="preserve">
<g enable-background="new    ">
	<path d="M10.938,8.083c0,0.599-0.591,1.061-1.771,1.385C8.33,9.698,7.492,9.813,6.653,9.813S4.977,9.698,4.139,9.467
		c-1.18-0.324-1.77-0.786-1.77-1.385V5.953c0-0.565,0.603-1.001,1.808-1.309c0.847-0.214,1.672-0.32,2.476-0.32
		c0.804,0,1.629,0.106,2.476,0.32c1.206,0.308,1.809,0.744,1.809,1.309V8.083z M10.695,6.068c0-0.53-0.562-0.937-1.682-1.219
		C8.226,4.662,7.44,4.567,6.653,4.567c-0.787,0-1.573,0.095-2.36,0.282c-1.12,0.282-1.68,0.689-1.68,1.219
		c0,0.573,0.551,1.009,1.654,1.309C5.045,7.581,5.84,7.684,6.653,7.684c0.812,0,1.608-0.103,2.386-0.307
		C10.142,7.077,10.695,6.641,10.695,6.068z M2.998,8.723V7.095C2.844,6.992,2.716,6.872,2.613,6.735v1.347
		C2.613,8.321,2.741,8.535,2.998,8.723z M9.898,5.939c0,0.462-0.448,0.8-1.346,1.013C7.961,7.099,7.329,7.171,6.653,7.171
		c-0.676,0-1.309-0.073-1.898-0.219C3.857,6.739,3.408,6.401,3.408,5.939c0-0.453,0.449-0.786,1.347-1
		c0.59-0.146,1.223-0.219,1.898-0.219c0.675,0,1.308,0.073,1.899,0.219C9.45,5.153,9.898,5.487,9.898,5.939z M3.78,9.108V7.479
		C3.694,7.445,3.57,7.393,3.408,7.326v1.628C3.485,8.997,3.609,9.048,3.78,9.108z M9.655,5.939c0-0.342-0.423-0.603-1.27-0.782
		C7.794,5.029,7.218,4.965,6.653,4.965c-0.564,0-1.138,0.06-1.719,0.18C4.08,5.333,3.652,5.598,3.652,5.939
		c0,0.351,0.428,0.616,1.283,0.796c0.581,0.128,1.155,0.192,1.719,0.192c0.564,0,1.137-0.063,1.719-0.192
		C9.227,6.556,9.655,6.291,9.655,5.939z M4.665,9.338V7.723c-0.137-0.034-0.303-0.077-0.5-0.129V9.21
		C4.387,9.271,4.554,9.313,4.665,9.338z M7.679,9.493V7.877C7.337,7.911,6.995,7.928,6.653,7.928c-0.556,0-1.138-0.051-1.744-0.154
		v1.604C5.567,9.506,6.148,9.57,6.653,9.57C6.918,9.57,7.26,9.544,7.679,9.493z M7.679,5.939c0,0.334-0.342,0.5-1.026,0.5
		c-0.685,0-1.026-0.166-1.026-0.5c0-0.324,0.342-0.488,1.026-0.488C7.337,5.452,7.679,5.615,7.679,5.939z M7.436,5.939
		c0-0.077-0.111-0.141-0.333-0.192C6.931,5.714,6.782,5.696,6.653,5.696S6.375,5.714,6.205,5.748
		C5.982,5.799,5.871,5.863,5.871,5.939c0,0.085,0.111,0.154,0.333,0.206c0.171,0.025,0.32,0.039,0.449,0.039
		c0.137,0,0.282-0.014,0.436-0.039C7.321,6.094,7.436,6.025,7.436,5.939z M8.385,9.377V7.774C8.257,7.792,8.103,7.812,7.923,7.838
		v1.616C8.034,9.437,8.188,9.412,8.385,9.377z M9.04,9.25V7.632C8.971,7.641,8.873,7.664,8.744,7.698v1.615
		C8.83,9.296,8.927,9.275,9.04,9.25z M9.86,8.967V7.338C9.757,7.389,9.638,7.437,9.501,7.479v1.629
		C9.655,9.056,9.775,9.01,9.86,8.967z M10.695,8.083V6.735c-0.095,0.128-0.203,0.235-0.321,0.32v1.616
		C10.586,8.492,10.695,8.295,10.695,8.083z"/>
</g>
</svg>
