<?xml version="1.0" encoding="utf-8"?>
<!-- Generator: Adobe Illustrator 15.1.0, SVG Export Plug-In . SVG Version: 6.00 Build 0)  -->
<!DOCTYPE svg PUBLIC "-//W3C//DTD SVG 1.1//EN" "http://www.w3.org/Graphics/SVG/1.1/DTD/svg11.dtd">
<svg version="1.1" id="Layer_1" xmlns="http://www.w3.org/2000/svg" xmlns:xlink="http://www.w3.org/1999/xlink" x="0px" y="0px"
	 width="14.172px" height="14.172px" viewBox="0 0 14.172 14.172" enable-background="new 0 0 14.172 14.172" xml:space="preserve">
<path d="M6.878,6.921c-0.21,0.095-0.315,0.242-0.315,0.443v0.068L6.346,7.569c-0.368-0.487-0.86-0.731-1.475-0.731
	c-0.628,0-1.114,0.248-1.459,0.743C3.262,7.799,3.157,8.029,3.101,8.27C3.073,8.344,3.033,8.381,2.98,8.381
	c-0.042,0-0.063-0.033-0.063-0.1c0-0.377,0.097-0.755,0.29-1.135c0.2-0.394,0.456-0.684,0.77-0.871
	c0.256-0.151,0.472-0.257,0.648-0.316C4.585,5.787,4.565,5.628,4.565,5.484c0-0.443,0.108-0.856,0.324-1.238
	C5.105,3.864,5.401,3.559,5.777,3.33C5.798,3.316,5.815,3.309,5.83,3.309c0.014,0,0.024,0.003,0.031,0.01
	C5.882,3.337,5.894,3.36,5.894,3.388C5.756,3.574,5.595,3.811,5.409,4.095C5.3,4.328,5.245,4.578,5.245,4.846
	c0,0.472,0.153,0.88,0.461,1.225C6.013,6.416,6.4,6.612,6.867,6.662L6.878,6.921z M9.991,10.482c0,0.027-0.019,0.055-0.053,0.078
	c-0.372,0.2-0.778,0.301-1.217,0.301c-0.324,0-0.581-0.031-0.774-0.101c-0.155-0.051-0.378-0.173-0.67-0.363
	c-0.073-0.048-0.14-0.099-0.199-0.151L6.693,10.52c-0.39,0.228-0.808,0.342-1.254,0.342c-0.167,0-0.398-0.031-0.689-0.098
	c-0.38-0.081-0.57-0.18-0.57-0.293c0-0.041,0.032-0.062,0.095-0.062h0.053c0.186,0.062,0.376,0.095,0.574,0.095
	c0.315,0,0.618-0.086,0.907-0.258c0.291-0.172,0.514-0.397,0.67-0.674c0.156-0.277,0.234-0.578,0.234-0.901
	c0-0.242-0.052-0.483-0.152-0.722l0.216-0.132c0.08,0.081,0.186,0.122,0.315,0.122c0.113,0,0.216-0.041,0.311-0.122l0.205,0.132
	C7.502,8.188,7.446,8.432,7.446,8.682c0,0.688,0.31,1.209,0.928,1.564c0.302,0.172,0.611,0.258,0.927,0.258
	c0.189,0,0.371-0.033,0.542-0.095h0.053C9.959,10.409,9.991,10.435,9.991,10.482z M6.478,9.309C6.453,9.363,6.374,9.505,6.24,9.729
	C5.777,9.562,5.388,9.258,5.074,8.819C4.76,8.381,4.602,7.955,4.602,7.543c0-0.049,0.002-0.096,0.006-0.142L4.645,6.97
	c0.043-0.007,0.087-0.01,0.137-0.01h0.122c0.098,0,0.177,0.003,0.236,0.01C5.104,7.135,5.087,7.279,5.087,7.402
	c0,0.442,0.127,0.836,0.379,1.183C5.719,8.93,6.057,9.171,6.478,9.309z M8.68,5.489c-0.07,0.151-0.154,0.292-0.253,0.422
	C8.055,5.574,7.609,5.405,7.094,5.405c-0.519,0-0.97,0.172-1.349,0.516c-0.08-0.102-0.13-0.168-0.146-0.2
	C5.58,5.69,5.545,5.616,5.492,5.5c0.465-0.386,0.997-0.579,1.602-0.579C7.691,4.921,8.22,5.11,8.68,5.489z M11.255,8.27
	c-0.014,0.067-0.043,0.102-0.084,0.102c-0.049,0-0.083-0.037-0.1-0.11c-0.06-0.261-0.16-0.487-0.301-0.68
	c-0.373-0.503-0.869-0.754-1.49-0.754c-0.607,0-1.093,0.248-1.454,0.742L7.62,7.443c0-0.129-0.026-0.236-0.081-0.321
	S7.403,6.971,7.294,6.922V6.654C7.769,6.604,8.156,6.41,8.461,6.069c0.304-0.34,0.455-0.75,0.455-1.227
	c0-0.537-0.201-0.987-0.605-1.348C8.283,3.458,8.268,3.423,8.268,3.388c0-0.039,0.016-0.065,0.043-0.079h0.021
	C8.35,3.312,8.37,3.319,8.395,3.33c0.801,0.495,1.201,1.211,1.201,2.149v0.195c-0.007,0.078-0.022,0.174-0.047,0.29
	c0.06,0.018,0.135,0.048,0.227,0.089c0.154,0.074,0.31,0.156,0.469,0.248c0.228,0.134,0.453,0.386,0.677,0.758
	C11.144,7.432,11.255,7.836,11.255,8.27z M9.575,7.402C9.579,7.455,9.58,7.507,9.58,7.56c0,0.432-0.149,0.855-0.448,1.272
	C8.834,9.248,8.434,9.55,7.932,9.74C7.84,9.617,7.765,9.475,7.705,9.309c0.432-0.133,0.772-0.372,1.02-0.715
	c0.248-0.342,0.37-0.739,0.37-1.192c0-0.13-0.017-0.274-0.053-0.432c0.046-0.007,0.094-0.01,0.143-0.01h0.353L9.575,7.402z"/>
</svg>
