<?xml version="1.0" encoding="utf-8"?>
<!-- Generator: Adobe Illustrator 15.1.0, SVG Export Plug-In . SVG Version: 6.00 Build 0)  -->
<!DOCTYPE svg PUBLIC "-//W3C//DTD SVG 1.1//EN" "http://www.w3.org/Graphics/SVG/1.1/DTD/svg11.dtd">
<svg version="1.1" id="Layer_1" xmlns="http://www.w3.org/2000/svg" xmlns:xlink="http://www.w3.org/1999/xlink" x="0px" y="0px"
	 width="14.172px" height="14.172px" viewBox="0 0 14.172 14.172" enable-background="new 0 0 14.172 14.172" xml:space="preserve">
<path d="M12.858,7.382c0,0.219-0.111,0.331-0.331,0.331H1.631c-0.221,0-0.332-0.111-0.332-0.331V6.177
	c0-0.221,0.111-0.331,0.332-0.331h10.896c0.22,0,0.331,0.11,0.331,0.331V7.382z M12.195,7.05V6.508H1.961V7.05H12.195z
	 M10.436,4.959c0,0.221-0.11,0.331-0.331,0.331H4.053c-0.221,0-0.331-0.11-0.331-0.331V3.753c0-0.22,0.11-0.331,0.331-0.331h6.052
	c0.221,0,0.331,0.11,0.331,0.331V4.959z M10.436,9.806c0,0.22-0.11,0.329-0.331,0.329H4.053c-0.221,0-0.331-0.109-0.331-0.329V8.6
	c0-0.221,0.11-0.33,0.331-0.33h6.052c0.221,0,0.331,0.109,0.331,0.33V9.806z M9.773,4.627V4.085H4.385v0.542H9.773z M9.773,9.474
	V8.931H4.385v0.543H9.773z M8.622,2.536c0,0.221-0.111,0.331-0.332,0.331H5.867c-0.221,0-0.331-0.11-0.331-0.331V1.331
	C5.537,1.11,5.646,1,5.867,1H8.29c0.221,0,0.332,0.11,0.332,0.331V2.536z M8.622,12.228c0,0.222-0.111,0.331-0.332,0.331H5.867
	c-0.221,0-0.331-0.109-0.331-0.331v-1.204c0-0.221,0.11-0.331,0.331-0.331H8.29c0.221,0,0.332,0.11,0.332,0.331V12.228z
	 M7.959,2.205V1.662H6.198v0.543H7.959z M7.959,11.896v-0.543H6.198v0.543H7.959z"/>
</svg>
