<?xml version="1.0" encoding="utf-8"?>
<!-- Generator: Adobe Illustrator 15.1.0, SVG Export Plug-In . SVG Version: 6.00 Build 0)  -->
<!DOCTYPE svg PUBLIC "-//W3C//DTD SVG 1.1//EN" "http://www.w3.org/Graphics/SVG/1.1/DTD/svg11.dtd">
<svg version="1.1" id="Layer_1" xmlns="http://www.w3.org/2000/svg" xmlns:xlink="http://www.w3.org/1999/xlink" x="0px" y="0px"
	 width="14.172px" height="14.172px" viewBox="0 0 14.172 14.172" enable-background="new 0 0 14.172 14.172" xml:space="preserve">
<g enable-background="new    ">
	<path d="M10.853,5.293c0.012,0.783-0.269,1.527-0.837,2.232C9.43,8.151,8.844,8.782,8.26,9.413
		C8.073,9.638,7.889,9.95,7.711,10.347c-0.24,0.523-0.396,0.849-0.467,0.974c-0.393,0.662-1.087,1-2.086,1.013
		c-1.036,0.013-1.554-0.567-1.554-1.745c0-0.376,0.051-0.755,0.153-1.136H4.25c-0.07,0.532-0.105,0.866-0.105,1.006
		c0,0.995,0.354,1.492,1.063,1.492c0.638-0.005,1.125-0.205,1.458-0.604c0.129-0.15,0.352-0.572,0.668-1.265
		C7.518,9.679,7.702,9.36,7.891,9.127c0.537-0.584,1.072-1.168,1.604-1.752c0.563-0.674,0.84-1.352,0.828-2.03
		c-0.011-0.952-0.257-1.663-0.74-2.135C9.033,2.678,8.15,2.409,6.93,2.399C5.749,2.396,4.904,2.773,4.393,3.535
		C4.04,4.062,3.862,4.739,3.862,5.565c0,0.303,0.024,0.582,0.073,0.837H3.403c-0.054-0.277-0.081-0.58-0.081-0.908
		c0-0.899,0.207-1.639,0.62-2.219C4.543,2.433,5.531,2.01,6.906,2.01c1.418,0,2.443,0.292,3.076,0.876
		C10.553,3.414,10.842,4.216,10.853,5.293z M9.629,5.448c0,0.416-0.211,0.978-0.629,1.687L8.526,6.98
		c0.381-0.627,0.572-1.143,0.572-1.544c0-0.558-0.182-1.032-0.541-1.421C8.15,3.573,7.592,3.354,6.89,3.354
		c-0.505,0-0.929,0.149-1.269,0.448C5.281,4.1,5.105,4.463,5.094,4.892c1.69,0.795,2.542,1.591,2.553,2.387
		c0.006,0.337-0.105,0.669-0.338,1C7.084,8.571,6.858,8.866,6.631,9.16C6.545,9.315,6.404,9.544,6.206,9.847
		c-0.188,0.243-0.439,0.364-0.757,0.364c-0.446,0-0.669-0.221-0.669-0.662c0-0.117,0.051-0.271,0.153-0.461
		c0.103-0.189,0.153-0.342,0.153-0.454c0-0.1-0.045-0.235-0.137-0.412C4.858,8.047,4.815,7.884,4.82,7.733
		c0.022-0.398,0.269-0.588,0.742-0.571c0.44,0.018,0.646,0.247,0.62,0.688C6.167,8.091,5.978,8.301,5.62,8.479
		c0.004,0.217-0.052,0.424-0.17,0.623C5.352,9.266,5.298,9.399,5.288,9.503c-0.027,0.222,0.04,0.331,0.201,0.331
		c0.188,0,0.328-0.086,0.418-0.26c0.049-0.129,0.143-0.319,0.283-0.57C6.405,8.735,6.62,8.468,6.834,8.2
		c0.215-0.303,0.313-0.607,0.297-0.915C7.11,6.679,6.456,6.05,5.167,5.397c0.162,0.506,0.564,0.967,1.208,1.382L6.077,7.064
		C5.067,6.532,4.563,5.83,4.563,4.956c0-0.588,0.219-1.068,0.656-1.44C5.656,3.144,6.213,2.958,6.89,2.958
		c0.924,0,1.625,0.249,2.103,0.746C9.417,4.141,9.629,4.722,9.629,5.448z"/>
</g>
</svg>
