<?xml version="1.0" encoding="utf-8"?>
<!-- Generator: Adobe Illustrator 15.1.0, SVG Export Plug-In . SVG Version: 6.00 Build 0)  -->
<!DOCTYPE svg PUBLIC "-//W3C//DTD SVG 1.1//EN" "http://www.w3.org/Graphics/SVG/1.1/DTD/svg11.dtd">
<svg version="1.1" id="Layer_1" xmlns="http://www.w3.org/2000/svg" xmlns:xlink="http://www.w3.org/1999/xlink" x="0px" y="0px"
	 width="14.172px" height="14.172px" viewBox="0 0 14.172 14.172" enable-background="new 0 0 14.172 14.172" xml:space="preserve">
<g enable-background="new    ">
	<path d="M9.123,9.593c0,0.822-0.288,1.521-0.863,2.097c-0.575,0.575-1.278,0.862-2.109,0.862c-0.821,0-1.521-0.287-2.095-0.862
		c-0.576-0.576-0.863-1.274-0.863-2.097c0-0.766,0.251-1.428,0.753-1.985c0.502-0.556,1.127-0.876,1.876-0.959V5.512H4.52V4.854
		h1.301v-1H4.479L6.15,1.718l1.671,2.137H6.479v1h1.314v0.658H6.479v1.137c0.748,0.083,1.376,0.403,1.883,0.959
		C8.869,8.166,9.123,8.828,9.123,9.593z M8.465,9.593c0-0.639-0.225-1.185-0.672-1.636C7.346,7.504,6.798,7.279,6.15,7.279
		c-0.639,0-1.182,0.225-1.63,0.678C4.073,8.409,3.849,8.955,3.849,9.593c0,0.64,0.224,1.183,0.671,1.63
		c0.448,0.447,0.991,0.671,1.63,0.671c0.648,0,1.196-0.224,1.644-0.671S8.465,10.233,8.465,9.593z"/>
</g>
</svg>
