<?xml version="1.0" encoding="utf-8"?>
<!-- Generator: Adobe Illustrator 15.1.0, SVG Export Plug-In . SVG Version: 6.00 Build 0)  -->
<!DOCTYPE svg PUBLIC "-//W3C//DTD SVG 1.1//EN" "http://www.w3.org/Graphics/SVG/1.1/DTD/svg11.dtd">
<svg version="1.1" id="Layer_1" xmlns="http://www.w3.org/2000/svg" xmlns:xlink="http://www.w3.org/1999/xlink" x="0px" y="0px"
	 width="14.172px" height="14.172px" viewBox="0 0 14.172 14.172" enable-background="new 0 0 14.172 14.172" xml:space="preserve">
<path d="M3.472,2.864H2.607V2h0.864V2.864z M3.472,3.728H2.607v0.864h0.864V3.728z M2.607,5.456h0.864V6.32H2.607V5.456z
	 M2.607,7.172h0.864v0.863H2.607V7.172z M2.607,8.9h0.864v0.863H2.607V8.9z M2.607,10.627h0.864v0.854H2.607V10.627z M5.188,2.864
	H4.336V2h0.852V2.864z M5.188,3.728H4.336v0.864h0.852V3.728z M4.336,5.456h0.852V6.32H4.336V5.456z M4.336,7.172h0.852v0.863H4.336
	V7.172z M4.336,8.9h0.852v0.863H4.336V8.9z M4.336,10.627h0.852v0.854H4.336V10.627z M6.916,2.864H6.052V2h0.864V2.864z
	 M6.916,3.728H6.052v0.864h0.864V3.728z M6.052,5.456h0.864V6.32H6.052V5.456z M6.052,7.172h0.864v0.863H6.052V7.172z M6.052,8.9
	h0.864v0.863H6.052V8.9z M6.052,10.627h0.864v0.854H6.052V10.627z M8.644,2.864H7.78V2h0.863V2.864z M8.644,3.728H7.78v0.864h0.863
	V3.728z M7.78,5.456h0.863V6.32H7.78V5.456z M7.78,7.172h0.863v0.863H7.78V7.172z M7.78,8.9h0.863v0.863H7.78V8.9z M7.78,10.627
	h0.863v0.854H7.78V10.627z M10.359,2.864H9.508V2h0.852V2.864z M10.359,3.728H9.508v0.864h0.852V3.728z M9.508,5.456h0.852V6.32
	H9.508V5.456z M9.508,7.172h0.852v0.863H9.508V7.172z M9.508,8.9h0.852v0.863H9.508V8.9z M9.508,10.627h0.852v0.854H9.508V10.627z
	 M12.088,2.864h-0.864V2h0.864V2.864z M12.088,3.728h-0.864v0.864h0.864V3.728z M11.224,5.456h0.864V6.32h-0.864V5.456z
	 M11.224,7.172h0.864v0.863h-0.864V7.172z M11.224,8.9h0.864v0.863h-0.864V8.9z M11.224,10.627h0.864v0.854h-0.864V10.627z"/>
</svg>
