<?xml version="1.0" encoding="utf-8"?>
<!-- Generator: Adobe Illustrator 15.1.0, SVG Export Plug-In . SVG Version: 6.00 Build 0)  -->
<!DOCTYPE svg PUBLIC "-//W3C//DTD SVG 1.1//EN" "http://www.w3.org/Graphics/SVG/1.1/DTD/svg11.dtd">
<svg version="1.1" id="Layer_1" xmlns="http://www.w3.org/2000/svg" xmlns:xlink="http://www.w3.org/1999/xlink" x="0px" y="0px"
	 width="14.172px" height="14.172px" viewBox="0 0 14.172 14.172" enable-background="new 0 0 14.172 14.172" xml:space="preserve">
<g enable-background="new    ">
	<path d="M12.092,6.798c0,0.008-0.017,0.041-0.05,0.1c-0.033,0.058-0.05,0.131-0.05,0.219c0,0.218-0.143,0.54-0.427,0.963
		c-0.197,0.307-0.381,0.493-0.548,0.559c-0.264,0.052-0.523,0.1-0.778,0.144c-0.021,0.007-0.065,0.021-0.131,0.044
		c-0.066,0.021-0.117,0.032-0.154,0.032c-0.087,0-0.214-0.036-0.383-0.11C9.403,8.676,9.279,8.639,9.199,8.639
		c-0.059,0-0.166,0.05-0.323,0.147c-0.156,0.1-0.257,0.175-0.301,0.226c0,0.007,0,0.025,0,0.056c0,0.145,0.025,0.258,0.076,0.339
		c0.125,0.16,0.19,0.245,0.197,0.252c0,0.044,0.022,0.117,0.065,0.219c0.051,0.059,0.142,0.138,0.27,0.235
		c0.128,0.1,0.231,0.159,0.312,0.182c0.115,0.044,0.263,0.065,0.438,0.065c0.153,0,0.361-0.091,0.624-0.273
		c0.037,0,0.098,0.035,0.182,0.104c0.084,0.069,0.126,0.13,0.126,0.181c0-0.022-0.022,0.059-0.066,0.241
		c-0.095,0.344-0.435,0.599-1.019,0.768c-0.292,0.079-0.432,0.12-0.416,0.12c-0.022,0-0.064-0.015-0.127-0.044
		s-0.104-0.048-0.125-0.055c-0.161-0.03-0.314-0.077-0.461-0.143c-0.175-0.088-0.307-0.146-0.395-0.175
		c0-0.015-0.038-0.07-0.114-0.165c-0.077-0.095-0.119-0.153-0.127-0.176c-0.036-0.065-0.078-0.191-0.125-0.377
		c-0.048-0.187-0.071-0.316-0.071-0.389c0-0.059,0.018-0.149,0.055-0.27c0.036-0.119,0.055-0.21,0.055-0.269
		c0-0.153-0.037-0.244-0.109-0.273C7.782,9.151,7.72,9.144,7.632,9.144c-0.168,0-0.289,0.021-0.362,0.065
		C7.234,9.26,7.179,9.337,7.106,9.439C7.019,9.542,6.927,9.644,6.833,9.746c-0.109,0.132-0.165,0.249-0.165,0.352
		c0,0.044,0.011,0.101,0.033,0.169c0.022,0.069,0.036,0.119,0.044,0.148c0.007,0.124,0.025,0.303,0.055,0.537
		c0.014,0.051,0.047,0.12,0.099,0.208c0.044,0.073,0.065,0.16,0.065,0.264c0,0.299-0.076,0.448-0.229,0.448
		c-0.095,0-0.223-0.041-0.384-0.126C6.19,11.662,6.083,11.58,6.032,11.5C5.784,11.113,5.66,10.67,5.66,10.173
		c0-0.24,0.025-0.428,0.077-0.559C5.773,9.579,5.82,9.516,5.879,9.428c0.007-0.043,0.022-0.105,0.044-0.187
		C5.938,9.206,6.01,9.115,6.142,8.968c0.117-0.139,0.175-0.22,0.175-0.241c0-0.072-0.124-0.197-0.372-0.373
		c-0.037-0.021-0.073-0.032-0.11-0.032c-0.081,0-0.168,0.032-0.263,0.099c-0.073,0.059-0.15,0.115-0.23,0.17
		S5.174,8.753,5.079,8.914C4.984,9.075,4.937,9.203,4.937,9.297c-0.073,0.08-0.146,0.156-0.219,0.229
		C4.667,9.592,4.634,9.703,4.619,9.856c-0.117,0.08-0.175,0.2-0.175,0.361c0,0.052,0.013,0.115,0.039,0.192
		c0.025,0.076,0.038,0.129,0.038,0.158c0,0.008-0.003,0.015-0.011,0.021c-0.117,0.125-0.226,0.188-0.329,0.188l-0.317-0.088
		c-0.007-0.052-0.044-0.128-0.11-0.23c-0.059-0.088-0.087-0.208-0.087-0.361c0-0.051,0.001-0.126,0.005-0.226
		c0.004-0.098,0.006-0.169,0.006-0.213c0-0.139-0.004-0.241-0.011-0.308c-0.03-0.188-0.044-0.267-0.044-0.229
		c0-0.109,0.058-0.277,0.175-0.504c0.015-0.059,0.047-0.146,0.099-0.264c0.051-0.043,0.121-0.108,0.208-0.195
		C4.126,8.106,4.174,8.03,4.247,7.927c0.109-0.095,0.351-0.22,0.724-0.373c0.116-0.007,0.284-0.04,0.503-0.098
		c0.088-0.037,0.132-0.154,0.132-0.351c0-0.189-0.106-0.311-0.318-0.361C5.207,6.729,5.028,6.722,4.75,6.722
		c-0.029,0-0.075-0.015-0.137-0.043C4.552,6.65,4.506,6.635,4.477,6.635c-0.321,0-0.672,0.164-1.052,0.493
		c-0.044,0.037-0.11,0.132-0.197,0.285C3.155,7.544,3.067,7.628,2.965,7.665C2.884,7.679,2.768,7.702,2.614,7.73
		C2.432,7.46,2.34,7.178,2.34,6.886c0-0.38,0.256-0.727,0.768-1.041c0.46-0.277,0.898-0.417,1.314-0.417
		c0.358,0,0.8,0.187,1.326,0.56c0.037-0.052,0.095-0.125,0.176-0.219C6.01,5.718,6.095,5.667,6.175,5.616
		c0.11-0.073,0.165-0.139,0.165-0.197c0-0.168-0.179-0.392-0.537-0.668C5.524,4.546,5.262,4.384,5.014,4.268
		C4.867,4.195,4.718,4.144,4.564,4.114C4.433,4.085,4.375,4.07,4.389,4.07c-0.058,0-0.144,0.009-0.257,0.028
		C4.019,4.117,3.933,4.126,3.874,4.126c-0.153,0-0.31-0.059-0.471-0.176c0.022-0.087,0.069-0.216,0.143-0.384
		c0.285-0.365,0.749-0.547,1.392-0.547c0.351,0,0.639,0.032,0.866,0.098c0.08,0.022,0.16,0.077,0.241,0.165
		C6.124,3.37,6.186,3.424,6.229,3.446c0.044,0.007,0.099,0.025,0.165,0.056C6.467,3.53,6.551,3.65,6.646,3.863
		c0.015,0.029,0.055,0.076,0.121,0.142c0.036,0.044,0.055,0.11,0.055,0.197c0,0.051,0.014,0.128,0.044,0.231
		C6.902,4.541,6.92,4.622,6.92,4.673c0,0.059,0.007,0.153,0.022,0.285c0.021,0.103,0.08,0.197,0.175,0.285
		c0.095-0.007,0.241-0.025,0.438-0.054C7.622,5.174,7.687,5.032,7.753,4.76C7.811,4.519,7.84,4.349,7.84,4.246
		c0-0.065-0.053-0.267-0.159-0.602c-0.105-0.336-0.18-0.537-0.224-0.603C7.362,2.887,7.271,2.778,7.183,2.712
		C7.125,2.683,7.066,2.657,7.007,2.635c-0.065-0.029-0.098-0.069-0.098-0.12c0-0.197,0.15-0.295,0.449-0.295
		c0.453,0,0.822,0.153,1.107,0.459C8.75,2.985,8.892,3.362,8.892,3.807c0,0.052-0.026,0.194-0.082,0.428
		C8.754,4.468,8.718,4.612,8.695,4.663C8.674,4.713,8.596,4.816,8.465,4.969C8.355,5.101,8.3,5.203,8.3,5.276
		c0,0.08,0.084,0.164,0.253,0.251c0.146,0.081,0.267,0.12,0.36,0.12c0.593,0,1.053-0.267,1.381-0.8
		c0.205-0.336,0.307-0.631,0.307-0.887c0-0.08-0.019-0.198-0.054-0.351c-0.037-0.152-0.055-0.267-0.055-0.339
		c0-0.146,0.071-0.219,0.22-0.219c0.102,0,0.185,0.037,0.251,0.11c0.132,0.168,0.264,0.423,0.395,0.767
		c0.139,0.358,0.208,0.635,0.208,0.832c0,0.162-0.048,0.363-0.143,0.604c-0.095,0.24-0.196,0.42-0.308,0.537
		c-0.313,0.321-0.784,0.481-1.412,0.481c-0.095,0-0.176-0.003-0.241-0.01L9.364,6.438C9.415,6.81,9.44,7.139,9.44,7.423
		c0,0.256,0.069,0.384,0.208,0.384c0.227,0,0.45-0.037,0.669-0.109c0.036-0.016,0.187-0.113,0.448-0.297
		c0.198-0.146,0.307-0.226,0.33-0.24c0.146-0.125,0.227-0.228,0.24-0.307c0-0.059,0.015-0.146,0.044-0.263
		c0.022-0.051,0.074-0.119,0.159-0.203c0.084-0.083,0.152-0.126,0.203-0.126c0.08,0,0.16,0.069,0.24,0.208
		C12.055,6.594,12.092,6.704,12.092,6.798z M8.411,7.018c0-0.073-0.016-0.135-0.044-0.186C8.22,6.562,8.085,6.409,7.96,6.372
		C7.896,6.35,7.786,6.339,7.632,6.339c-0.329,0-0.584,0.127-0.767,0.383C6.734,6.905,6.668,7.062,6.668,7.193
		c0,0.125,0.091,0.278,0.274,0.46c0.182,0.183,0.332,0.273,0.449,0.273c0.409,0,0.68-0.076,0.811-0.229
		c0.037-0.037,0.092-0.172,0.165-0.405C8.395,7.205,8.411,7.112,8.411,7.018z M8.082,7.139c0,0.124-0.044,0.248-0.132,0.372
		C7.863,7.642,7.756,7.708,7.632,7.708c-0.168,0-0.307-0.06-0.417-0.18c-0.11-0.121-0.165-0.265-0.165-0.433
		c0-0.074,0.008-0.125,0.022-0.153c0.037-0.081,0.13-0.161,0.28-0.241C7.502,6.62,7.622,6.579,7.709,6.579
		c0.116,0,0.212,0.066,0.284,0.198C8.052,6.895,8.082,7.014,8.082,7.139z"/>
</g>
</svg>
