<?xml version="1.0" encoding="utf-8"?>
<!-- Generator: Adobe Illustrator 15.1.0, SVG Export Plug-In . SVG Version: 6.00 Build 0)  -->
<!DOCTYPE svg PUBLIC "-//W3C//DTD SVG 1.1//EN" "http://www.w3.org/Graphics/SVG/1.1/DTD/svg11.dtd">
<svg version="1.1" id="Layer_1" xmlns="http://www.w3.org/2000/svg" xmlns:xlink="http://www.w3.org/1999/xlink" x="0px" y="0px"
	 width="14.172px" height="14.172px" viewBox="0 0 14.172 14.172" enable-background="new 0 0 14.172 14.172" xml:space="preserve">
<path d="M11.791,4.453c0,1.457-0.105,2.525-0.315,3.205l-4.182,4.219L3.075,7.658C2.865,7.07,2.76,5.951,2.76,4.301h0.993
	c0.339-0.599,0.75-1.043,1.229-1.334c0.242-0.147,0.502-0.257,0.783-0.331C6.176,2.212,6.645,2,7.174,2
	c0.458,0,0.886,0.212,1.28,0.635c0.621,0.172,1.122,0.47,1.504,0.893c0.188,0.21,0.358,0.468,0.51,0.772h1.323V4.453z M10.809,5.798
	c0-0.151-0.011-0.308-0.031-0.473c-0.351,0.609-0.699,1.1-1.045,1.471H9.432l0.348-1.492C9.498,4.632,9.195,4.211,8.87,4.043
	C8.682,3.946,8.44,3.881,8.15,3.849c-0.26-0.351-0.575-0.525-0.946-0.525c-0.343,0-0.637,0.161-0.882,0.483
	C5.744,3.888,5.344,4.115,5.119,4.49C5.007,4.679,4.884,4.95,4.751,5.305L5.129,6.67H4.72C4.363,6.453,4.048,6.005,3.774,5.325
	C3.753,5.483,3.743,5.633,3.743,5.777c0,0.578,0.114,0.979,0.342,1.203l2.358,2.336V7.338c-0.133,0,0.024-0.132,0.471-0.395
	c0.135-0.077,0.272-0.116,0.419-0.116c0.281,0,0.544,0.17,0.787,0.51V9.32l2.349-2.339C10.694,6.68,10.809,6.285,10.809,5.798z
	 M8.413,5.667C8.266,5.488,8.103,5.399,7.924,5.399c-0.371,0-0.584,0.322-0.641,0.967C7.221,5.721,7.005,5.399,6.637,5.399
	c-0.179,0-0.341,0.089-0.487,0.268C6.197,5.31,6.338,5.131,6.568,5.131c0.26,0,0.497,0.121,0.715,0.363
	C7.505,5.252,7.74,5.131,7.992,5.131C8.225,5.131,8.364,5.31,8.413,5.667z M6.784,6.281C6.718,6.324,6.621,6.344,6.495,6.344
	c-0.091,0-0.206-0.017-0.346-0.052V6.014c0.08-0.035,0.188-0.053,0.325-0.053c0.119,0,0.223,0.018,0.31,0.053V6.281z M7.777,9.339
	v-1.98C7.628,7.156,7.469,7.054,7.3,7.054c-0.205,0-0.377,0.102-0.516,0.305v1.98L7.3,10.068L7.777,9.339z M7.493,7.553
	c0,0.063-0.024,0.131-0.073,0.205H7.131C7.096,7.701,7.078,7.633,7.078,7.553c0-0.074,0.018-0.146,0.053-0.215H7.42
	C7.469,7.386,7.493,7.458,7.493,7.553z M8.413,6.281C8.344,6.324,8.245,6.344,8.119,6.344c-0.088,0-0.202-0.017-0.342-0.052V6.014
	c0.08-0.035,0.188-0.053,0.32-0.053c0.119,0,0.224,0.018,0.315,0.053V6.281z"/>
</svg>
