<?xml version="1.0" encoding="utf-8"?>
<!-- Generator: Adobe Illustrator 15.1.0, SVG Export Plug-In . SVG Version: 6.00 Build 0)  -->
<!DOCTYPE svg PUBLIC "-//W3C//DTD SVG 1.1//EN" "http://www.w3.org/Graphics/SVG/1.1/DTD/svg11.dtd">
<svg version="1.1" id="Layer_1" xmlns="http://www.w3.org/2000/svg" xmlns:xlink="http://www.w3.org/1999/xlink" x="0px" y="0px"
	 width="14.172px" height="14.172px" viewBox="0 0 14.172 14.172" enable-background="new 0 0 14.172 14.172" xml:space="preserve">
<g enable-background="new    ">
	<path d="M12.174,6.854c0,1.352-0.479,2.506-1.437,3.461C9.78,11.272,8.625,11.75,7.272,11.75c-1.353,0-2.508-0.478-3.465-1.435
		C2.85,9.36,2.371,8.206,2.371,6.854c0-1.353,0.479-2.508,1.437-3.465C4.765,2.43,5.92,1.952,7.273,1.952
		c1.354,0,2.508,0.479,3.466,1.437C11.696,4.345,12.174,5.501,12.174,6.854z M11.374,6.854c0-1.133-0.4-2.101-1.201-2.903
		C9.372,3.148,8.407,2.749,7.273,2.749c-1.133,0-2.101,0.4-2.903,1.203c-0.802,0.802-1.203,1.77-1.203,2.903
		c0,1.132,0.4,2.1,1.203,2.9c0.802,0.8,1.77,1.199,2.903,1.199c1.134,0,2.099-0.399,2.899-1.199
		C10.971,8.954,11.374,7.987,11.374,6.854z M8.279,4.328c0,0.259-0.101,0.48-0.298,0.664C7.784,5.175,7.547,5.268,7.273,5.268
		c-0.28,0-0.517-0.091-0.712-0.275C6.365,4.809,6.268,4.586,6.268,4.328c0-0.259,0.098-0.48,0.293-0.665
		c0.195-0.184,0.434-0.275,0.712-0.275c0.274,0,0.511,0.091,0.708,0.275C8.178,3.847,8.279,4.068,8.279,4.328z M8.092,10.516H6.447
		V5.849h1.646V10.516z"/>
</g>
</svg>
