<?xml version="1.0" encoding="utf-8"?>
<!-- Generator: Adobe Illustrator 15.1.0, SVG Export Plug-In . SVG Version: 6.00 Build 0)  -->
<!DOCTYPE svg PUBLIC "-//W3C//DTD SVG 1.1//EN" "http://www.w3.org/Graphics/SVG/1.1/DTD/svg11.dtd">
<svg version="1.1" id="Layer_1" xmlns="http://www.w3.org/2000/svg" xmlns:xlink="http://www.w3.org/1999/xlink" x="0px" y="0px"
	 width="14.172px" height="14.172px" viewBox="0 0 14.172 14.172" enable-background="new 0 0 14.172 14.172" xml:space="preserve">
<g enable-background="new    ">
	<path d="M2.595,6.54c0-1.281,0.452-2.373,1.354-3.276C4.852,2.36,5.944,1.91,7.225,1.91S9.596,2.361,10.5,3.263
		c0.902,0.903,1.354,1.995,1.354,3.276S11.403,8.913,10.5,9.815c-0.904,0.903-1.994,1.354-3.275,1.354s-2.373-0.451-3.276-1.354
		C3.046,8.912,2.595,7.819,2.595,6.54z M5.629,9.393C5.88,9.451,6.11,9.496,6.321,9.526C6.532,9.559,6.725,9.573,6.9,9.573
		c0.714,0,1.272-0.16,1.679-0.483c0.403-0.323,0.605-0.769,0.605-1.336c0-1.248-0.87-1.872-2.61-1.872
		c-0.071,0-0.192,0.002-0.363,0.006V4.655h2.86V3.629H5.736v2.803c0.154-0.016,0.29-0.025,0.407-0.025
		c1.201,0,1.802,0.478,1.802,1.433c0,0.818-0.351,1.227-1.051,1.227c-0.267,0-0.45-0.049-0.547-0.146
		c-0.099-0.101-0.158-0.292-0.179-0.58L6.161,8.196H5.629V9.393z"/>
</g>
</svg>
