<?xml version="1.0" encoding="utf-8"?>
<!-- Generator: Adobe Illustrator 15.1.0, SVG Export Plug-In . SVG Version: 6.00 Build 0)  -->
<!DOCTYPE svg PUBLIC "-//W3C//DTD SVG 1.1//EN" "http://www.w3.org/Graphics/SVG/1.1/DTD/svg11.dtd">
<svg version="1.1" id="Layer_1" xmlns="http://www.w3.org/2000/svg" xmlns:xlink="http://www.w3.org/1999/xlink" x="0px" y="0px"
	 width="14.172px" height="14.172px" viewBox="0 0 14.172 14.172" enable-background="new 0 0 14.172 14.172" xml:space="preserve">
<g enable-background="new    ">
	<path d="M3.507,12.292V5.998c0-1.587,0.376-2.479,1.002-3.036c0.516-0.474,1.184-0.711,2.033-0.711
		c1.323,0,2.479,0.822,2.479,2.354c0,0.474-0.167,0.906-0.334,1.142C8.061,6.013,7.7,6.403,7.7,6.875
		c0,0.475,0.277,0.766,0.709,1.212c0.558,0.557,1.129,1.142,1.129,2.145c0,1.309-0.947,2.213-2.493,2.213
		c-0.515,0-1.072-0.082-1.476-0.291l0.223-0.935c0.362,0.183,0.752,0.279,1.17,0.279c0.891,0,1.364-0.528,1.364-1.17
		c0-0.584-0.265-0.974-0.752-1.434C6.989,8.338,6.487,7.822,6.487,7.042c0-0.709,0.431-1.322,1.253-1.712
		c0.07-0.167,0.111-0.375,0.111-0.598c0-0.962-0.585-1.519-1.448-1.519c-1.072,0-1.671,0.752-1.671,2.729v6.35H3.507z"/>
</g>
</svg>
