<?xml version="1.0" encoding="utf-8"?>
<!-- Generator: Adobe Illustrator 15.1.0, SVG Export Plug-In . SVG Version: 6.00 Build 0)  -->
<!DOCTYPE svg PUBLIC "-//W3C//DTD SVG 1.1//EN" "http://www.w3.org/Graphics/SVG/1.1/DTD/svg11.dtd">
<svg version="1.1" id="Layer_1" xmlns="http://www.w3.org/2000/svg" xmlns:xlink="http://www.w3.org/1999/xlink" x="0px" y="0px"
	 width="14.172px" height="14.172px" viewBox="0 0 14.172 14.172" enable-background="new 0 0 14.172 14.172" xml:space="preserve">
<g>
	<path d="M11.519,9.919l0.913,0.947v1.917h-1.938l-0.774-0.78c-0.409,0.264-0.854,0.471-1.335,0.621
		c-0.48,0.15-0.968,0.226-1.462,0.226c-0.691,0-1.347-0.134-1.967-0.401c-0.621-0.268-1.164-0.636-1.63-1.105
		s-0.832-1.017-1.098-1.639S1.829,8.432,1.829,7.752c0-0.918,0.229-1.768,0.686-2.55C2.971,4.42,3.59,3.801,4.372,3.344
		c0.782-0.457,1.632-0.686,2.549-0.686s1.767,0.229,2.549,0.686c0.781,0.457,1.4,1.076,1.855,1.858
		c0.455,0.782,0.683,1.632,0.683,2.55C12.009,8.513,11.845,9.235,11.519,9.919z M10.364,5.729c0.208-0.175,0.312-0.403,0.312-0.686
		c0-0.186-0.046-0.355-0.137-0.51s-0.216-0.277-0.376-0.368c-0.159-0.091-0.329-0.137-0.507-0.137c-0.309,0-0.562,0.106-0.764,0.318
		L8.253,4.988C7.818,4.798,7.375,4.704,6.921,4.704c-0.412,0-0.802,0.077-1.17,0.231C5.384,5.089,5.058,5.308,4.773,5.592
		S4.268,6.206,4.11,6.582c-0.158,0.375-0.237,0.765-0.237,1.17c0,0.545,0.137,1.051,0.41,1.515C4.556,9.731,4.929,10.1,5.4,10.373
		c0.472,0.272,0.979,0.409,1.521,0.409c0.549,0,1.06-0.137,1.532-0.409C8.926,10.1,9.298,9.73,9.57,9.264
		c0.273-0.466,0.41-0.97,0.41-1.512c0-0.398-0.101-0.836-0.301-1.315L10.364,5.729z M9.68,4.107c0.155,0,0.303,0.042,0.439,0.125
		c0.138,0.083,0.247,0.199,0.329,0.345c0.082,0.147,0.123,0.302,0.123,0.465c0,0.282-0.106,0.507-0.318,0.674l-2.68,2.657
		C7.414,8.558,7.185,8.648,6.888,8.648c-0.26,0-0.475-0.088-0.646-0.265S5.985,7.991,5.985,7.734c0-0.241,0.087-0.453,0.262-0.635
		l2.774-2.752C9.219,4.188,9.438,4.107,9.68,4.107z M6.888,8.32c0.156,0,0.284-0.053,0.385-0.156c0.101-0.104,0.15-0.23,0.15-0.379
		c0-0.152-0.052-0.285-0.153-0.396C7.167,7.278,7.04,7.222,6.888,7.222c-0.1,0-0.192,0.025-0.275,0.075
		c-0.084,0.05-0.15,0.117-0.201,0.201S6.336,7.674,6.336,7.773c0,0.148,0.054,0.277,0.162,0.385C6.605,8.266,6.735,8.32,6.888,8.32z
		 M9.719,5.512c0.148,0,0.276-0.054,0.384-0.162c0.108-0.108,0.162-0.24,0.162-0.396c0-0.145-0.055-0.269-0.165-0.371
		C9.99,4.482,9.863,4.431,9.719,4.431c-0.149,0-0.28,0.052-0.394,0.156c-0.113,0.104-0.17,0.227-0.17,0.368
		c0,0.152,0.057,0.283,0.17,0.393S9.569,5.512,9.719,5.512z"/>
</g>
</svg>
