<?xml version="1.0" encoding="utf-8"?>
<!-- Generator: Adobe Illustrator 15.1.0, SVG Export Plug-In . SVG Version: 6.00 Build 0)  -->
<!DOCTYPE svg PUBLIC "-//W3C//DTD SVG 1.1//EN" "http://www.w3.org/Graphics/SVG/1.1/DTD/svg11.dtd">
<svg version="1.1" id="Layer_1" xmlns="http://www.w3.org/2000/svg" xmlns:xlink="http://www.w3.org/1999/xlink" x="0px" y="0px"
	 width="14.172px" height="14.172px" viewBox="0 0 14.172 14.172" enable-background="new 0 0 14.172 14.172" xml:space="preserve">
<g enable-background="new    ">
	<path d="M2.545,10.768V4.651c0-1.021-0.242-1.839-0.724-2.458h0.921C3.067,2.688,3.287,3.25,3.403,3.879
		C3.672,3.208,4.009,2.647,4.41,2.194l0.83-0.168c0.385,0.452,0.63,1.101,0.736,1.947c0.212-0.605,0.557-1.199,1.037-1.778
		l0.846-0.168c0.459,0.627,0.689,1.367,0.689,2.219v5.337c0,0.56,0.019,0.939,0.059,1.139c0.038,0.198,0.124,0.37,0.261,0.518
		c0.248,0.26,0.655,0.388,1.228,0.388h0.526v-0.857l1.356,1.223l-1.356,1.182v-0.835H9.833c-0.749,0-1.295-0.196-1.634-0.59
		c-0.341-0.394-0.511-1.023-0.511-1.889V4.691c0-0.868-0.124-1.492-0.375-1.872C6.672,3.557,6.227,4.48,5.976,5.589v5.179H5.118
		v-5.77c0-1.039-0.125-1.766-0.376-2.179c-0.615,0.692-1.062,1.551-1.34,2.58v5.369H2.545z"/>
</g>
</svg>
