<?xml version="1.0" encoding="utf-8"?>
<!-- Generator: Adobe Illustrator 15.1.0, SVG Export Plug-In . SVG Version: 6.00 Build 0)  -->
<!DOCTYPE svg PUBLIC "-//W3C//DTD SVG 1.1//EN" "http://www.w3.org/Graphics/SVG/1.1/DTD/svg11.dtd">
<svg version="1.1" id="Layer_1" xmlns="http://www.w3.org/2000/svg" xmlns:xlink="http://www.w3.org/1999/xlink" x="0px" y="0px"
	 width="14.172px" height="14.172px" viewBox="0 0 14.172 14.172" enable-background="new 0 0 14.172 14.172" xml:space="preserve">
<path d="M12.052,6.71h-0.824c-0.054,0.944-0.434,1.793-1.142,2.551c-0.734,0.789-1.625,1.209-2.673,1.264v0.828H7.341v-0.828
	C6.255,10.484,5.359,10.109,4.654,9.4C3.959,8.703,3.583,7.807,3.526,6.71H2.698V6.639h0.828C3.583,5.546,3.96,4.648,4.657,3.943
	c0.696-0.705,1.592-1.078,2.684-1.12V2h0.072v0.824c1.089,0.054,1.984,0.432,2.685,1.133c0.699,0.701,1.076,1.595,1.13,2.682h0.824
	V6.71z M7.341,4.234V3.191c-1.34,0.057-2.325,0.627-2.955,1.71C4.088,5.415,3.923,5.994,3.894,6.639h1.043
	c0.048-0.695,0.287-1.259,0.717-1.692C6.101,4.496,6.663,4.258,7.341,4.234z M7.341,10.158V9.115C6.41,9.078,5.727,8.684,5.29,7.928
	C5.081,7.567,4.964,7.161,4.937,6.71H3.894c0.057,0.991,0.4,1.803,1.032,2.436C5.557,9.779,6.362,10.117,7.341,10.158z M7.341,5.609
	V4.602C6.532,4.625,5.95,4.952,5.595,5.582c-0.17,0.299-0.267,0.651-0.291,1.057h1.008C6.338,6.23,6.507,5.936,6.817,5.757
	C6.97,5.667,7.145,5.618,7.341,5.609z M7.341,8.748V7.74C6.708,7.705,6.365,7.361,6.312,6.71H5.304
	c0.051,0.824,0.381,1.409,0.99,1.755C6.595,8.635,6.944,8.73,7.341,8.748z M7.341,6.639V5.905c-0.45,0.024-0.695,0.269-0.734,0.734
	H7.341z M7.341,7.445V6.71H6.606C6.646,7.176,6.891,7.421,7.341,7.445z M10.86,6.639c-0.042-0.967-0.384-1.773-1.027-2.417
	c-0.644-0.645-1.45-0.988-2.42-1.03v1.043C8.347,4.291,9.03,4.693,9.464,5.439c0.209,0.358,0.326,0.758,0.354,1.2H10.86z
	 M9.45,6.639C9.426,6.054,9.227,5.574,8.853,5.199C8.478,4.825,7.998,4.625,7.413,4.602v1.007c0.399,0.036,0.69,0.208,0.873,0.515
	c0.086,0.149,0.139,0.321,0.156,0.515H9.45z M8.147,6.639C8.1,6.2,7.854,5.956,7.413,5.905v0.734H8.147z M10.86,6.71H9.817
	C9.781,7.299,9.538,7.834,9.088,8.318c-0.46,0.488-1.019,0.754-1.675,0.797v1.043c0.94-0.055,1.743-0.434,2.409-1.143
	C10.473,8.32,10.818,7.552,10.86,6.71z M9.45,6.71H8.442C8.419,6.976,8.309,7.207,8.111,7.402S7.682,7.711,7.413,7.74v1.008
	c0.57-0.037,1.046-0.257,1.428-0.663C9.224,7.68,9.426,7.221,9.45,6.71z M8.147,6.71H7.413v0.734c0.193-0.021,0.358-0.1,0.494-0.237
	S8.123,6.905,8.147,6.71z"/>
</svg>
