<?xml version="1.0" encoding="utf-8"?>
<!-- Generator: Adobe Illustrator 15.1.0, SVG Export Plug-In . SVG Version: 6.00 Build 0)  -->
<!DOCTYPE svg PUBLIC "-//W3C//DTD SVG 1.1//EN" "http://www.w3.org/Graphics/SVG/1.1/DTD/svg11.dtd">
<svg version="1.1" id="Layer_1" xmlns="http://www.w3.org/2000/svg" xmlns:xlink="http://www.w3.org/1999/xlink" x="0px" y="0px"
	 width="14.172px" height="14.172px" viewBox="0 0 14.172 14.172" enable-background="new 0 0 14.172 14.172" xml:space="preserve">
<g enable-background="new    ">
	<path d="M9.608,7.731c0,0.397-0.173,0.744-0.52,1.037c-0.297,0.252-0.67,0.43-1.119,0.534c0.312,0.509,0.47,0.851,0.47,1.023
		c0,0.073-0.021,0.161-0.063,0.268c-0.055,0.11-0.108,0.165-0.166,0.165c-0.067,0-0.179,0-0.332,0v-0.652H7.292
		c-0.043,0.16-0.131,0.332-0.268,0.515c-0.164,0.22-0.316,0.33-0.461,0.33c-0.241,0-0.361-0.138-0.361-0.412
		c0-0.206,0.049-0.334,0.145-0.386L6.159,9.315c-0.664-0.09-1.073-0.256-1.227-0.5C4.846,8.677,4.608,7.782,4.218,6.13
		C3.819,4.455,3.619,3.486,3.619,3.226c0-0.618,0.502-1.064,1.508-1.339c0.668-0.183,1.44-0.274,2.316-0.274
		c0.265,0,0.489,0.057,0.671,0.172C8.32,1.917,8.424,2.097,8.424,2.327c0,0.041-0.006,0.087-0.014,0.137
		c0.158,0.123,0.237,0.261,0.237,0.412c0,0.068-0.021,0.146-0.063,0.233c0.129,0.06,0.193,0.174,0.193,0.343
		c0,0.06-0.02,0.119-0.059,0.179c0.125,0.055,0.188,0.167,0.188,0.336c0,0.032-0.012,0.075-0.032,0.13
		c-0.021,0.055-0.031,0.098-0.031,0.13c0.009,0.02,0.047,0.07,0.115,0.152C9.002,4.434,9.024,4.498,9.024,4.57
		c0,0.092-0.023,0.188-0.072,0.289c0.12,0.087,0.18,0.197,0.18,0.33c0,0.041-0.014,0.078-0.043,0.11
		c-0.037,0.05-0.06,0.084-0.063,0.103c0.12,0.009,0.181,0.087,0.181,0.233c0,0.078-0.023,0.167-0.072,0.268
		C9.245,5.94,9.299,6.027,9.299,6.165c0,0.014-0.021,0.094-0.064,0.24C9.483,6.644,9.608,7.084,9.608,7.731z M9.391,7.477
		C9.396,7,9.307,6.683,9.124,6.521l-0.9,0.062L8.158,6.398l0.974-0.076l0.016,0.096c-0.023-0.11-0.084-0.236-0.182-0.377
		L8.086,6.109L8.043,5.924l0.873-0.069c0.047-0.046,0.071-0.126,0.071-0.24L8.885,5.553L8.021,5.587L7.992,5.396l0.815-0.028
		c0.037-0.041,0.074-0.102,0.109-0.185C8.906,5.15,8.858,5.078,8.771,4.962L7.913,5.01l0.036-0.213L8.719,4.75
		c0.062-0.083,0.095-0.135,0.095-0.158c0-0.045-0.041-0.114-0.122-0.206L7.934,4.435l-0.079-0.2l0.771-0.034
		c0-0.027,0.01-0.069,0.031-0.124c0.021-0.054,0.035-0.098,0.035-0.13c0-0.064-0.029-0.11-0.087-0.137v0.007L7.437,3.905
		L7.393,3.692L8.49,3.63l0.072-0.192c0-0.032-0.058-0.099-0.175-0.199L7.314,3.321L7.278,3.123L8.396,3.04
		c0.043-0.078,0.063-0.133,0.063-0.165c0-0.105-0.019-0.174-0.058-0.206C8.336,2.632,8.271,2.596,8.209,2.56L7.17,2.648L7.133,2.442
		L8.23,2.387C8.125,2.03,7.887,1.84,7.523,1.817C7.605,1.873,7.646,1.943,7.646,2.03c0,0.078-0.032,0.117-0.095,0.117
		c-0.01,0-0.145-0.107-0.403-0.323L6.909,1.832C6.995,1.886,7.04,1.958,7.04,2.044c0,0.083-0.031,0.124-0.095,0.124l-0.397-0.31
		l-0.28,0.028c0.139,0.06,0.209,0.142,0.209,0.248c0,0.078-0.031,0.117-0.095,0.117c-0.015,0-0.082-0.048-0.201-0.144
		c-0.135-0.111-0.209-0.17-0.223-0.18L5.639,1.982C5.774,2.046,5.84,2.131,5.84,2.236c0,0.082-0.03,0.124-0.094,0.124l-0.41-0.309
		c-1,0.238-1.501,0.629-1.501,1.174c0,0.11,0.01,0.227,0.029,0.35l0.209-0.124L4.11,3.659L3.915,3.81l0.086,0.33l0.216-0.137
		l0.058,0.227L4.052,4.373l0.087,0.384l0.209-0.13l0.051,0.227l-0.202,0.13l0.072,0.35l0.238-0.151l0.058,0.24L4.326,5.561
		l0.08,0.371l0.252-0.158L4.708,6L4.456,6.157l0.086,0.364l0.26-0.165l0.051,0.247l-0.26,0.151l0.086,0.35l0.303-0.192L5.04,7.139
		L4.745,7.333l0.094,0.439l0.31-0.2L5.2,7.778L4.911,7.991C4.95,8.147,5.015,8.377,5.106,8.684c0.053,0.178,0.373,0.313,0.959,0.404
		c0.409,0.064,0.807,0.098,1.191,0.098c0.504,0,0.969-0.121,1.392-0.363c0.491-0.279,0.737-0.645,0.743-1.092V7.477z M6.692,2.717
		L5.95,2.787c-0.322,0.031-0.618,0.13-0.888,0.295l-0.57,0.35L4.441,3.288L4.99,2.923c0.274-0.188,0.582-0.295,0.925-0.323
		l0.75-0.055L6.692,2.717z M6.801,3.342L5.95,3.391C5.656,3.409,5.394,3.488,5.163,3.63L4.622,3.967L4.565,3.851L5.07,3.494
		C5.3,3.329,5.586,3.234,5.928,3.211l0.837-0.055L6.801,3.342z M6.909,3.946L6.151,4.016C5.95,4.034,5.815,4.049,5.749,4.063
		C5.627,4.091,5.502,4.146,5.373,4.229l-0.614,0.37l-0.05-0.164l0.57-0.392C5.481,3.9,5.747,3.815,6.073,3.789l0.785-0.062
		L6.909,3.946z M6.858,4.317l-0.07,0.192L6.144,4.579C5.879,4.606,5.685,4.661,5.56,4.744L4.925,5.163L4.889,5.01l0.606-0.453
		c0.154-0.114,0.368-0.179,0.642-0.192L6.858,4.317z M7.04,5.06L6.252,5.127C6.026,5.146,5.838,5.206,5.69,5.306L5.062,5.726
		L5.019,5.561l0.612-0.453c0.154-0.11,0.35-0.174,0.584-0.192l0.693-0.049L7.04,5.06z M7.372,5.608L6.57,5.697
		c-0.269,0.032-0.493,0.105-0.671,0.22L5.272,6.336L5.221,6.15L5.82,5.732C5.969,5.626,6.197,5.555,6.504,5.52l0.81-0.096
		L7.372,5.608z M7.573,6.15L6.831,6.232C6.584,6.26,6.334,6.351,6.081,6.501L5.394,6.919L5.343,6.742l0.722-0.48
		c0.184-0.119,0.426-0.195,0.729-0.227l0.715-0.069L7.573,6.15z M7.681,6.646L6.988,6.742C6.801,6.769,6.588,6.86,6.354,7.017
		L5.582,7.524l-0.05-0.192l0.678-0.495C6.403,6.701,6.627,6.61,6.887,6.569l0.752-0.11L7.681,6.646z M6.945,7.922
		c0,0.102-0.084,0.295-0.253,0.584C6.524,8.794,6.397,8.94,6.31,8.94c-0.091,0-0.138-0.02-0.138-0.057
		c0-0.027,0.082-0.178,0.242-0.453c0.161-0.273,0.242-0.449,0.242-0.527c0-0.041-0.012-0.101-0.035-0.176
		C6.596,7.651,6.584,7.595,6.584,7.559c0-0.05,0.043-0.076,0.131-0.076C6.868,7.482,6.945,7.629,6.945,7.922z M6.713,10.559
		c0-0.133-0.056-0.199-0.166-0.199s-0.166,0.066-0.166,0.199s0.056,0.199,0.166,0.199C6.659,10.758,6.713,10.692,6.713,10.559z
		 M7.826,11.836h-1.22v-0.783c0.236-0.123,0.398-0.238,0.49-0.347c0.093-0.106,0.164-0.28,0.218-0.519h0.512V11.836z M7.637,7.922
		c0,0.105-0.09,0.307-0.273,0.604C7.172,8.838,7.027,8.994,6.931,8.994c-0.072,0-0.108-0.019-0.108-0.056s0.084-0.194,0.253-0.474
		c0.169-0.278,0.253-0.455,0.253-0.528c0-0.041-0.016-0.102-0.043-0.182c-0.029-0.08-0.044-0.141-0.044-0.182
		c0-0.046,0.048-0.069,0.144-0.069C7.553,7.503,7.637,7.643,7.637,7.922z M7.732,4.612c0,0.21-0.086,0.315-0.261,0.315
		c-0.206,0-0.309-0.125-0.309-0.377c0-0.21,0.086-0.316,0.26-0.316C7.627,4.234,7.732,4.36,7.732,4.612z M7.566,11.768v-1.477H7.364
		v1.477H7.566z M8.295,7.847c0,0.109-0.097,0.324-0.289,0.646c-0.197,0.333-0.344,0.5-0.44,0.5c-0.071,0-0.108-0.022-0.108-0.068
		c0-0.051,0.086-0.222,0.262-0.512C7.896,8.123,7.985,7.94,7.985,7.868c0-0.041-0.016-0.104-0.044-0.184s-0.043-0.14-0.043-0.182
		c0-0.041,0.026-0.062,0.079-0.062C8.189,7.441,8.295,7.577,8.295,7.847z M8.917,7.847c0,0.119-0.088,0.313-0.261,0.583
		c-0.183,0.284-0.33,0.426-0.44,0.426c-0.086,0-0.131-0.014-0.131-0.041c0-0.045,0.098-0.201,0.289-0.467
		c0.192-0.266,0.289-0.426,0.289-0.479c0-0.046-0.027-0.107-0.078-0.187C8.536,7.604,8.51,7.545,8.51,7.503
		c0-0.06,0.062-0.089,0.182-0.089C8.84,7.415,8.917,7.559,8.917,7.847z M9.355,7.696c0,0.146-0.067,0.348-0.201,0.604
		C9.033,8.501,8.891,8.643,8.728,8.727C8.795,8.608,8.865,8.489,8.937,8.37c0.13-0.225,0.194-0.426,0.194-0.604
		c0-0.047-0.02-0.105-0.056-0.179S9.023,7.47,9.023,7.458c0-0.06,0.071-0.089,0.216-0.089C9.317,7.367,9.355,7.477,9.355,7.696z"/>
</g>
</svg>
