<?xml version="1.0" encoding="utf-8"?>
<!-- Generator: Adobe Illustrator 15.1.0, SVG Export Plug-In . SVG Version: 6.00 Build 0)  -->
<!DOCTYPE svg PUBLIC "-//W3C//DTD SVG 1.1//EN" "http://www.w3.org/Graphics/SVG/1.1/DTD/svg11.dtd">
<svg version="1.1" id="Layer_1" xmlns="http://www.w3.org/2000/svg" xmlns:xlink="http://www.w3.org/1999/xlink" x="0px" y="0px"
	 width="14.172px" height="14.172px" viewBox="0 0 14.172 14.172" enable-background="new 0 0 14.172 14.172" xml:space="preserve">
<g enable-background="new    ">
	<path d="M2.184,6.797c0-1.372,0.484-2.542,1.452-3.51C4.603,2.32,5.773,1.836,7.145,1.836c1.373,0,2.542,0.484,3.509,1.451
		c0.968,0.968,1.452,2.138,1.452,3.51s-0.484,2.542-1.452,3.51c-0.968,0.969-2.137,1.451-3.509,1.451s-2.542-0.482-3.509-1.451
		C2.668,9.339,2.184,8.169,2.184,6.797z M5.991,3.667L3.819,3.82v0.57c0.16-0.013,0.333-0.02,0.519-0.02
		c0.173,0,0.283,0.036,0.33,0.107c0.046,0.072,0.07,0.242,0.07,0.51v3.68c0,0.264-0.026,0.442-0.077,0.536
		C4.61,9.298,4.507,9.352,4.352,9.364C4.099,9.382,3.922,9.391,3.82,9.391v0.551h3.104V9.391c-0.104,0-0.284-0.01-0.543-0.027
		C6.211,9.346,6.104,9.3,6.059,9.223C6.014,9.149,5.991,8.962,5.991,8.667V3.667z M8.836,10.063c0.615,0,1.121-0.309,1.519-0.922
		c0.397-0.615,0.599-1.396,0.599-2.344c0-0.948-0.199-1.729-0.599-2.346C9.958,3.834,9.452,3.525,8.836,3.525
		c-0.611,0-1.117,0.308-1.513,0.925C6.926,5.067,6.729,5.85,6.729,6.797c0,0.947,0.197,1.729,0.594,2.344
		C7.719,9.754,8.224,10.063,8.836,10.063z M8.836,9.485c-0.551,0-0.826-0.896-0.826-2.688s0.272-2.688,0.82-2.688
		c0.562,0,0.842,0.896,0.842,2.688S9.393,9.485,8.836,9.485z"/>
</g>
</svg>
