<?xml version="1.0" encoding="utf-8"?>
<!-- Generator: Adobe Illustrator 15.1.0, SVG Export Plug-In . SVG Version: 6.00 Build 0)  -->
<!DOCTYPE svg PUBLIC "-//W3C//DTD SVG 1.1//EN" "http://www.w3.org/Graphics/SVG/1.1/DTD/svg11.dtd">
<svg version="1.1" id="Layer_1" xmlns="http://www.w3.org/2000/svg" xmlns:xlink="http://www.w3.org/1999/xlink" x="0px" y="0px"
	 width="14.172px" height="14.172px" viewBox="0 0 14.172 14.172" enable-background="new 0 0 14.172 14.172" xml:space="preserve">
<g enable-background="new    ">
	<path d="M1.905,11.768V2.086h9.682v9.682H1.905z"/>
</g>
<g>
	<path fill="#FFFFFF" d="M8.748,3.444v5.267c0,0.387,0.019,0.828,0.036,1.125H8.082L8.045,9.081H8.018
		C7.785,9.567,7.262,9.935,6.551,9.935c-1.054,0-1.873-0.891-1.873-2.214c-0.009-1.45,0.9-2.332,1.954-2.332
		c0.675,0,1.116,0.315,1.314,0.657h0.018V3.444H8.748z M7.964,7.252c0-0.099-0.009-0.234-0.036-0.333
		C7.811,6.424,7.379,6.01,6.786,6.01c-0.82,0-1.306,0.72-1.306,1.674c0,0.883,0.441,1.612,1.287,1.612
		c0.531,0,1.018-0.36,1.161-0.945c0.027-0.108,0.036-0.216,0.036-0.343V7.252z"/>
</g>
</svg>
