<?xml version="1.0" encoding="utf-8"?>
<!-- Generator: Adobe Illustrator 15.1.0, SVG Export Plug-In . SVG Version: 6.00 Build 0)  -->
<!DOCTYPE svg PUBLIC "-//W3C//DTD SVG 1.1//EN" "http://www.w3.org/Graphics/SVG/1.1/DTD/svg11.dtd">
<svg version="1.1" id="Layer_1" xmlns="http://www.w3.org/2000/svg" xmlns:xlink="http://www.w3.org/1999/xlink" x="0px" y="0px"
	 width="14.172px" height="14.172px" viewBox="0 0 14.172 14.172" enable-background="new 0 0 14.172 14.172" xml:space="preserve">
<g enable-background="new    ">
	<path d="M3.667,10.303H5.12v0.072c0,0.201,0.056,0.385,0.168,0.549c0.112,0.162,0.284,0.287,0.518,0.373
		c0.234,0.084,0.493,0.125,0.777,0.125c0.299,0,0.576-0.068,0.835-0.207c0.258-0.137,0.444-0.352,0.558-0.635
		C8.092,10.292,8.15,9.663,8.15,8.686V1h1.443v7.715c0,1.223-0.13,2.057-0.39,2.508c-0.26,0.449-0.586,0.781-0.973,0.994
		c-0.386,0.215-0.91,0.322-1.575,0.322c-1.092,0-1.861-0.227-2.312-0.674c-0.451-0.453-0.676-0.949-0.676-1.49V10.303z"/>
</g>
</svg>
