<?xml version="1.0" encoding="utf-8"?>
<!-- Generator: Adobe Illustrator 15.1.0, SVG Export Plug-In . SVG Version: 6.00 Build 0)  -->
<!DOCTYPE svg PUBLIC "-//W3C//DTD SVG 1.1//EN" "http://www.w3.org/Graphics/SVG/1.1/DTD/svg11.dtd">
<svg version="1.1" id="Layer_1" xmlns="http://www.w3.org/2000/svg" xmlns:xlink="http://www.w3.org/1999/xlink" x="0px" y="0px"
	 width="14.172px" height="14.172px" viewBox="0 0 14.172 14.172" enable-background="new 0 0 14.172 14.172" xml:space="preserve">
<g enable-background="new    ">
	<path d="M9.971,9.023l2.602,2.613l-1.074,1.075l-2.603-2.603c-0.724,0.492-1.516,0.738-2.376,0.738c-1.154,0-2.142-0.41-2.96-1.229
		C2.739,8.798,2.33,7.811,2.33,6.658c0-1.155,0.41-2.142,1.229-2.961c0.819-0.819,1.806-1.229,2.96-1.229
		c1.154,0,2.141,0.41,2.96,1.229c0.819,0.819,1.229,1.806,1.229,2.961C10.709,7.524,10.463,8.314,9.971,9.023z M8.491,8.629
		c0.543-0.543,0.814-1.2,0.814-1.972c0-0.772-0.271-1.432-0.814-1.978c-0.543-0.547-1.2-0.819-1.971-0.819
		c-0.772,0-1.431,0.272-1.978,0.819C3.996,5.226,3.723,5.885,3.723,6.658c0,0.771,0.273,1.429,0.819,1.972S5.748,9.443,6.52,9.443
		C7.291,9.443,7.948,9.172,8.491,8.629z"/>
</g>
</svg>
