<?xml version="1.0" encoding="utf-8"?>
<!-- Generator: Adobe Illustrator 15.1.0, SVG Export Plug-In . SVG Version: 6.00 Build 0)  -->
<!DOCTYPE svg PUBLIC "-//W3C//DTD SVG 1.1//EN" "http://www.w3.org/Graphics/SVG/1.1/DTD/svg11.dtd">
<svg version="1.1" id="Layer_1" xmlns="http://www.w3.org/2000/svg" xmlns:xlink="http://www.w3.org/1999/xlink" x="0px" y="0px"
	 width="14.172px" height="14.172px" viewBox="0 0 14.172 14.172" enable-background="new 0 0 14.172 14.172" xml:space="preserve">
<path d="M5.63,2.168v3.444c0,0.104-0.053,0.156-0.156,0.156H2.029c-0.111,0-0.168-0.044-0.168-0.132c0-0.04,0.021-0.084,0.061-0.132
	L5.365,2.06C5.414,2.02,5.458,2,5.498,2C5.586,2,5.63,2.056,5.63,2.168z M5.63,11.648c0,0.111-0.044,0.168-0.132,0.168
	c-0.04,0-0.084-0.021-0.133-0.061L1.922,8.312C1.882,8.264,1.861,8.221,1.861,8.18c0-0.088,0.057-0.131,0.168-0.131h3.444
	c0.104,0,0.156,0.051,0.156,0.156V11.648z M11.653,7.34c0,0.096-0.048,0.144-0.144,0.144h-9.48c-0.096,0-0.144-0.048-0.144-0.144
	V6.476c0-0.096,0.048-0.144,0.144-0.144h9.48c0.096,0,0.144,0.048,0.144,0.144V7.34z M11.354,7.184V6.631H2.186v0.553H11.354z
	 M5.33,2.528l-2.94,2.94h2.94V2.528z M5.33,11.287V8.348H2.39L5.33,11.287z M6.338,11.791c-0.096,0-0.145-0.047-0.145-0.143v-9.48
	c0-0.096,0.049-0.144,0.145-0.144h0.864c0.096,0,0.144,0.048,0.144,0.144v9.48c0,0.096-0.048,0.143-0.144,0.143H6.338z
	 M6.494,11.492h0.552V2.324H6.494V11.492z M7.91,2.168C7.91,2.056,7.953,2,8.042,2c0.04,0,0.084,0.02,0.132,0.06l3.444,3.444
	c0.039,0.048,0.06,0.092,0.06,0.132c0,0.088-0.056,0.132-0.168,0.132H8.065c-0.104,0-0.155-0.052-0.155-0.156V2.168z M11.51,8.049
	c0.112,0,0.168,0.043,0.168,0.131c0,0.041-0.021,0.084-0.06,0.133l-3.444,3.443c-0.048,0.039-0.092,0.061-0.132,0.061
	c-0.089,0-0.132-0.057-0.132-0.168V8.205c0-0.105,0.052-0.156,0.155-0.156H11.51z M8.21,2.528v2.94h2.939L8.21,2.528z M11.149,8.348
	H8.21v2.939L11.149,8.348z"/>
</svg>
