<?xml version="1.0" encoding="utf-8"?>
<!-- Generator: Adobe Illustrator 15.1.0, SVG Export Plug-In . SVG Version: 6.00 Build 0)  -->
<!DOCTYPE svg PUBLIC "-//W3C//DTD SVG 1.1//EN" "http://www.w3.org/Graphics/SVG/1.1/DTD/svg11.dtd">
<svg version="1.1" id="Layer_1" xmlns="http://www.w3.org/2000/svg" xmlns:xlink="http://www.w3.org/1999/xlink" x="0px" y="0px"
	 width="14.172px" height="14.172px" viewBox="0 0 14.172 14.172" enable-background="new 0 0 14.172 14.172" xml:space="preserve">
<path d="M12.014,6.585l-1.652,0.918V6.952H8.839C8.788,7.134,8.712,7.283,8.611,7.4L9.26,8.054l0.148-0.26l1.231,2.001l-2.02-1.24
	L8.893,8.42L8.226,7.749c-0.119,0.077-0.263,0.136-0.43,0.175v1.594h0.551L7.429,11.17L6.511,9.518h0.551V7.924
	C6.931,7.885,6.79,7.824,6.641,7.74L5.96,8.42l0.331,0.221L4.219,9.795l1.235-2.001l0.139,0.259l0.681-0.68
	C6.175,7.248,6.107,7.107,6.072,6.952H4.491v0.551L2.844,6.585l1.647-0.918v0.551h1.581C6.117,6.06,6.184,5.919,6.273,5.797
	L5.593,5.116l-0.116,0.26L4.219,3.375l2.055,1.231L5.96,4.749L6.641,5.43c0.141-0.09,0.28-0.151,0.421-0.184V3.652H6.511L7.429,2
	l0.918,1.652H7.796v1.594c0.167,0.039,0.311,0.097,0.43,0.175l0.667-0.672L8.62,4.605l2.02-1.231L9.408,5.376L9.26,5.116L8.611,5.77
	c0.107,0.128,0.184,0.277,0.228,0.448h1.522V5.667L12.014,6.585z M7.953,6.585c0-0.194-0.089-0.337-0.265-0.43
	C7.607,6.11,7.521,6.088,7.429,6.088c-0.141,0-0.26,0.048-0.358,0.143C6.972,6.327,6.923,6.444,6.923,6.585
	c0,0.137,0.05,0.254,0.15,0.352c0.1,0.097,0.218,0.146,0.355,0.146c0.141,0,0.263-0.048,0.367-0.144
	C7.9,6.843,7.953,6.725,7.953,6.585z"/>
</svg>
