<?xml version="1.0" encoding="utf-8"?>
<!-- Generator: Adobe Illustrator 15.1.0, SVG Export Plug-In . SVG Version: 6.00 Build 0)  -->
<!DOCTYPE svg PUBLIC "-//W3C//DTD SVG 1.1//EN" "http://www.w3.org/Graphics/SVG/1.1/DTD/svg11.dtd">
<svg version="1.1" id="Layer_1" xmlns="http://www.w3.org/2000/svg" xmlns:xlink="http://www.w3.org/1999/xlink" x="0px" y="0px"
	 width="14.172px" height="14.172px" viewBox="0 0 14.172 14.172" enable-background="new 0 0 14.172 14.172" xml:space="preserve">
<path d="M1.937,6.751c0,0.12-0.058,0.18-0.175,0.18c-0.047,0-0.087-0.017-0.12-0.05c-0.043-0.033-0.065-0.077-0.065-0.13
	c0-0.05,0.022-0.092,0.065-0.125c0.033-0.033,0.073-0.05,0.12-0.05c0.042,0,0.083,0.019,0.12,0.055
	C1.918,6.668,1.937,6.708,1.937,6.751z M2.211,8.213c0,0.044-0.016,0.084-0.049,0.12c-0.034,0.036-0.074,0.056-0.12,0.056
	c-0.057,0-0.103-0.02-0.135-0.056c-0.034-0.036-0.05-0.076-0.05-0.12c0-0.047,0.016-0.088,0.05-0.125
	C1.94,8.051,1.986,8.033,2.042,8.033C2.155,8.033,2.211,8.093,2.211,8.213z M2.248,5.334c0,0.047-0.02,0.088-0.058,0.123
	C2.151,5.492,2.109,5.509,2.062,5.509c-0.117,0-0.176-0.058-0.176-0.175c0-0.123,0.059-0.185,0.176-0.185
	C2.186,5.149,2.248,5.211,2.248,5.334z M2.698,6.751c0,0.177-0.082,0.265-0.245,0.265c-0.078,0-0.136-0.028-0.176-0.085
	c-0.05-0.053-0.076-0.113-0.076-0.18c0-0.167,0.084-0.25,0.251-0.25C2.616,6.501,2.698,6.584,2.698,6.751z M2.934,7.998
	c0,0.174-0.082,0.26-0.246,0.26c-0.07,0-0.128-0.027-0.174-0.085C2.456,8.126,2.428,8.068,2.428,7.998
	c0-0.066,0.028-0.123,0.085-0.17c0.046-0.051,0.104-0.076,0.174-0.076C2.852,7.752,2.934,7.834,2.934,7.998z M2.983,5.55
	c0,0.17-0.082,0.255-0.246,0.255c-0.164,0-0.246-0.085-0.246-0.255c0-0.061,0.024-0.119,0.07-0.175
	c0.047-0.047,0.106-0.07,0.176-0.07C2.902,5.304,2.983,5.386,2.983,5.55z M2.903,9.509c0,0.114-0.058,0.171-0.175,0.171
	c-0.057,0-0.103-0.018-0.135-0.055c-0.034-0.037-0.05-0.076-0.05-0.116c0-0.122,0.062-0.185,0.186-0.185
	c0.046,0,0.087,0.015,0.123,0.045C2.885,9.4,2.903,9.445,2.903,9.509z M3.003,4.042c0,0.117-0.062,0.175-0.186,0.175
	c-0.117,0-0.175-0.059-0.175-0.175c0-0.124,0.058-0.185,0.175-0.185c0.05,0,0.094,0.018,0.13,0.052
	C2.985,3.945,3.003,3.989,3.003,4.042z M3.708,6.781c0,0.261-0.125,0.391-0.375,0.391c-0.1,0-0.189-0.041-0.266-0.12
	c-0.077-0.081-0.115-0.17-0.115-0.271c0-0.253,0.126-0.38,0.381-0.38c0.096,0,0.184,0.039,0.26,0.118
	C3.67,6.597,3.708,6.684,3.708,6.781z M3.549,9.09c0,0.17-0.087,0.254-0.261,0.254c-0.164,0-0.245-0.084-0.245-0.254
	c0-0.168,0.081-0.252,0.245-0.252C3.462,8.838,3.549,8.922,3.549,9.09z M3.619,4.463c0,0.073-0.024,0.133-0.073,0.177
	C3.498,4.686,3.44,4.708,3.374,4.708c-0.177,0-0.266-0.082-0.266-0.245c0-0.164,0.088-0.246,0.266-0.246
	C3.537,4.218,3.619,4.299,3.619,4.463z M3.904,7.752c0,0.24-0.122,0.361-0.366,0.361c-0.26,0-0.39-0.121-0.39-0.361
	c0-0.25,0.13-0.375,0.39-0.375c0.101,0,0.189,0.037,0.267,0.11C3.871,7.564,3.904,7.652,3.904,7.752z M3.96,5.825
	c0,0.261-0.124,0.391-0.372,0.391c-0.11,0-0.199-0.04-0.265-0.12C3.247,6.019,3.208,5.928,3.208,5.825
	c0-0.243,0.126-0.366,0.38-0.366C3.836,5.459,3.96,5.582,3.96,5.825z M3.904,10.512c0,0.043-0.017,0.082-0.05,0.119
	c-0.033,0.037-0.073,0.055-0.12,0.055c-0.124,0-0.185-0.059-0.185-0.174c0-0.125,0.061-0.186,0.185-0.186
	C3.847,10.326,3.904,10.387,3.904,10.512z M4.38,8.623c0,0.255-0.13,0.381-0.391,0.381c-0.247,0-0.37-0.126-0.37-0.381
	c0-0.243,0.124-0.365,0.37-0.365C4.25,8.258,4.38,8.38,4.38,8.623z M4.46,4.983c0,0.254-0.124,0.381-0.37,0.381
	c-0.253,0-0.381-0.127-0.381-0.381c0-0.243,0.128-0.365,0.381-0.365C4.336,4.618,4.46,4.74,4.46,4.983z M4.109,3.046
	c0,0.124-0.057,0.186-0.17,0.186c-0.13,0-0.195-0.062-0.195-0.186c0-0.046,0.019-0.087,0.056-0.122
	c0.037-0.035,0.083-0.053,0.14-0.053c0.054,0,0.095,0.018,0.125,0.053C4.094,2.958,4.109,3,4.109,3.046z M4.43,10
	c0,0.178-0.082,0.266-0.246,0.266c-0.164,0-0.246-0.088-0.246-0.266c0-0.164,0.082-0.245,0.246-0.245
	C4.349,9.755,4.43,9.836,4.43,10z M5.195,6.215c0,0.164-0.051,0.298-0.154,0.406c-0.104,0.107-0.239,0.16-0.405,0.16
	c-0.154,0-0.288-0.056-0.403-0.167C4.117,6.501,4.059,6.369,4.059,6.215c0-0.163,0.056-0.3,0.166-0.411S4.472,5.64,4.636,5.64
	c0.166,0,0.302,0.053,0.405,0.16S5.195,6.045,5.195,6.215z M5.195,7.427c0,0.157-0.054,0.292-0.162,0.403S4.792,7.998,4.636,7.998
	c-0.154,0-0.288-0.057-0.403-0.17C4.117,7.714,4.059,7.581,4.059,7.427c0-0.15,0.059-0.283,0.176-0.4
	c0.117-0.117,0.25-0.175,0.401-0.175c0.166,0,0.302,0.053,0.405,0.16C5.145,7.118,5.195,7.257,5.195,7.427z M4.596,3.612
	c0,0.163-0.088,0.245-0.26,0.245c-0.164,0-0.246-0.082-0.246-0.245c0-0.164,0.082-0.246,0.246-0.246
	C4.508,3.367,4.596,3.448,4.596,3.612z M5.106,9.279c0,0.109-0.034,0.203-0.101,0.279C4.93,9.633,4.839,9.67,4.735,9.67
	c-0.26,0-0.39-0.131-0.39-0.391c0-0.244,0.13-0.365,0.39-0.365C4.982,8.914,5.106,9.035,5.106,9.279z M5.23,4.328
	c0,0.24-0.123,0.36-0.37,0.36c-0.253,0-0.381-0.12-0.381-0.36c0-0.244,0.128-0.365,0.381-0.365C5.107,3.963,5.23,4.084,5.23,4.328z
	 M6.026,8.428c0,0.158-0.053,0.293-0.162,0.406c-0.108,0.113-0.241,0.17-0.397,0.17c-0.15,0-0.286-0.057-0.406-0.17
	S4.88,8.586,4.88,8.428c0-0.156,0.06-0.291,0.176-0.402C5.173,7.913,5.31,7.857,5.467,7.857c0.156,0,0.289,0.056,0.397,0.168
	C5.974,8.137,6.026,8.271,6.026,8.428z M6.072,5.219c0,0.164-0.057,0.303-0.17,0.416c-0.113,0.114-0.252,0.17-0.416,0.17
	c-0.146,0-0.277-0.059-0.394-0.175C4.979,5.513,4.921,5.376,4.921,5.219c0-0.153,0.056-0.287,0.168-0.4
	c0.111-0.114,0.243-0.17,0.397-0.17c0.16,0,0.298,0.055,0.413,0.166C6.015,4.923,6.072,5.059,6.072,5.219z M5.301,11.241
	c0,0.047-0.018,0.084-0.053,0.115s-0.078,0.046-0.132,0.046c-0.047,0-0.088-0.015-0.123-0.046S4.94,11.288,4.94,11.241
	c0-0.123,0.059-0.184,0.176-0.184C5.239,11.058,5.301,11.118,5.301,11.241z M5.546,10.562c0,0.166-0.081,0.249-0.245,0.249
	c-0.177,0-0.266-0.083-0.266-0.249c0-0.163,0.089-0.245,0.266-0.245C5.465,10.316,5.546,10.398,5.546,10.562z M5.477,2.39
	c0,0.117-0.059,0.175-0.176,0.175c-0.123,0-0.185-0.058-0.185-0.175c0-0.046,0.018-0.089,0.053-0.127
	c0.034-0.038,0.079-0.058,0.132-0.058C5.418,2.205,5.477,2.267,5.477,2.39z M5.752,3.066c0,0.167-0.082,0.25-0.246,0.25
	c-0.163,0-0.244-0.083-0.244-0.25c0-0.073,0.02-0.138,0.06-0.196c0.047-0.046,0.108-0.07,0.185-0.07
	C5.67,2.801,5.752,2.889,5.752,3.066z M6.026,9.755c0,0.25-0.13,0.376-0.39,0.376c-0.244,0-0.365-0.126-0.365-0.376
	c0-0.247,0.121-0.37,0.365-0.37c0.103,0,0.197,0.033,0.279,0.1C5.99,9.562,6.026,9.65,6.026,9.755z M6.122,3.917
	c0,0.247-0.124,0.371-0.37,0.371c-0.247,0-0.37-0.124-0.37-0.371c0-0.25,0.123-0.375,0.37-0.375
	C5.998,3.542,6.122,3.667,6.122,3.917z M7.76,6.526c0,0.184-0.063,0.347-0.191,0.49L6.703,7.998L5.842,7.016
	c-0.127-0.143-0.19-0.307-0.19-0.49c0-0.157,0.061-0.292,0.184-0.406c0.121-0.113,0.261-0.17,0.418-0.17
	c0.083,0,0.174,0.03,0.27,0.09c0.087,0.07,0.147,0.17,0.181,0.3C6.74,6.204,6.804,6.1,6.898,6.03c0.097-0.054,0.183-0.08,0.261-0.08
	c0.162,0,0.304,0.055,0.423,0.165C7.699,6.225,7.76,6.362,7.76,6.526z M7.279,8.828c0,0.161-0.054,0.295-0.16,0.403
	c-0.107,0.109-0.24,0.163-0.401,0.163c-0.153,0-0.288-0.059-0.402-0.178C6.199,9.099,6.143,8.97,6.143,8.828
	c0-0.38,0.191-0.57,0.575-0.57C7.092,8.258,7.279,8.448,7.279,8.828z M7.363,4.854c0,0.164-0.053,0.3-0.159,0.408
	C7.097,5.37,6.961,5.424,6.798,5.424c-0.159,0-0.296-0.055-0.407-0.165c-0.112-0.11-0.168-0.246-0.168-0.406
	s0.056-0.294,0.168-0.403c0.111-0.108,0.248-0.163,0.407-0.163c0.157,0,0.29,0.055,0.4,0.165C7.309,4.563,7.363,4.697,7.363,4.854z
	 M7.043,9.915c0,0.247-0.126,0.37-0.38,0.37c-0.251,0-0.375-0.123-0.375-0.37c0-0.101,0.036-0.188,0.11-0.265
	C6.475,9.59,6.562,9.559,6.663,9.559c0.103,0,0.193,0.031,0.27,0.092C7.006,9.728,7.043,9.814,7.043,9.915z M6.908,10.791
	c0,0.163-0.082,0.245-0.245,0.245c-0.17,0-0.255-0.082-0.255-0.245c0-0.18,0.085-0.271,0.255-0.271
	C6.826,10.52,6.908,10.611,6.908,10.791z M7.188,3.777c0,0.251-0.127,0.376-0.38,0.376c-0.098,0-0.185-0.039-0.264-0.115
	C6.467,3.961,6.428,3.874,6.428,3.777c0-0.253,0.126-0.38,0.381-0.38c0.109,0,0.201,0.034,0.275,0.101
	C7.153,3.573,7.188,3.667,7.188,3.777z M6.798,11.457c0,0.124-0.064,0.186-0.194,0.186c-0.117,0-0.176-0.062-0.176-0.186
	c0-0.118,0.059-0.175,0.176-0.175c0.052,0,0.102,0.016,0.145,0.051C6.781,11.365,6.798,11.407,6.798,11.457z M7.043,2.896
	c0,0.17-0.082,0.255-0.245,0.255c-0.07,0-0.128-0.028-0.175-0.085c-0.047-0.046-0.07-0.104-0.07-0.17c0-0.167,0.082-0.25,0.245-0.25
	S7.043,2.729,7.043,2.896z M6.993,2.185c0,0.05-0.017,0.092-0.051,0.125C6.9,2.344,6.854,2.36,6.809,2.36
	c-0.117,0-0.176-0.059-0.176-0.175c0-0.046,0.018-0.089,0.053-0.128C6.72,2.019,6.762,2,6.809,2C6.854,2,6.9,2.019,6.942,2.055
	C6.977,2.095,6.993,2.139,6.993,2.185z M8.06,9.805c0,0.262-0.123,0.391-0.37,0.391c-0.11,0-0.198-0.037-0.265-0.114
	c-0.078-0.074-0.116-0.166-0.116-0.276c0-0.109,0.038-0.199,0.116-0.266C7.491,9.47,7.579,9.435,7.689,9.435
	C7.937,9.435,8.06,9.559,8.06,9.805z M8.521,8.504c0,0.153-0.057,0.287-0.168,0.402S8.107,9.078,7.955,9.078
	c-0.164,0-0.302-0.054-0.414-0.164c-0.111-0.11-0.167-0.247-0.167-0.41c0-0.161,0.057-0.295,0.171-0.403
	c0.112-0.108,0.25-0.163,0.41-0.163c0.149,0,0.281,0.057,0.396,0.17C8.464,8.221,8.521,8.354,8.521,8.504z M8.581,5.324
	c0,0.157-0.055,0.291-0.163,0.4C8.309,5.835,8.177,5.89,8.02,5.89c-0.153,0-0.288-0.056-0.403-0.167
	C7.502,5.61,7.444,5.478,7.444,5.324c0-0.15,0.058-0.287,0.175-0.411c0.116-0.123,0.251-0.185,0.4-0.185
	c0.164,0,0.298,0.059,0.402,0.175C8.528,5.021,8.581,5.161,8.581,5.324z M8.199,3.963c0,0.243-0.121,0.365-0.365,0.365
	c-0.254,0-0.38-0.122-0.38-0.365c0-0.261,0.126-0.391,0.38-0.391c0.101,0,0.188,0.037,0.266,0.11
	C8.167,3.766,8.199,3.859,8.199,3.963z M8.255,10.636c0,0.164-0.081,0.245-0.245,0.245c-0.167,0-0.25-0.081-0.25-0.245
	c0-0.076,0.025-0.138,0.074-0.186c0.04-0.052,0.1-0.079,0.176-0.079C8.174,10.371,8.255,10.459,8.255,10.636z M8.335,3.086
	c0,0.167-0.085,0.25-0.256,0.25c-0.163,0-0.245-0.083-0.245-0.25c0-0.164,0.082-0.246,0.245-0.246
	C8.25,2.841,8.335,2.923,8.335,3.086z M8.375,11.251c0,0.125-0.059,0.187-0.176,0.187c-0.053,0-0.096-0.022-0.13-0.065
	c-0.033-0.033-0.05-0.074-0.05-0.121c0-0.117,0.06-0.174,0.18-0.174C8.316,11.077,8.375,11.134,8.375,11.251z M8.49,2.431
	c0,0.117-0.058,0.175-0.175,0.175c-0.123,0-0.186-0.058-0.186-0.175c0-0.121,0.062-0.181,0.186-0.181
	C8.433,2.25,8.49,2.31,8.49,2.431z M9.381,7.497c0,0.15-0.058,0.283-0.175,0.4c-0.116,0.116-0.25,0.175-0.4,0.175
	c-0.154,0-0.287-0.057-0.4-0.172C8.291,7.785,8.234,7.65,8.234,7.497c0-0.164,0.055-0.298,0.163-0.406
	c0.109-0.107,0.244-0.16,0.408-0.16c0.154,0,0.288,0.056,0.403,0.168S9.381,7.344,9.381,7.497z M9.001,9.385
	c0,0.253-0.127,0.38-0.381,0.38c-0.097,0-0.184-0.04-0.26-0.118C8.283,9.568,8.244,9.48,8.244,9.385
	c0-0.254,0.126-0.381,0.376-0.381c0.104,0,0.193,0.037,0.269,0.111C8.963,9.192,9.001,9.281,9.001,9.385z M9.422,6.31
	c0,0.15-0.059,0.281-0.173,0.393C9.133,6.815,9.001,6.871,8.851,6.871c-0.159,0-0.294-0.058-0.401-0.175
	C8.333,6.589,8.275,6.46,8.275,6.31c0-0.156,0.057-0.292,0.17-0.405c0.113-0.114,0.249-0.17,0.405-0.17
	c0.16,0,0.296,0.056,0.406,0.167S9.422,6.15,9.422,6.31z M9.096,4.403c0,0.237-0.123,0.355-0.37,0.355
	c-0.104,0-0.188-0.033-0.255-0.101C8.393,4.595,8.354,4.51,8.354,4.403c0-0.254,0.124-0.38,0.371-0.38
	c0.103,0,0.191,0.033,0.266,0.1C9.062,4.2,9.096,4.293,9.096,4.403z M9.342,10.07c0,0.164-0.082,0.246-0.246,0.246
	c-0.163,0-0.245-0.082-0.245-0.246c0-0.061,0.023-0.118,0.069-0.175c0.047-0.047,0.106-0.069,0.176-0.069
	C9.26,9.826,9.342,9.906,9.342,10.07z M9.462,3.682c0,0.164-0.082,0.245-0.246,0.245c-0.163,0-0.245-0.082-0.245-0.245
	c0-0.163,0.082-0.245,0.245-0.245C9.38,3.437,9.462,3.519,9.462,3.682z M9.731,8.709c0,0.246-0.123,0.369-0.37,0.369
	c-0.11,0-0.202-0.037-0.275-0.113C9.009,8.897,8.971,8.812,8.971,8.709c0-0.261,0.131-0.391,0.391-0.391
	C9.608,8.318,9.731,8.448,9.731,8.709z M9.812,5.089c0,0.247-0.125,0.37-0.371,0.37c-0.25,0-0.376-0.123-0.376-0.37
	c0-0.104,0.037-0.196,0.11-0.278s0.163-0.123,0.266-0.123C9.688,4.688,9.812,4.822,9.812,5.089z M9.687,10.597
	c0,0.113-0.06,0.17-0.18,0.17c-0.117,0-0.176-0.057-0.176-0.17c0-0.124,0.059-0.186,0.176-0.186
	C9.627,10.411,9.687,10.473,9.687,10.597z M9.812,3.122c0,0.113-0.062,0.17-0.186,0.17c-0.117,0-0.176-0.057-0.176-0.17
	c0-0.124,0.059-0.185,0.176-0.185C9.75,2.937,9.812,2.998,9.812,3.122z M10.252,7.838c0,0.106-0.037,0.195-0.112,0.268
	c-0.075,0.071-0.168,0.107-0.278,0.107c-0.243,0-0.364-0.125-0.364-0.375c0-0.248,0.121-0.371,0.364-0.371
	c0.104,0,0.198,0.033,0.281,0.1C10.215,7.645,10.252,7.734,10.252,7.838z M10.283,5.95c0,0.26-0.128,0.39-0.381,0.39
	c-0.244,0-0.366-0.13-0.366-0.39c0-0.247,0.122-0.371,0.366-0.371c0.109,0,0.204,0.035,0.28,0.105
	C10.249,5.758,10.283,5.847,10.283,5.95z M10.488,6.901c0,0.261-0.131,0.391-0.391,0.391c-0.244,0-0.366-0.13-0.366-0.391
	c0-0.243,0.122-0.365,0.366-0.365c0.104,0,0.196,0.033,0.28,0.1C10.451,6.713,10.488,6.801,10.488,6.901z M10.293,9.219
	c0,0.164-0.089,0.246-0.266,0.246c-0.164,0-0.245-0.082-0.245-0.246c0-0.066,0.022-0.128,0.069-0.185
	c0.051-0.047,0.109-0.069,0.176-0.069c0.076,0,0.14,0.023,0.19,0.072C10.268,9.086,10.293,9.146,10.293,9.219z M10.388,4.573
	c0,0.077-0.025,0.135-0.075,0.175c-0.047,0.05-0.104,0.075-0.17,0.075c-0.168,0-0.251-0.083-0.251-0.25
	c0-0.17,0.083-0.255,0.251-0.255C10.306,4.318,10.388,4.403,10.388,4.573z M10.764,9.609c0,0.047-0.019,0.09-0.056,0.128
	c-0.036,0.038-0.079,0.058-0.125,0.058c-0.116,0-0.176-0.061-0.176-0.186c0-0.115,0.06-0.175,0.176-0.175
	C10.703,9.435,10.764,9.494,10.764,9.609z M10.929,8.113c0,0.163-0.086,0.244-0.256,0.244c-0.164,0-0.245-0.081-0.245-0.244
	c0-0.067,0.023-0.129,0.07-0.186c0.05-0.047,0.108-0.07,0.175-0.07C10.843,7.857,10.929,7.943,10.929,8.113z M10.979,5.694
	c0,0.061-0.027,0.114-0.08,0.161c-0.047,0.057-0.103,0.085-0.166,0.085c-0.177,0-0.265-0.082-0.265-0.246
	c0-0.076,0.026-0.136,0.077-0.18c0.053-0.043,0.115-0.065,0.188-0.065C10.896,5.449,10.979,5.531,10.979,5.694z M10.888,4.168
	c0,0.126-0.061,0.19-0.185,0.19c-0.047,0-0.088-0.018-0.123-0.055c-0.035-0.037-0.053-0.082-0.053-0.135
	c0-0.124,0.06-0.186,0.176-0.186C10.827,3.982,10.888,4.044,10.888,4.168z M11.219,6.911c0,0.174-0.083,0.261-0.25,0.261
	c-0.066,0-0.127-0.028-0.181-0.085c-0.057-0.047-0.085-0.105-0.085-0.175c0-0.164,0.089-0.246,0.266-0.246
	C11.136,6.666,11.219,6.748,11.219,6.911z M11.534,8.318c0,0.123-0.062,0.186-0.186,0.186c-0.054,0-0.093-0.021-0.12-0.061
	c-0.037-0.037-0.055-0.078-0.055-0.125c0-0.117,0.058-0.176,0.175-0.176C11.472,8.143,11.534,8.201,11.534,8.318z M11.574,5.459
	c0,0.047-0.021,0.089-0.06,0.126c-0.04,0.036-0.085,0.055-0.136,0.055c-0.04,0-0.078-0.019-0.115-0.055
	c-0.036-0.037-0.055-0.079-0.055-0.126c0-0.116,0.057-0.175,0.17-0.175c0.057,0,0.103,0.017,0.14,0.05S11.574,5.41,11.574,5.459z
	 M11.829,6.891c0,0.117-0.057,0.175-0.17,0.175c-0.124,0-0.185-0.059-0.185-0.175c0-0.124,0.061-0.185,0.185-0.185
	C11.772,6.706,11.829,6.768,11.829,6.891z"/>
</svg>
