<?xml version="1.0" encoding="utf-8"?>
<!-- Generator: Adobe Illustrator 15.1.0, SVG Export Plug-In . SVG Version: 6.00 Build 0)  -->
<!DOCTYPE svg PUBLIC "-//W3C//DTD SVG 1.1//EN" "http://www.w3.org/Graphics/SVG/1.1/DTD/svg11.dtd">
<svg version="1.1" id="Layer_1" xmlns="http://www.w3.org/2000/svg" xmlns:xlink="http://www.w3.org/1999/xlink" x="0px" y="0px"
	 width="14.172px" height="14.172px" viewBox="0 0 14.172 14.172" enable-background="new 0 0 14.172 14.172" xml:space="preserve">
<g enable-background="new    ">
	<path d="M11.861,6.128c0,0.124-0.097,0.246-0.293,0.361c-0.233,0.109-0.587,0.28-1.062,0.514C9.963,7.276,9.375,7.586,8.746,7.938
		c0,0.317,0.023,0.802,0.069,1.452c0.047,0.648,0.07,1.142,0.07,1.476c0,0.295-0.109,0.444-0.327,0.444
		c-0.116,0-0.233-0.075-0.35-0.223c-0.078-0.101-0.188-0.253-0.327-0.455C7.57,10.205,7.174,9.708,6.692,9.139
		c-0.545,0.342-1.066,0.692-1.563,1.05c-0.312,0.249-0.786,0.607-1.424,1.074c-0.109,0.077-0.207,0.116-0.292,0.116
		c-0.226,0-0.338-0.112-0.338-0.339c0-0.085,0.03-0.178,0.093-0.28c0.233-0.325,0.579-0.812,1.039-1.457
		c0.341-0.491,0.719-1.039,1.131-1.646c-1.112-1.151-2.163-2.096-3.15-2.835C2.032,4.721,1.81,4.558,1.522,4.332
		c-0.14-0.109-0.21-0.225-0.21-0.351c0-0.225,0.121-0.338,0.362-0.338c0.054,0,0.117,0.011,0.187,0.034
		c1.276,0.429,2.12,0.705,2.532,0.829C5.35,4.81,6.209,5.043,6.972,5.207C7.267,4.755,7.5,4.39,7.671,4.11
		C7.795,3.884,8,3.55,8.278,3.106c0.125-0.171,0.25-0.257,0.374-0.257c0.21,0,0.315,0.133,0.315,0.397
		c0,0.28-0.024,0.665-0.071,1.155C8.834,4.962,8.799,5.347,8.792,5.557c0.382,0.047,0.949,0.109,1.704,0.187
		c0.21,0,0.518,0.011,0.922,0.034C11.713,5.817,11.861,5.934,11.861,6.128z M6.54,5.884c-0.878-0.203-1.82-0.46-2.824-0.771
		C4.439,5.744,5.12,6.389,5.758,7.05C5.835,6.933,6.097,6.545,6.54,5.884z M6.202,8.579c-0.07-0.077-0.183-0.203-0.338-0.373
		c-0.171,0.24-0.428,0.606-0.77,1.098C5.443,9.077,5.812,8.835,6.202,8.579z M8.021,6.175C7.913,6.16,7.675,6.117,7.31,6.047
		C6.984,6.545,6.641,7.062,6.283,7.598C6.408,7.731,6.59,7.93,6.832,8.194C7.252,7.938,7.64,7.708,8,7.505
		C8,7.085,8.006,6.642,8.021,6.175z M8.034,9.618C8.026,9.337,8.018,8.914,8.01,8.345C7.746,8.501,7.516,8.636,7.322,8.753
		C7.555,9.019,7.792,9.306,8.034,9.618z M8.081,4.856L7.742,5.37l0.305,0.059L8.081,4.856z M9.983,6.432
		c-0.521-0.046-0.931-0.093-1.227-0.14c0,0.14-0.004,0.408-0.011,0.805C9.25,6.816,9.664,6.595,9.983,6.432z"/>
</g>
</svg>
